M48
; DRILL file {KiCad 8.0.1-rc2} date 2025-04-23T09:22:46+0200
; FORMAT={-:-/ absolute / inch / decimal}
; #@! TF.CreationDate,2025-04-23T09:22:46+02:00
; #@! TF.GenerationSoftware,Kicad,Pcbnew,8.0.1-rc2
; #@! TF.FileFunction,Plated,1,2,PTH
FMAT,2
INCH
; #@! TA.AperFunction,Plated,PTH,ViaDrill
T1C0.0118
; #@! TA.AperFunction,Plated,PTH,ComponentDrill
T2C0.0315
; #@! TA.AperFunction,Plated,PTH,ComponentDrill
T3C0.0394
; #@! TA.AperFunction,Plated,PTH,ComponentDrill
T4C0.0433
; #@! TA.AperFunction,Plated,PTH,ComponentDrill
T5C0.0866
%
G90
G05
T1
X4.378Y-3.6654
X4.4055Y-3.2244
X4.4252Y-4.2559
X4.4252Y-4.5354
X4.4252Y-4.7913
X4.6142Y-5.1181
X4.622Y-3.3189
X4.622Y-3.5
X4.622Y-3.6654
X4.622Y-3.8346
X4.622Y-4.0591
X4.6299Y-4.563
X4.6496Y-3.0433
X4.6507Y-3.1923
X4.7402Y-4.2756
X4.7835Y-4.8701
X4.8228Y-5.1181
X4.8425Y-4.6969
X4.9236Y-4.378
X4.9252Y-4.4134
X4.9291Y-3.5472
X4.9331Y-4.7441
X4.9606Y-3.4409
X4.9606Y-3.6811
X4.9606Y-3.7913
X4.9744Y-3.8859
X4.9843Y-3.8465
X4.9882Y-3.0315
X5.0079Y-4.0827
X5.0079Y-4.2283
X5.0236Y-4.3543
X5.0236Y-4.7677
X5.0354Y-3.8504
X5.0984Y-3.5236
X5.1024Y-3.3346
X5.1024Y-3.685
X5.1063Y-3.2677
X5.1102Y-3.4055
X5.122Y-4.0512
X5.1339Y-4.3504
X5.1378Y-4.6417
X5.144Y-3.5778
X5.1457Y-3.8465
X5.1693Y-3.7953
X5.2008Y-3.5
X5.2244Y-3.0394
X5.2323Y-3.8189
X5.2362Y-3.9724
X5.2362Y-4.0709
X5.2426Y-3.1733
X5.2559Y-3.2756
X5.2717Y-4.2047
X5.2717Y-4.2717
X5.2795Y-4.8386
X5.2795Y-5.0906
X5.2874Y-4.6339
X5.3031Y-3.7126
X5.3031Y-4.063
X5.311Y-3.5
X5.311Y-3.7913
X5.3346Y-3.9409
X5.3898Y-3.685
X5.3898Y-3.9528
X5.3937Y-3.4921
X5.3937Y-3.6024
X5.3937Y-3.7992
X5.3937Y-4.0499
X5.3975Y-3.5421
X5.4173Y-3.0079
X5.4176Y-3.1256
X5.4409Y-3.3386
X5.4528Y-4.2756
X5.4646Y-3.685
X5.4724Y-4.1952
X5.4746Y-4.6548
X5.5Y-4.0669
X5.5039Y-3.9409
X5.5118Y-3.2205
X5.5157Y-3.4921
X5.5512Y-4.0187
X5.5881Y-3.7169
X5.626Y-4.3268
X5.626Y-4.7874
X5.626Y-5.0906
X5.6496Y-3.9409
X5.6811Y-2.9843
X5.6929Y-3.2717
X5.6969Y-3.4921
X5.7047Y-3.6969
X5.7165Y-4.3346
X5.7205Y-4.0709
X5.7283Y-4.7323
X5.7402Y-3.9331
X5.7638Y-3.815
X5.8031Y-4.3228
X5.815Y-4.0787
X5.8189Y-3.7283
X5.8504Y-3.4409
X5.8543Y-3.2756
X5.8543Y-3.3346
X5.8583Y-4.5551
X5.8583Y-4.7835
X5.8622Y-3.9331
X5.8622Y-4.6614
X5.8701Y-4.4331
X5.9292Y-3.3071
X5.937Y-4.3228
X5.9488Y-3.0236
X5.9685Y-5.0157
X5.9685Y-5.1181
X5.9814Y-3.2835
X6.0039Y-4.5354
X6.0236Y-4.3858
X6.0276Y-3.2913
X6.0512Y-3.7362
X6.0512Y-3.8898
X6.054Y-3.4803
X6.0551Y-4.0866
X6.0551Y-4.685
X6.1339Y-4.0866
X6.1535Y-2.9803
X6.1811Y-4.2402
X6.189Y-4.0945
X6.1969Y-5.1181
X6.2047Y-4.6654
X6.2195Y-3.2116
X6.2244Y-3.4764
X6.252Y-3.6457
X6.3622Y-3.2717
X6.3622Y-3.7913
X6.3622Y-4.0197
X6.3622Y-4.311
X6.3622Y-4.5276
X6.3622Y-4.8228
T2
X4.7913Y-3.1378
X4.7913Y-3.2165
X4.8701Y-3.1378
X4.8701Y-3.2165
X4.9488Y-3.1378
X4.9488Y-3.2165
X5.0276Y-3.1378
X5.0276Y-3.2165
X5.1063Y-3.1378
X5.1063Y-3.2165
X5.7608Y-3.1378
X5.7608Y-3.2165
X5.8396Y-3.1378
X5.8396Y-3.2165
X5.9183Y-3.1378
X5.9183Y-3.2165
X5.997Y-3.1378
X5.997Y-3.2165
X6.0758Y-3.1378
X6.0758Y-3.2165
T3
X4.5236Y-4.9567
X4.6236Y-4.9567
X4.7236Y-4.9567
X4.8236Y-4.9567
X4.9236Y-4.1567
X4.9236Y-4.9567
X5.0236Y-4.1567
X5.0236Y-4.9567
X5.1236Y-4.1567
X5.1236Y-4.9567
X5.2236Y-4.1567
X5.2236Y-4.9567
X5.3236Y-4.1567
X5.3236Y-4.9567
X5.4236Y-4.1567
X5.4236Y-4.9567
X5.5236Y-4.1567
X5.5236Y-4.9567
X5.6236Y-4.1567
X5.6236Y-4.9567
X5.7236Y-4.1567
X5.7236Y-4.9567
X5.8236Y-4.1567
X5.8236Y-4.9567
X5.9236Y-4.1567
X5.9236Y-4.9567
X6.0236Y-4.1567
X6.0236Y-4.9567
T4
X5.0563Y-3.965
X5.1563Y-3.965
X5.2Y-3.6299
X5.2039Y-3.4291
X5.3Y-3.6299
X5.3039Y-3.4291
X6.0602Y-3.9685
X6.1602Y-3.9685
T5
X4.3858Y-3.0236
X4.3858Y-5.1181
X6.4803Y-3.0236
X6.4803Y-5.1181
M30
