%TF.GenerationSoftware,KiCad,Pcbnew,8.0.1-rc2*%
%TF.CreationDate,2025-04-23T09:22:46+02:00*%
%TF.ProjectId,feather_mainboard,66656174-6865-4725-9f6d-61696e626f61,1*%
%TF.SameCoordinates,Original*%
%TF.FileFunction,Soldermask,Bot*%
%TF.FilePolarity,Negative*%
%FSLAX46Y46*%
G04 Gerber Fmt 4.6, Leading zero omitted, Abs format (unit mm)*
G04 Created by KiCad (PCBNEW 8.0.1-rc2) date 2025-04-23 09:22:46*
%MOMM*%
%LPD*%
G01*
G04 APERTURE LIST*
%ADD10C,1.778000*%
%ADD11C,3.800000*%
%ADD12C,1.854000*%
%ADD13C,1.512000*%
%ADD14C,0.900000*%
%ADD15C,1.000000*%
G04 APERTURE END LIST*
D10*
%TO.C,U1*%
X114900000Y-125900000D03*
X117440000Y-125900000D03*
X119980000Y-125900000D03*
X122520000Y-125900000D03*
X125060000Y-125900000D03*
X127600000Y-125900000D03*
X130140000Y-125900000D03*
X132680000Y-125900000D03*
X135220000Y-125900000D03*
X137760000Y-125900000D03*
X140300000Y-125900000D03*
X142840000Y-125900000D03*
X145380000Y-125900000D03*
X147920000Y-125900000D03*
X150460000Y-125900000D03*
X153000000Y-125900000D03*
X125060000Y-105580000D03*
X127600000Y-105580000D03*
X130140000Y-105580000D03*
X132680000Y-105580000D03*
X135220000Y-105580000D03*
X137760000Y-105580000D03*
X140300000Y-105580000D03*
X142840000Y-105580000D03*
X145380000Y-105580000D03*
X147920000Y-105580000D03*
X150460000Y-105580000D03*
X153000000Y-105580000D03*
%TD*%
D11*
%TO.C,H2*%
X111400000Y-76800000D03*
%TD*%
%TO.C,H3*%
X111400000Y-130000000D03*
%TD*%
D12*
%TO.C,J4*%
X132080000Y-92200000D03*
X134620000Y-92200000D03*
%TD*%
D13*
%TO.C,J3*%
X146325000Y-81700000D03*
X146325000Y-79700000D03*
X148325000Y-81700000D03*
X148325000Y-79700000D03*
X150325000Y-81700000D03*
X150325000Y-79700000D03*
X152325000Y-81700000D03*
X152325000Y-79700000D03*
X154325000Y-81700000D03*
X154325000Y-79700000D03*
%TD*%
D12*
%TO.C,J1*%
X128430000Y-100710000D03*
X130970000Y-100710000D03*
%TD*%
%TO.C,J2*%
X153930000Y-100800000D03*
X156470000Y-100800000D03*
%TD*%
D14*
%TO.C,J6*%
X112485000Y-88450000D03*
D15*
X112485000Y-96450000D03*
%TD*%
D12*
%TO.C,J5*%
X132180000Y-87100000D03*
X134720000Y-87100000D03*
%TD*%
D13*
%TO.C,J7*%
X121700000Y-81700000D03*
X121700000Y-79700000D03*
X123700000Y-81700000D03*
X123700000Y-79700000D03*
X125700000Y-81700000D03*
X125700000Y-79700000D03*
X127700000Y-81700000D03*
X127700000Y-79700000D03*
X129700000Y-81700000D03*
X129700000Y-79700000D03*
%TD*%
D11*
%TO.C,H1*%
X164600000Y-76800000D03*
%TD*%
%TO.C,H4*%
X164600000Y-130000000D03*
%TD*%
M02*
