%TF.GenerationSoftware,KiCad,Pcbnew,8.0.1-rc2*%
%TF.CreationDate,2025-04-23T09:22:46+02:00*%
%TF.ProjectId,feather_mainboard,66656174-6865-4725-9f6d-61696e626f61,1*%
%TF.SameCoordinates,Original*%
%TF.FileFunction,Soldermask,Top*%
%TF.FilePolarity,Negative*%
%FSLAX46Y46*%
G04 Gerber Fmt 4.6, Leading zero omitted, Abs format (unit mm)*
G04 Created by KiCad (PCBNEW 8.0.1-rc2) date 2025-04-23 09:22:46*
%MOMM*%
%LPD*%
G01*
G04 APERTURE LIST*
G04 Aperture macros list*
%AMRoundRect*
0 Rectangle with rounded corners*
0 $1 Rounding radius*
0 $2 $3 $4 $5 $6 $7 $8 $9 X,Y pos of 4 corners*
0 Add a 4 corners polygon primitive as box body*
4,1,4,$2,$3,$4,$5,$6,$7,$8,$9,$2,$3,0*
0 Add four circle primitives for the rounded corners*
1,1,$1+$1,$2,$3*
1,1,$1+$1,$4,$5*
1,1,$1+$1,$6,$7*
1,1,$1+$1,$8,$9*
0 Add four rect primitives between the rounded corners*
20,1,$1+$1,$2,$3,$4,$5,0*
20,1,$1+$1,$4,$5,$6,$7,0*
20,1,$1+$1,$6,$7,$8,$9,0*
20,1,$1+$1,$8,$9,$2,$3,0*%
G04 Aperture macros list end*
%ADD10RoundRect,0.102000X-0.300000X-0.450000X0.300000X-0.450000X0.300000X0.450000X-0.300000X0.450000X0*%
%ADD11RoundRect,0.102000X-0.400000X-0.400000X0.400000X-0.400000X0.400000X0.400000X-0.400000X0.400000X0*%
%ADD12C,1.778000*%
%ADD13C,3.800000*%
%ADD14C,1.854000*%
%ADD15C,1.512000*%
%ADD16RoundRect,0.102000X0.400000X0.400000X-0.400000X0.400000X-0.400000X-0.400000X0.400000X-0.400000X0*%
%ADD17C,0.900000*%
%ADD18C,1.000000*%
%ADD19RoundRect,0.102000X-0.950000X0.350000X-0.950000X-0.350000X0.950000X-0.350000X0.950000X0.350000X0*%
%ADD20RoundRect,0.102000X-0.900000X0.850000X-0.900000X-0.850000X0.900000X-0.850000X0.900000X0.850000X0*%
%ADD21RoundRect,0.102000X-1.300000X0.700000X-1.300000X-0.700000X1.300000X-0.700000X1.300000X0.700000X0*%
%ADD22R,0.568000X1.309599*%
%ADD23RoundRect,0.102000X0.300000X0.450000X-0.300000X0.450000X-0.300000X-0.450000X0.300000X-0.450000X0*%
%ADD24R,0.558800X1.320800*%
G04 APERTURE END LIST*
D10*
%TO.C,R1_5*%
X148350000Y-101996100D03*
X149850000Y-101996100D03*
%TD*%
D11*
%TO.C,C1_2*%
X119975000Y-120900000D03*
X121475000Y-120900000D03*
%TD*%
D10*
%TO.C,R1_1*%
X128450000Y-96400000D03*
X129950000Y-96400000D03*
%TD*%
D12*
%TO.C,U1*%
X114900000Y-125900000D03*
X117440000Y-125900000D03*
X119980000Y-125900000D03*
X122520000Y-125900000D03*
X125060000Y-125900000D03*
X127600000Y-125900000D03*
X130140000Y-125900000D03*
X132680000Y-125900000D03*
X135220000Y-125900000D03*
X137760000Y-125900000D03*
X140300000Y-125900000D03*
X142840000Y-125900000D03*
X145380000Y-125900000D03*
X147920000Y-125900000D03*
X150460000Y-125900000D03*
X153000000Y-125900000D03*
X125060000Y-105580000D03*
X127600000Y-105580000D03*
X130140000Y-105580000D03*
X132680000Y-105580000D03*
X135220000Y-105580000D03*
X137760000Y-105580000D03*
X140300000Y-105580000D03*
X142840000Y-105580000D03*
X145380000Y-105580000D03*
X147920000Y-105580000D03*
X150460000Y-105580000D03*
X153000000Y-105580000D03*
%TD*%
D13*
%TO.C,H2*%
X111400000Y-76800000D03*
%TD*%
D10*
%TO.C,R4_2*%
X155850000Y-109200000D03*
X157350000Y-109200000D03*
%TD*%
D13*
%TO.C,H3*%
X111400000Y-130000000D03*
%TD*%
D10*
%TO.C,R1_3*%
X156250000Y-97525000D03*
X157750000Y-97525000D03*
%TD*%
D14*
%TO.C,J4*%
X132080000Y-92200000D03*
X134620000Y-92200000D03*
%TD*%
D15*
%TO.C,J3*%
X146325000Y-81700000D03*
X146325000Y-79700000D03*
X148325000Y-81700000D03*
X148325000Y-79700000D03*
X150325000Y-81700000D03*
X150325000Y-79700000D03*
X152325000Y-81700000D03*
X152325000Y-79700000D03*
X154325000Y-81700000D03*
X154325000Y-79700000D03*
%TD*%
D14*
%TO.C,J1*%
X128430000Y-100710000D03*
X130970000Y-100710000D03*
%TD*%
D11*
%TO.C,C1_1*%
X119975000Y-117900000D03*
X121475000Y-117900000D03*
%TD*%
D16*
%TO.C,C1_4*%
X128850000Y-87100000D03*
X127350000Y-87100000D03*
%TD*%
D14*
%TO.C,J2*%
X153930000Y-100800000D03*
X156470000Y-100800000D03*
%TD*%
D17*
%TO.C,J6*%
X112485000Y-88450000D03*
D18*
X112485000Y-96450000D03*
D19*
X123535000Y-95650000D03*
X123535000Y-94550000D03*
X123535000Y-93450000D03*
X123535000Y-92350000D03*
X123535000Y-91250000D03*
X123535000Y-90150000D03*
X123535000Y-89050000D03*
X123535000Y-87950000D03*
X123535000Y-86850000D03*
D20*
X122485000Y-85300000D03*
X122485000Y-100800000D03*
D21*
X112885000Y-85550000D03*
X112885000Y-101250000D03*
%TD*%
D22*
%TO.C,U3*%
X147919999Y-98523900D03*
X149820001Y-98523900D03*
X148870000Y-96491900D03*
%TD*%
D14*
%TO.C,J5*%
X132180000Y-87100000D03*
X134720000Y-87100000D03*
%TD*%
D16*
%TO.C,C1_3*%
X136100000Y-98600000D03*
X134600000Y-98600000D03*
%TD*%
D10*
%TO.C,R2_1*%
X138650000Y-98600000D03*
X140150000Y-98600000D03*
%TD*%
%TO.C,R1_2*%
X152650000Y-97525000D03*
X154150000Y-97525000D03*
%TD*%
D23*
%TO.C,R3_1*%
X136050000Y-102000000D03*
X134550000Y-102000000D03*
%TD*%
D15*
%TO.C,J7*%
X121700000Y-81700000D03*
X121700000Y-79700000D03*
X123700000Y-81700000D03*
X123700000Y-79700000D03*
X125700000Y-81700000D03*
X125700000Y-79700000D03*
X127700000Y-81700000D03*
X127700000Y-79700000D03*
X129700000Y-81700000D03*
X129700000Y-79700000D03*
%TD*%
D16*
%TO.C,C2_1*%
X128850000Y-92350000D03*
X127350000Y-92350000D03*
%TD*%
D10*
%TO.C,R4_1*%
X155850000Y-106350000D03*
X157350000Y-106350000D03*
%TD*%
D23*
%TO.C,R1_4*%
X140150000Y-102000000D03*
X138650000Y-102000000D03*
%TD*%
D24*
%TO.C,U2*%
X142619999Y-98600000D03*
X144520001Y-98600000D03*
X143570000Y-96568000D03*
%TD*%
D13*
%TO.C,H1*%
X164600000Y-76800000D03*
%TD*%
%TO.C,H4*%
X164600000Y-130000000D03*
%TD*%
M02*
