%TF.GenerationSoftware,KiCad,Pcbnew,8.0.1-rc2*%
%TF.CreationDate,2025-04-21T15:53:20+02:00*%
%TF.ProjectId,feather_mainboard,66656174-6865-4725-9f6d-61696e626f61,1*%
%TF.SameCoordinates,Original*%
%TF.FileFunction,Copper,L1,Top*%
%TF.FilePolarity,Positive*%
%FSLAX46Y46*%
G04 Gerber Fmt 4.6, Leading zero omitted, Abs format (unit mm)*
G04 Created by KiCad (PCBNEW 8.0.1-rc2) date 2025-04-21 15:53:20*
%MOMM*%
%LPD*%
G01*
G04 APERTURE LIST*
%TA.AperFunction,SMDPad,CuDef*%
%ADD10R,0.600000X0.900000*%
%TD*%
%TA.AperFunction,SMDPad,CuDef*%
%ADD11R,0.800000X0.800000*%
%TD*%
%TA.AperFunction,ComponentPad*%
%ADD12C,1.676400*%
%TD*%
%TA.AperFunction,ComponentPad*%
%ADD13C,3.800000*%
%TD*%
%TA.AperFunction,ComponentPad*%
%ADD14C,1.650000*%
%TD*%
%TA.AperFunction,ComponentPad*%
%ADD15C,1.308000*%
%TD*%
%TA.AperFunction,SMDPad,CuDef*%
%ADD16R,1.900000X0.700000*%
%TD*%
%TA.AperFunction,SMDPad,CuDef*%
%ADD17R,1.800000X1.700000*%
%TD*%
%TA.AperFunction,SMDPad,CuDef*%
%ADD18R,2.600000X1.400000*%
%TD*%
%TA.AperFunction,SMDPad,CuDef*%
%ADD19R,0.568000X1.309599*%
%TD*%
%TA.AperFunction,SMDPad,CuDef*%
%ADD20R,0.558800X1.320800*%
%TD*%
%TA.AperFunction,ViaPad*%
%ADD21C,0.600000*%
%TD*%
%TA.AperFunction,Conductor*%
%ADD22C,0.300000*%
%TD*%
%TA.AperFunction,Conductor*%
%ADD23C,0.350000*%
%TD*%
%TA.AperFunction,Conductor*%
%ADD24C,0.400000*%
%TD*%
%TA.AperFunction,Conductor*%
%ADD25C,0.250000*%
%TD*%
%TA.AperFunction,Conductor*%
%ADD26C,0.200000*%
%TD*%
G04 APERTURE END LIST*
D10*
%TO.P,R1_5,1*%
%TO.N,Net-(U2-D)*%
X148350000Y-101996100D03*
%TO.P,R1_5,2*%
%TO.N,VCC*%
X149850000Y-101996100D03*
%TD*%
D11*
%TO.P,C1_2,1*%
%TO.N,VCC*%
X119975000Y-120900000D03*
%TO.P,C1_2,2*%
%TO.N,GND*%
X121475000Y-120900000D03*
%TD*%
D10*
%TO.P,R1_1,1*%
%TO.N,Net-(J1-Pad1)*%
X128450000Y-96400000D03*
%TO.P,R1_1,2*%
%TO.N,VCC*%
X129950000Y-96400000D03*
%TD*%
D12*
%TO.P,U1,1,Reset*%
%TO.N,/Microcontroller/Reset*%
X114900000Y-125900000D03*
%TO.P,U1,2,3V3*%
%TO.N,VCC*%
X117440000Y-125900000D03*
%TO.P,U1,3,3V3*%
X119980000Y-125900000D03*
%TO.P,U1,4,GND*%
%TO.N,GND*%
X122520000Y-125900000D03*
%TO.P,U1,5,A0*%
%TO.N,/Enable Pin/Enable Input*%
X125060000Y-125900000D03*
%TO.P,U1,6,A1*%
%TO.N,/Daughterboard Connector/Button_1*%
X127600000Y-125900000D03*
%TO.P,U1,7,A2*%
%TO.N,/Daughterboard Connector/Button_2*%
X130140000Y-125900000D03*
%TO.P,U1,8,A3*%
%TO.N,/Daughterboard Connector/Button_3*%
X132680000Y-125900000D03*
%TO.P,U1,9,A4*%
%TO.N,/Daughterboard Connector/Button_4*%
X135220000Y-125900000D03*
%TO.P,U1,10,A5*%
%TO.N,/Display Ports/DISPLAY_BUSY*%
X137760000Y-125900000D03*
%TO.P,U1,11,SCK*%
%TO.N,/Display Ports/DISPLAY_SCLK*%
X140300000Y-125900000D03*
%TO.P,U1,12,MOSI*%
%TO.N,/Display Ports/DISPLAY_MOSI{slash}DIN*%
X142840000Y-125900000D03*
%TO.P,U1,13,MISO*%
%TO.N,/Display Ports/DISPLAY_CS*%
X145380000Y-125900000D03*
%TO.P,U1,14,RX*%
%TO.N,/Display Ports/DISPLAY_DC*%
X147920000Y-125900000D03*
%TO.P,U1,15,TX*%
%TO.N,/Display Ports/DISPLAY_RST*%
X150460000Y-125900000D03*
%TO.P,U1,16,TXD0*%
%TO.N,unconnected-(U1-TXD0-Pad16)*%
X153000000Y-125900000D03*
%TO.P,U1,17,VBAT*%
%TO.N,unconnected-(U1-VBAT-Pad17)*%
X125060000Y-105580000D03*
%TO.P,U1,18,EN*%
%TO.N,unconnected-(U1-EN-Pad18)*%
X127600000Y-105580000D03*
%TO.P,U1,19,VBUS*%
%TO.N,unconnected-(U1-VBUS-Pad19)*%
X130140000Y-105580000D03*
%TO.P,U1,20,D13*%
%TO.N,/MicroSD-Card Adapter/SD_MOSI{slash}CMD*%
X132680000Y-105580000D03*
%TO.P,U1,21,D12*%
%TO.N,/MicroSD-Card Adapter/SD_CLK*%
X135220000Y-105580000D03*
%TO.P,U1,22,D11*%
%TO.N,/MicroSD-Card Adapter/SD_MISO{slash}DAT0*%
X137760000Y-105580000D03*
%TO.P,U1,23,D10*%
%TO.N,/MicroSD-Card Adapter/SD_CS{slash}DAT3*%
X140300000Y-105580000D03*
%TO.P,U1,24,D9*%
%TO.N,/MicroSD-Card Adapter/SD_DAT2*%
X142840000Y-105580000D03*
%TO.P,U1,25,D6*%
%TO.N,/MicroSD-Card Adapter/SD_DAT1*%
X145380000Y-105580000D03*
%TO.P,U1,26,D5*%
%TO.N,/MicroSD-Card Adapter/SD_CD*%
X147920000Y-105580000D03*
%TO.P,U1,27,SCL*%
%TO.N,/IIC Connector/SCL*%
X150460000Y-105580000D03*
%TO.P,U1,28,SDA*%
%TO.N,/IIC Connector/SDA*%
X153000000Y-105580000D03*
%TD*%
D13*
%TO.P,H2,1,1*%
%TO.N,GND*%
X111400000Y-76800000D03*
%TD*%
D10*
%TO.P,R4_2,1*%
%TO.N,/IIC Connector/SCL*%
X155850000Y-109200000D03*
%TO.P,R4_2,2*%
%TO.N,Net-(J2-Pad2)*%
X157350000Y-109200000D03*
%TD*%
D13*
%TO.P,H3,1,1*%
%TO.N,GND*%
X111400000Y-130000000D03*
%TD*%
D10*
%TO.P,R1_3,1*%
%TO.N,Net-(J2-Pad2)*%
X156250000Y-97525000D03*
%TO.P,R1_3,2*%
%TO.N,Enable VCC*%
X157750000Y-97525000D03*
%TD*%
D14*
%TO.P,J4,1*%
%TO.N,Net-(J6-DAT2)*%
X132080000Y-92200000D03*
%TO.P,J4,2*%
%TO.N,/MicroSD-Card Adapter/SD_DAT2*%
X134620000Y-92200000D03*
%TD*%
D15*
%TO.P,J3,1*%
%TO.N,unconnected-(J3-Pad1)*%
X146325000Y-81700000D03*
%TO.P,J3,2*%
%TO.N,/Display Ports/DISPLAY_BUSY*%
X146325000Y-79700000D03*
%TO.P,J3,3*%
%TO.N,/Display Ports/DISPLAY_RST*%
X148325000Y-81700000D03*
%TO.P,J3,4*%
%TO.N,/Display Ports/DISPLAY_DC*%
X148325000Y-79700000D03*
%TO.P,J3,5*%
%TO.N,/Display Ports/DISPLAY_CS*%
X150325000Y-81700000D03*
%TO.P,J3,6*%
%TO.N,/Display Ports/DISPLAY_SCLK*%
X150325000Y-79700000D03*
%TO.P,J3,7*%
%TO.N,/Display Ports/DISPLAY_MOSI{slash}DIN*%
X152325000Y-81700000D03*
%TO.P,J3,8*%
%TO.N,GND*%
X152325000Y-79700000D03*
%TO.P,J3,9*%
%TO.N,Enable VCC*%
X154325000Y-81700000D03*
%TO.P,J3,10*%
%TO.N,unconnected-(J3-Pad10)*%
X154325000Y-79700000D03*
%TD*%
D14*
%TO.P,J1,1*%
%TO.N,Net-(J1-Pad1)*%
X128430000Y-100710000D03*
%TO.P,J1,2*%
%TO.N,GND*%
X130970000Y-100710000D03*
%TD*%
D11*
%TO.P,C1_1,1*%
%TO.N,VCC*%
X119975000Y-117900000D03*
%TO.P,C1_1,2*%
%TO.N,GND*%
X121475000Y-117900000D03*
%TD*%
%TO.P,C1_4,1*%
%TO.N,GND*%
X128850000Y-87100000D03*
%TO.P,C1_4,2*%
%TO.N,Enable VCC*%
X127350000Y-87100000D03*
%TD*%
D14*
%TO.P,J2,1*%
%TO.N,Net-(J2-Pad1)*%
X153930000Y-100800000D03*
%TO.P,J2,2*%
%TO.N,Net-(J2-Pad2)*%
X156470000Y-100800000D03*
%TD*%
D16*
%TO.P,J6,1,DAT2*%
%TO.N,Net-(J6-DAT2)*%
X123535000Y-95650000D03*
%TO.P,J6,2,CD/DAT3*%
%TO.N,/MicroSD-Card Adapter/SD_CS{slash}DAT3*%
X123535000Y-94550000D03*
%TO.P,J6,3,CMD*%
%TO.N,/MicroSD-Card Adapter/SD_MOSI{slash}CMD*%
X123535000Y-93450000D03*
%TO.P,J6,4,VDD*%
%TO.N,Enable VCC*%
X123535000Y-92350000D03*
%TO.P,J6,5,CLK*%
%TO.N,/MicroSD-Card Adapter/SD_CLK*%
X123535000Y-91250000D03*
%TO.P,J6,6,VSS*%
%TO.N,GND*%
X123535000Y-90150000D03*
%TO.P,J6,7,DAT0*%
%TO.N,/MicroSD-Card Adapter/SD_MISO{slash}DAT0*%
X123535000Y-89050000D03*
%TO.P,J6,8,DAT1*%
%TO.N,Net-(J6-DAT1)*%
X123535000Y-87950000D03*
%TO.P,J6,9,CDSW1*%
%TO.N,/MicroSD-Card Adapter/SD_CD*%
X123535000Y-86850000D03*
D17*
%TO.P,J6,10,GND*%
%TO.N,GND*%
X122485000Y-85300000D03*
%TO.P,J6,11,GND__1*%
X122485000Y-100800000D03*
D18*
%TO.P,J6,12,GND__2*%
X112885000Y-85550000D03*
%TO.P,J6,13,GND__3*%
X112885000Y-101250000D03*
%TD*%
D19*
%TO.P,U3,1,G*%
%TO.N,Net-(U2-D)*%
X147919999Y-98523900D03*
%TO.P,U3,2,S*%
%TO.N,VCC*%
X149820001Y-98523900D03*
%TO.P,U3,3,D*%
%TO.N,Enable VCC*%
X148870000Y-96491900D03*
%TD*%
D14*
%TO.P,J5,1*%
%TO.N,Net-(J6-DAT1)*%
X132180000Y-87100000D03*
%TO.P,J5,2*%
%TO.N,/MicroSD-Card Adapter/SD_DAT1*%
X134720000Y-87100000D03*
%TD*%
D11*
%TO.P,C1_3,1*%
%TO.N,/Microcontroller/Reset*%
X136100000Y-98600000D03*
%TO.P,C1_3,2*%
%TO.N,GND*%
X134600000Y-98600000D03*
%TD*%
D10*
%TO.P,R2_1,1*%
%TO.N,/Enable Pin/Enable Input*%
X138650000Y-98600000D03*
%TO.P,R2_1,2*%
%TO.N,Net-(U2-G)*%
X140150000Y-98600000D03*
%TD*%
%TO.P,R1_2,1*%
%TO.N,Net-(J2-Pad1)*%
X152650000Y-97525000D03*
%TO.P,R1_2,2*%
%TO.N,Enable VCC*%
X154150000Y-97525000D03*
%TD*%
%TO.P,R3_1,1*%
%TO.N,/Microcontroller/Reset*%
X136050000Y-102000000D03*
%TO.P,R3_1,2*%
%TO.N,Net-(J1-Pad1)*%
X134550000Y-102000000D03*
%TD*%
D15*
%TO.P,J7,1*%
%TO.N,unconnected-(J7-Pad1)*%
X121700000Y-81700000D03*
%TO.P,J7,2*%
%TO.N,unconnected-(J7-Pad2)*%
X121700000Y-79700000D03*
%TO.P,J7,3*%
%TO.N,/Daughterboard Connector/Button_4*%
X123700000Y-81700000D03*
%TO.P,J7,4*%
%TO.N,GND*%
X123700000Y-79700000D03*
%TO.P,J7,5*%
%TO.N,/Daughterboard Connector/Button_3*%
X125700000Y-81700000D03*
%TO.P,J7,6*%
%TO.N,/Daughterboard Connector/Button_1*%
X125700000Y-79700000D03*
%TO.P,J7,7*%
%TO.N,/Daughterboard Connector/Button_2*%
X127700000Y-81700000D03*
%TO.P,J7,8*%
%TO.N,VCC*%
X127700000Y-79700000D03*
%TO.P,J7,9*%
%TO.N,unconnected-(J7-Pad9)*%
X129700000Y-81700000D03*
%TO.P,J7,10*%
%TO.N,unconnected-(J7-Pad10)*%
X129700000Y-79700000D03*
%TD*%
D11*
%TO.P,C2_1,1*%
%TO.N,GND*%
X128850000Y-92350000D03*
%TO.P,C2_1,2*%
%TO.N,Enable VCC*%
X127350000Y-92350000D03*
%TD*%
D10*
%TO.P,R4_1,1*%
%TO.N,/IIC Connector/SDA*%
X155850000Y-106350000D03*
%TO.P,R4_1,2*%
%TO.N,Net-(J2-Pad1)*%
X157350000Y-106350000D03*
%TD*%
%TO.P,R1_4,1*%
%TO.N,GND*%
X140150000Y-102000000D03*
%TO.P,R1_4,2*%
%TO.N,/Enable Pin/Enable Input*%
X138650000Y-102000000D03*
%TD*%
D20*
%TO.P,U2,1,G*%
%TO.N,Net-(U2-G)*%
X142619999Y-98600000D03*
%TO.P,U2,2,S*%
%TO.N,GND*%
X144520001Y-98600000D03*
%TO.P,U2,3,D*%
%TO.N,Net-(U2-D)*%
X143570000Y-96568000D03*
%TD*%
D13*
%TO.P,H1,1,1*%
%TO.N,GND*%
X164600000Y-76800000D03*
%TD*%
%TO.P,H4,1,1*%
%TO.N,GND*%
X164600000Y-130000000D03*
%TD*%
D21*
%TO.N,GND*%
X161600000Y-115000000D03*
X161600000Y-109500000D03*
%TO.N,VCC*%
X131300000Y-96400000D03*
%TO.N,GND*%
X138500000Y-108600000D03*
X125100000Y-112100000D03*
X130700000Y-97700000D03*
X144900000Y-93900000D03*
X132700000Y-77200000D03*
X134900000Y-96300000D03*
X157975000Y-81575000D03*
X148800000Y-115700000D03*
X157400000Y-130000000D03*
X142900000Y-121600000D03*
X117400000Y-84300000D03*
X127200000Y-107400000D03*
X153100000Y-83600000D03*
X148700000Y-84700000D03*
X155800000Y-103800000D03*
X134700000Y-103200000D03*
X112400000Y-115200000D03*
X129600000Y-84700000D03*
X141000000Y-102075000D03*
X153000000Y-111400000D03*
X132900000Y-97000000D03*
X161600000Y-122500000D03*
X117400000Y-103100000D03*
X127200000Y-103700000D03*
X134100000Y-129300000D03*
X123000000Y-119300000D03*
X149100000Y-112600000D03*
X111200000Y-93100000D03*
X138800000Y-93600000D03*
X145500000Y-120200000D03*
X127900000Y-97800000D03*
X145800000Y-99900000D03*
X148900000Y-118400000D03*
X143500000Y-100100000D03*
X140100000Y-88700000D03*
X133000000Y-100900000D03*
X135500000Y-100100000D03*
X134300000Y-117700000D03*
X120400000Y-108600000D03*
X148900000Y-99900000D03*
X148800000Y-121500000D03*
X130500000Y-117900000D03*
X147700000Y-103600000D03*
X157000000Y-107700000D03*
X117600000Y-115900000D03*
X144600000Y-83100000D03*
X153800000Y-119000000D03*
X125200000Y-90100000D03*
X146400000Y-96900000D03*
X130100000Y-102900000D03*
X151600000Y-130000000D03*
X133161588Y-80602041D03*
X139055545Y-118232949D03*
X137000000Y-91500000D03*
X111900000Y-81900000D03*
X157600000Y-118500000D03*
X161600000Y-102100000D03*
X140000000Y-81800000D03*
X133900000Y-108500000D03*
X153700000Y-94900000D03*
X137000000Y-88700000D03*
X137600000Y-76400000D03*
X137000000Y-96500000D03*
X151600000Y-127400000D03*
X133900000Y-106800000D03*
X151100000Y-76800000D03*
X118100000Y-77300000D03*
X136900000Y-100400000D03*
X134700000Y-94300000D03*
X156300000Y-75700000D03*
X126000000Y-93500000D03*
X161600000Y-83100000D03*
X134900000Y-88900000D03*
X150800000Y-109800000D03*
X122500000Y-130000000D03*
X157200000Y-104000000D03*
X147800000Y-94700000D03*
X134100000Y-122900000D03*
X137606596Y-79390228D03*
X148700000Y-83200000D03*
X117400000Y-88900000D03*
X117400000Y-93100000D03*
X129600000Y-93600000D03*
X125300000Y-120500000D03*
X144300000Y-75800000D03*
X117400000Y-97400000D03*
X130400000Y-110500000D03*
X136900000Y-93600000D03*
X121500000Y-123700000D03*
X126700000Y-77000000D03*
X126000000Y-96300000D03*
X145200000Y-110100000D03*
X148600000Y-87400000D03*
X158100000Y-88300000D03*
X142900000Y-129300000D03*
X153700000Y-98800000D03*
X112400000Y-108100000D03*
X158800000Y-92600000D03*
X127600000Y-121100000D03*
X133000000Y-103400000D03*
X138200000Y-84800000D03*
X144700000Y-88700000D03*
X129500000Y-89500000D03*
X126600000Y-97700000D03*
X153771442Y-88400884D03*
X117200000Y-130000000D03*
X161600000Y-96300000D03*
X139800000Y-100100000D03*
X132100000Y-88900000D03*
X126000000Y-87400000D03*
X127600000Y-110600000D03*
X129800000Y-86500000D03*
X147400000Y-109800000D03*
X112400000Y-121700000D03*
X142900000Y-109900000D03*
X145300000Y-103400000D03*
X118128734Y-81085024D03*
X153800000Y-103800000D03*
%TO.N,/Microcontroller/Reset*%
X126349265Y-98700735D03*
%TO.N,/Enable Pin/Enable Input*%
X139700000Y-103300000D03*
X125060000Y-111200000D03*
X139000000Y-106558900D03*
%TO.N,/MicroSD-Card Adapter/SD_DAT2*%
X141938100Y-94409100D03*
%TO.N,/MicroSD-Card Adapter/SD_CD*%
X150601600Y-84000000D03*
%TO.N,/MicroSD-Card Adapter/SD_CLK*%
X130658058Y-90875000D03*
%TO.N,/MicroSD-Card Adapter/SD_MISO{slash}DAT0*%
X137096200Y-89970300D03*
%TO.N,/MicroSD-Card Adapter/SD_DAT1*%
X137000000Y-102868500D03*
%TO.N,/Daughterboard Connector/Button_3*%
X129700000Y-83000000D03*
%TO.N,/Display Ports/DISPLAY_RST*%
X151926500Y-83400000D03*
X152500000Y-115200000D03*
%TO.N,/Daughterboard Connector/Button_4*%
X133500000Y-83200000D03*
%TD*%
D22*
%TO.N,VCC*%
X146075000Y-95200000D02*
X149398900Y-98523900D01*
D23*
X119975000Y-116900000D02*
X123975000Y-112900000D01*
D24*
X119975000Y-120900000D02*
X119975000Y-125895000D01*
D22*
X132500000Y-95200000D02*
X146075000Y-95200000D01*
D23*
X119975000Y-117900000D02*
X119975000Y-116900000D01*
D25*
X129950000Y-96400000D02*
X131300000Y-96400000D01*
D23*
X149175000Y-109775000D02*
X149175000Y-103525000D01*
D22*
X131300000Y-96400000D02*
X132500000Y-95200000D01*
D24*
X119980000Y-125900000D02*
X117440000Y-125900000D01*
D23*
X149850000Y-101996100D02*
X149850000Y-98553899D01*
X149175000Y-103525000D02*
X149850000Y-102850000D01*
X123975000Y-112900000D02*
X146050000Y-112900000D01*
D24*
X119975000Y-117900000D02*
X119975000Y-120900000D01*
D23*
X146050000Y-112900000D02*
X149175000Y-109775000D01*
X149850000Y-102850000D02*
X149850000Y-101996100D01*
D22*
X149398900Y-98523900D02*
X149820000Y-98523900D01*
D26*
X119975000Y-125895000D02*
X119980000Y-125900000D01*
%TO.N,/Microcontroller/Reset*%
X132600000Y-98400000D02*
X133500000Y-97500000D01*
X126650000Y-98400000D02*
X132600000Y-98400000D01*
X136100000Y-98600000D02*
X136100000Y-101950000D01*
X135600000Y-97500000D02*
X136100000Y-98000000D01*
X126349265Y-98700735D02*
X126650000Y-98400000D01*
X133500000Y-97500000D02*
X135600000Y-97500000D01*
X136100000Y-98000000D02*
X136100000Y-98600000D01*
D25*
%TO.N,Enable VCC*%
X127600000Y-91500000D02*
X131000000Y-91500000D01*
X128850000Y-85600000D02*
X153200000Y-85600000D01*
X148146200Y-90653800D02*
X153200000Y-85600000D01*
X153200000Y-85600000D02*
X154325000Y-84475000D01*
X148900000Y-96461900D02*
X148900000Y-91400000D01*
D26*
X154150000Y-97525000D02*
X154150000Y-96850000D01*
D25*
X127350000Y-92350000D02*
X124936700Y-92350000D01*
D26*
X153791900Y-96491900D02*
X148870000Y-96491900D01*
D25*
X131846200Y-90653800D02*
X148046200Y-90653800D01*
D26*
X157725000Y-97525000D02*
X157725000Y-96825000D01*
D25*
X127350000Y-91750000D02*
X127600000Y-91500000D01*
X131000000Y-91500000D02*
X131846200Y-90653800D01*
X148153800Y-90653800D02*
X148046200Y-90653800D01*
D26*
X154510000Y-96490000D02*
X154150000Y-96850000D01*
D25*
X127350000Y-87100000D02*
X128850000Y-85600000D01*
X127350000Y-92350000D02*
X127350000Y-91750000D01*
D26*
X154150000Y-96850000D02*
X153791900Y-96491900D01*
D25*
X148046200Y-90653800D02*
X148146200Y-90653800D01*
D26*
X157390000Y-96490000D02*
X154510000Y-96490000D01*
D25*
X148900000Y-91400000D02*
X148153800Y-90653800D01*
X123535000Y-92350000D02*
X124936700Y-92350000D01*
D26*
X157725000Y-96825000D02*
X157390000Y-96490000D01*
D25*
X154325000Y-84475000D02*
X154325000Y-81700000D01*
D26*
%TO.N,Net-(J1-Pad1)*%
X128450000Y-96400000D02*
X127000000Y-96400000D01*
X127000000Y-96400000D02*
X125600000Y-97800000D01*
X127510000Y-100710000D02*
X128430000Y-100710000D01*
X134550000Y-102000000D02*
X129720000Y-102000000D01*
X125600000Y-98800000D02*
X127510000Y-100710000D01*
X129720000Y-102000000D02*
X128430000Y-100710000D01*
X125600000Y-97800000D02*
X125600000Y-98800000D01*
%TO.N,Net-(J2-Pad2)*%
X158450000Y-108725000D02*
X158450000Y-102780000D01*
X156250000Y-100580000D02*
X156250000Y-97525000D01*
X157350000Y-109200000D02*
X157975000Y-109200000D01*
X158450000Y-102780000D02*
X156470000Y-100800000D01*
X157975000Y-109200000D02*
X158450000Y-108725000D01*
X156470000Y-100800000D02*
X156250000Y-100580000D01*
%TO.N,Net-(J2-Pad1)*%
X156500000Y-106000000D02*
X156850000Y-106350000D01*
X152650000Y-97525000D02*
X152650000Y-99520000D01*
X152650000Y-99520000D02*
X153930000Y-100800000D01*
X156500000Y-103370000D02*
X156500000Y-106000000D01*
X153930000Y-100800000D02*
X156500000Y-103370000D01*
X156850000Y-106350000D02*
X157350000Y-106350000D01*
%TO.N,Net-(J6-DAT2)*%
X126700000Y-94500000D02*
X125550000Y-95650000D01*
X125550000Y-95650000D02*
X123535000Y-95650000D01*
X132080000Y-92200000D02*
X132080000Y-93020000D01*
X130600000Y-94500000D02*
X126700000Y-94500000D01*
X132080000Y-93020000D02*
X130600000Y-94500000D01*
%TO.N,Net-(J6-DAT1)*%
X126100000Y-88900000D02*
X130380000Y-88900000D01*
X123535000Y-87950000D02*
X125150000Y-87950000D01*
X125150000Y-87950000D02*
X126100000Y-88900000D01*
X130380000Y-88900000D02*
X132180000Y-87100000D01*
%TO.N,/Enable Pin/Enable Input*%
X128760000Y-107500000D02*
X125060000Y-111200000D01*
X138650000Y-101900000D02*
X138650000Y-98600000D01*
X139700000Y-103300000D02*
X139200000Y-103300000D01*
X138650000Y-102750000D02*
X138650000Y-102000000D01*
X138058900Y-107500000D02*
X128760000Y-107500000D01*
X139200000Y-103300000D02*
X138650000Y-102750000D01*
X139000000Y-106558900D02*
X138058900Y-107500000D01*
%TO.N,Net-(U2-D)*%
X147920000Y-100814400D02*
X148350000Y-101244400D01*
X144668000Y-96568000D02*
X146623900Y-98523900D01*
X146623900Y-98523900D02*
X147920000Y-98523900D01*
X148350000Y-101244400D02*
X148350000Y-101996100D01*
X147920000Y-98523900D02*
X147920000Y-100814400D01*
X143570000Y-96568000D02*
X144668000Y-96568000D01*
%TO.N,/MicroSD-Card Adapter/SD_MOSI{slash}CMD*%
X131500000Y-104400000D02*
X129800000Y-104400000D01*
X122283300Y-93450000D02*
X123535000Y-93450000D01*
X121600000Y-94133300D02*
X122283300Y-93450000D01*
X132680000Y-105580000D02*
X131500000Y-104400000D01*
X121600000Y-96200000D02*
X121600000Y-94133300D01*
X129800000Y-104400000D02*
X121600000Y-96200000D01*
%TO.N,/MicroSD-Card Adapter/SD_DAT2*%
X134620000Y-92200000D02*
X139729000Y-92200000D01*
X139729000Y-92200000D02*
X141938100Y-94409100D01*
%TO.N,/MicroSD-Card Adapter/SD_CD*%
X127500000Y-84000000D02*
X124650000Y-86850000D01*
X124650000Y-86850000D02*
X123535000Y-86850000D01*
X150601600Y-84000000D02*
X127500000Y-84000000D01*
%TO.N,/MicroSD-Card Adapter/SD_CLK*%
X127325000Y-90875000D02*
X126900000Y-91300000D01*
X130658058Y-90875000D02*
X127325000Y-90875000D01*
X126900000Y-91300000D02*
X123585000Y-91300000D01*
%TO.N,/MicroSD-Card Adapter/SD_MISO{slash}DAT0*%
X125350000Y-89050000D02*
X123535000Y-89050000D01*
X137096200Y-89970300D02*
X130714229Y-89970300D01*
X126700000Y-90400000D02*
X125350000Y-89050000D01*
X130284529Y-90400000D02*
X126700000Y-90400000D01*
X130714229Y-89970300D02*
X130284529Y-90400000D01*
%TO.N,/MicroSD-Card Adapter/SD_CS{slash}DAT3*%
X122000000Y-95900000D02*
X122000000Y-94900000D01*
X138720000Y-104000000D02*
X130100000Y-104000000D01*
X122350000Y-94550000D02*
X123535000Y-94550000D01*
X140300000Y-105580000D02*
X138720000Y-104000000D01*
X130100000Y-104000000D02*
X122000000Y-95900000D01*
X122000000Y-94900000D02*
X122350000Y-94550000D01*
%TO.N,/MicroSD-Card Adapter/SD_DAT1*%
X138154186Y-102868500D02*
X139485686Y-104200000D01*
X139485686Y-104200000D02*
X144000000Y-104200000D01*
X144000000Y-104200000D02*
X145380000Y-105580000D01*
X137000000Y-102868500D02*
X138154186Y-102868500D01*
%TO.N,Net-(U2-G)*%
X142620000Y-98600000D02*
X140150000Y-98600000D01*
%TO.N,/Daughterboard Connector/Button_3*%
X129700000Y-83000000D02*
X127000000Y-83000000D01*
X127000000Y-83000000D02*
X125700000Y-81700000D01*
%TO.N,/Display Ports/DISPLAY_RST*%
X149616600Y-82991600D02*
X148325000Y-81700000D01*
X152500000Y-115200000D02*
X152500000Y-123000000D01*
X151926500Y-83400000D02*
X151518100Y-82991600D01*
X150460000Y-125040000D02*
X150460000Y-125900000D01*
X152500000Y-123000000D02*
X150460000Y-125040000D01*
X151518100Y-82991600D02*
X149616600Y-82991600D01*
%TO.N,/Daughterboard Connector/Button_4*%
X133500000Y-83200000D02*
X133100000Y-83600000D01*
X125600000Y-83600000D02*
X123700000Y-81700000D01*
X133100000Y-83600000D02*
X125600000Y-83600000D01*
%TO.N,/IIC Connector/SDA*%
X153000000Y-105580000D02*
X153770000Y-106350000D01*
X153770000Y-106350000D02*
X155850000Y-106350000D01*
%TO.N,/IIC Connector/SCL*%
X150460000Y-105580000D02*
X154080000Y-109200000D01*
X154080000Y-109200000D02*
X155850000Y-109200000D01*
%TD*%
%TA.AperFunction,Conductor*%
%TO.N,GND*%
G36*
X146726645Y-106218447D02*
G01*
X146752294Y-106248048D01*
X146753118Y-106247472D01*
X146756222Y-106251905D01*
X146756223Y-106251907D01*
X146890579Y-106443787D01*
X147056213Y-106609421D01*
X147248093Y-106743777D01*
X147460389Y-106842772D01*
X147460395Y-106842773D01*
X147460396Y-106842774D01*
X147486006Y-106849636D01*
X147686649Y-106903398D01*
X147873329Y-106919730D01*
X147919999Y-106923814D01*
X147920000Y-106923814D01*
X147920001Y-106923814D01*
X147962610Y-106920086D01*
X148153351Y-106903398D01*
X148304660Y-106862855D01*
X148343407Y-106852473D01*
X148413257Y-106854136D01*
X148471119Y-106893299D01*
X148498623Y-106957527D01*
X148499500Y-106972248D01*
X148499500Y-109443837D01*
X148479815Y-109510876D01*
X148463181Y-109531518D01*
X145806518Y-112188181D01*
X145745195Y-112221666D01*
X145718837Y-112224500D01*
X125285668Y-112224500D01*
X125218629Y-112204815D01*
X125172874Y-112152011D01*
X125162930Y-112082853D01*
X125191955Y-112019297D01*
X125244713Y-111983458D01*
X125409522Y-111925789D01*
X125562262Y-111829816D01*
X125689816Y-111702262D01*
X125785789Y-111549522D01*
X125845368Y-111379255D01*
X125855161Y-111292329D01*
X125882226Y-111227918D01*
X125890690Y-111218543D01*
X128972416Y-108136819D01*
X129033739Y-108103334D01*
X129060097Y-108100500D01*
X137972231Y-108100500D01*
X137972247Y-108100501D01*
X137979843Y-108100501D01*
X138137954Y-108100501D01*
X138137957Y-108100501D01*
X138290685Y-108059577D01*
X138340804Y-108030639D01*
X138427616Y-107980520D01*
X138539420Y-107868716D01*
X138539420Y-107868714D01*
X138549628Y-107858507D01*
X138549630Y-107858504D01*
X139018535Y-107389598D01*
X139079856Y-107356115D01*
X139092311Y-107354063D01*
X139179255Y-107344268D01*
X139349522Y-107284689D01*
X139502262Y-107188716D01*
X139629816Y-107061162D01*
X139725789Y-106908422D01*
X139725790Y-106908418D01*
X139728919Y-106903439D01*
X139781253Y-106857148D01*
X139850307Y-106846499D01*
X139866005Y-106849635D01*
X140066649Y-106903398D01*
X140253329Y-106919730D01*
X140299999Y-106923814D01*
X140300000Y-106923814D01*
X140300001Y-106923814D01*
X140342610Y-106920086D01*
X140533351Y-106903398D01*
X140759611Y-106842772D01*
X140971907Y-106743777D01*
X141163787Y-106609421D01*
X141329421Y-106443787D01*
X141463777Y-106251907D01*
X141463777Y-106251905D01*
X141466882Y-106247472D01*
X141468323Y-106248481D01*
X141513172Y-106205712D01*
X141581778Y-106192484D01*
X141646645Y-106218447D01*
X141672294Y-106248048D01*
X141673118Y-106247472D01*
X141676222Y-106251905D01*
X141676223Y-106251907D01*
X141810579Y-106443787D01*
X141976213Y-106609421D01*
X142168093Y-106743777D01*
X142380389Y-106842772D01*
X142380395Y-106842773D01*
X142380396Y-106842774D01*
X142406006Y-106849636D01*
X142606649Y-106903398D01*
X142793329Y-106919730D01*
X142839999Y-106923814D01*
X142840000Y-106923814D01*
X142840001Y-106923814D01*
X142882610Y-106920086D01*
X143073351Y-106903398D01*
X143299611Y-106842772D01*
X143511907Y-106743777D01*
X143703787Y-106609421D01*
X143869421Y-106443787D01*
X144003777Y-106251907D01*
X144003777Y-106251905D01*
X144006882Y-106247472D01*
X144008323Y-106248481D01*
X144053172Y-106205712D01*
X144121778Y-106192484D01*
X144186645Y-106218447D01*
X144212294Y-106248048D01*
X144213118Y-106247472D01*
X144216222Y-106251905D01*
X144216223Y-106251907D01*
X144350579Y-106443787D01*
X144516213Y-106609421D01*
X144708093Y-106743777D01*
X144920389Y-106842772D01*
X144920395Y-106842773D01*
X144920396Y-106842774D01*
X144946006Y-106849636D01*
X145146649Y-106903398D01*
X145333329Y-106919730D01*
X145379999Y-106923814D01*
X145380000Y-106923814D01*
X145380001Y-106923814D01*
X145422610Y-106920086D01*
X145613351Y-106903398D01*
X145839611Y-106842772D01*
X146051907Y-106743777D01*
X146243787Y-106609421D01*
X146409421Y-106443787D01*
X146543777Y-106251907D01*
X146543777Y-106251905D01*
X146546882Y-106247472D01*
X146548323Y-106248481D01*
X146593172Y-106205712D01*
X146661778Y-106192484D01*
X146726645Y-106218447D01*
G37*
%TD.AperFunction*%
%TA.AperFunction,Conductor*%
G36*
X153454504Y-106864518D02*
G01*
X153478747Y-106875242D01*
X153538216Y-106909577D01*
X153650019Y-106939534D01*
X153690942Y-106950500D01*
X153690943Y-106950500D01*
X154985859Y-106950500D01*
X155052898Y-106970185D01*
X155098653Y-107022989D01*
X155102030Y-107031140D01*
X155106204Y-107042331D01*
X155106205Y-107042332D01*
X155106206Y-107042335D01*
X155192452Y-107157544D01*
X155192455Y-107157547D01*
X155307664Y-107243793D01*
X155307671Y-107243797D01*
X155350498Y-107259770D01*
X155442517Y-107294091D01*
X155502127Y-107300500D01*
X156197872Y-107300499D01*
X156257483Y-107294091D01*
X156392331Y-107243796D01*
X156507546Y-107157546D01*
X156507548Y-107157542D01*
X156512319Y-107152773D01*
X156573642Y-107119288D01*
X156643334Y-107124272D01*
X156687681Y-107152773D01*
X156692455Y-107157547D01*
X156807664Y-107243793D01*
X156807671Y-107243797D01*
X156850498Y-107259770D01*
X156942517Y-107294091D01*
X157002127Y-107300500D01*
X157697872Y-107300499D01*
X157712242Y-107298954D01*
X157781001Y-107311357D01*
X157832140Y-107358966D01*
X157849500Y-107422243D01*
X157849500Y-108127756D01*
X157829815Y-108194795D01*
X157777011Y-108240550D01*
X157712248Y-108251045D01*
X157697873Y-108249500D01*
X157697864Y-108249500D01*
X157002129Y-108249500D01*
X157002123Y-108249501D01*
X156942516Y-108255908D01*
X156807671Y-108306202D01*
X156807664Y-108306206D01*
X156692455Y-108392452D01*
X156687681Y-108397227D01*
X156626358Y-108430712D01*
X156556666Y-108425728D01*
X156512319Y-108397227D01*
X156507544Y-108392452D01*
X156392335Y-108306206D01*
X156392328Y-108306202D01*
X156257486Y-108255910D01*
X156257485Y-108255909D01*
X156257483Y-108255909D01*
X156197873Y-108249500D01*
X156197863Y-108249500D01*
X155502129Y-108249500D01*
X155502123Y-108249501D01*
X155442516Y-108255908D01*
X155307671Y-108306202D01*
X155307664Y-108306206D01*
X155192455Y-108392452D01*
X155192452Y-108392455D01*
X155106206Y-108507664D01*
X155106204Y-108507668D01*
X155106204Y-108507669D01*
X155102039Y-108518834D01*
X155060171Y-108574766D01*
X154994707Y-108599184D01*
X154985859Y-108599500D01*
X154380097Y-108599500D01*
X154313058Y-108579815D01*
X154292416Y-108563181D01*
X152860686Y-107131451D01*
X152827201Y-107070128D01*
X152832185Y-107000436D01*
X152874057Y-106944503D01*
X152939521Y-106920086D01*
X152959172Y-106920241D01*
X152987557Y-106922725D01*
X152999999Y-106923814D01*
X153000000Y-106923814D01*
X153000001Y-106923814D01*
X153042610Y-106920086D01*
X153233351Y-106903398D01*
X153384657Y-106862855D01*
X153454504Y-106864518D01*
G37*
%TD.AperFunction*%
%TA.AperFunction,Conductor*%
G36*
X134026645Y-106218447D02*
G01*
X134052294Y-106248048D01*
X134053118Y-106247472D01*
X134056222Y-106251905D01*
X134056223Y-106251907D01*
X134190579Y-106443787D01*
X134190583Y-106443791D01*
X134356212Y-106609420D01*
X134448335Y-106673926D01*
X134491960Y-106728503D01*
X134499152Y-106798001D01*
X134467630Y-106860356D01*
X134407400Y-106895769D01*
X134377211Y-106899500D01*
X133522789Y-106899500D01*
X133455750Y-106879815D01*
X133409995Y-106827011D01*
X133400051Y-106757853D01*
X133429076Y-106694297D01*
X133451665Y-106673926D01*
X133477792Y-106655630D01*
X133543787Y-106609421D01*
X133709421Y-106443787D01*
X133843777Y-106251907D01*
X133843777Y-106251905D01*
X133846882Y-106247472D01*
X133848323Y-106248481D01*
X133893172Y-106205712D01*
X133961778Y-106192484D01*
X134026645Y-106218447D01*
G37*
%TD.AperFunction*%
%TA.AperFunction,Conductor*%
G36*
X151792539Y-97112085D02*
G01*
X151838294Y-97164889D01*
X151849500Y-97216400D01*
X151849500Y-98022870D01*
X151849501Y-98022876D01*
X151855908Y-98082483D01*
X151906202Y-98217328D01*
X151906203Y-98217329D01*
X151906204Y-98217331D01*
X151988881Y-98327773D01*
X151992454Y-98332546D01*
X151999808Y-98338051D01*
X152041681Y-98393983D01*
X152049500Y-98437320D01*
X152049500Y-99433330D01*
X152049499Y-99433348D01*
X152049499Y-99599054D01*
X152049498Y-99599054D01*
X152062533Y-99647699D01*
X152078665Y-99707906D01*
X152090424Y-99751788D01*
X152095683Y-99760896D01*
X152095685Y-99760899D01*
X152169477Y-99888712D01*
X152169481Y-99888717D01*
X152288349Y-100007585D01*
X152288355Y-100007590D01*
X152617646Y-100336881D01*
X152651131Y-100398204D01*
X152649740Y-100456655D01*
X152619652Y-100568944D01*
X152619650Y-100568955D01*
X152599437Y-100799998D01*
X152599437Y-100800001D01*
X152619650Y-101031044D01*
X152619651Y-101031051D01*
X152679678Y-101255074D01*
X152679679Y-101255076D01*
X152679680Y-101255079D01*
X152777699Y-101465282D01*
X152910730Y-101655269D01*
X153074731Y-101819270D01*
X153264718Y-101952301D01*
X153474921Y-102050320D01*
X153698950Y-102110349D01*
X153863985Y-102124787D01*
X153929998Y-102130563D01*
X153930000Y-102130563D01*
X153930002Y-102130563D01*
X153987762Y-102125509D01*
X154161050Y-102110349D01*
X154273345Y-102080259D01*
X154343193Y-102081922D01*
X154393118Y-102112353D01*
X155863181Y-103582416D01*
X155896666Y-103643739D01*
X155899500Y-103670097D01*
X155899500Y-105275500D01*
X155879815Y-105342539D01*
X155827011Y-105388294D01*
X155775500Y-105399500D01*
X155502130Y-105399500D01*
X155502123Y-105399501D01*
X155442516Y-105405908D01*
X155307671Y-105456202D01*
X155307664Y-105456206D01*
X155192455Y-105542452D01*
X155192452Y-105542455D01*
X155106206Y-105657664D01*
X155106204Y-105657668D01*
X155106204Y-105657669D01*
X155102039Y-105668834D01*
X155060171Y-105724766D01*
X154994707Y-105749184D01*
X154985859Y-105749500D01*
X154464307Y-105749500D01*
X154397268Y-105729815D01*
X154351513Y-105677011D01*
X154340779Y-105614693D01*
X154343814Y-105580002D01*
X154343814Y-105579999D01*
X154331585Y-105440229D01*
X154323398Y-105346649D01*
X154262772Y-105120389D01*
X154163777Y-104908093D01*
X154029421Y-104716213D01*
X153863787Y-104550579D01*
X153671907Y-104416223D01*
X153459611Y-104317228D01*
X153459607Y-104317227D01*
X153459603Y-104317225D01*
X153233356Y-104256603D01*
X153233346Y-104256601D01*
X153000001Y-104236186D01*
X152999999Y-104236186D01*
X152766653Y-104256601D01*
X152766643Y-104256603D01*
X152540396Y-104317225D01*
X152540389Y-104317227D01*
X152540389Y-104317228D01*
X152328093Y-104416223D01*
X152136213Y-104550579D01*
X152136211Y-104550580D01*
X152136208Y-104550583D01*
X151970583Y-104716208D01*
X151833118Y-104912528D01*
X151831680Y-104911521D01*
X151786810Y-104954297D01*
X151718202Y-104967513D01*
X151653340Y-104941540D01*
X151627702Y-104911953D01*
X151626882Y-104912528D01*
X151623777Y-104908093D01*
X151489421Y-104716213D01*
X151323787Y-104550579D01*
X151131907Y-104416223D01*
X150919611Y-104317228D01*
X150919607Y-104317227D01*
X150919603Y-104317225D01*
X150693356Y-104256603D01*
X150693346Y-104256601D01*
X150460001Y-104236186D01*
X150459999Y-104236186D01*
X150226653Y-104256601D01*
X150226643Y-104256603D01*
X150006593Y-104315565D01*
X149936743Y-104313902D01*
X149878881Y-104274739D01*
X149851377Y-104210511D01*
X149850500Y-104195790D01*
X149850500Y-103856163D01*
X149870185Y-103789124D01*
X149886819Y-103768482D01*
X150374692Y-103280609D01*
X150374695Y-103280606D01*
X150448620Y-103169969D01*
X150499540Y-103047036D01*
X150514828Y-102970183D01*
X150525500Y-102916533D01*
X150525500Y-102820933D01*
X150545185Y-102753894D01*
X150550225Y-102746633D01*
X150593796Y-102688431D01*
X150644091Y-102553583D01*
X150650500Y-102493973D01*
X150650499Y-101498228D01*
X150644091Y-101438617D01*
X150629501Y-101399500D01*
X150593797Y-101303771D01*
X150593795Y-101303768D01*
X150587171Y-101294920D01*
X150550233Y-101245576D01*
X150525816Y-101180111D01*
X150525500Y-101171265D01*
X150525500Y-99492087D01*
X150544004Y-99429068D01*
X150543545Y-99428818D01*
X150544698Y-99426706D01*
X150545185Y-99425048D01*
X150547144Y-99422225D01*
X150547794Y-99421035D01*
X150547793Y-99421035D01*
X150547797Y-99421031D01*
X150598092Y-99286183D01*
X150604501Y-99226573D01*
X150604500Y-97821228D01*
X150598092Y-97761617D01*
X150596073Y-97756205D01*
X150547798Y-97626771D01*
X150547794Y-97626764D01*
X150461548Y-97511555D01*
X150461545Y-97511552D01*
X150346336Y-97425306D01*
X150346329Y-97425302D01*
X150211483Y-97375008D01*
X150211484Y-97375008D01*
X150151884Y-97368601D01*
X150151882Y-97368600D01*
X150151874Y-97368600D01*
X150151866Y-97368600D01*
X149773836Y-97368600D01*
X149706797Y-97348915D01*
X149661042Y-97296111D01*
X149650546Y-97231349D01*
X149652153Y-97216400D01*
X149653578Y-97203145D01*
X149680313Y-97138597D01*
X149737704Y-97098747D01*
X149776867Y-97092400D01*
X151725500Y-97092400D01*
X151792539Y-97112085D01*
G37*
%TD.AperFunction*%
%TA.AperFunction,Conductor*%
G36*
X156883193Y-102081922D02*
G01*
X156933118Y-102112353D01*
X157813181Y-102992416D01*
X157846666Y-103053739D01*
X157849500Y-103080097D01*
X157849500Y-105277756D01*
X157829815Y-105344795D01*
X157777011Y-105390550D01*
X157712247Y-105401045D01*
X157697873Y-105399500D01*
X157697865Y-105399500D01*
X157224500Y-105399500D01*
X157157461Y-105379815D01*
X157111706Y-105327011D01*
X157100500Y-105275500D01*
X157100500Y-103459059D01*
X157100501Y-103459046D01*
X157100501Y-103290945D01*
X157100501Y-103290943D01*
X157059577Y-103138215D01*
X157019162Y-103068215D01*
X157019162Y-103068214D01*
X156980522Y-103001287D01*
X156980521Y-103001286D01*
X156980520Y-103001284D01*
X156868716Y-102889480D01*
X156868715Y-102889479D01*
X156864385Y-102885149D01*
X156864374Y-102885139D01*
X156316164Y-102336929D01*
X156282679Y-102275606D01*
X156287663Y-102205914D01*
X156329535Y-102149981D01*
X156394999Y-102125564D01*
X156414642Y-102125719D01*
X156470000Y-102130563D01*
X156470000Y-102130562D01*
X156470001Y-102130563D01*
X156470002Y-102130563D01*
X156527762Y-102125509D01*
X156701050Y-102110349D01*
X156813345Y-102080259D01*
X156883193Y-102081922D01*
G37*
%TD.AperFunction*%
%TA.AperFunction,Conductor*%
G36*
X143687105Y-97748584D02*
G01*
X143732860Y-97801388D01*
X143743355Y-97866157D01*
X143740601Y-97891760D01*
X143740601Y-98350000D01*
X145299401Y-98350000D01*
X145299401Y-98347998D01*
X145319086Y-98280959D01*
X145371890Y-98235204D01*
X145441048Y-98225260D01*
X145504604Y-98254285D01*
X145511082Y-98260317D01*
X146139039Y-98888274D01*
X146139049Y-98888285D01*
X146143379Y-98892615D01*
X146143380Y-98892616D01*
X146255184Y-99004420D01*
X146334577Y-99050257D01*
X146392115Y-99083477D01*
X146544842Y-99124400D01*
X146544843Y-99124400D01*
X147013132Y-99124400D01*
X147080171Y-99144085D01*
X147125926Y-99196889D01*
X147136421Y-99235145D01*
X147137387Y-99244134D01*
X147141907Y-99286183D01*
X147192201Y-99421028D01*
X147192202Y-99421029D01*
X147192203Y-99421031D01*
X147253361Y-99502728D01*
X147278455Y-99536249D01*
X147283181Y-99540975D01*
X147316666Y-99602298D01*
X147319500Y-99628656D01*
X147319500Y-100727730D01*
X147319499Y-100727748D01*
X147319499Y-100893454D01*
X147319498Y-100893454D01*
X147360423Y-101046185D01*
X147379205Y-101078716D01*
X147379204Y-101078716D01*
X147379205Y-101078717D01*
X147439475Y-101183109D01*
X147439481Y-101183117D01*
X147537339Y-101280975D01*
X147570824Y-101342298D01*
X147565841Y-101411987D01*
X147555908Y-101438618D01*
X147553042Y-101465281D01*
X147549501Y-101498223D01*
X147549500Y-101498235D01*
X147549500Y-102493970D01*
X147549501Y-102493971D01*
X147555908Y-102553583D01*
X147606202Y-102688428D01*
X147606206Y-102688435D01*
X147692452Y-102803644D01*
X147692455Y-102803647D01*
X147807664Y-102889893D01*
X147807671Y-102889897D01*
X147816940Y-102893354D01*
X147942517Y-102940191D01*
X148002127Y-102946600D01*
X148517070Y-102946599D01*
X148584109Y-102966283D01*
X148629864Y-103019087D01*
X148639808Y-103088246D01*
X148620173Y-103139489D01*
X148576382Y-103205026D01*
X148576378Y-103205034D01*
X148525459Y-103327963D01*
X148525457Y-103327971D01*
X148503090Y-103440420D01*
X148503089Y-103440425D01*
X148499500Y-103458464D01*
X148499500Y-104187751D01*
X148479815Y-104254790D01*
X148427011Y-104300545D01*
X148357853Y-104310489D01*
X148343407Y-104307526D01*
X148153356Y-104256603D01*
X148153346Y-104256601D01*
X147920001Y-104236186D01*
X147919999Y-104236186D01*
X147686653Y-104256601D01*
X147686643Y-104256603D01*
X147460396Y-104317225D01*
X147460389Y-104317227D01*
X147460389Y-104317228D01*
X147248093Y-104416223D01*
X147056213Y-104550579D01*
X147056211Y-104550580D01*
X147056208Y-104550583D01*
X146890583Y-104716208D01*
X146753118Y-104912528D01*
X146751680Y-104911521D01*
X146706810Y-104954297D01*
X146638202Y-104967513D01*
X146573340Y-104941540D01*
X146547702Y-104911953D01*
X146546882Y-104912528D01*
X146543777Y-104908093D01*
X146409421Y-104716213D01*
X146243787Y-104550579D01*
X146051907Y-104416223D01*
X145839611Y-104317228D01*
X145839607Y-104317227D01*
X145839603Y-104317225D01*
X145613356Y-104256603D01*
X145613346Y-104256601D01*
X145380001Y-104236186D01*
X145379999Y-104236186D01*
X145146653Y-104256601D01*
X145146643Y-104256603D01*
X145025877Y-104288962D01*
X144956027Y-104287299D01*
X144906103Y-104256868D01*
X144487590Y-103838355D01*
X144487588Y-103838352D01*
X144368717Y-103719481D01*
X144368709Y-103719475D01*
X144255073Y-103653868D01*
X144255072Y-103653867D01*
X144237528Y-103643739D01*
X144231785Y-103640423D01*
X144079057Y-103599499D01*
X143920943Y-103599499D01*
X143913347Y-103599499D01*
X143913331Y-103599500D01*
X140610576Y-103599500D01*
X140543537Y-103579815D01*
X140497782Y-103527011D01*
X140487356Y-103461617D01*
X140505565Y-103300003D01*
X140505565Y-103299996D01*
X140485369Y-103120750D01*
X140485366Y-103120737D01*
X140478979Y-103102484D01*
X140475416Y-103032706D01*
X140510145Y-102972078D01*
X140552687Y-102945347D01*
X140692086Y-102893354D01*
X140692093Y-102893350D01*
X140807187Y-102807190D01*
X140807190Y-102807187D01*
X140893350Y-102692093D01*
X140893354Y-102692086D01*
X140943596Y-102557379D01*
X140943598Y-102557372D01*
X140949999Y-102497844D01*
X140950000Y-102497827D01*
X140950000Y-102250000D01*
X140024000Y-102250000D01*
X139956961Y-102230315D01*
X139911206Y-102177511D01*
X139900000Y-102126000D01*
X139900000Y-101050000D01*
X140400000Y-101050000D01*
X140400000Y-101750000D01*
X140950000Y-101750000D01*
X140950000Y-101502172D01*
X140949999Y-101502155D01*
X140943598Y-101442627D01*
X140943596Y-101442620D01*
X140893354Y-101307913D01*
X140893350Y-101307906D01*
X140807190Y-101192812D01*
X140807187Y-101192809D01*
X140692093Y-101106649D01*
X140692086Y-101106645D01*
X140557379Y-101056403D01*
X140557372Y-101056401D01*
X140497844Y-101050000D01*
X140400000Y-101050000D01*
X139900000Y-101050000D01*
X139802155Y-101050000D01*
X139742627Y-101056401D01*
X139742620Y-101056403D01*
X139607913Y-101106645D01*
X139607906Y-101106649D01*
X139492810Y-101192811D01*
X139488034Y-101197587D01*
X139426710Y-101231069D01*
X139357018Y-101226082D01*
X139312676Y-101197583D01*
X139307546Y-101192453D01*
X139300187Y-101186944D01*
X139258317Y-101131009D01*
X139250500Y-101087679D01*
X139250500Y-99512320D01*
X139270185Y-99445281D01*
X139300192Y-99413051D01*
X139307546Y-99407546D01*
X139307548Y-99407542D01*
X139312315Y-99402777D01*
X139373636Y-99369289D01*
X139443328Y-99374270D01*
X139487681Y-99402773D01*
X139492455Y-99407547D01*
X139607664Y-99493793D01*
X139607671Y-99493797D01*
X139642119Y-99506645D01*
X139742517Y-99544091D01*
X139802127Y-99550500D01*
X140497872Y-99550499D01*
X140557483Y-99544091D01*
X140692331Y-99493796D01*
X140807546Y-99407546D01*
X140893796Y-99292331D01*
X140897960Y-99281165D01*
X140939829Y-99225234D01*
X141005293Y-99200816D01*
X141014141Y-99200500D01*
X141717130Y-99200500D01*
X141784169Y-99220185D01*
X141829924Y-99272989D01*
X141840420Y-99311247D01*
X141846507Y-99367883D01*
X141896801Y-99502728D01*
X141896805Y-99502735D01*
X141983051Y-99617944D01*
X141983054Y-99617947D01*
X142098263Y-99704193D01*
X142098270Y-99704197D01*
X142141799Y-99720432D01*
X142233116Y-99754491D01*
X142292726Y-99760900D01*
X142947271Y-99760899D01*
X143006882Y-99754491D01*
X143141730Y-99704196D01*
X143256945Y-99617946D01*
X143343195Y-99502731D01*
X143393490Y-99367883D01*
X143399899Y-99308273D01*
X143399899Y-98850000D01*
X143740601Y-98850000D01*
X143740601Y-99308244D01*
X143747002Y-99367772D01*
X143747004Y-99367779D01*
X143797246Y-99502486D01*
X143797250Y-99502493D01*
X143883410Y-99617587D01*
X143883413Y-99617590D01*
X143998507Y-99703750D01*
X143998514Y-99703754D01*
X144133221Y-99753996D01*
X144133228Y-99753998D01*
X144192756Y-99760399D01*
X144192773Y-99760400D01*
X144270001Y-99760400D01*
X144270001Y-98850000D01*
X144770001Y-98850000D01*
X144770001Y-99760400D01*
X144847229Y-99760400D01*
X144847245Y-99760399D01*
X144906773Y-99753998D01*
X144906780Y-99753996D01*
X145041487Y-99703754D01*
X145041494Y-99703750D01*
X145156588Y-99617590D01*
X145156591Y-99617587D01*
X145242751Y-99502493D01*
X145242755Y-99502486D01*
X145292997Y-99367779D01*
X145292999Y-99367772D01*
X145299400Y-99308244D01*
X145299401Y-99308227D01*
X145299401Y-98850000D01*
X144770001Y-98850000D01*
X144270001Y-98850000D01*
X143740601Y-98850000D01*
X143399899Y-98850000D01*
X143399898Y-97891728D01*
X143397954Y-97873640D01*
X143397149Y-97866151D01*
X143409556Y-97797392D01*
X143457168Y-97746256D01*
X143520439Y-97728899D01*
X143620066Y-97728899D01*
X143687105Y-97748584D01*
G37*
%TD.AperFunction*%
%TA.AperFunction,Conductor*%
G36*
X133752898Y-102620185D02*
G01*
X133798653Y-102672989D01*
X133802030Y-102681140D01*
X133806204Y-102692331D01*
X133806205Y-102692332D01*
X133806206Y-102692335D01*
X133892452Y-102807544D01*
X133892455Y-102807547D01*
X134007664Y-102893793D01*
X134007671Y-102893797D01*
X134052618Y-102910561D01*
X134142517Y-102944091D01*
X134202127Y-102950500D01*
X134897872Y-102950499D01*
X134957483Y-102944091D01*
X135092331Y-102893796D01*
X135207546Y-102807546D01*
X135207548Y-102807542D01*
X135212319Y-102802773D01*
X135273642Y-102769288D01*
X135343334Y-102774272D01*
X135387681Y-102802773D01*
X135392455Y-102807547D01*
X135507664Y-102893793D01*
X135507671Y-102893797D01*
X135552618Y-102910561D01*
X135642517Y-102944091D01*
X135702127Y-102950500D01*
X136093546Y-102950499D01*
X136160585Y-102970183D01*
X136206340Y-103022987D01*
X136214435Y-103046896D01*
X136214629Y-103047747D01*
X136274210Y-103218021D01*
X136275980Y-103221695D01*
X136276410Y-103224306D01*
X136276511Y-103224595D01*
X136276460Y-103224612D01*
X136287334Y-103290636D01*
X136259613Y-103354772D01*
X136201619Y-103393739D01*
X136164261Y-103399500D01*
X130400097Y-103399500D01*
X130333058Y-103379815D01*
X130312416Y-103363181D01*
X129761416Y-102812181D01*
X129727931Y-102750858D01*
X129732915Y-102681166D01*
X129774787Y-102625233D01*
X129840251Y-102600816D01*
X129849097Y-102600500D01*
X133685859Y-102600500D01*
X133752898Y-102620185D01*
G37*
%TD.AperFunction*%
%TA.AperFunction,Conductor*%
G36*
X142733139Y-95870185D02*
G01*
X142778894Y-95922989D01*
X142790100Y-95974500D01*
X142790100Y-97276270D01*
X142790101Y-97276276D01*
X142792850Y-97301847D01*
X142780443Y-97370606D01*
X142732832Y-97421743D01*
X142669560Y-97439100D01*
X142292729Y-97439100D01*
X142292722Y-97439101D01*
X142233115Y-97445508D01*
X142098270Y-97495802D01*
X142098263Y-97495806D01*
X141983054Y-97582052D01*
X141983051Y-97582055D01*
X141896805Y-97697264D01*
X141896801Y-97697271D01*
X141846507Y-97832116D01*
X141840418Y-97888756D01*
X141813680Y-97953307D01*
X141756287Y-97993155D01*
X141717129Y-97999500D01*
X141014141Y-97999500D01*
X140947102Y-97979815D01*
X140901347Y-97927011D01*
X140897969Y-97918859D01*
X140893796Y-97907669D01*
X140893793Y-97907665D01*
X140893793Y-97907664D01*
X140807547Y-97792455D01*
X140807544Y-97792452D01*
X140692335Y-97706206D01*
X140692328Y-97706202D01*
X140557486Y-97655910D01*
X140557485Y-97655909D01*
X140557483Y-97655909D01*
X140497873Y-97649500D01*
X140497863Y-97649500D01*
X139802129Y-97649500D01*
X139802123Y-97649501D01*
X139742516Y-97655908D01*
X139607671Y-97706202D01*
X139607664Y-97706206D01*
X139492455Y-97792452D01*
X139487681Y-97797227D01*
X139426358Y-97830712D01*
X139356666Y-97825728D01*
X139312319Y-97797227D01*
X139307544Y-97792452D01*
X139192335Y-97706206D01*
X139192328Y-97706202D01*
X139057486Y-97655910D01*
X139057485Y-97655909D01*
X139057483Y-97655909D01*
X138997873Y-97649500D01*
X138997863Y-97649500D01*
X138302129Y-97649500D01*
X138302123Y-97649501D01*
X138242516Y-97655908D01*
X138107671Y-97706202D01*
X138107664Y-97706206D01*
X137992455Y-97792452D01*
X137992452Y-97792455D01*
X137906206Y-97907664D01*
X137906202Y-97907671D01*
X137855908Y-98042517D01*
X137849501Y-98102116D01*
X137849500Y-98102135D01*
X137849500Y-99097870D01*
X137849501Y-99097876D01*
X137855908Y-99157483D01*
X137906202Y-99292328D01*
X137906203Y-99292329D01*
X137906204Y-99292331D01*
X137982384Y-99394094D01*
X137992454Y-99407546D01*
X137999808Y-99413051D01*
X138041681Y-99468983D01*
X138049500Y-99512320D01*
X138049500Y-101087679D01*
X138029815Y-101154718D01*
X137999813Y-101186944D01*
X137992459Y-101192449D01*
X137992451Y-101192457D01*
X137906206Y-101307664D01*
X137906202Y-101307671D01*
X137857363Y-101438618D01*
X137855909Y-101442517D01*
X137849500Y-101502127D01*
X137849500Y-101502134D01*
X137849500Y-101502135D01*
X137849500Y-101502136D01*
X137849501Y-102144000D01*
X137829817Y-102211039D01*
X137777013Y-102256794D01*
X137725501Y-102268000D01*
X137582412Y-102268000D01*
X137515373Y-102248315D01*
X137505097Y-102240945D01*
X137502263Y-102238685D01*
X137502262Y-102238684D01*
X137404906Y-102177511D01*
X137349523Y-102142711D01*
X137179254Y-102083131D01*
X137179249Y-102083130D01*
X137000004Y-102062935D01*
X137000000Y-102062935D01*
X136988378Y-102064244D01*
X136919556Y-102052186D01*
X136868179Y-102004835D01*
X136850499Y-101941023D01*
X136850499Y-101502129D01*
X136850498Y-101502123D01*
X136850080Y-101498235D01*
X136844091Y-101442517D01*
X136842636Y-101438617D01*
X136793797Y-101307671D01*
X136793795Y-101307668D01*
X136790875Y-101303768D01*
X136754427Y-101255079D01*
X136725233Y-101216080D01*
X136700816Y-101150615D01*
X136700500Y-101141769D01*
X136700500Y-99537180D01*
X136720185Y-99470141D01*
X136750187Y-99437914D01*
X136857546Y-99357546D01*
X136943796Y-99242331D01*
X136994091Y-99107483D01*
X137000500Y-99047873D01*
X137000499Y-98152128D01*
X136994091Y-98092517D01*
X136990348Y-98082482D01*
X136943797Y-97957671D01*
X136943793Y-97957664D01*
X136857547Y-97842455D01*
X136857544Y-97842452D01*
X136742334Y-97756205D01*
X136742331Y-97756203D01*
X136669793Y-97729148D01*
X136613859Y-97687277D01*
X136605743Y-97674973D01*
X136580520Y-97631284D01*
X136080521Y-97131285D01*
X136080520Y-97131284D01*
X135968716Y-97019480D01*
X135968714Y-97019479D01*
X135968709Y-97019475D01*
X135844490Y-96947758D01*
X135844487Y-96947757D01*
X135831785Y-96940423D01*
X135679057Y-96899499D01*
X135520943Y-96899499D01*
X135513347Y-96899499D01*
X135513331Y-96899500D01*
X133420942Y-96899500D01*
X133268215Y-96940423D01*
X133255513Y-96947757D01*
X133255510Y-96947758D01*
X133131290Y-97019475D01*
X133131282Y-97019481D01*
X133075067Y-97075697D01*
X133019480Y-97131284D01*
X133019478Y-97131286D01*
X132689937Y-97460828D01*
X132387584Y-97763181D01*
X132326261Y-97796666D01*
X132299903Y-97799500D01*
X126749096Y-97799500D01*
X126682057Y-97779815D01*
X126636302Y-97727011D01*
X126626358Y-97657853D01*
X126655383Y-97594297D01*
X126661415Y-97587819D01*
X126823929Y-97425306D01*
X127212416Y-97036819D01*
X127273739Y-97003334D01*
X127300097Y-97000500D01*
X127585859Y-97000500D01*
X127652898Y-97020185D01*
X127698653Y-97072989D01*
X127702030Y-97081140D01*
X127706204Y-97092331D01*
X127706205Y-97092332D01*
X127706206Y-97092335D01*
X127792452Y-97207544D01*
X127792455Y-97207547D01*
X127907664Y-97293793D01*
X127907671Y-97293797D01*
X127929255Y-97301847D01*
X128042517Y-97344091D01*
X128102127Y-97350500D01*
X128797872Y-97350499D01*
X128857483Y-97344091D01*
X128992331Y-97293796D01*
X129107546Y-97207546D01*
X129107548Y-97207542D01*
X129112319Y-97202773D01*
X129173642Y-97169288D01*
X129243334Y-97174272D01*
X129287681Y-97202773D01*
X129292455Y-97207547D01*
X129407664Y-97293793D01*
X129407671Y-97293797D01*
X129429255Y-97301847D01*
X129542517Y-97344091D01*
X129602127Y-97350500D01*
X130297872Y-97350499D01*
X130357483Y-97344091D01*
X130492331Y-97293796D01*
X130607546Y-97207546D01*
X130690394Y-97096874D01*
X130746327Y-97055005D01*
X130816019Y-97050021D01*
X130855630Y-97066192D01*
X130950478Y-97125789D01*
X131120745Y-97185368D01*
X131120750Y-97185369D01*
X131299996Y-97205565D01*
X131300000Y-97205565D01*
X131300004Y-97205565D01*
X131479249Y-97185369D01*
X131479252Y-97185368D01*
X131479255Y-97185368D01*
X131649522Y-97125789D01*
X131802262Y-97029816D01*
X131929816Y-96902262D01*
X132025789Y-96749522D01*
X132085368Y-96579255D01*
X132086182Y-96572025D01*
X132113245Y-96507611D01*
X132121712Y-96498232D01*
X132733127Y-95886819D01*
X132794450Y-95853334D01*
X132820808Y-95850500D01*
X142666100Y-95850500D01*
X142733139Y-95870185D01*
G37*
%TD.AperFunction*%
%TA.AperFunction,Conductor*%
G36*
X133642951Y-98308797D02*
G01*
X133687298Y-98337298D01*
X133700000Y-98350000D01*
X134726000Y-98350000D01*
X134793039Y-98369685D01*
X134838794Y-98422489D01*
X134850000Y-98474000D01*
X134850000Y-99500000D01*
X135047828Y-99500000D01*
X135047844Y-99499999D01*
X135107372Y-99493598D01*
X135107376Y-99493597D01*
X135242089Y-99443352D01*
X135275268Y-99418513D01*
X135340732Y-99394094D01*
X135409005Y-99408944D01*
X135423892Y-99418511D01*
X135449810Y-99437913D01*
X135491682Y-99493847D01*
X135499500Y-99537180D01*
X135499500Y-101050249D01*
X135479815Y-101117288D01*
X135449812Y-101149515D01*
X135392449Y-101192457D01*
X135387676Y-101197230D01*
X135326352Y-101230712D01*
X135256660Y-101225725D01*
X135212318Y-101197226D01*
X135207544Y-101192452D01*
X135092335Y-101106206D01*
X135092328Y-101106202D01*
X134957486Y-101055910D01*
X134957485Y-101055909D01*
X134957483Y-101055909D01*
X134897873Y-101049500D01*
X134897863Y-101049500D01*
X134202129Y-101049500D01*
X134202123Y-101049501D01*
X134142516Y-101055908D01*
X134007671Y-101106202D01*
X134007664Y-101106206D01*
X133892455Y-101192452D01*
X133892452Y-101192455D01*
X133806206Y-101307664D01*
X133806204Y-101307668D01*
X133806204Y-101307669D01*
X133802039Y-101318834D01*
X133760171Y-101374766D01*
X133694707Y-101399184D01*
X133685859Y-101399500D01*
X132305098Y-101399500D01*
X132238059Y-101379815D01*
X132192304Y-101327011D01*
X132182360Y-101257853D01*
X132192716Y-101223096D01*
X132219846Y-101164914D01*
X132219851Y-101164900D01*
X132279852Y-100940968D01*
X132279854Y-100940958D01*
X132300061Y-100710000D01*
X132300061Y-100709999D01*
X132279854Y-100479041D01*
X132279852Y-100479031D01*
X132219851Y-100255099D01*
X132219847Y-100255090D01*
X132121867Y-100044971D01*
X132121866Y-100044969D01*
X132066975Y-99966577D01*
X132066975Y-99966576D01*
X131493787Y-100539764D01*
X131482518Y-100497708D01*
X131410110Y-100372292D01*
X131307708Y-100269890D01*
X131182292Y-100197482D01*
X131140234Y-100186212D01*
X131713422Y-99613023D01*
X131635030Y-99558133D01*
X131424909Y-99460152D01*
X131424900Y-99460148D01*
X131200968Y-99400147D01*
X131200958Y-99400145D01*
X130970001Y-99379939D01*
X130969999Y-99379939D01*
X130739041Y-99400145D01*
X130739031Y-99400147D01*
X130515099Y-99460148D01*
X130515090Y-99460152D01*
X130304967Y-99558134D01*
X130226576Y-99613022D01*
X130799766Y-100186212D01*
X130757708Y-100197482D01*
X130632292Y-100269890D01*
X130529890Y-100372292D01*
X130457482Y-100497708D01*
X130446212Y-100539766D01*
X129873022Y-99966576D01*
X129818134Y-100044966D01*
X129812655Y-100056717D01*
X129766480Y-100109154D01*
X129699286Y-100128303D01*
X129632405Y-100108084D01*
X129587894Y-100056713D01*
X129582301Y-100044719D01*
X129449270Y-99854731D01*
X129285269Y-99690730D01*
X129095282Y-99557699D01*
X128885079Y-99459680D01*
X128885076Y-99459679D01*
X128885074Y-99459678D01*
X128661051Y-99399651D01*
X128661044Y-99399650D01*
X128430002Y-99379437D01*
X128429998Y-99379437D01*
X128198955Y-99399650D01*
X128198948Y-99399651D01*
X127974917Y-99459681D01*
X127764718Y-99557699D01*
X127764714Y-99557701D01*
X127574735Y-99690726D01*
X127574729Y-99690731D01*
X127545029Y-99720432D01*
X127483706Y-99753917D01*
X127414014Y-99748933D01*
X127369667Y-99720432D01*
X127000056Y-99350821D01*
X126966571Y-99289498D01*
X126971555Y-99219806D01*
X126982740Y-99197172D01*
X127069857Y-99058528D01*
X127122192Y-99012237D01*
X127174851Y-99000500D01*
X132513331Y-99000500D01*
X132513347Y-99000501D01*
X132520943Y-99000501D01*
X132679054Y-99000501D01*
X132679057Y-99000501D01*
X132831785Y-98959577D01*
X132881904Y-98930639D01*
X132968716Y-98880520D01*
X132999236Y-98850000D01*
X133700000Y-98850000D01*
X133700000Y-99047844D01*
X133706401Y-99107372D01*
X133706403Y-99107379D01*
X133756645Y-99242086D01*
X133756649Y-99242093D01*
X133842809Y-99357187D01*
X133842812Y-99357190D01*
X133957906Y-99443350D01*
X133957913Y-99443354D01*
X134092620Y-99493596D01*
X134092627Y-99493598D01*
X134152155Y-99499999D01*
X134152172Y-99500000D01*
X134350000Y-99500000D01*
X134350000Y-98850000D01*
X133700000Y-98850000D01*
X132999236Y-98850000D01*
X133080520Y-98768716D01*
X133080520Y-98768714D01*
X133090728Y-98758507D01*
X133090729Y-98758504D01*
X133511937Y-98337297D01*
X133573259Y-98303813D01*
X133642951Y-98308797D01*
G37*
%TD.AperFunction*%
%TA.AperFunction,Conductor*%
G36*
X148909700Y-98955094D02*
G01*
X148916179Y-98961126D01*
X148984226Y-99029173D01*
X148988938Y-99033040D01*
X148987366Y-99034954D01*
X149025201Y-99080233D01*
X149035501Y-99129713D01*
X149035501Y-99226569D01*
X149035502Y-99226576D01*
X149041909Y-99286183D01*
X149092203Y-99421028D01*
X149092205Y-99421031D01*
X149149766Y-99497922D01*
X149174184Y-99563385D01*
X149174500Y-99572233D01*
X149174500Y-101059445D01*
X149154815Y-101126484D01*
X149102011Y-101172239D01*
X149032853Y-101182183D01*
X148969297Y-101153158D01*
X148931523Y-101094380D01*
X148930725Y-101091539D01*
X148921310Y-101056403D01*
X148909577Y-101012615D01*
X148880639Y-100962495D01*
X148830520Y-100875684D01*
X148718716Y-100763880D01*
X148718715Y-100763879D01*
X148714385Y-100759549D01*
X148714374Y-100759539D01*
X148556819Y-100601984D01*
X148523334Y-100540661D01*
X148520500Y-100514303D01*
X148520500Y-99628653D01*
X148540185Y-99561614D01*
X148556823Y-99540968D01*
X148561541Y-99536248D01*
X148561545Y-99536246D01*
X148647795Y-99421031D01*
X148698090Y-99286183D01*
X148704499Y-99226573D01*
X148704498Y-99048805D01*
X148724182Y-98981768D01*
X148776986Y-98936013D01*
X148846144Y-98926069D01*
X148909700Y-98955094D01*
G37*
%TD.AperFunction*%
%TA.AperFunction,Conductor*%
G36*
X155392539Y-97110185D02*
G01*
X155438294Y-97162989D01*
X155449500Y-97214500D01*
X155449500Y-98022870D01*
X155449501Y-98022876D01*
X155455908Y-98082483D01*
X155506202Y-98217328D01*
X155506203Y-98217329D01*
X155506204Y-98217331D01*
X155588881Y-98327773D01*
X155592454Y-98332546D01*
X155599808Y-98338051D01*
X155641681Y-98393983D01*
X155649500Y-98437320D01*
X155649500Y-99694599D01*
X155629815Y-99761638D01*
X155613181Y-99782280D01*
X155450731Y-99944729D01*
X155450726Y-99944735D01*
X155317701Y-100134714D01*
X155317698Y-100134720D01*
X155312381Y-100146123D01*
X155266207Y-100198562D01*
X155199013Y-100217712D01*
X155132133Y-100197495D01*
X155087619Y-100146123D01*
X155082301Y-100134720D01*
X155082298Y-100134714D01*
X154949273Y-99944735D01*
X154949268Y-99944729D01*
X154785269Y-99780730D01*
X154756949Y-99760900D01*
X154595282Y-99647699D01*
X154385079Y-99549680D01*
X154385076Y-99549679D01*
X154385074Y-99549678D01*
X154161051Y-99489651D01*
X154161044Y-99489650D01*
X153930002Y-99469437D01*
X153929998Y-99469437D01*
X153698955Y-99489650D01*
X153698944Y-99489652D01*
X153586655Y-99519740D01*
X153516805Y-99518077D01*
X153466881Y-99487646D01*
X153286819Y-99307584D01*
X153253334Y-99246261D01*
X153250500Y-99219903D01*
X153250500Y-98437320D01*
X153270185Y-98370281D01*
X153300192Y-98338051D01*
X153301198Y-98337298D01*
X153307546Y-98332546D01*
X153307548Y-98332542D01*
X153312315Y-98327777D01*
X153373636Y-98294289D01*
X153443328Y-98299270D01*
X153487681Y-98327773D01*
X153492455Y-98332547D01*
X153607664Y-98418793D01*
X153607671Y-98418797D01*
X153617570Y-98422489D01*
X153742517Y-98469091D01*
X153802127Y-98475500D01*
X154497872Y-98475499D01*
X154557483Y-98469091D01*
X154692331Y-98418796D01*
X154807546Y-98332546D01*
X154893796Y-98217331D01*
X154944091Y-98082483D01*
X154950500Y-98022873D01*
X154950499Y-97214499D01*
X154970183Y-97147461D01*
X155022987Y-97101706D01*
X155074499Y-97090500D01*
X155325500Y-97090500D01*
X155392539Y-97110185D01*
G37*
%TD.AperFunction*%
%TA.AperFunction,Conductor*%
G36*
X145821231Y-95870185D02*
G01*
X145841873Y-95886819D01*
X147284867Y-97329813D01*
X147318352Y-97391136D01*
X147313368Y-97460828D01*
X147282092Y-97502645D01*
X147284727Y-97505280D01*
X147278450Y-97511557D01*
X147192205Y-97626764D01*
X147192201Y-97626771D01*
X147141909Y-97761613D01*
X147141908Y-97761617D01*
X147136420Y-97812658D01*
X147109684Y-97877206D01*
X147052292Y-97917054D01*
X147013132Y-97923400D01*
X146923997Y-97923400D01*
X146856958Y-97903715D01*
X146836316Y-97887081D01*
X145155590Y-96206355D01*
X145155588Y-96206352D01*
X145036717Y-96087481D01*
X145036716Y-96087480D01*
X145027029Y-96081887D01*
X144978814Y-96031321D01*
X144965590Y-95962714D01*
X144991558Y-95897849D01*
X145048472Y-95857320D01*
X145089029Y-95850500D01*
X145754192Y-95850500D01*
X145821231Y-95870185D01*
G37*
%TD.AperFunction*%
%TA.AperFunction,Conductor*%
G36*
X133417865Y-92802504D02*
G01*
X133462381Y-92853878D01*
X133467699Y-92865282D01*
X133600730Y-93055269D01*
X133764731Y-93219270D01*
X133954718Y-93352301D01*
X134164921Y-93450320D01*
X134388950Y-93510349D01*
X134553985Y-93524787D01*
X134619998Y-93530563D01*
X134620000Y-93530563D01*
X134620002Y-93530563D01*
X134677762Y-93525509D01*
X134851050Y-93510349D01*
X135075079Y-93450320D01*
X135285282Y-93352301D01*
X135475269Y-93219270D01*
X135639270Y-93055269D01*
X135772301Y-92865282D01*
X135772308Y-92865265D01*
X135773904Y-92862504D01*
X135774932Y-92861523D01*
X135775406Y-92860847D01*
X135775541Y-92860942D01*
X135824470Y-92814287D01*
X135881294Y-92800500D01*
X139428903Y-92800500D01*
X139495942Y-92820185D01*
X139516584Y-92836819D01*
X141017584Y-94337819D01*
X141051069Y-94399142D01*
X141046085Y-94468834D01*
X141004213Y-94524767D01*
X140938749Y-94549184D01*
X140929903Y-94549500D01*
X132435929Y-94549500D01*
X132310261Y-94574497D01*
X132310255Y-94574499D01*
X132191870Y-94623535D01*
X132085331Y-94694722D01*
X132085324Y-94694728D01*
X131201775Y-95578277D01*
X131140452Y-95611762D01*
X131127988Y-95613815D01*
X131120752Y-95614630D01*
X131120744Y-95614632D01*
X130950477Y-95674210D01*
X130855632Y-95733806D01*
X130788395Y-95752806D01*
X130721560Y-95732438D01*
X130690394Y-95703123D01*
X130607547Y-95592455D01*
X130607544Y-95592452D01*
X130492335Y-95506206D01*
X130492328Y-95506202D01*
X130357486Y-95455910D01*
X130357485Y-95455909D01*
X130357483Y-95455909D01*
X130297873Y-95449500D01*
X130297863Y-95449500D01*
X129602129Y-95449500D01*
X129602123Y-95449501D01*
X129542516Y-95455908D01*
X129407671Y-95506202D01*
X129407664Y-95506206D01*
X129292455Y-95592452D01*
X129287681Y-95597227D01*
X129226358Y-95630712D01*
X129156666Y-95625728D01*
X129112319Y-95597227D01*
X129107544Y-95592452D01*
X128992335Y-95506206D01*
X128992328Y-95506202D01*
X128857486Y-95455910D01*
X128857485Y-95455909D01*
X128857483Y-95455909D01*
X128797873Y-95449500D01*
X128797863Y-95449500D01*
X128102129Y-95449500D01*
X128102123Y-95449501D01*
X128042516Y-95455908D01*
X127907671Y-95506202D01*
X127907664Y-95506206D01*
X127792455Y-95592452D01*
X127792452Y-95592455D01*
X127706206Y-95707664D01*
X127706204Y-95707668D01*
X127706204Y-95707669D01*
X127702039Y-95718834D01*
X127660171Y-95774766D01*
X127594707Y-95799184D01*
X127585859Y-95799500D01*
X127086669Y-95799500D01*
X127086653Y-95799499D01*
X127079057Y-95799499D01*
X126920943Y-95799499D01*
X126848498Y-95818911D01*
X126768216Y-95840422D01*
X126735102Y-95859541D01*
X126735101Y-95859540D01*
X126631287Y-95919477D01*
X126631282Y-95919481D01*
X125119481Y-97431282D01*
X125119475Y-97431290D01*
X125082230Y-97495802D01*
X125082230Y-97495804D01*
X125040423Y-97568214D01*
X125035672Y-97585946D01*
X124999499Y-97720943D01*
X124999499Y-97720945D01*
X124999499Y-97750902D01*
X124979814Y-97817941D01*
X124927010Y-97863696D01*
X124857852Y-97873640D01*
X124794296Y-97844615D01*
X124787818Y-97838583D01*
X123661415Y-96712180D01*
X123627930Y-96650857D01*
X123632914Y-96581165D01*
X123674786Y-96525232D01*
X123740250Y-96500815D01*
X123749096Y-96500499D01*
X124532871Y-96500499D01*
X124532872Y-96500499D01*
X124592483Y-96494091D01*
X124727331Y-96443796D01*
X124842546Y-96357546D01*
X124869227Y-96321903D01*
X124885485Y-96300188D01*
X124941419Y-96258318D01*
X124984751Y-96250500D01*
X125463331Y-96250500D01*
X125463347Y-96250501D01*
X125470943Y-96250501D01*
X125629054Y-96250501D01*
X125629057Y-96250501D01*
X125781785Y-96209577D01*
X125853424Y-96168216D01*
X125918716Y-96130520D01*
X126030520Y-96018716D01*
X126030520Y-96018714D01*
X126040724Y-96008511D01*
X126040727Y-96008506D01*
X126912417Y-95136819D01*
X126973740Y-95103334D01*
X127000098Y-95100500D01*
X130513331Y-95100500D01*
X130513347Y-95100501D01*
X130520943Y-95100501D01*
X130679054Y-95100501D01*
X130679057Y-95100501D01*
X130831785Y-95059577D01*
X130897223Y-95021796D01*
X130968716Y-94980520D01*
X131080520Y-94868716D01*
X131080520Y-94868714D01*
X131090724Y-94858511D01*
X131090728Y-94858506D01*
X132438505Y-93510729D01*
X132438510Y-93510725D01*
X132448713Y-93500520D01*
X132448716Y-93500520D01*
X132462184Y-93487050D01*
X132517778Y-93454955D01*
X132535079Y-93450320D01*
X132745282Y-93352301D01*
X132935269Y-93219270D01*
X133099270Y-93055269D01*
X133232301Y-92865282D01*
X133237618Y-92853878D01*
X133283790Y-92801440D01*
X133350984Y-92782288D01*
X133417865Y-92802504D01*
G37*
%TD.AperFunction*%
%TA.AperFunction,Conductor*%
G36*
X147910387Y-91298985D02*
G01*
X147931029Y-91315619D01*
X148238181Y-91622771D01*
X148271666Y-91684094D01*
X148274500Y-91710452D01*
X148274500Y-95383014D01*
X148254815Y-95450053D01*
X148233930Y-95472490D01*
X148234724Y-95473284D01*
X148228452Y-95479555D01*
X148142206Y-95594764D01*
X148142202Y-95594771D01*
X148091908Y-95729617D01*
X148085501Y-95789216D01*
X148085500Y-95789235D01*
X148085500Y-95991191D01*
X148065815Y-96058230D01*
X148013011Y-96103985D01*
X147943853Y-96113929D01*
X147880297Y-96084904D01*
X147873819Y-96078872D01*
X146489673Y-94694726D01*
X146489669Y-94694723D01*
X146383127Y-94623535D01*
X146264744Y-94574499D01*
X146264738Y-94574497D01*
X146139071Y-94549500D01*
X146139069Y-94549500D01*
X142866602Y-94549500D01*
X142799563Y-94529815D01*
X142753808Y-94477011D01*
X142744090Y-94416064D01*
X142743665Y-94416064D01*
X142743665Y-94413400D01*
X142743381Y-94411619D01*
X142743665Y-94409097D01*
X142743665Y-94409096D01*
X142723469Y-94229850D01*
X142723468Y-94229845D01*
X142663888Y-94059576D01*
X142567915Y-93906837D01*
X142440362Y-93779284D01*
X142287621Y-93683310D01*
X142117349Y-93623730D01*
X142030430Y-93613937D01*
X141966016Y-93586870D01*
X141956633Y-93578398D01*
X140216590Y-91838355D01*
X140216588Y-91838352D01*
X140097717Y-91719481D01*
X140097716Y-91719480D01*
X139995330Y-91660368D01*
X139995329Y-91660367D01*
X139960783Y-91640422D01*
X139894908Y-91622771D01*
X139808057Y-91599499D01*
X139649943Y-91599499D01*
X139642347Y-91599499D01*
X139642331Y-91599500D01*
X135881294Y-91599500D01*
X135814255Y-91579815D01*
X135775451Y-91539120D01*
X135775406Y-91539153D01*
X135775195Y-91538851D01*
X135773908Y-91537502D01*
X135772300Y-91534717D01*
X135730082Y-91474423D01*
X135707755Y-91408217D01*
X135724765Y-91340450D01*
X135775714Y-91292637D01*
X135831657Y-91279300D01*
X147843348Y-91279300D01*
X147910387Y-91298985D01*
G37*
%TD.AperFunction*%
%TA.AperFunction,Conductor*%
G36*
X130696333Y-92145185D02*
G01*
X130742088Y-92197989D01*
X130752822Y-92238693D01*
X130769650Y-92431044D01*
X130769651Y-92431051D01*
X130829678Y-92655074D01*
X130829679Y-92655076D01*
X130829680Y-92655079D01*
X130927699Y-92865282D01*
X131056552Y-93049303D01*
X131078879Y-93115507D01*
X131061869Y-93183275D01*
X131042658Y-93208106D01*
X130387584Y-93863181D01*
X130326261Y-93896666D01*
X130299903Y-93899500D01*
X126786670Y-93899500D01*
X126786654Y-93899499D01*
X126779058Y-93899499D01*
X126620943Y-93899499D01*
X126544579Y-93919961D01*
X126468214Y-93940423D01*
X126468209Y-93940426D01*
X126331290Y-94019475D01*
X126331282Y-94019481D01*
X125337584Y-95013181D01*
X125276261Y-95046666D01*
X125249903Y-95049500D01*
X125109500Y-95049500D01*
X125042461Y-95029815D01*
X124996706Y-94977011D01*
X124985500Y-94925500D01*
X124985499Y-94152129D01*
X124985498Y-94152123D01*
X124979091Y-94092517D01*
X124979090Y-94092514D01*
X124960747Y-94043334D01*
X124955762Y-93973643D01*
X124960747Y-93956665D01*
X124979089Y-93907488D01*
X124979091Y-93907483D01*
X124985500Y-93847873D01*
X124985499Y-93099499D01*
X125005183Y-93032461D01*
X125057987Y-92986706D01*
X125109499Y-92975500D01*
X126431535Y-92975500D01*
X126498574Y-92995185D01*
X126530800Y-93025187D01*
X126592454Y-93107546D01*
X126603089Y-93115507D01*
X126707664Y-93193793D01*
X126707671Y-93193797D01*
X126842517Y-93244091D01*
X126842516Y-93244091D01*
X126849444Y-93244835D01*
X126902127Y-93250500D01*
X127797872Y-93250499D01*
X127857483Y-93244091D01*
X127924032Y-93219270D01*
X127992329Y-93193797D01*
X127992329Y-93193796D01*
X127992331Y-93193796D01*
X128026106Y-93168511D01*
X128091566Y-93144094D01*
X128159840Y-93158944D01*
X128174728Y-93168512D01*
X128207910Y-93193352D01*
X128207913Y-93193354D01*
X128342620Y-93243596D01*
X128342627Y-93243598D01*
X128402155Y-93249999D01*
X128402172Y-93250000D01*
X128600000Y-93250000D01*
X128600000Y-92600000D01*
X129100000Y-92600000D01*
X129100000Y-93250000D01*
X129297828Y-93250000D01*
X129297844Y-93249999D01*
X129357372Y-93243598D01*
X129357379Y-93243596D01*
X129492086Y-93193354D01*
X129492093Y-93193350D01*
X129607187Y-93107190D01*
X129607190Y-93107187D01*
X129693350Y-92992093D01*
X129693354Y-92992086D01*
X129743596Y-92857379D01*
X129743598Y-92857372D01*
X129749999Y-92797844D01*
X129750000Y-92797827D01*
X129750000Y-92600000D01*
X129100000Y-92600000D01*
X128600000Y-92600000D01*
X128600000Y-92249500D01*
X128619685Y-92182461D01*
X128672489Y-92136706D01*
X128724000Y-92125500D01*
X130629294Y-92125500D01*
X130696333Y-92145185D01*
G37*
%TD.AperFunction*%
%TA.AperFunction,Conductor*%
G36*
X151457586Y-86245185D02*
G01*
X151503341Y-86297989D01*
X151513285Y-86367147D01*
X151484260Y-86430703D01*
X151478228Y-86437181D01*
X147923429Y-89991981D01*
X147862106Y-90025466D01*
X147835748Y-90028300D01*
X138019113Y-90028300D01*
X137952074Y-90008615D01*
X137906319Y-89955811D01*
X137895893Y-89918183D01*
X137881569Y-89791050D01*
X137881568Y-89791045D01*
X137853510Y-89710859D01*
X137821989Y-89620778D01*
X137726016Y-89468038D01*
X137598462Y-89340484D01*
X137529753Y-89297311D01*
X137445723Y-89244511D01*
X137275454Y-89184931D01*
X137275449Y-89184930D01*
X137096204Y-89164735D01*
X137096196Y-89164735D01*
X136916950Y-89184930D01*
X136916945Y-89184931D01*
X136746676Y-89244511D01*
X136593936Y-89340485D01*
X136591103Y-89342745D01*
X136588924Y-89343634D01*
X136588042Y-89344189D01*
X136587944Y-89344034D01*
X136526417Y-89369155D01*
X136513788Y-89369800D01*
X131058796Y-89369800D01*
X130991757Y-89350115D01*
X130946002Y-89297311D01*
X130936058Y-89228153D01*
X130965083Y-89164597D01*
X130971115Y-89158119D01*
X131232693Y-88896541D01*
X131716882Y-88412351D01*
X131778203Y-88378868D01*
X131836654Y-88380258D01*
X131948950Y-88410349D01*
X132113985Y-88424787D01*
X132179998Y-88430563D01*
X132180000Y-88430563D01*
X132180002Y-88430563D01*
X132237762Y-88425509D01*
X132411050Y-88410349D01*
X132635079Y-88350320D01*
X132845282Y-88252301D01*
X133035269Y-88119270D01*
X133199270Y-87955269D01*
X133332301Y-87765282D01*
X133337618Y-87753878D01*
X133383790Y-87701440D01*
X133450984Y-87682288D01*
X133517865Y-87702504D01*
X133562381Y-87753878D01*
X133567699Y-87765282D01*
X133700730Y-87955269D01*
X133864731Y-88119270D01*
X134054718Y-88252301D01*
X134264921Y-88350320D01*
X134488950Y-88410349D01*
X134653985Y-88424787D01*
X134719998Y-88430563D01*
X134720000Y-88430563D01*
X134720002Y-88430563D01*
X134777762Y-88425509D01*
X134951050Y-88410349D01*
X135175079Y-88350320D01*
X135385282Y-88252301D01*
X135575269Y-88119270D01*
X135739270Y-87955269D01*
X135872301Y-87765282D01*
X135970320Y-87555079D01*
X136030349Y-87331050D01*
X136050563Y-87100000D01*
X136030349Y-86868950D01*
X135970320Y-86644921D01*
X135872301Y-86434719D01*
X135862432Y-86420624D01*
X135840104Y-86354418D01*
X135857114Y-86286651D01*
X135908061Y-86238837D01*
X135964006Y-86225500D01*
X151390547Y-86225500D01*
X151457586Y-86245185D01*
G37*
%TD.AperFunction*%
%TA.AperFunction,Conductor*%
G36*
X130102471Y-89520185D02*
G01*
X130148226Y-89572989D01*
X130158170Y-89642147D01*
X130129145Y-89705703D01*
X130123113Y-89712181D01*
X130072113Y-89763181D01*
X130010790Y-89796666D01*
X129984432Y-89799500D01*
X127000097Y-89799500D01*
X126933058Y-89779815D01*
X126912416Y-89763181D01*
X126861416Y-89712181D01*
X126827931Y-89650858D01*
X126832915Y-89581166D01*
X126874787Y-89525233D01*
X126940251Y-89500816D01*
X126949097Y-89500500D01*
X130035432Y-89500500D01*
X130102471Y-89520185D01*
G37*
%TD.AperFunction*%
%TA.AperFunction,Conductor*%
G36*
X150086227Y-84620185D02*
G01*
X150096503Y-84627555D01*
X150099336Y-84629814D01*
X150099338Y-84629816D01*
X150143324Y-84657454D01*
X150252078Y-84725789D01*
X150273994Y-84733458D01*
X150330770Y-84774180D01*
X150356518Y-84839132D01*
X150343062Y-84907694D01*
X150294675Y-84958097D01*
X150233040Y-84974500D01*
X128788389Y-84974500D01*
X128727971Y-84986518D01*
X128684743Y-84995116D01*
X128667546Y-84998537D01*
X128593254Y-85029311D01*
X128593253Y-85029311D01*
X128553718Y-85045686D01*
X128553716Y-85045687D01*
X128451265Y-85114142D01*
X128451262Y-85114145D01*
X127402227Y-86163181D01*
X127340904Y-86196666D01*
X127314546Y-86199500D01*
X126902129Y-86199500D01*
X126902123Y-86199501D01*
X126842516Y-86205908D01*
X126707671Y-86256202D01*
X126707664Y-86256206D01*
X126592455Y-86342452D01*
X126592452Y-86342455D01*
X126506206Y-86457664D01*
X126506202Y-86457671D01*
X126455908Y-86592517D01*
X126449501Y-86652116D01*
X126449500Y-86652135D01*
X126449500Y-87547870D01*
X126449501Y-87547876D01*
X126455908Y-87607483D01*
X126506202Y-87742328D01*
X126506206Y-87742335D01*
X126592452Y-87857544D01*
X126592455Y-87857547D01*
X126707664Y-87943793D01*
X126707671Y-87943797D01*
X126842517Y-87994091D01*
X126842516Y-87994091D01*
X126849444Y-87994835D01*
X126902127Y-88000500D01*
X127797872Y-88000499D01*
X127857483Y-87994091D01*
X127858810Y-87993596D01*
X127992329Y-87943797D01*
X127992329Y-87943796D01*
X127992331Y-87943796D01*
X128026106Y-87918511D01*
X128091566Y-87894094D01*
X128159840Y-87908944D01*
X128174728Y-87918512D01*
X128207910Y-87943352D01*
X128207913Y-87943354D01*
X128342620Y-87993596D01*
X128342627Y-87993598D01*
X128402155Y-87999999D01*
X128402172Y-88000000D01*
X128600000Y-88000000D01*
X128600000Y-87350000D01*
X129100000Y-87350000D01*
X129100000Y-88000000D01*
X129297828Y-88000000D01*
X129297844Y-87999999D01*
X129357372Y-87993598D01*
X129357379Y-87993596D01*
X129492086Y-87943354D01*
X129492093Y-87943350D01*
X129607187Y-87857190D01*
X129607190Y-87857187D01*
X129693350Y-87742093D01*
X129693354Y-87742086D01*
X129743596Y-87607379D01*
X129743598Y-87607372D01*
X129749999Y-87547844D01*
X129750000Y-87547827D01*
X129750000Y-87350000D01*
X129100000Y-87350000D01*
X128600000Y-87350000D01*
X128600000Y-86974000D01*
X128619685Y-86906961D01*
X128672489Y-86861206D01*
X128724000Y-86850000D01*
X129750000Y-86850000D01*
X129750000Y-86652172D01*
X129749999Y-86652155D01*
X129743598Y-86592627D01*
X129743596Y-86592620D01*
X129693354Y-86457913D01*
X129693352Y-86457910D01*
X129667826Y-86423812D01*
X129643408Y-86358348D01*
X129658259Y-86290075D01*
X129707663Y-86240669D01*
X129767092Y-86225500D01*
X130935994Y-86225500D01*
X131003033Y-86245185D01*
X131048788Y-86297989D01*
X131058732Y-86367147D01*
X131037568Y-86420624D01*
X131027703Y-86434712D01*
X131027699Y-86434718D01*
X130929681Y-86644917D01*
X130869651Y-86868948D01*
X130869650Y-86868955D01*
X130849437Y-87099998D01*
X130849437Y-87100001D01*
X130869650Y-87331044D01*
X130869653Y-87331058D01*
X130899739Y-87443345D01*
X130898076Y-87513194D01*
X130867645Y-87563118D01*
X130167584Y-88263181D01*
X130106261Y-88296666D01*
X130079903Y-88299500D01*
X126400097Y-88299500D01*
X126333058Y-88279815D01*
X126312416Y-88263181D01*
X125637590Y-87588355D01*
X125637588Y-87588352D01*
X125518717Y-87469481D01*
X125518716Y-87469480D01*
X125409492Y-87406420D01*
X125409491Y-87406419D01*
X125381783Y-87390422D01*
X125255651Y-87356625D01*
X125195991Y-87320259D01*
X125165462Y-87257412D01*
X125173757Y-87188037D01*
X125200061Y-87149172D01*
X127712417Y-84636819D01*
X127773740Y-84603334D01*
X127800098Y-84600500D01*
X150019188Y-84600500D01*
X150086227Y-84620185D01*
G37*
%TD.AperFunction*%
%TA.AperFunction,Conductor*%
G36*
X153413049Y-82409992D02*
G01*
X153423952Y-82422575D01*
X153468159Y-82481114D01*
X153626278Y-82625258D01*
X153640775Y-82634234D01*
X153687411Y-82686259D01*
X153699500Y-82739662D01*
X153699500Y-84164548D01*
X153679815Y-84231587D01*
X153663181Y-84252229D01*
X152977229Y-84938181D01*
X152915906Y-84971666D01*
X152889548Y-84974500D01*
X150970160Y-84974500D01*
X150903121Y-84954815D01*
X150857366Y-84902011D01*
X150847422Y-84832853D01*
X150876447Y-84769297D01*
X150929206Y-84733458D01*
X150938546Y-84730189D01*
X150951122Y-84725789D01*
X151103862Y-84629816D01*
X151231416Y-84502262D01*
X151327389Y-84349522D01*
X151385196Y-84184318D01*
X151425918Y-84127543D01*
X151490871Y-84101795D01*
X151559432Y-84115251D01*
X151568199Y-84120273D01*
X151576976Y-84125788D01*
X151576978Y-84125789D01*
X151747245Y-84185368D01*
X151747250Y-84185369D01*
X151926496Y-84205565D01*
X151926500Y-84205565D01*
X151926504Y-84205565D01*
X152105749Y-84185369D01*
X152105752Y-84185368D01*
X152105755Y-84185368D01*
X152276022Y-84125789D01*
X152428762Y-84029816D01*
X152556316Y-83902262D01*
X152652289Y-83749522D01*
X152711868Y-83579255D01*
X152732065Y-83400000D01*
X152731973Y-83399184D01*
X152711869Y-83220750D01*
X152711868Y-83220745D01*
X152700347Y-83187819D01*
X152652289Y-83050478D01*
X152611413Y-82985425D01*
X152592414Y-82918190D01*
X152612781Y-82851354D01*
X152666049Y-82806140D01*
X152671596Y-82803834D01*
X152841810Y-82737893D01*
X153023722Y-82625258D01*
X153181841Y-82481114D01*
X153226046Y-82422576D01*
X153282155Y-82380941D01*
X153351867Y-82376250D01*
X153413049Y-82409992D01*
G37*
%TD.AperFunction*%
%TA.AperFunction,Conductor*%
G36*
X123300000Y-79752661D02*
G01*
X123327259Y-79854394D01*
X123379920Y-79945606D01*
X123454394Y-80020080D01*
X123545606Y-80072741D01*
X123647339Y-80100000D01*
X123653553Y-80100000D01*
X123069911Y-80683641D01*
X123064862Y-80713040D01*
X123018796Y-80763894D01*
X123001281Y-80774738D01*
X123001277Y-80774742D01*
X122843160Y-80918884D01*
X122798954Y-80977422D01*
X122742844Y-81019058D01*
X122673132Y-81023749D01*
X122611951Y-80990007D01*
X122601046Y-80977422D01*
X122556842Y-80918887D01*
X122556838Y-80918883D01*
X122417251Y-80791633D01*
X122380973Y-80731927D01*
X122382733Y-80662079D01*
X122417251Y-80608366D01*
X122556841Y-80481114D01*
X122638507Y-80372970D01*
X122694613Y-80331336D01*
X122718521Y-80327924D01*
X123300000Y-79746445D01*
X123300000Y-79752661D01*
G37*
%TD.AperFunction*%
%TA.AperFunction,Conductor*%
G36*
X124684194Y-80330640D02*
G01*
X124722197Y-80338992D01*
X124761493Y-80372971D01*
X124843160Y-80481116D01*
X124982744Y-80608363D01*
X125019026Y-80668074D01*
X125017265Y-80737922D01*
X124982744Y-80791637D01*
X124843160Y-80918884D01*
X124798954Y-80977422D01*
X124742844Y-81019058D01*
X124673132Y-81023749D01*
X124611951Y-80990007D01*
X124601046Y-80977422D01*
X124556842Y-80918887D01*
X124556838Y-80918883D01*
X124398722Y-80774742D01*
X124381204Y-80763895D01*
X124334570Y-80711868D01*
X124329831Y-80683385D01*
X123746448Y-80100000D01*
X123752661Y-80100000D01*
X123854394Y-80072741D01*
X123945606Y-80020080D01*
X124020080Y-79945606D01*
X124072741Y-79854394D01*
X124100000Y-79752661D01*
X124100000Y-79746446D01*
X124684194Y-80330640D01*
G37*
%TD.AperFunction*%
%TA.AperFunction,Conductor*%
G36*
X151925000Y-79752661D02*
G01*
X151952259Y-79854394D01*
X152004920Y-79945606D01*
X152079394Y-80020080D01*
X152170606Y-80072741D01*
X152272339Y-80100000D01*
X152278553Y-80100000D01*
X151694911Y-80683641D01*
X151689862Y-80713040D01*
X151643796Y-80763894D01*
X151626281Y-80774738D01*
X151626277Y-80774742D01*
X151468160Y-80918884D01*
X151423954Y-80977422D01*
X151367844Y-81019058D01*
X151298132Y-81023749D01*
X151236951Y-80990007D01*
X151226046Y-80977422D01*
X151181842Y-80918887D01*
X151181838Y-80918883D01*
X151042251Y-80791633D01*
X151005973Y-80731927D01*
X151007733Y-80662079D01*
X151042251Y-80608366D01*
X151181841Y-80481114D01*
X151263507Y-80372970D01*
X151319613Y-80331336D01*
X151343521Y-80327924D01*
X151925000Y-79746445D01*
X151925000Y-79752661D01*
G37*
%TD.AperFunction*%
%TA.AperFunction,Conductor*%
G36*
X153309194Y-80330640D02*
G01*
X153347197Y-80338992D01*
X153386493Y-80372971D01*
X153468160Y-80481116D01*
X153607744Y-80608363D01*
X153644026Y-80668074D01*
X153642265Y-80737922D01*
X153607744Y-80791637D01*
X153468160Y-80918884D01*
X153423954Y-80977422D01*
X153367844Y-81019058D01*
X153298132Y-81023749D01*
X153236951Y-80990007D01*
X153226046Y-80977422D01*
X153181842Y-80918887D01*
X153181838Y-80918883D01*
X153023722Y-80774742D01*
X153006204Y-80763895D01*
X152959570Y-80711868D01*
X152954831Y-80683385D01*
X152371448Y-80100000D01*
X152377661Y-80100000D01*
X152479394Y-80072741D01*
X152570606Y-80020080D01*
X152645080Y-79945606D01*
X152697741Y-79854394D01*
X152725000Y-79752661D01*
X152725000Y-79746446D01*
X153309194Y-80330640D01*
G37*
%TD.AperFunction*%
%TA.AperFunction,Conductor*%
G36*
X167642539Y-73720185D02*
G01*
X167688294Y-73772989D01*
X167699500Y-73824500D01*
X167699500Y-132975500D01*
X167679815Y-133042539D01*
X167627011Y-133088294D01*
X167575500Y-133099500D01*
X108424500Y-133099500D01*
X108357461Y-133079815D01*
X108311706Y-133027011D01*
X108300500Y-132975500D01*
X108300500Y-130000005D01*
X108995255Y-130000005D01*
X109014215Y-130301383D01*
X109014216Y-130301390D01*
X109070805Y-130598040D01*
X109164125Y-130885247D01*
X109164127Y-130885252D01*
X109292704Y-131158491D01*
X109292707Y-131158497D01*
X109454516Y-131413469D01*
X109535311Y-131511133D01*
X110463708Y-130582736D01*
X110560967Y-130716602D01*
X110683398Y-130839033D01*
X110817262Y-130936290D01*
X109886564Y-131866987D01*
X109886565Y-131866989D01*
X110111461Y-132030385D01*
X110111479Y-132030397D01*
X110376109Y-132175878D01*
X110376117Y-132175882D01*
X110656889Y-132287047D01*
X110656892Y-132287048D01*
X110949399Y-132362150D01*
X111248995Y-132399999D01*
X111249007Y-132400000D01*
X111550993Y-132400000D01*
X111551004Y-132399999D01*
X111850600Y-132362150D01*
X112143107Y-132287048D01*
X112143110Y-132287047D01*
X112423882Y-132175882D01*
X112423890Y-132175878D01*
X112688520Y-132030397D01*
X112688530Y-132030390D01*
X112913433Y-131866987D01*
X112913434Y-131866987D01*
X111982737Y-130936290D01*
X112116602Y-130839033D01*
X112239033Y-130716602D01*
X112336290Y-130582737D01*
X113264687Y-131511134D01*
X113345486Y-131413464D01*
X113507292Y-131158497D01*
X113507295Y-131158491D01*
X113635872Y-130885252D01*
X113635874Y-130885247D01*
X113729194Y-130598040D01*
X113785783Y-130301390D01*
X113785784Y-130301383D01*
X113804745Y-130000005D01*
X162195255Y-130000005D01*
X162214215Y-130301383D01*
X162214216Y-130301390D01*
X162270805Y-130598040D01*
X162364125Y-130885247D01*
X162364127Y-130885252D01*
X162492704Y-131158491D01*
X162492707Y-131158497D01*
X162654516Y-131413469D01*
X162735311Y-131511133D01*
X163663708Y-130582736D01*
X163760967Y-130716602D01*
X163883398Y-130839033D01*
X164017262Y-130936290D01*
X163086564Y-131866987D01*
X163086565Y-131866989D01*
X163311461Y-132030385D01*
X163311479Y-132030397D01*
X163576109Y-132175878D01*
X163576117Y-132175882D01*
X163856889Y-132287047D01*
X163856892Y-132287048D01*
X164149399Y-132362150D01*
X164448995Y-132399999D01*
X164449007Y-132400000D01*
X164750993Y-132400000D01*
X164751004Y-132399999D01*
X165050600Y-132362150D01*
X165343107Y-132287048D01*
X165343110Y-132287047D01*
X165623882Y-132175882D01*
X165623890Y-132175878D01*
X165888520Y-132030397D01*
X165888530Y-132030390D01*
X166113433Y-131866987D01*
X166113434Y-131866987D01*
X165182737Y-130936290D01*
X165316602Y-130839033D01*
X165439033Y-130716602D01*
X165536290Y-130582737D01*
X166464687Y-131511134D01*
X166545486Y-131413464D01*
X166707292Y-131158497D01*
X166707295Y-131158491D01*
X166835872Y-130885252D01*
X166835874Y-130885247D01*
X166929194Y-130598040D01*
X166985783Y-130301390D01*
X166985784Y-130301383D01*
X167004745Y-130000005D01*
X167004745Y-129999994D01*
X166985784Y-129698616D01*
X166985783Y-129698609D01*
X166929194Y-129401959D01*
X166835874Y-129114752D01*
X166835872Y-129114747D01*
X166707295Y-128841508D01*
X166707292Y-128841502D01*
X166545483Y-128586530D01*
X166464686Y-128488864D01*
X165536289Y-129417261D01*
X165439033Y-129283398D01*
X165316602Y-129160967D01*
X165182736Y-129063709D01*
X166113434Y-128133011D01*
X166113433Y-128133009D01*
X165888538Y-127969614D01*
X165888520Y-127969602D01*
X165623890Y-127824121D01*
X165623882Y-127824117D01*
X165343110Y-127712952D01*
X165343107Y-127712951D01*
X165050600Y-127637849D01*
X164751004Y-127600000D01*
X164448995Y-127600000D01*
X164149399Y-127637849D01*
X163856892Y-127712951D01*
X163856889Y-127712952D01*
X163576117Y-127824117D01*
X163576109Y-127824121D01*
X163311476Y-127969604D01*
X163311471Y-127969607D01*
X163086565Y-128133010D01*
X163086564Y-128133011D01*
X164017262Y-129063709D01*
X163883398Y-129160967D01*
X163760967Y-129283398D01*
X163663709Y-129417262D01*
X162735311Y-128488864D01*
X162654520Y-128586525D01*
X162654518Y-128586528D01*
X162492707Y-128841502D01*
X162492704Y-128841508D01*
X162364127Y-129114747D01*
X162364125Y-129114752D01*
X162270805Y-129401959D01*
X162214216Y-129698609D01*
X162214215Y-129698616D01*
X162195255Y-129999994D01*
X162195255Y-130000005D01*
X113804745Y-130000005D01*
X113804745Y-129999994D01*
X113785784Y-129698616D01*
X113785783Y-129698609D01*
X113729194Y-129401959D01*
X113635874Y-129114752D01*
X113635872Y-129114747D01*
X113507295Y-128841508D01*
X113507292Y-128841502D01*
X113345483Y-128586530D01*
X113264686Y-128488864D01*
X112336289Y-129417261D01*
X112239033Y-129283398D01*
X112116602Y-129160967D01*
X111982736Y-129063709D01*
X112913434Y-128133011D01*
X112913433Y-128133009D01*
X112688538Y-127969614D01*
X112688520Y-127969602D01*
X112423890Y-127824121D01*
X112423882Y-127824117D01*
X112143110Y-127712952D01*
X112143107Y-127712951D01*
X111850600Y-127637849D01*
X111551004Y-127600000D01*
X111248995Y-127600000D01*
X110949399Y-127637849D01*
X110656892Y-127712951D01*
X110656889Y-127712952D01*
X110376117Y-127824117D01*
X110376109Y-127824121D01*
X110111476Y-127969604D01*
X110111471Y-127969607D01*
X109886565Y-128133010D01*
X109886564Y-128133011D01*
X110817262Y-129063709D01*
X110683398Y-129160967D01*
X110560967Y-129283398D01*
X110463709Y-129417262D01*
X109535311Y-128488864D01*
X109454520Y-128586525D01*
X109454518Y-128586528D01*
X109292707Y-128841502D01*
X109292704Y-128841508D01*
X109164127Y-129114747D01*
X109164125Y-129114752D01*
X109070805Y-129401959D01*
X109014216Y-129698609D01*
X109014215Y-129698616D01*
X108995255Y-129999994D01*
X108995255Y-130000005D01*
X108300500Y-130000005D01*
X108300500Y-125900000D01*
X113556186Y-125900000D01*
X113576601Y-126133346D01*
X113576603Y-126133356D01*
X113637225Y-126359603D01*
X113637227Y-126359607D01*
X113637228Y-126359611D01*
X113736223Y-126571907D01*
X113870579Y-126763787D01*
X114036213Y-126929421D01*
X114228093Y-127063777D01*
X114440389Y-127162772D01*
X114666649Y-127223398D01*
X114853329Y-127239730D01*
X114899999Y-127243814D01*
X114900000Y-127243814D01*
X114900001Y-127243814D01*
X114938891Y-127240411D01*
X115133351Y-127223398D01*
X115359611Y-127162772D01*
X115571907Y-127063777D01*
X115763787Y-126929421D01*
X115929421Y-126763787D01*
X116063777Y-126571907D01*
X116063777Y-126571905D01*
X116066882Y-126567472D01*
X116068323Y-126568481D01*
X116113172Y-126525712D01*
X116181778Y-126512484D01*
X116246645Y-126538447D01*
X116272294Y-126568048D01*
X116273118Y-126567472D01*
X116276222Y-126571905D01*
X116276223Y-126571907D01*
X116410579Y-126763787D01*
X116576213Y-126929421D01*
X116768093Y-127063777D01*
X116980389Y-127162772D01*
X117206649Y-127223398D01*
X117393329Y-127239730D01*
X117439999Y-127243814D01*
X117440000Y-127243814D01*
X117440001Y-127243814D01*
X117478891Y-127240411D01*
X117673351Y-127223398D01*
X117899611Y-127162772D01*
X118111907Y-127063777D01*
X118303787Y-126929421D01*
X118469421Y-126763787D01*
X118546732Y-126653374D01*
X118601308Y-126609751D01*
X118648306Y-126600500D01*
X118771694Y-126600500D01*
X118838733Y-126620185D01*
X118873266Y-126653373D01*
X118950579Y-126763787D01*
X119116213Y-126929421D01*
X119308093Y-127063777D01*
X119520389Y-127162772D01*
X119746649Y-127223398D01*
X119933329Y-127239730D01*
X119979999Y-127243814D01*
X119980000Y-127243814D01*
X119980001Y-127243814D01*
X120018891Y-127240411D01*
X120213351Y-127223398D01*
X120439611Y-127162772D01*
X120651907Y-127063777D01*
X120843787Y-126929421D01*
X121009421Y-126763787D01*
X121143777Y-126571907D01*
X121143777Y-126571905D01*
X121146882Y-126567472D01*
X121148190Y-126568388D01*
X121193441Y-126525220D01*
X121262044Y-126511979D01*
X121326916Y-126537931D01*
X121352778Y-126567764D01*
X121353553Y-126567222D01*
X121490963Y-126763465D01*
X121656534Y-126929036D01*
X121848339Y-127063339D01*
X121848343Y-127063341D01*
X122060558Y-127162298D01*
X122060567Y-127162302D01*
X122269999Y-127218419D01*
X122270000Y-127218418D01*
X122270000Y-126333012D01*
X122327007Y-126365925D01*
X122454174Y-126400000D01*
X122585826Y-126400000D01*
X122712993Y-126365925D01*
X122770000Y-126333012D01*
X122770000Y-127218419D01*
X122979432Y-127162302D01*
X122979441Y-127162298D01*
X123191656Y-127063341D01*
X123191660Y-127063339D01*
X123383465Y-126929036D01*
X123549036Y-126763465D01*
X123686447Y-126567222D01*
X123687818Y-126568182D01*
X123732885Y-126525208D01*
X123801491Y-126511982D01*
X123866357Y-126537947D01*
X123892385Y-126567984D01*
X123893118Y-126567472D01*
X123896222Y-126571905D01*
X123896223Y-126571907D01*
X124030579Y-126763787D01*
X124196213Y-126929421D01*
X124388093Y-127063777D01*
X124600389Y-127162772D01*
X124826649Y-127223398D01*
X125013329Y-127239730D01*
X125059999Y-127243814D01*
X125060000Y-127243814D01*
X125060001Y-127243814D01*
X125098891Y-127240411D01*
X125293351Y-127223398D01*
X125519611Y-127162772D01*
X125731907Y-127063777D01*
X125923787Y-126929421D01*
X126089421Y-126763787D01*
X126223777Y-126571907D01*
X126223777Y-126571905D01*
X126226882Y-126567472D01*
X126228323Y-126568481D01*
X126273172Y-126525712D01*
X126341778Y-126512484D01*
X126406645Y-126538447D01*
X126432294Y-126568048D01*
X126433118Y-126567472D01*
X126436222Y-126571905D01*
X126436223Y-126571907D01*
X126570579Y-126763787D01*
X126736213Y-126929421D01*
X126928093Y-127063777D01*
X127140389Y-127162772D01*
X127366649Y-127223398D01*
X127553329Y-127239730D01*
X127599999Y-127243814D01*
X127600000Y-127243814D01*
X127600001Y-127243814D01*
X127638891Y-127240411D01*
X127833351Y-127223398D01*
X128059611Y-127162772D01*
X128271907Y-127063777D01*
X128463787Y-126929421D01*
X128629421Y-126763787D01*
X128763777Y-126571907D01*
X128763777Y-126571905D01*
X128766882Y-126567472D01*
X128768323Y-126568481D01*
X128813172Y-126525712D01*
X128881778Y-126512484D01*
X128946645Y-126538447D01*
X128972294Y-126568048D01*
X128973118Y-126567472D01*
X128976222Y-126571905D01*
X128976223Y-126571907D01*
X129110579Y-126763787D01*
X129276213Y-126929421D01*
X129468093Y-127063777D01*
X129680389Y-127162772D01*
X129906649Y-127223398D01*
X130093329Y-127239730D01*
X130139999Y-127243814D01*
X130140000Y-127243814D01*
X130140001Y-127243814D01*
X130178891Y-127240411D01*
X130373351Y-127223398D01*
X130599611Y-127162772D01*
X130811907Y-127063777D01*
X131003787Y-126929421D01*
X131169421Y-126763787D01*
X131303777Y-126571907D01*
X131303777Y-126571905D01*
X131306882Y-126567472D01*
X131308323Y-126568481D01*
X131353172Y-126525712D01*
X131421778Y-126512484D01*
X131486645Y-126538447D01*
X131512294Y-126568048D01*
X131513118Y-126567472D01*
X131516222Y-126571905D01*
X131516223Y-126571907D01*
X131650579Y-126763787D01*
X131816213Y-126929421D01*
X132008093Y-127063777D01*
X132220389Y-127162772D01*
X132446649Y-127223398D01*
X132633329Y-127239730D01*
X132679999Y-127243814D01*
X132680000Y-127243814D01*
X132680001Y-127243814D01*
X132718891Y-127240411D01*
X132913351Y-127223398D01*
X133139611Y-127162772D01*
X133351907Y-127063777D01*
X133543787Y-126929421D01*
X133709421Y-126763787D01*
X133843777Y-126571907D01*
X133843777Y-126571905D01*
X133846882Y-126567472D01*
X133848323Y-126568481D01*
X133893172Y-126525712D01*
X133961778Y-126512484D01*
X134026645Y-126538447D01*
X134052294Y-126568048D01*
X134053118Y-126567472D01*
X134056222Y-126571905D01*
X134056223Y-126571907D01*
X134190579Y-126763787D01*
X134356213Y-126929421D01*
X134548093Y-127063777D01*
X134760389Y-127162772D01*
X134986649Y-127223398D01*
X135173329Y-127239730D01*
X135219999Y-127243814D01*
X135220000Y-127243814D01*
X135220001Y-127243814D01*
X135258891Y-127240411D01*
X135453351Y-127223398D01*
X135679611Y-127162772D01*
X135891907Y-127063777D01*
X136083787Y-126929421D01*
X136249421Y-126763787D01*
X136383777Y-126571907D01*
X136383777Y-126571905D01*
X136386882Y-126567472D01*
X136388323Y-126568481D01*
X136433172Y-126525712D01*
X136501778Y-126512484D01*
X136566645Y-126538447D01*
X136592294Y-126568048D01*
X136593118Y-126567472D01*
X136596222Y-126571905D01*
X136596223Y-126571907D01*
X136730579Y-126763787D01*
X136896213Y-126929421D01*
X137088093Y-127063777D01*
X137300389Y-127162772D01*
X137526649Y-127223398D01*
X137713329Y-127239730D01*
X137759999Y-127243814D01*
X137760000Y-127243814D01*
X137760001Y-127243814D01*
X137798891Y-127240411D01*
X137993351Y-127223398D01*
X138219611Y-127162772D01*
X138431907Y-127063777D01*
X138623787Y-126929421D01*
X138789421Y-126763787D01*
X138923777Y-126571907D01*
X138923777Y-126571905D01*
X138926882Y-126567472D01*
X138928323Y-126568481D01*
X138973172Y-126525712D01*
X139041778Y-126512484D01*
X139106645Y-126538447D01*
X139132294Y-126568048D01*
X139133118Y-126567472D01*
X139136222Y-126571905D01*
X139136223Y-126571907D01*
X139270579Y-126763787D01*
X139436213Y-126929421D01*
X139628093Y-127063777D01*
X139840389Y-127162772D01*
X140066649Y-127223398D01*
X140253329Y-127239730D01*
X140299999Y-127243814D01*
X140300000Y-127243814D01*
X140300001Y-127243814D01*
X140338891Y-127240411D01*
X140533351Y-127223398D01*
X140759611Y-127162772D01*
X140971907Y-127063777D01*
X141163787Y-126929421D01*
X141329421Y-126763787D01*
X141463777Y-126571907D01*
X141463777Y-126571905D01*
X141466882Y-126567472D01*
X141468323Y-126568481D01*
X141513172Y-126525712D01*
X141581778Y-126512484D01*
X141646645Y-126538447D01*
X141672294Y-126568048D01*
X141673118Y-126567472D01*
X141676222Y-126571905D01*
X141676223Y-126571907D01*
X141810579Y-126763787D01*
X141976213Y-126929421D01*
X142168093Y-127063777D01*
X142380389Y-127162772D01*
X142606649Y-127223398D01*
X142793329Y-127239730D01*
X142839999Y-127243814D01*
X142840000Y-127243814D01*
X142840001Y-127243814D01*
X142878891Y-127240411D01*
X143073351Y-127223398D01*
X143299611Y-127162772D01*
X143511907Y-127063777D01*
X143703787Y-126929421D01*
X143869421Y-126763787D01*
X144003777Y-126571907D01*
X144003777Y-126571905D01*
X144006882Y-126567472D01*
X144008323Y-126568481D01*
X144053172Y-126525712D01*
X144121778Y-126512484D01*
X144186645Y-126538447D01*
X144212294Y-126568048D01*
X144213118Y-126567472D01*
X144216222Y-126571905D01*
X144216223Y-126571907D01*
X144350579Y-126763787D01*
X144516213Y-126929421D01*
X144708093Y-127063777D01*
X144920389Y-127162772D01*
X145146649Y-127223398D01*
X145333329Y-127239730D01*
X145379999Y-127243814D01*
X145380000Y-127243814D01*
X145380001Y-127243814D01*
X145418891Y-127240411D01*
X145613351Y-127223398D01*
X145839611Y-127162772D01*
X146051907Y-127063777D01*
X146243787Y-126929421D01*
X146409421Y-126763787D01*
X146543777Y-126571907D01*
X146543777Y-126571905D01*
X146546882Y-126567472D01*
X146548323Y-126568481D01*
X146593172Y-126525712D01*
X146661778Y-126512484D01*
X146726645Y-126538447D01*
X146752294Y-126568048D01*
X146753118Y-126567472D01*
X146756222Y-126571905D01*
X146756223Y-126571907D01*
X146890579Y-126763787D01*
X147056213Y-126929421D01*
X147248093Y-127063777D01*
X147460389Y-127162772D01*
X147686649Y-127223398D01*
X147873329Y-127239730D01*
X147919999Y-127243814D01*
X147920000Y-127243814D01*
X147920001Y-127243814D01*
X147958891Y-127240411D01*
X148153351Y-127223398D01*
X148379611Y-127162772D01*
X148591907Y-127063777D01*
X148783787Y-126929421D01*
X148949421Y-126763787D01*
X149083777Y-126571907D01*
X149083777Y-126571905D01*
X149086882Y-126567472D01*
X149088323Y-126568481D01*
X149133172Y-126525712D01*
X149201778Y-126512484D01*
X149266645Y-126538447D01*
X149292294Y-126568048D01*
X149293118Y-126567472D01*
X149296222Y-126571905D01*
X149296223Y-126571907D01*
X149430579Y-126763787D01*
X149596213Y-126929421D01*
X149788093Y-127063777D01*
X150000389Y-127162772D01*
X150226649Y-127223398D01*
X150413329Y-127239730D01*
X150459999Y-127243814D01*
X150460000Y-127243814D01*
X150460001Y-127243814D01*
X150498891Y-127240411D01*
X150693351Y-127223398D01*
X150919611Y-127162772D01*
X151131907Y-127063777D01*
X151323787Y-126929421D01*
X151489421Y-126763787D01*
X151623777Y-126571907D01*
X151623777Y-126571905D01*
X151626882Y-126567472D01*
X151628323Y-126568481D01*
X151673172Y-126525712D01*
X151741778Y-126512484D01*
X151806645Y-126538447D01*
X151832294Y-126568048D01*
X151833118Y-126567472D01*
X151836222Y-126571905D01*
X151836223Y-126571907D01*
X151970579Y-126763787D01*
X152136213Y-126929421D01*
X152328093Y-127063777D01*
X152540389Y-127162772D01*
X152766649Y-127223398D01*
X152953329Y-127239730D01*
X152999999Y-127243814D01*
X153000000Y-127243814D01*
X153000001Y-127243814D01*
X153038891Y-127240411D01*
X153233351Y-127223398D01*
X153459611Y-127162772D01*
X153671907Y-127063777D01*
X153863787Y-126929421D01*
X154029421Y-126763787D01*
X154163777Y-126571907D01*
X154262772Y-126359611D01*
X154323398Y-126133351D01*
X154343814Y-125900000D01*
X154323398Y-125666649D01*
X154262772Y-125440389D01*
X154163777Y-125228093D01*
X154029421Y-125036213D01*
X153863787Y-124870579D01*
X153671907Y-124736223D01*
X153459611Y-124637228D01*
X153459607Y-124637227D01*
X153459603Y-124637225D01*
X153233356Y-124576603D01*
X153233346Y-124576601D01*
X153000001Y-124556186D01*
X152999999Y-124556186D01*
X152766653Y-124576601D01*
X152766643Y-124576603D01*
X152540396Y-124637225D01*
X152540389Y-124637227D01*
X152540389Y-124637228D01*
X152328093Y-124736223D01*
X152136213Y-124870579D01*
X152136211Y-124870580D01*
X152136208Y-124870583D01*
X151970583Y-125036208D01*
X151970580Y-125036211D01*
X151970579Y-125036213D01*
X151870028Y-125179815D01*
X151833118Y-125232528D01*
X151831680Y-125231521D01*
X151786810Y-125274297D01*
X151718202Y-125287513D01*
X151653340Y-125261540D01*
X151627702Y-125231953D01*
X151626882Y-125232528D01*
X151623777Y-125228093D01*
X151489421Y-125036213D01*
X151488902Y-125035694D01*
X151488746Y-125035408D01*
X151485939Y-125032063D01*
X151486611Y-125031498D01*
X151455417Y-124974371D01*
X151460401Y-124904679D01*
X151488902Y-124860332D01*
X151793048Y-124556186D01*
X152980520Y-123368716D01*
X153059577Y-123231784D01*
X153100501Y-123079057D01*
X153100501Y-122920942D01*
X153100501Y-122913347D01*
X153100500Y-122913329D01*
X153100500Y-115782412D01*
X153120185Y-115715373D01*
X153127555Y-115705097D01*
X153129810Y-115702267D01*
X153129816Y-115702262D01*
X153225789Y-115549522D01*
X153285368Y-115379255D01*
X153305565Y-115200000D01*
X153285368Y-115020745D01*
X153225789Y-114850478D01*
X153129816Y-114697738D01*
X153002262Y-114570184D01*
X152849523Y-114474211D01*
X152679254Y-114414631D01*
X152679249Y-114414630D01*
X152500004Y-114394435D01*
X152499996Y-114394435D01*
X152320750Y-114414630D01*
X152320745Y-114414631D01*
X152150476Y-114474211D01*
X151997737Y-114570184D01*
X151870184Y-114697737D01*
X151774211Y-114850476D01*
X151714631Y-115020745D01*
X151714630Y-115020750D01*
X151694435Y-115199996D01*
X151694435Y-115200003D01*
X151714630Y-115379249D01*
X151714631Y-115379254D01*
X151774211Y-115549523D01*
X151870185Y-115702263D01*
X151872445Y-115705097D01*
X151873334Y-115707275D01*
X151873889Y-115708158D01*
X151873734Y-115708255D01*
X151898855Y-115769783D01*
X151899500Y-115782412D01*
X151899500Y-122699902D01*
X151879815Y-122766941D01*
X151863181Y-122787583D01*
X150091286Y-124559478D01*
X150091282Y-124559480D01*
X150091283Y-124559481D01*
X150040480Y-124610282D01*
X150005205Y-124634981D01*
X149788093Y-124736222D01*
X149660080Y-124825858D01*
X149596213Y-124870579D01*
X149596211Y-124870580D01*
X149596208Y-124870583D01*
X149430583Y-125036208D01*
X149430580Y-125036211D01*
X149430579Y-125036213D01*
X149330028Y-125179815D01*
X149293118Y-125232528D01*
X149291680Y-125231521D01*
X149246810Y-125274297D01*
X149178202Y-125287513D01*
X149113340Y-125261540D01*
X149087702Y-125231953D01*
X149086882Y-125232528D01*
X149083777Y-125228093D01*
X148949421Y-125036213D01*
X148783787Y-124870579D01*
X148591907Y-124736223D01*
X148379611Y-124637228D01*
X148379607Y-124637227D01*
X148379603Y-124637225D01*
X148153356Y-124576603D01*
X148153346Y-124576601D01*
X147920001Y-124556186D01*
X147919999Y-124556186D01*
X147686653Y-124576601D01*
X147686643Y-124576603D01*
X147460396Y-124637225D01*
X147460389Y-124637227D01*
X147460389Y-124637228D01*
X147248093Y-124736223D01*
X147056213Y-124870579D01*
X147056211Y-124870580D01*
X147056208Y-124870583D01*
X146890583Y-125036208D01*
X146890580Y-125036211D01*
X146890579Y-125036213D01*
X146790028Y-125179815D01*
X146753118Y-125232528D01*
X146751680Y-125231521D01*
X146706810Y-125274297D01*
X146638202Y-125287513D01*
X146573340Y-125261540D01*
X146547702Y-125231953D01*
X146546882Y-125232528D01*
X146543777Y-125228093D01*
X146409421Y-125036213D01*
X146243787Y-124870579D01*
X146051907Y-124736223D01*
X145839611Y-124637228D01*
X145839607Y-124637227D01*
X145839603Y-124637225D01*
X145613356Y-124576603D01*
X145613346Y-124576601D01*
X145380001Y-124556186D01*
X145379999Y-124556186D01*
X145146653Y-124576601D01*
X145146643Y-124576603D01*
X144920396Y-124637225D01*
X144920389Y-124637227D01*
X144920389Y-124637228D01*
X144708093Y-124736223D01*
X144516213Y-124870579D01*
X144516211Y-124870580D01*
X144516208Y-124870583D01*
X144350583Y-125036208D01*
X144350580Y-125036211D01*
X144350579Y-125036213D01*
X144250028Y-125179815D01*
X144213118Y-125232528D01*
X144211680Y-125231521D01*
X144166810Y-125274297D01*
X144098202Y-125287513D01*
X144033340Y-125261540D01*
X144007702Y-125231953D01*
X144006882Y-125232528D01*
X144003777Y-125228093D01*
X143869421Y-125036213D01*
X143703787Y-124870579D01*
X143511907Y-124736223D01*
X143299611Y-124637228D01*
X143299607Y-124637227D01*
X143299603Y-124637225D01*
X143073356Y-124576603D01*
X143073346Y-124576601D01*
X142840001Y-124556186D01*
X142839999Y-124556186D01*
X142606653Y-124576601D01*
X142606643Y-124576603D01*
X142380396Y-124637225D01*
X142380389Y-124637227D01*
X142380389Y-124637228D01*
X142168093Y-124736223D01*
X141976213Y-124870579D01*
X141976211Y-124870580D01*
X141976208Y-124870583D01*
X141810583Y-125036208D01*
X141810580Y-125036211D01*
X141810579Y-125036213D01*
X141710028Y-125179815D01*
X141673118Y-125232528D01*
X141671680Y-125231521D01*
X141626810Y-125274297D01*
X141558202Y-125287513D01*
X141493340Y-125261540D01*
X141467702Y-125231953D01*
X141466882Y-125232528D01*
X141463777Y-125228093D01*
X141329421Y-125036213D01*
X141163787Y-124870579D01*
X140971907Y-124736223D01*
X140759611Y-124637228D01*
X140759607Y-124637227D01*
X140759603Y-124637225D01*
X140533356Y-124576603D01*
X140533346Y-124576601D01*
X140300001Y-124556186D01*
X140299999Y-124556186D01*
X140066653Y-124576601D01*
X140066643Y-124576603D01*
X139840396Y-124637225D01*
X139840389Y-124637227D01*
X139840389Y-124637228D01*
X139628093Y-124736223D01*
X139436213Y-124870579D01*
X139436211Y-124870580D01*
X139436208Y-124870583D01*
X139270583Y-125036208D01*
X139270580Y-125036211D01*
X139270579Y-125036213D01*
X139170028Y-125179815D01*
X139133118Y-125232528D01*
X139131680Y-125231521D01*
X139086810Y-125274297D01*
X139018202Y-125287513D01*
X138953340Y-125261540D01*
X138927702Y-125231953D01*
X138926882Y-125232528D01*
X138923777Y-125228093D01*
X138789421Y-125036213D01*
X138623787Y-124870579D01*
X138431907Y-124736223D01*
X138219611Y-124637228D01*
X138219607Y-124637227D01*
X138219603Y-124637225D01*
X137993356Y-124576603D01*
X137993346Y-124576601D01*
X137760001Y-124556186D01*
X137759999Y-124556186D01*
X137526653Y-124576601D01*
X137526643Y-124576603D01*
X137300396Y-124637225D01*
X137300389Y-124637227D01*
X137300389Y-124637228D01*
X137088093Y-124736223D01*
X136896213Y-124870579D01*
X136896211Y-124870580D01*
X136896208Y-124870583D01*
X136730583Y-125036208D01*
X136730580Y-125036211D01*
X136730579Y-125036213D01*
X136630028Y-125179815D01*
X136593118Y-125232528D01*
X136591680Y-125231521D01*
X136546810Y-125274297D01*
X136478202Y-125287513D01*
X136413340Y-125261540D01*
X136387702Y-125231953D01*
X136386882Y-125232528D01*
X136383777Y-125228093D01*
X136249421Y-125036213D01*
X136083787Y-124870579D01*
X135891907Y-124736223D01*
X135679611Y-124637228D01*
X135679607Y-124637227D01*
X135679603Y-124637225D01*
X135453356Y-124576603D01*
X135453346Y-124576601D01*
X135220001Y-124556186D01*
X135219999Y-124556186D01*
X134986653Y-124576601D01*
X134986643Y-124576603D01*
X134760396Y-124637225D01*
X134760389Y-124637227D01*
X134760389Y-124637228D01*
X134548093Y-124736223D01*
X134356213Y-124870579D01*
X134356211Y-124870580D01*
X134356208Y-124870583D01*
X134190583Y-125036208D01*
X134190580Y-125036211D01*
X134190579Y-125036213D01*
X134090028Y-125179815D01*
X134053118Y-125232528D01*
X134051680Y-125231521D01*
X134006810Y-125274297D01*
X133938202Y-125287513D01*
X133873340Y-125261540D01*
X133847702Y-125231953D01*
X133846882Y-125232528D01*
X133843777Y-125228093D01*
X133709421Y-125036213D01*
X133543787Y-124870579D01*
X133351907Y-124736223D01*
X133139611Y-124637228D01*
X133139607Y-124637227D01*
X133139603Y-124637225D01*
X132913356Y-124576603D01*
X132913346Y-124576601D01*
X132680001Y-124556186D01*
X132679999Y-124556186D01*
X132446653Y-124576601D01*
X132446643Y-124576603D01*
X132220396Y-124637225D01*
X132220389Y-124637227D01*
X132220389Y-124637228D01*
X132008093Y-124736223D01*
X131816213Y-124870579D01*
X131816211Y-124870580D01*
X131816208Y-124870583D01*
X131650583Y-125036208D01*
X131650580Y-125036211D01*
X131650579Y-125036213D01*
X131550028Y-125179815D01*
X131513118Y-125232528D01*
X131511680Y-125231521D01*
X131466810Y-125274297D01*
X131398202Y-125287513D01*
X131333340Y-125261540D01*
X131307702Y-125231953D01*
X131306882Y-125232528D01*
X131303777Y-125228093D01*
X131169421Y-125036213D01*
X131003787Y-124870579D01*
X130811907Y-124736223D01*
X130599611Y-124637228D01*
X130599607Y-124637227D01*
X130599603Y-124637225D01*
X130373356Y-124576603D01*
X130373346Y-124576601D01*
X130140001Y-124556186D01*
X130139999Y-124556186D01*
X129906653Y-124576601D01*
X129906643Y-124576603D01*
X129680396Y-124637225D01*
X129680389Y-124637227D01*
X129680389Y-124637228D01*
X129468093Y-124736223D01*
X129276213Y-124870579D01*
X129276211Y-124870580D01*
X129276208Y-124870583D01*
X129110583Y-125036208D01*
X129110580Y-125036211D01*
X129110579Y-125036213D01*
X129010028Y-125179815D01*
X128973118Y-125232528D01*
X128971680Y-125231521D01*
X128926810Y-125274297D01*
X128858202Y-125287513D01*
X128793340Y-125261540D01*
X128767702Y-125231953D01*
X128766882Y-125232528D01*
X128763777Y-125228093D01*
X128629421Y-125036213D01*
X128463787Y-124870579D01*
X128271907Y-124736223D01*
X128059611Y-124637228D01*
X128059607Y-124637227D01*
X128059603Y-124637225D01*
X127833356Y-124576603D01*
X127833346Y-124576601D01*
X127600001Y-124556186D01*
X127599999Y-124556186D01*
X127366653Y-124576601D01*
X127366643Y-124576603D01*
X127140396Y-124637225D01*
X127140389Y-124637227D01*
X127140389Y-124637228D01*
X126928093Y-124736223D01*
X126736213Y-124870579D01*
X126736211Y-124870580D01*
X126736208Y-124870583D01*
X126570583Y-125036208D01*
X126570580Y-125036211D01*
X126570579Y-125036213D01*
X126470028Y-125179815D01*
X126433118Y-125232528D01*
X126431680Y-125231521D01*
X126386810Y-125274297D01*
X126318202Y-125287513D01*
X126253340Y-125261540D01*
X126227702Y-125231953D01*
X126226882Y-125232528D01*
X126223777Y-125228093D01*
X126089421Y-125036213D01*
X125923787Y-124870579D01*
X125731907Y-124736223D01*
X125519611Y-124637228D01*
X125519607Y-124637227D01*
X125519603Y-124637225D01*
X125293356Y-124576603D01*
X125293346Y-124576601D01*
X125060001Y-124556186D01*
X125059999Y-124556186D01*
X124826653Y-124576601D01*
X124826643Y-124576603D01*
X124600396Y-124637225D01*
X124600389Y-124637227D01*
X124600389Y-124637228D01*
X124388093Y-124736223D01*
X124196213Y-124870579D01*
X124196211Y-124870580D01*
X124196208Y-124870583D01*
X124030583Y-125036208D01*
X124030580Y-125036211D01*
X124030579Y-125036213D01*
X123930028Y-125179815D01*
X123893118Y-125232528D01*
X123891816Y-125231616D01*
X123846517Y-125274800D01*
X123777909Y-125288015D01*
X123713047Y-125262040D01*
X123687221Y-125232235D01*
X123686447Y-125232778D01*
X123549036Y-125036534D01*
X123383465Y-124870963D01*
X123191660Y-124736660D01*
X123191656Y-124736658D01*
X122979443Y-124637701D01*
X122770000Y-124581580D01*
X122770000Y-125466988D01*
X122712993Y-125434075D01*
X122585826Y-125400000D01*
X122454174Y-125400000D01*
X122327007Y-125434075D01*
X122270000Y-125466988D01*
X122270000Y-124581580D01*
X122060556Y-124637701D01*
X121848343Y-124736658D01*
X121848339Y-124736660D01*
X121656534Y-124870963D01*
X121490963Y-125036534D01*
X121353553Y-125232778D01*
X121352189Y-125231823D01*
X121307069Y-125274814D01*
X121238458Y-125288012D01*
X121173602Y-125262021D01*
X121147614Y-125232015D01*
X121146882Y-125232528D01*
X121143777Y-125228093D01*
X121009421Y-125036213D01*
X120843787Y-124870579D01*
X120829153Y-124860332D01*
X120728376Y-124789766D01*
X120684751Y-124735189D01*
X120675500Y-124688192D01*
X120675500Y-121863236D01*
X120695185Y-121796197D01*
X120747989Y-121750442D01*
X120817147Y-121740498D01*
X120842833Y-121747054D01*
X120967620Y-121793596D01*
X120967627Y-121793598D01*
X121027155Y-121799999D01*
X121027172Y-121800000D01*
X121225000Y-121800000D01*
X121225000Y-121150000D01*
X121725000Y-121150000D01*
X121725000Y-121800000D01*
X121922828Y-121800000D01*
X121922844Y-121799999D01*
X121982372Y-121793598D01*
X121982379Y-121793596D01*
X122117086Y-121743354D01*
X122117093Y-121743350D01*
X122232187Y-121657190D01*
X122232190Y-121657187D01*
X122318350Y-121542093D01*
X122318354Y-121542086D01*
X122368596Y-121407379D01*
X122368598Y-121407372D01*
X122374999Y-121347844D01*
X122375000Y-121347827D01*
X122375000Y-121150000D01*
X121725000Y-121150000D01*
X121225000Y-121150000D01*
X121225000Y-120000000D01*
X121725000Y-120000000D01*
X121725000Y-120650000D01*
X122375000Y-120650000D01*
X122375000Y-120452172D01*
X122374999Y-120452155D01*
X122368598Y-120392627D01*
X122368596Y-120392620D01*
X122318354Y-120257913D01*
X122318350Y-120257906D01*
X122232190Y-120142812D01*
X122232187Y-120142809D01*
X122117093Y-120056649D01*
X122117086Y-120056645D01*
X121982379Y-120006403D01*
X121982372Y-120006401D01*
X121922844Y-120000000D01*
X121725000Y-120000000D01*
X121225000Y-120000000D01*
X121027155Y-120000000D01*
X120967627Y-120006401D01*
X120967617Y-120006403D01*
X120842832Y-120052945D01*
X120773141Y-120057929D01*
X120711818Y-120024443D01*
X120678334Y-119963120D01*
X120675500Y-119936763D01*
X120675500Y-118863236D01*
X120695185Y-118796197D01*
X120747989Y-118750442D01*
X120817147Y-118740498D01*
X120842833Y-118747054D01*
X120967620Y-118793596D01*
X120967627Y-118793598D01*
X121027155Y-118799999D01*
X121027172Y-118800000D01*
X121225000Y-118800000D01*
X121225000Y-118150000D01*
X121725000Y-118150000D01*
X121725000Y-118800000D01*
X121922828Y-118800000D01*
X121922844Y-118799999D01*
X121982372Y-118793598D01*
X121982379Y-118793596D01*
X122117086Y-118743354D01*
X122117093Y-118743350D01*
X122232187Y-118657190D01*
X122232190Y-118657187D01*
X122318350Y-118542093D01*
X122318354Y-118542086D01*
X122368596Y-118407379D01*
X122368598Y-118407372D01*
X122374999Y-118347844D01*
X122375000Y-118347827D01*
X122375000Y-118150000D01*
X121725000Y-118150000D01*
X121225000Y-118150000D01*
X121225000Y-117000000D01*
X121725000Y-117000000D01*
X121725000Y-117650000D01*
X122375000Y-117650000D01*
X122375000Y-117452172D01*
X122374999Y-117452155D01*
X122368598Y-117392627D01*
X122368596Y-117392620D01*
X122318354Y-117257913D01*
X122318350Y-117257906D01*
X122232190Y-117142812D01*
X122232187Y-117142809D01*
X122117093Y-117056649D01*
X122117086Y-117056645D01*
X121982379Y-117006403D01*
X121982372Y-117006401D01*
X121922844Y-117000000D01*
X121725000Y-117000000D01*
X121225000Y-117000000D01*
X121129662Y-117000000D01*
X121062623Y-116980315D01*
X121016868Y-116927511D01*
X121006924Y-116858353D01*
X121035949Y-116794797D01*
X121041981Y-116788319D01*
X124218482Y-113611819D01*
X124279805Y-113578334D01*
X124306163Y-113575500D01*
X146116532Y-113575500D01*
X146116533Y-113575499D01*
X146247036Y-113549541D01*
X146369969Y-113498620D01*
X146480606Y-113424695D01*
X149699695Y-110205606D01*
X149773620Y-110094969D01*
X149824540Y-109972036D01*
X149843704Y-109875697D01*
X149850500Y-109841533D01*
X149850500Y-106964209D01*
X149870185Y-106897170D01*
X149922989Y-106851415D01*
X149992147Y-106841471D01*
X150006584Y-106844431D01*
X150226649Y-106903398D01*
X150413329Y-106919730D01*
X150459999Y-106923814D01*
X150460000Y-106923814D01*
X150460001Y-106923814D01*
X150502610Y-106920086D01*
X150693351Y-106903398D01*
X150814122Y-106871037D01*
X150883971Y-106872700D01*
X150933896Y-106903131D01*
X153595139Y-109564374D01*
X153595149Y-109564385D01*
X153599479Y-109568715D01*
X153599480Y-109568716D01*
X153711284Y-109680520D01*
X153711286Y-109680521D01*
X153759694Y-109708469D01*
X153759693Y-109708469D01*
X153759696Y-109708470D01*
X153848209Y-109759574D01*
X153848210Y-109759574D01*
X153848215Y-109759577D01*
X154000943Y-109800500D01*
X154159057Y-109800500D01*
X154985859Y-109800500D01*
X155052898Y-109820185D01*
X155098653Y-109872989D01*
X155102030Y-109881140D01*
X155106204Y-109892331D01*
X155106205Y-109892332D01*
X155106206Y-109892335D01*
X155192452Y-110007544D01*
X155192455Y-110007547D01*
X155307664Y-110093793D01*
X155307671Y-110093797D01*
X155352618Y-110110561D01*
X155442517Y-110144091D01*
X155502127Y-110150500D01*
X156197872Y-110150499D01*
X156257483Y-110144091D01*
X156392331Y-110093796D01*
X156507546Y-110007546D01*
X156507548Y-110007542D01*
X156512319Y-110002773D01*
X156573642Y-109969288D01*
X156643334Y-109974272D01*
X156687681Y-110002773D01*
X156692455Y-110007547D01*
X156807664Y-110093793D01*
X156807671Y-110093797D01*
X156852618Y-110110561D01*
X156942517Y-110144091D01*
X157002127Y-110150500D01*
X157697872Y-110150499D01*
X157757483Y-110144091D01*
X157892331Y-110093796D01*
X158007546Y-110007546D01*
X158093796Y-109892331D01*
X158113921Y-109838369D01*
X158155790Y-109782437D01*
X158198014Y-109761927D01*
X158206785Y-109759577D01*
X158206790Y-109759574D01*
X158295306Y-109708469D01*
X158343716Y-109680520D01*
X158455520Y-109568716D01*
X158455520Y-109568714D01*
X158465724Y-109558511D01*
X158465728Y-109558506D01*
X158808506Y-109215728D01*
X158808511Y-109215724D01*
X158818714Y-109205520D01*
X158818716Y-109205520D01*
X158930520Y-109093716D01*
X159009577Y-108956784D01*
X159050500Y-108804057D01*
X159050500Y-102869059D01*
X159050501Y-102869046D01*
X159050501Y-102700945D01*
X159050501Y-102700943D01*
X159009577Y-102548215D01*
X158978260Y-102493973D01*
X158930520Y-102411284D01*
X158818716Y-102299480D01*
X158818715Y-102299479D01*
X158814385Y-102295149D01*
X158814374Y-102295139D01*
X157782353Y-101263118D01*
X157748868Y-101201795D01*
X157750258Y-101143345D01*
X157780349Y-101031050D01*
X157800563Y-100800000D01*
X157780349Y-100568950D01*
X157720320Y-100344921D01*
X157622301Y-100134719D01*
X157622299Y-100134716D01*
X157622298Y-100134714D01*
X157489273Y-99944735D01*
X157489268Y-99944729D01*
X157325269Y-99780730D01*
X157135281Y-99647698D01*
X156922095Y-99548288D01*
X156869656Y-99502116D01*
X156850500Y-99435906D01*
X156850500Y-98437320D01*
X156870185Y-98370281D01*
X156900192Y-98338051D01*
X156901198Y-98337298D01*
X156907546Y-98332546D01*
X156907548Y-98332542D01*
X156912315Y-98327777D01*
X156973636Y-98294289D01*
X157043328Y-98299270D01*
X157087681Y-98327773D01*
X157092455Y-98332547D01*
X157207664Y-98418793D01*
X157207671Y-98418797D01*
X157217570Y-98422489D01*
X157342517Y-98469091D01*
X157402127Y-98475500D01*
X158097872Y-98475499D01*
X158157483Y-98469091D01*
X158292331Y-98418796D01*
X158407546Y-98332546D01*
X158493796Y-98217331D01*
X158544091Y-98082483D01*
X158550500Y-98022873D01*
X158550499Y-97027128D01*
X158544091Y-96967517D01*
X158536721Y-96947758D01*
X158493797Y-96832671D01*
X158493793Y-96832664D01*
X158407548Y-96717457D01*
X158407546Y-96717454D01*
X158407542Y-96717451D01*
X158407539Y-96717448D01*
X158329720Y-96659192D01*
X158287849Y-96603259D01*
X158284845Y-96593866D01*
X158284579Y-96593223D01*
X158284577Y-96593216D01*
X158284573Y-96593209D01*
X158205524Y-96456290D01*
X158205518Y-96456282D01*
X157758717Y-96009481D01*
X157758716Y-96009480D01*
X157671904Y-95959360D01*
X157671904Y-95959359D01*
X157671900Y-95959358D01*
X157621785Y-95930423D01*
X157469057Y-95889499D01*
X157310943Y-95889499D01*
X157303347Y-95889499D01*
X157303331Y-95889500D01*
X154596669Y-95889500D01*
X154596653Y-95889499D01*
X154589057Y-95889499D01*
X154430943Y-95889499D01*
X154278215Y-95930423D01*
X154228099Y-95959358D01*
X154228097Y-95959359D01*
X154228092Y-95959362D01*
X154211300Y-95969056D01*
X154143399Y-95985525D01*
X154087307Y-95969055D01*
X154069773Y-95958932D01*
X154023685Y-95932323D01*
X153870957Y-95891399D01*
X153712843Y-95891399D01*
X153705247Y-95891399D01*
X153705231Y-95891400D01*
X149776867Y-95891400D01*
X149709828Y-95871715D01*
X149664073Y-95818911D01*
X149653577Y-95780653D01*
X149648091Y-95729616D01*
X149597797Y-95594771D01*
X149597796Y-95594770D01*
X149597796Y-95594769D01*
X149550233Y-95531233D01*
X149525816Y-95465769D01*
X149525500Y-95456922D01*
X149525500Y-91338393D01*
X149525499Y-91338389D01*
X149501464Y-91217555D01*
X149501463Y-91217548D01*
X149454311Y-91103714D01*
X149454310Y-91103713D01*
X149454307Y-91103707D01*
X149385858Y-91001267D01*
X149385855Y-91001263D01*
X149295637Y-90911045D01*
X149295606Y-90911016D01*
X149122271Y-90737681D01*
X149088786Y-90676358D01*
X149093770Y-90606666D01*
X149122271Y-90562319D01*
X151336720Y-88347870D01*
X153685858Y-85998733D01*
X153685859Y-85998731D01*
X153692919Y-85991671D01*
X153692925Y-85991664D01*
X154723729Y-84960860D01*
X154723733Y-84960858D01*
X154810858Y-84873733D01*
X154879311Y-84771286D01*
X154926463Y-84657452D01*
X154950500Y-84536606D01*
X154950500Y-82739662D01*
X154970185Y-82672623D01*
X155009224Y-82634234D01*
X155023722Y-82625258D01*
X155181841Y-82481114D01*
X155310781Y-82310370D01*
X155406151Y-82118840D01*
X155406151Y-82118837D01*
X155406153Y-82118835D01*
X155464703Y-81913050D01*
X155464704Y-81913047D01*
X155484446Y-81700000D01*
X155484446Y-81699999D01*
X155464704Y-81486952D01*
X155464703Y-81486949D01*
X155406153Y-81281164D01*
X155406150Y-81281158D01*
X155310781Y-81089630D01*
X155181841Y-80918886D01*
X155042251Y-80791633D01*
X155005973Y-80731927D01*
X155007733Y-80662079D01*
X155042251Y-80608366D01*
X155181841Y-80481114D01*
X155310781Y-80310370D01*
X155406151Y-80118840D01*
X155406151Y-80118837D01*
X155406153Y-80118835D01*
X155464703Y-79913050D01*
X155464704Y-79913047D01*
X155484446Y-79700000D01*
X155484446Y-79699999D01*
X155464704Y-79486952D01*
X155464703Y-79486949D01*
X155406153Y-79281164D01*
X155406150Y-79281158D01*
X155346891Y-79162150D01*
X155310781Y-79089630D01*
X155181841Y-78918886D01*
X155023722Y-78774742D01*
X155023716Y-78774738D01*
X155023713Y-78774736D01*
X154841813Y-78662108D01*
X154841807Y-78662106D01*
X154642297Y-78584815D01*
X154431980Y-78545500D01*
X154218020Y-78545500D01*
X154007703Y-78584815D01*
X153881533Y-78633693D01*
X153808192Y-78662106D01*
X153808186Y-78662108D01*
X153626286Y-78774736D01*
X153626283Y-78774738D01*
X153626279Y-78774740D01*
X153626278Y-78774742D01*
X153468159Y-78918886D01*
X153468158Y-78918887D01*
X153386494Y-79027027D01*
X153330385Y-79068663D01*
X153306477Y-79072075D01*
X152725000Y-79653552D01*
X152725000Y-79647339D01*
X152697741Y-79545606D01*
X152645080Y-79454394D01*
X152570606Y-79379920D01*
X152479394Y-79327259D01*
X152377661Y-79300000D01*
X152371447Y-79300000D01*
X152944912Y-78726533D01*
X152841586Y-78662556D01*
X152841585Y-78662555D01*
X152642162Y-78585299D01*
X152431932Y-78546000D01*
X152218068Y-78546000D01*
X152007837Y-78585299D01*
X151808416Y-78662554D01*
X151808410Y-78662557D01*
X151705087Y-78726532D01*
X151705086Y-78726533D01*
X152278554Y-79300000D01*
X152272339Y-79300000D01*
X152170606Y-79327259D01*
X152079394Y-79379920D01*
X152004920Y-79454394D01*
X151952259Y-79545606D01*
X151925000Y-79647339D01*
X151925000Y-79653553D01*
X151340803Y-79069356D01*
X151302803Y-79061007D01*
X151263504Y-79027025D01*
X151181844Y-78918889D01*
X151181841Y-78918886D01*
X151023722Y-78774742D01*
X151023716Y-78774738D01*
X151023713Y-78774736D01*
X150841813Y-78662108D01*
X150841807Y-78662106D01*
X150642297Y-78584815D01*
X150431980Y-78545500D01*
X150218020Y-78545500D01*
X150007703Y-78584815D01*
X149881533Y-78633693D01*
X149808192Y-78662106D01*
X149808186Y-78662108D01*
X149626286Y-78774736D01*
X149626283Y-78774738D01*
X149626279Y-78774740D01*
X149626278Y-78774742D01*
X149565240Y-78830385D01*
X149468157Y-78918887D01*
X149423954Y-78977422D01*
X149367844Y-79019058D01*
X149298132Y-79023749D01*
X149236951Y-78990007D01*
X149226046Y-78977422D01*
X149181842Y-78918887D01*
X149181841Y-78918886D01*
X149023722Y-78774742D01*
X149023716Y-78774738D01*
X149023713Y-78774736D01*
X148841813Y-78662108D01*
X148841807Y-78662106D01*
X148642297Y-78584815D01*
X148431980Y-78545500D01*
X148218020Y-78545500D01*
X148007703Y-78584815D01*
X147881533Y-78633693D01*
X147808192Y-78662106D01*
X147808186Y-78662108D01*
X147626286Y-78774736D01*
X147626283Y-78774738D01*
X147626279Y-78774740D01*
X147626278Y-78774742D01*
X147565240Y-78830385D01*
X147468157Y-78918887D01*
X147423954Y-78977422D01*
X147367844Y-79019058D01*
X147298132Y-79023749D01*
X147236951Y-78990007D01*
X147226046Y-78977422D01*
X147181842Y-78918887D01*
X147181841Y-78918886D01*
X147023722Y-78774742D01*
X147023716Y-78774738D01*
X147023713Y-78774736D01*
X146841813Y-78662108D01*
X146841807Y-78662106D01*
X146642297Y-78584815D01*
X146431980Y-78545500D01*
X146218020Y-78545500D01*
X146007703Y-78584815D01*
X145881533Y-78633693D01*
X145808192Y-78662106D01*
X145808186Y-78662108D01*
X145626286Y-78774736D01*
X145626283Y-78774738D01*
X145626279Y-78774740D01*
X145626278Y-78774742D01*
X145468159Y-78918886D01*
X145468158Y-78918887D01*
X145339219Y-79089629D01*
X145243849Y-79281158D01*
X145243846Y-79281164D01*
X145185296Y-79486949D01*
X145185295Y-79486952D01*
X145165554Y-79699999D01*
X145165554Y-79700000D01*
X145185295Y-79913047D01*
X145185296Y-79913050D01*
X145243846Y-80118835D01*
X145243849Y-80118841D01*
X145339219Y-80310370D01*
X145468160Y-80481116D01*
X145607744Y-80608363D01*
X145644026Y-80668074D01*
X145642265Y-80737922D01*
X145607744Y-80791637D01*
X145468160Y-80918883D01*
X145339219Y-81089629D01*
X145243849Y-81281158D01*
X145243846Y-81281164D01*
X145185296Y-81486949D01*
X145185295Y-81486952D01*
X145165554Y-81699999D01*
X145165554Y-81700000D01*
X145185295Y-81913047D01*
X145185296Y-81913050D01*
X145243846Y-82118835D01*
X145243849Y-82118840D01*
X145339219Y-82310370D01*
X145468159Y-82481114D01*
X145626278Y-82625258D01*
X145626283Y-82625261D01*
X145626286Y-82625263D01*
X145808186Y-82737891D01*
X145808187Y-82737891D01*
X145808190Y-82737893D01*
X146007703Y-82815185D01*
X146218020Y-82854500D01*
X146218022Y-82854500D01*
X146431978Y-82854500D01*
X146431980Y-82854500D01*
X146642297Y-82815185D01*
X146841810Y-82737893D01*
X147023722Y-82625258D01*
X147181841Y-82481114D01*
X147226046Y-82422576D01*
X147282155Y-82380941D01*
X147351867Y-82376250D01*
X147413049Y-82409992D01*
X147423952Y-82422575D01*
X147468159Y-82481114D01*
X147626278Y-82625258D01*
X147626283Y-82625261D01*
X147626286Y-82625263D01*
X147808186Y-82737891D01*
X147808187Y-82737891D01*
X147808190Y-82737893D01*
X148007703Y-82815185D01*
X148218020Y-82854500D01*
X148218022Y-82854500D01*
X148431978Y-82854500D01*
X148431980Y-82854500D01*
X148534789Y-82835281D01*
X148604303Y-82842312D01*
X148645254Y-82869489D01*
X148963584Y-83187819D01*
X148997069Y-83249142D01*
X148992085Y-83318834D01*
X148950213Y-83374767D01*
X148884749Y-83399184D01*
X148875903Y-83399500D01*
X134421843Y-83399500D01*
X134354804Y-83379815D01*
X134309049Y-83327011D01*
X134298623Y-83261617D01*
X134305565Y-83200003D01*
X134305565Y-83199996D01*
X134285369Y-83020750D01*
X134285368Y-83020745D01*
X134227196Y-82854500D01*
X134225789Y-82850478D01*
X134220290Y-82841727D01*
X134186582Y-82788080D01*
X134129816Y-82697738D01*
X134002262Y-82570184D01*
X133981958Y-82557426D01*
X133849523Y-82474211D01*
X133679254Y-82414631D01*
X133679249Y-82414630D01*
X133500004Y-82394435D01*
X133499996Y-82394435D01*
X133320750Y-82414630D01*
X133320745Y-82414631D01*
X133150476Y-82474211D01*
X132997737Y-82570184D01*
X132870184Y-82697737D01*
X132774210Y-82850478D01*
X132751125Y-82916454D01*
X132710403Y-82973230D01*
X132645451Y-82998978D01*
X132634083Y-82999500D01*
X130616322Y-82999500D01*
X130549283Y-82979815D01*
X130503528Y-82927011D01*
X130493102Y-82889383D01*
X130485369Y-82820752D01*
X130485368Y-82820751D01*
X130485368Y-82820745D01*
X130439623Y-82690015D01*
X130436063Y-82620240D01*
X130470792Y-82559612D01*
X130473069Y-82557480D01*
X130556841Y-82481114D01*
X130685781Y-82310370D01*
X130781151Y-82118840D01*
X130781151Y-82118837D01*
X130781153Y-82118835D01*
X130839703Y-81913050D01*
X130839704Y-81913047D01*
X130859446Y-81700000D01*
X130859446Y-81699999D01*
X130839704Y-81486952D01*
X130839703Y-81486949D01*
X130781153Y-81281164D01*
X130781150Y-81281158D01*
X130685781Y-81089630D01*
X130556841Y-80918886D01*
X130417251Y-80791633D01*
X130380973Y-80731927D01*
X130382733Y-80662079D01*
X130417251Y-80608366D01*
X130556841Y-80481114D01*
X130685781Y-80310370D01*
X130781151Y-80118840D01*
X130781151Y-80118837D01*
X130781153Y-80118835D01*
X130839703Y-79913050D01*
X130839704Y-79913047D01*
X130859446Y-79700000D01*
X130859446Y-79699999D01*
X130839704Y-79486952D01*
X130839703Y-79486949D01*
X130781153Y-79281164D01*
X130781150Y-79281158D01*
X130721891Y-79162150D01*
X130685781Y-79089630D01*
X130556841Y-78918886D01*
X130398722Y-78774742D01*
X130398716Y-78774738D01*
X130398713Y-78774736D01*
X130216813Y-78662108D01*
X130216807Y-78662106D01*
X130017297Y-78584815D01*
X129806980Y-78545500D01*
X129593020Y-78545500D01*
X129382703Y-78584815D01*
X129256533Y-78633693D01*
X129183192Y-78662106D01*
X129183186Y-78662108D01*
X129001286Y-78774736D01*
X129001283Y-78774738D01*
X129001279Y-78774740D01*
X129001278Y-78774742D01*
X128940240Y-78830385D01*
X128843157Y-78918887D01*
X128798954Y-78977422D01*
X128742844Y-79019058D01*
X128673132Y-79023749D01*
X128611951Y-78990007D01*
X128601046Y-78977422D01*
X128556842Y-78918887D01*
X128556841Y-78918886D01*
X128398722Y-78774742D01*
X128398716Y-78774738D01*
X128398713Y-78774736D01*
X128216813Y-78662108D01*
X128216807Y-78662106D01*
X128017297Y-78584815D01*
X127806980Y-78545500D01*
X127593020Y-78545500D01*
X127382703Y-78584815D01*
X127256533Y-78633693D01*
X127183192Y-78662106D01*
X127183186Y-78662108D01*
X127001286Y-78774736D01*
X127001283Y-78774738D01*
X127001279Y-78774740D01*
X127001278Y-78774742D01*
X126940240Y-78830385D01*
X126843157Y-78918887D01*
X126798954Y-78977422D01*
X126742844Y-79019058D01*
X126673132Y-79023749D01*
X126611951Y-78990007D01*
X126601046Y-78977422D01*
X126556842Y-78918887D01*
X126556841Y-78918886D01*
X126398722Y-78774742D01*
X126398716Y-78774738D01*
X126398713Y-78774736D01*
X126216813Y-78662108D01*
X126216807Y-78662106D01*
X126017297Y-78584815D01*
X125806980Y-78545500D01*
X125593020Y-78545500D01*
X125382703Y-78584815D01*
X125256533Y-78633693D01*
X125183192Y-78662106D01*
X125183186Y-78662108D01*
X125001286Y-78774736D01*
X125001283Y-78774738D01*
X125001279Y-78774740D01*
X125001278Y-78774742D01*
X124843159Y-78918886D01*
X124843158Y-78918887D01*
X124761494Y-79027027D01*
X124705385Y-79068663D01*
X124681477Y-79072075D01*
X124100000Y-79653552D01*
X124100000Y-79647339D01*
X124072741Y-79545606D01*
X124020080Y-79454394D01*
X123945606Y-79379920D01*
X123854394Y-79327259D01*
X123752661Y-79300000D01*
X123746447Y-79300000D01*
X124319912Y-78726533D01*
X124216586Y-78662556D01*
X124216585Y-78662555D01*
X124017162Y-78585299D01*
X123806932Y-78546000D01*
X123593068Y-78546000D01*
X123382837Y-78585299D01*
X123183416Y-78662554D01*
X123183410Y-78662557D01*
X123080087Y-78726532D01*
X123080086Y-78726533D01*
X123653554Y-79300000D01*
X123647339Y-79300000D01*
X123545606Y-79327259D01*
X123454394Y-79379920D01*
X123379920Y-79454394D01*
X123327259Y-79545606D01*
X123300000Y-79647339D01*
X123300000Y-79653553D01*
X122715803Y-79069356D01*
X122677803Y-79061007D01*
X122638504Y-79027025D01*
X122556844Y-78918889D01*
X122556841Y-78918886D01*
X122398722Y-78774742D01*
X122398716Y-78774738D01*
X122398713Y-78774736D01*
X122216813Y-78662108D01*
X122216807Y-78662106D01*
X122017297Y-78584815D01*
X121806980Y-78545500D01*
X121593020Y-78545500D01*
X121382703Y-78584815D01*
X121256533Y-78633693D01*
X121183192Y-78662106D01*
X121183186Y-78662108D01*
X121001286Y-78774736D01*
X121001283Y-78774738D01*
X121001279Y-78774740D01*
X121001278Y-78774742D01*
X120843159Y-78918886D01*
X120843158Y-78918887D01*
X120714219Y-79089629D01*
X120618849Y-79281158D01*
X120618846Y-79281164D01*
X120560296Y-79486949D01*
X120560295Y-79486952D01*
X120540554Y-79699999D01*
X120540554Y-79700000D01*
X120560295Y-79913047D01*
X120560296Y-79913050D01*
X120618846Y-80118835D01*
X120618849Y-80118841D01*
X120714219Y-80310370D01*
X120843160Y-80481116D01*
X120982744Y-80608363D01*
X121019026Y-80668074D01*
X121017265Y-80737922D01*
X120982744Y-80791637D01*
X120843160Y-80918883D01*
X120714219Y-81089629D01*
X120618849Y-81281158D01*
X120618846Y-81281164D01*
X120560296Y-81486949D01*
X120560295Y-81486952D01*
X120540554Y-81699999D01*
X120540554Y-81700000D01*
X120560295Y-81913047D01*
X120560296Y-81913050D01*
X120618846Y-82118835D01*
X120618849Y-82118840D01*
X120714219Y-82310370D01*
X120843159Y-82481114D01*
X121001278Y-82625258D01*
X121001283Y-82625261D01*
X121001286Y-82625263D01*
X121183186Y-82737891D01*
X121183187Y-82737891D01*
X121183190Y-82737893D01*
X121382703Y-82815185D01*
X121593020Y-82854500D01*
X121593022Y-82854500D01*
X121806978Y-82854500D01*
X121806980Y-82854500D01*
X122017297Y-82815185D01*
X122216810Y-82737893D01*
X122398722Y-82625258D01*
X122556841Y-82481114D01*
X122601046Y-82422576D01*
X122657155Y-82380941D01*
X122726867Y-82376250D01*
X122788049Y-82409992D01*
X122798952Y-82422575D01*
X122843159Y-82481114D01*
X123001278Y-82625258D01*
X123001283Y-82625261D01*
X123001286Y-82625263D01*
X123183186Y-82737891D01*
X123183187Y-82737891D01*
X123183190Y-82737893D01*
X123382703Y-82815185D01*
X123593020Y-82854500D01*
X123593022Y-82854500D01*
X123806978Y-82854500D01*
X123806980Y-82854500D01*
X123909789Y-82835281D01*
X123979303Y-82842312D01*
X124020253Y-82869488D01*
X125231284Y-84080520D01*
X125231286Y-84080521D01*
X125231290Y-84080524D01*
X125312731Y-84127543D01*
X125368216Y-84159577D01*
X125520943Y-84200501D01*
X125520945Y-84200501D01*
X125686654Y-84200501D01*
X125686670Y-84200500D01*
X126150902Y-84200500D01*
X126217941Y-84220185D01*
X126263696Y-84272989D01*
X126273640Y-84342147D01*
X126244615Y-84405703D01*
X126238583Y-84412181D01*
X124681720Y-85969043D01*
X124620397Y-86002528D01*
X124580784Y-86004651D01*
X124532883Y-85999501D01*
X124532881Y-85999500D01*
X124532873Y-85999500D01*
X124532865Y-85999500D01*
X124009000Y-85999500D01*
X123941961Y-85979815D01*
X123896206Y-85927011D01*
X123885000Y-85875500D01*
X123885000Y-85550000D01*
X121085000Y-85550000D01*
X121085000Y-86197844D01*
X121091401Y-86257372D01*
X121091403Y-86257379D01*
X121141645Y-86392086D01*
X121141649Y-86392093D01*
X121227809Y-86507187D01*
X121227812Y-86507190D01*
X121342906Y-86593350D01*
X121342913Y-86593354D01*
X121477620Y-86643596D01*
X121477627Y-86643598D01*
X121537155Y-86649999D01*
X121537172Y-86650000D01*
X121960500Y-86650000D01*
X122027539Y-86669685D01*
X122073294Y-86722489D01*
X122084500Y-86774000D01*
X122084500Y-87247870D01*
X122084501Y-87247876D01*
X122090908Y-87307482D01*
X122099699Y-87331050D01*
X122109237Y-87356625D01*
X122109253Y-87356666D01*
X122114237Y-87426358D01*
X122109253Y-87443331D01*
X122090909Y-87492514D01*
X122090908Y-87492516D01*
X122084501Y-87552116D01*
X122084500Y-87552135D01*
X122084500Y-88347870D01*
X122084501Y-88347876D01*
X122090908Y-88407482D01*
X122109253Y-88456666D01*
X122114237Y-88526358D01*
X122109253Y-88543331D01*
X122090909Y-88592514D01*
X122090908Y-88592516D01*
X122084501Y-88652116D01*
X122084500Y-88652135D01*
X122084500Y-89447870D01*
X122084501Y-89447876D01*
X122090909Y-89507484D01*
X122109519Y-89557382D01*
X122114503Y-89627074D01*
X122109520Y-89644046D01*
X122091402Y-89692623D01*
X122091401Y-89692627D01*
X122085000Y-89752155D01*
X122085000Y-89900000D01*
X122525833Y-89900000D01*
X122533811Y-89900427D01*
X122533817Y-89900322D01*
X122537102Y-89900497D01*
X122537127Y-89900500D01*
X124532872Y-89900499D01*
X124532873Y-89900498D01*
X124536196Y-89900321D01*
X124536201Y-89900426D01*
X124544163Y-89900000D01*
X124985000Y-89900000D01*
X124985000Y-89833597D01*
X125004685Y-89766558D01*
X125057489Y-89720803D01*
X125126647Y-89710859D01*
X125190203Y-89739884D01*
X125196681Y-89745916D01*
X125938584Y-90487819D01*
X125972069Y-90549142D01*
X125967085Y-90618834D01*
X125925213Y-90674767D01*
X125859749Y-90699184D01*
X125850903Y-90699500D01*
X125106740Y-90699500D01*
X125039701Y-90679815D01*
X124993946Y-90627011D01*
X124983450Y-90562245D01*
X124984999Y-90547828D01*
X124985000Y-90547827D01*
X124985000Y-90400000D01*
X124544167Y-90400000D01*
X124536188Y-90399572D01*
X124536183Y-90399678D01*
X124532879Y-90399500D01*
X124532873Y-90399500D01*
X124532866Y-90399500D01*
X122537129Y-90399500D01*
X122533804Y-90399679D01*
X122533798Y-90399573D01*
X122525837Y-90400000D01*
X122085000Y-90400000D01*
X122085000Y-90547844D01*
X122091401Y-90607372D01*
X122091403Y-90607383D01*
X122109519Y-90655953D01*
X122114503Y-90725644D01*
X122109520Y-90742616D01*
X122090908Y-90792517D01*
X122084501Y-90852116D01*
X122084500Y-90852135D01*
X122084500Y-91647870D01*
X122084501Y-91647876D01*
X122090908Y-91707482D01*
X122109253Y-91756666D01*
X122114237Y-91826358D01*
X122109253Y-91843331D01*
X122090909Y-91892514D01*
X122090908Y-91892516D01*
X122084501Y-91952116D01*
X122084500Y-91952135D01*
X122084500Y-92747870D01*
X122084501Y-92747879D01*
X122088372Y-92783890D01*
X122075964Y-92852650D01*
X122028352Y-92903786D01*
X122027082Y-92904529D01*
X121914587Y-92969477D01*
X121914582Y-92969481D01*
X121119481Y-93764582D01*
X121119480Y-93764584D01*
X121074522Y-93842454D01*
X121047629Y-93889032D01*
X121043223Y-93896666D01*
X121040423Y-93901515D01*
X120999499Y-94054243D01*
X120999499Y-94054245D01*
X120999499Y-94222346D01*
X120999500Y-94222359D01*
X120999500Y-96113330D01*
X120999499Y-96113348D01*
X120999499Y-96279054D01*
X120999498Y-96279054D01*
X121002579Y-96290554D01*
X121040423Y-96431785D01*
X121067716Y-96479057D01*
X121094375Y-96525232D01*
X121119479Y-96568714D01*
X121119481Y-96568717D01*
X121238349Y-96687585D01*
X121238355Y-96687590D01*
X129101591Y-104550826D01*
X129135076Y-104612149D01*
X129130092Y-104681841D01*
X129112954Y-104711267D01*
X129113684Y-104711778D01*
X128973118Y-104912527D01*
X128971681Y-104911520D01*
X128926810Y-104954297D01*
X128858202Y-104967513D01*
X128793340Y-104941540D01*
X128767702Y-104911953D01*
X128766882Y-104912528D01*
X128763777Y-104908093D01*
X128629421Y-104716213D01*
X128463787Y-104550579D01*
X128271907Y-104416223D01*
X128059611Y-104317228D01*
X128059607Y-104317227D01*
X128059603Y-104317225D01*
X127833356Y-104256603D01*
X127833346Y-104256601D01*
X127600001Y-104236186D01*
X127599999Y-104236186D01*
X127366653Y-104256601D01*
X127366643Y-104256603D01*
X127140396Y-104317225D01*
X127140389Y-104317227D01*
X127140389Y-104317228D01*
X126928093Y-104416223D01*
X126736213Y-104550579D01*
X126736211Y-104550580D01*
X126736208Y-104550583D01*
X126570583Y-104716208D01*
X126433118Y-104912528D01*
X126431680Y-104911521D01*
X126386810Y-104954297D01*
X126318202Y-104967513D01*
X126253340Y-104941540D01*
X126227702Y-104911953D01*
X126226882Y-104912528D01*
X126223777Y-104908093D01*
X126089421Y-104716213D01*
X125923787Y-104550579D01*
X125731907Y-104416223D01*
X125519611Y-104317228D01*
X125519607Y-104317227D01*
X125519603Y-104317225D01*
X125293356Y-104256603D01*
X125293346Y-104256601D01*
X125060001Y-104236186D01*
X125059999Y-104236186D01*
X124826653Y-104256601D01*
X124826643Y-104256603D01*
X124600396Y-104317225D01*
X124600389Y-104317227D01*
X124600389Y-104317228D01*
X124388093Y-104416223D01*
X124196213Y-104550579D01*
X124196211Y-104550580D01*
X124196208Y-104550583D01*
X124030583Y-104716208D01*
X123896223Y-104908093D01*
X123797229Y-105120387D01*
X123797225Y-105120396D01*
X123736603Y-105346643D01*
X123736601Y-105346653D01*
X123716186Y-105579999D01*
X123716186Y-105580000D01*
X123736601Y-105813346D01*
X123736603Y-105813356D01*
X123797225Y-106039603D01*
X123797227Y-106039607D01*
X123797228Y-106039611D01*
X123896223Y-106251907D01*
X124030579Y-106443787D01*
X124196213Y-106609421D01*
X124388093Y-106743777D01*
X124600389Y-106842772D01*
X124600395Y-106842773D01*
X124600396Y-106842774D01*
X124626006Y-106849636D01*
X124826649Y-106903398D01*
X125013329Y-106919730D01*
X125059999Y-106923814D01*
X125060000Y-106923814D01*
X125060001Y-106923814D01*
X125102610Y-106920086D01*
X125293351Y-106903398D01*
X125519611Y-106842772D01*
X125731907Y-106743777D01*
X125923787Y-106609421D01*
X126089421Y-106443787D01*
X126223777Y-106251907D01*
X126223777Y-106251905D01*
X126226882Y-106247472D01*
X126228323Y-106248481D01*
X126273172Y-106205712D01*
X126341778Y-106192484D01*
X126406645Y-106218447D01*
X126432294Y-106248048D01*
X126433118Y-106247472D01*
X126436222Y-106251905D01*
X126436223Y-106251907D01*
X126570579Y-106443787D01*
X126736213Y-106609421D01*
X126928093Y-106743777D01*
X127140389Y-106842772D01*
X127140395Y-106842773D01*
X127140396Y-106842774D01*
X127166006Y-106849636D01*
X127366649Y-106903398D01*
X127553329Y-106919730D01*
X127599999Y-106923814D01*
X127600000Y-106923814D01*
X127600001Y-106923814D01*
X127642610Y-106920086D01*
X127833351Y-106903398D01*
X128059611Y-106842772D01*
X128271907Y-106743777D01*
X128463787Y-106609421D01*
X128629421Y-106443787D01*
X128763777Y-106251907D01*
X128763777Y-106251905D01*
X128766882Y-106247472D01*
X128768323Y-106248481D01*
X128813172Y-106205712D01*
X128881778Y-106192484D01*
X128946645Y-106218447D01*
X128972294Y-106248048D01*
X128973118Y-106247472D01*
X128976222Y-106251905D01*
X128976223Y-106251907D01*
X129110579Y-106443787D01*
X129110583Y-106443791D01*
X129276212Y-106609420D01*
X129368335Y-106673926D01*
X129411960Y-106728503D01*
X129419152Y-106798001D01*
X129387630Y-106860356D01*
X129327400Y-106895769D01*
X129297211Y-106899500D01*
X128680943Y-106899500D01*
X128528214Y-106940423D01*
X128510762Y-106950500D01*
X128510759Y-106950501D01*
X128391290Y-107019475D01*
X128391282Y-107019481D01*
X128279478Y-107131286D01*
X125041465Y-110369298D01*
X124980142Y-110402783D01*
X124967668Y-110404837D01*
X124880750Y-110414630D01*
X124710478Y-110474210D01*
X124557737Y-110570184D01*
X124430184Y-110697737D01*
X124334211Y-110850476D01*
X124274631Y-111020745D01*
X124274630Y-111020750D01*
X124254435Y-111199996D01*
X124254435Y-111200003D01*
X124274630Y-111379249D01*
X124274631Y-111379254D01*
X124334211Y-111549523D01*
X124430184Y-111702262D01*
X124557738Y-111829816D01*
X124710478Y-111925789D01*
X124875287Y-111983458D01*
X124932063Y-112024180D01*
X124957810Y-112089133D01*
X124944354Y-112157694D01*
X124895967Y-112208097D01*
X124834332Y-112224500D01*
X123908467Y-112224500D01*
X123777969Y-112250458D01*
X123777959Y-112250461D01*
X123655038Y-112301376D01*
X123655020Y-112301386D01*
X123544398Y-112375301D01*
X123544390Y-112375307D01*
X119450307Y-116469390D01*
X119450304Y-116469394D01*
X119376383Y-116580024D01*
X119376378Y-116580034D01*
X119325459Y-116702963D01*
X119325457Y-116702971D01*
X119299500Y-116833464D01*
X119299500Y-117018964D01*
X119279815Y-117086003D01*
X119249812Y-117118230D01*
X119217457Y-117142450D01*
X119217451Y-117142457D01*
X119131206Y-117257664D01*
X119131202Y-117257671D01*
X119080908Y-117392517D01*
X119074501Y-117452116D01*
X119074500Y-117452135D01*
X119074500Y-118347870D01*
X119074501Y-118347876D01*
X119080908Y-118407483D01*
X119131202Y-118542328D01*
X119131203Y-118542329D01*
X119131204Y-118542331D01*
X119217454Y-118657546D01*
X119224808Y-118663051D01*
X119266681Y-118718983D01*
X119274500Y-118762320D01*
X119274500Y-120037679D01*
X119254815Y-120104718D01*
X119224813Y-120136944D01*
X119217459Y-120142449D01*
X119217451Y-120142457D01*
X119131206Y-120257664D01*
X119131202Y-120257671D01*
X119080908Y-120392517D01*
X119074501Y-120452116D01*
X119074500Y-120452135D01*
X119074500Y-121347870D01*
X119074501Y-121347876D01*
X119080908Y-121407483D01*
X119131202Y-121542328D01*
X119131203Y-121542329D01*
X119131204Y-121542331D01*
X119217454Y-121657546D01*
X119224808Y-121663051D01*
X119266681Y-121718983D01*
X119274500Y-121762320D01*
X119274500Y-124695194D01*
X119254815Y-124762233D01*
X119221625Y-124796768D01*
X119116209Y-124870582D01*
X118950583Y-125036208D01*
X118950580Y-125036211D01*
X118950579Y-125036213D01*
X118873267Y-125146625D01*
X118818692Y-125190249D01*
X118771694Y-125199500D01*
X118648306Y-125199500D01*
X118581267Y-125179815D01*
X118546733Y-125146626D01*
X118469421Y-125036213D01*
X118303787Y-124870579D01*
X118111907Y-124736223D01*
X117899611Y-124637228D01*
X117899607Y-124637227D01*
X117899603Y-124637225D01*
X117673356Y-124576603D01*
X117673346Y-124576601D01*
X117440001Y-124556186D01*
X117439999Y-124556186D01*
X117206653Y-124576601D01*
X117206643Y-124576603D01*
X116980396Y-124637225D01*
X116980389Y-124637227D01*
X116980389Y-124637228D01*
X116768093Y-124736223D01*
X116576213Y-124870579D01*
X116576211Y-124870580D01*
X116576208Y-124870583D01*
X116410583Y-125036208D01*
X116410580Y-125036211D01*
X116410579Y-125036213D01*
X116310028Y-125179815D01*
X116273118Y-125232528D01*
X116271680Y-125231521D01*
X116226810Y-125274297D01*
X116158202Y-125287513D01*
X116093340Y-125261540D01*
X116067702Y-125231953D01*
X116066882Y-125232528D01*
X116063777Y-125228093D01*
X115929421Y-125036213D01*
X115763787Y-124870579D01*
X115571907Y-124736223D01*
X115359611Y-124637228D01*
X115359607Y-124637227D01*
X115359603Y-124637225D01*
X115133356Y-124576603D01*
X115133346Y-124576601D01*
X114900001Y-124556186D01*
X114899999Y-124556186D01*
X114666653Y-124576601D01*
X114666643Y-124576603D01*
X114440396Y-124637225D01*
X114440389Y-124637227D01*
X114440389Y-124637228D01*
X114228093Y-124736223D01*
X114036213Y-124870579D01*
X114036211Y-124870580D01*
X114036208Y-124870583D01*
X113870583Y-125036208D01*
X113870580Y-125036211D01*
X113870579Y-125036213D01*
X113793268Y-125146624D01*
X113736223Y-125228093D01*
X113637229Y-125440387D01*
X113637225Y-125440396D01*
X113576603Y-125666643D01*
X113576601Y-125666653D01*
X113556186Y-125899999D01*
X113556186Y-125900000D01*
X108300500Y-125900000D01*
X108300500Y-101500000D01*
X111085000Y-101500000D01*
X111085000Y-101997844D01*
X111091401Y-102057372D01*
X111091403Y-102057379D01*
X111141645Y-102192086D01*
X111141649Y-102192093D01*
X111227809Y-102307187D01*
X111227812Y-102307190D01*
X111342906Y-102393350D01*
X111342913Y-102393354D01*
X111477620Y-102443596D01*
X111477627Y-102443598D01*
X111537155Y-102449999D01*
X111537172Y-102450000D01*
X112635000Y-102450000D01*
X112635000Y-101500000D01*
X113135000Y-101500000D01*
X113135000Y-102450000D01*
X114232828Y-102450000D01*
X114232844Y-102449999D01*
X114292372Y-102443598D01*
X114292379Y-102443596D01*
X114427086Y-102393354D01*
X114427093Y-102393350D01*
X114542187Y-102307190D01*
X114542190Y-102307187D01*
X114628350Y-102192093D01*
X114628354Y-102192086D01*
X114678596Y-102057379D01*
X114678598Y-102057372D01*
X114684999Y-101997844D01*
X114685000Y-101997827D01*
X114685000Y-101500000D01*
X113135000Y-101500000D01*
X112635000Y-101500000D01*
X111085000Y-101500000D01*
X108300500Y-101500000D01*
X108300500Y-101050000D01*
X121085000Y-101050000D01*
X121085000Y-101697844D01*
X121091401Y-101757372D01*
X121091403Y-101757379D01*
X121141645Y-101892086D01*
X121141649Y-101892093D01*
X121227809Y-102007187D01*
X121227812Y-102007190D01*
X121342906Y-102093350D01*
X121342913Y-102093354D01*
X121477620Y-102143596D01*
X121477627Y-102143598D01*
X121537155Y-102149999D01*
X121537172Y-102150000D01*
X122235000Y-102150000D01*
X122235000Y-101050000D01*
X122735000Y-101050000D01*
X122735000Y-102150000D01*
X123432828Y-102150000D01*
X123432844Y-102149999D01*
X123492372Y-102143598D01*
X123492379Y-102143596D01*
X123627086Y-102093354D01*
X123627093Y-102093350D01*
X123742187Y-102007190D01*
X123742190Y-102007187D01*
X123828350Y-101892093D01*
X123828354Y-101892086D01*
X123878596Y-101757379D01*
X123878598Y-101757372D01*
X123884999Y-101697844D01*
X123885000Y-101697827D01*
X123885000Y-101050000D01*
X122735000Y-101050000D01*
X122235000Y-101050000D01*
X121085000Y-101050000D01*
X108300500Y-101050000D01*
X108300500Y-101000000D01*
X111085000Y-101000000D01*
X112635000Y-101000000D01*
X112635000Y-100050000D01*
X113135000Y-100050000D01*
X113135000Y-101000000D01*
X114685000Y-101000000D01*
X114685000Y-100550000D01*
X121085000Y-100550000D01*
X122235000Y-100550000D01*
X122235000Y-99450000D01*
X122735000Y-99450000D01*
X122735000Y-100550000D01*
X123885000Y-100550000D01*
X123885000Y-99902172D01*
X123884999Y-99902155D01*
X123878598Y-99842627D01*
X123878596Y-99842620D01*
X123828354Y-99707913D01*
X123828350Y-99707906D01*
X123742190Y-99592812D01*
X123742187Y-99592809D01*
X123627093Y-99506649D01*
X123627086Y-99506645D01*
X123492379Y-99456403D01*
X123492372Y-99456401D01*
X123432844Y-99450000D01*
X122735000Y-99450000D01*
X122235000Y-99450000D01*
X121537155Y-99450000D01*
X121477627Y-99456401D01*
X121477620Y-99456403D01*
X121342913Y-99506645D01*
X121342906Y-99506649D01*
X121227812Y-99592809D01*
X121227809Y-99592812D01*
X121141649Y-99707906D01*
X121141645Y-99707913D01*
X121091403Y-99842620D01*
X121091401Y-99842627D01*
X121085000Y-99902155D01*
X121085000Y-100550000D01*
X114685000Y-100550000D01*
X114685000Y-100502172D01*
X114684999Y-100502155D01*
X114678598Y-100442627D01*
X114678596Y-100442620D01*
X114628354Y-100307913D01*
X114628350Y-100307906D01*
X114542190Y-100192812D01*
X114542187Y-100192809D01*
X114427093Y-100106649D01*
X114427086Y-100106645D01*
X114292379Y-100056403D01*
X114292372Y-100056401D01*
X114232844Y-100050000D01*
X113135000Y-100050000D01*
X112635000Y-100050000D01*
X111537155Y-100050000D01*
X111477627Y-100056401D01*
X111477620Y-100056403D01*
X111342913Y-100106645D01*
X111342906Y-100106649D01*
X111227812Y-100192809D01*
X111227809Y-100192812D01*
X111141649Y-100307906D01*
X111141645Y-100307913D01*
X111091403Y-100442620D01*
X111091401Y-100442627D01*
X111085000Y-100502155D01*
X111085000Y-101000000D01*
X108300500Y-101000000D01*
X108300500Y-96884135D01*
X111684500Y-96884135D01*
X111713268Y-97019481D01*
X111719486Y-97048731D01*
X111787928Y-97202455D01*
X111886836Y-97338589D01*
X111886837Y-97338590D01*
X111886838Y-97338591D01*
X111886840Y-97338594D01*
X111927284Y-97375009D01*
X112011886Y-97451185D01*
X112157614Y-97535321D01*
X112157616Y-97535321D01*
X112157619Y-97535323D01*
X112213464Y-97553467D01*
X112317650Y-97587320D01*
X112485000Y-97604909D01*
X112652350Y-97587320D01*
X112812386Y-97535321D01*
X112958114Y-97451185D01*
X113071696Y-97348915D01*
X113083159Y-97338594D01*
X113083159Y-97338592D01*
X113083164Y-97338589D01*
X113182072Y-97202455D01*
X113250514Y-97048731D01*
X113285500Y-96884136D01*
X113285500Y-96800000D01*
X113285500Y-96752405D01*
X113285500Y-96060438D01*
X113285500Y-96015864D01*
X113250514Y-95851269D01*
X113182072Y-95697546D01*
X113083164Y-95561411D01*
X112958114Y-95448815D01*
X112812386Y-95364679D01*
X112812380Y-95364676D01*
X112652353Y-95312681D01*
X112652350Y-95312680D01*
X112485000Y-95295091D01*
X112317650Y-95312680D01*
X112317647Y-95312680D01*
X112317646Y-95312681D01*
X112157619Y-95364676D01*
X112157613Y-95364679D01*
X112011887Y-95448814D01*
X111886837Y-95561409D01*
X111787927Y-95697546D01*
X111719487Y-95851264D01*
X111719485Y-95851269D01*
X111684500Y-96015864D01*
X111684500Y-96884135D01*
X108300500Y-96884135D01*
X108300500Y-88518995D01*
X111784499Y-88518995D01*
X111811418Y-88654322D01*
X111811421Y-88654332D01*
X111864221Y-88781804D01*
X111864228Y-88781817D01*
X111940885Y-88896541D01*
X111940888Y-88896545D01*
X112038454Y-88994111D01*
X112038458Y-88994114D01*
X112153182Y-89070771D01*
X112153195Y-89070778D01*
X112280667Y-89123578D01*
X112280672Y-89123580D01*
X112280676Y-89123580D01*
X112280677Y-89123581D01*
X112416004Y-89150500D01*
X112416007Y-89150500D01*
X112553995Y-89150500D01*
X112645041Y-89132389D01*
X112689328Y-89123580D01*
X112816811Y-89070775D01*
X112931542Y-88994114D01*
X113029114Y-88896542D01*
X113105775Y-88781811D01*
X113158580Y-88654328D01*
X113185500Y-88518993D01*
X113185500Y-88381007D01*
X113185500Y-88381004D01*
X113158581Y-88245677D01*
X113158580Y-88245676D01*
X113158580Y-88245672D01*
X113106223Y-88119270D01*
X113105778Y-88118195D01*
X113105771Y-88118182D01*
X113029114Y-88003458D01*
X113029111Y-88003454D01*
X112931545Y-87905888D01*
X112931541Y-87905885D01*
X112816817Y-87829228D01*
X112816804Y-87829221D01*
X112689332Y-87776421D01*
X112689322Y-87776418D01*
X112553995Y-87749500D01*
X112553993Y-87749500D01*
X112416007Y-87749500D01*
X112416005Y-87749500D01*
X112280677Y-87776418D01*
X112280667Y-87776421D01*
X112153195Y-87829221D01*
X112153182Y-87829228D01*
X112038458Y-87905885D01*
X112038454Y-87905888D01*
X111940888Y-88003454D01*
X111940885Y-88003458D01*
X111864228Y-88118182D01*
X111864221Y-88118195D01*
X111811421Y-88245667D01*
X111811418Y-88245677D01*
X111784500Y-88381004D01*
X111784500Y-88381007D01*
X111784500Y-88518993D01*
X111784500Y-88518995D01*
X111784499Y-88518995D01*
X108300500Y-88518995D01*
X108300500Y-85800000D01*
X111085000Y-85800000D01*
X111085000Y-86297844D01*
X111091401Y-86357372D01*
X111091403Y-86357379D01*
X111141645Y-86492086D01*
X111141649Y-86492093D01*
X111227809Y-86607187D01*
X111227812Y-86607190D01*
X111342906Y-86693350D01*
X111342913Y-86693354D01*
X111477620Y-86743596D01*
X111477627Y-86743598D01*
X111537155Y-86749999D01*
X111537172Y-86750000D01*
X112635000Y-86750000D01*
X112635000Y-85800000D01*
X113135000Y-85800000D01*
X113135000Y-86750000D01*
X114232828Y-86750000D01*
X114232844Y-86749999D01*
X114292372Y-86743598D01*
X114292379Y-86743596D01*
X114427086Y-86693354D01*
X114427093Y-86693350D01*
X114542187Y-86607190D01*
X114542190Y-86607187D01*
X114628350Y-86492093D01*
X114628354Y-86492086D01*
X114678596Y-86357379D01*
X114678598Y-86357372D01*
X114684999Y-86297844D01*
X114685000Y-86297827D01*
X114685000Y-85800000D01*
X113135000Y-85800000D01*
X112635000Y-85800000D01*
X111085000Y-85800000D01*
X108300500Y-85800000D01*
X108300500Y-85300000D01*
X111085000Y-85300000D01*
X112635000Y-85300000D01*
X112635000Y-84350000D01*
X113135000Y-84350000D01*
X113135000Y-85300000D01*
X114685000Y-85300000D01*
X114685000Y-85050000D01*
X121085000Y-85050000D01*
X122235000Y-85050000D01*
X122235000Y-83950000D01*
X122735000Y-83950000D01*
X122735000Y-85050000D01*
X123885000Y-85050000D01*
X123885000Y-84402172D01*
X123884999Y-84402155D01*
X123878598Y-84342627D01*
X123878596Y-84342620D01*
X123828354Y-84207913D01*
X123828350Y-84207906D01*
X123742190Y-84092812D01*
X123742187Y-84092809D01*
X123627093Y-84006649D01*
X123627086Y-84006645D01*
X123492379Y-83956403D01*
X123492372Y-83956401D01*
X123432844Y-83950000D01*
X122735000Y-83950000D01*
X122235000Y-83950000D01*
X121537155Y-83950000D01*
X121477627Y-83956401D01*
X121477620Y-83956403D01*
X121342913Y-84006645D01*
X121342906Y-84006649D01*
X121227812Y-84092809D01*
X121227809Y-84092812D01*
X121141649Y-84207906D01*
X121141645Y-84207913D01*
X121091403Y-84342620D01*
X121091401Y-84342627D01*
X121085000Y-84402155D01*
X121085000Y-85050000D01*
X114685000Y-85050000D01*
X114685000Y-84802172D01*
X114684999Y-84802155D01*
X114678598Y-84742627D01*
X114678596Y-84742620D01*
X114628354Y-84607913D01*
X114628350Y-84607906D01*
X114542190Y-84492812D01*
X114542187Y-84492809D01*
X114427093Y-84406649D01*
X114427086Y-84406645D01*
X114292379Y-84356403D01*
X114292372Y-84356401D01*
X114232844Y-84350000D01*
X113135000Y-84350000D01*
X112635000Y-84350000D01*
X111537155Y-84350000D01*
X111477627Y-84356401D01*
X111477620Y-84356403D01*
X111342913Y-84406645D01*
X111342906Y-84406649D01*
X111227812Y-84492809D01*
X111227809Y-84492812D01*
X111141649Y-84607906D01*
X111141645Y-84607913D01*
X111091403Y-84742620D01*
X111091401Y-84742627D01*
X111085000Y-84802155D01*
X111085000Y-85300000D01*
X108300500Y-85300000D01*
X108300500Y-76800005D01*
X108995255Y-76800005D01*
X109014215Y-77101383D01*
X109014216Y-77101390D01*
X109070805Y-77398040D01*
X109164125Y-77685247D01*
X109164127Y-77685252D01*
X109292704Y-77958491D01*
X109292707Y-77958497D01*
X109454516Y-78213469D01*
X109535311Y-78311133D01*
X110463708Y-77382736D01*
X110560967Y-77516602D01*
X110683398Y-77639033D01*
X110817262Y-77736290D01*
X109886564Y-78666987D01*
X109886565Y-78666989D01*
X110111461Y-78830385D01*
X110111479Y-78830397D01*
X110376109Y-78975878D01*
X110376117Y-78975882D01*
X110656889Y-79087047D01*
X110656892Y-79087048D01*
X110949399Y-79162150D01*
X111248995Y-79199999D01*
X111249007Y-79200000D01*
X111550993Y-79200000D01*
X111551004Y-79199999D01*
X111850600Y-79162150D01*
X112143107Y-79087048D01*
X112143110Y-79087047D01*
X112423882Y-78975882D01*
X112423890Y-78975878D01*
X112688520Y-78830397D01*
X112688530Y-78830390D01*
X112913433Y-78666987D01*
X112913434Y-78666987D01*
X111982737Y-77736290D01*
X112116602Y-77639033D01*
X112239033Y-77516602D01*
X112336290Y-77382737D01*
X113264687Y-78311134D01*
X113345486Y-78213464D01*
X113507292Y-77958497D01*
X113507295Y-77958491D01*
X113635872Y-77685252D01*
X113635874Y-77685247D01*
X113729194Y-77398040D01*
X113785783Y-77101390D01*
X113785784Y-77101383D01*
X113804745Y-76800005D01*
X162195255Y-76800005D01*
X162214215Y-77101383D01*
X162214216Y-77101390D01*
X162270805Y-77398040D01*
X162364125Y-77685247D01*
X162364127Y-77685252D01*
X162492704Y-77958491D01*
X162492707Y-77958497D01*
X162654516Y-78213469D01*
X162735311Y-78311133D01*
X163663708Y-77382736D01*
X163760967Y-77516602D01*
X163883398Y-77639033D01*
X164017262Y-77736290D01*
X163086564Y-78666987D01*
X163086565Y-78666989D01*
X163311461Y-78830385D01*
X163311479Y-78830397D01*
X163576109Y-78975878D01*
X163576117Y-78975882D01*
X163856889Y-79087047D01*
X163856892Y-79087048D01*
X164149399Y-79162150D01*
X164448995Y-79199999D01*
X164449007Y-79200000D01*
X164750993Y-79200000D01*
X164751004Y-79199999D01*
X165050600Y-79162150D01*
X165343107Y-79087048D01*
X165343110Y-79087047D01*
X165623882Y-78975882D01*
X165623890Y-78975878D01*
X165888520Y-78830397D01*
X165888530Y-78830390D01*
X166113433Y-78666987D01*
X166113434Y-78666987D01*
X165182737Y-77736290D01*
X165316602Y-77639033D01*
X165439033Y-77516602D01*
X165536290Y-77382737D01*
X166464687Y-78311134D01*
X166545486Y-78213464D01*
X166707292Y-77958497D01*
X166707295Y-77958491D01*
X166835872Y-77685252D01*
X166835874Y-77685247D01*
X166929194Y-77398040D01*
X166985783Y-77101390D01*
X166985784Y-77101383D01*
X167004745Y-76800005D01*
X167004745Y-76799994D01*
X166985784Y-76498616D01*
X166985783Y-76498609D01*
X166929194Y-76201959D01*
X166835874Y-75914752D01*
X166835872Y-75914747D01*
X166707295Y-75641508D01*
X166707292Y-75641502D01*
X166545483Y-75386530D01*
X166464686Y-75288864D01*
X165536289Y-76217261D01*
X165439033Y-76083398D01*
X165316602Y-75960967D01*
X165182736Y-75863709D01*
X166113434Y-74933011D01*
X166113433Y-74933009D01*
X165888538Y-74769614D01*
X165888520Y-74769602D01*
X165623890Y-74624121D01*
X165623882Y-74624117D01*
X165343110Y-74512952D01*
X165343107Y-74512951D01*
X165050600Y-74437849D01*
X164751004Y-74400000D01*
X164448995Y-74400000D01*
X164149399Y-74437849D01*
X163856892Y-74512951D01*
X163856889Y-74512952D01*
X163576117Y-74624117D01*
X163576109Y-74624121D01*
X163311476Y-74769604D01*
X163311471Y-74769607D01*
X163086565Y-74933010D01*
X163086564Y-74933011D01*
X164017262Y-75863709D01*
X163883398Y-75960967D01*
X163760967Y-76083398D01*
X163663709Y-76217262D01*
X162735311Y-75288864D01*
X162654520Y-75386525D01*
X162654518Y-75386528D01*
X162492707Y-75641502D01*
X162492704Y-75641508D01*
X162364127Y-75914747D01*
X162364125Y-75914752D01*
X162270805Y-76201959D01*
X162214216Y-76498609D01*
X162214215Y-76498616D01*
X162195255Y-76799994D01*
X162195255Y-76800005D01*
X113804745Y-76800005D01*
X113804745Y-76799994D01*
X113785784Y-76498616D01*
X113785783Y-76498609D01*
X113729194Y-76201959D01*
X113635874Y-75914752D01*
X113635872Y-75914747D01*
X113507295Y-75641508D01*
X113507292Y-75641502D01*
X113345483Y-75386530D01*
X113264686Y-75288864D01*
X112336289Y-76217261D01*
X112239033Y-76083398D01*
X112116602Y-75960967D01*
X111982736Y-75863709D01*
X112913434Y-74933011D01*
X112913433Y-74933009D01*
X112688538Y-74769614D01*
X112688520Y-74769602D01*
X112423890Y-74624121D01*
X112423882Y-74624117D01*
X112143110Y-74512952D01*
X112143107Y-74512951D01*
X111850600Y-74437849D01*
X111551004Y-74400000D01*
X111248995Y-74400000D01*
X110949399Y-74437849D01*
X110656892Y-74512951D01*
X110656889Y-74512952D01*
X110376117Y-74624117D01*
X110376109Y-74624121D01*
X110111476Y-74769604D01*
X110111471Y-74769607D01*
X109886565Y-74933010D01*
X109886564Y-74933011D01*
X110817262Y-75863709D01*
X110683398Y-75960967D01*
X110560967Y-76083398D01*
X110463709Y-76217262D01*
X109535311Y-75288864D01*
X109454520Y-75386525D01*
X109454518Y-75386528D01*
X109292707Y-75641502D01*
X109292704Y-75641508D01*
X109164127Y-75914747D01*
X109164125Y-75914752D01*
X109070805Y-76201959D01*
X109014216Y-76498609D01*
X109014215Y-76498616D01*
X108995255Y-76799994D01*
X108995255Y-76800005D01*
X108300500Y-76800005D01*
X108300500Y-73824500D01*
X108320185Y-73757461D01*
X108372989Y-73711706D01*
X108424500Y-73700500D01*
X167575500Y-73700500D01*
X167642539Y-73720185D01*
G37*
%TD.AperFunction*%
%TD*%
M02*
