%TF.GenerationSoftware,KiCad,Pcbnew,8.0.1-rc2*%
%TF.CreationDate,2025-04-22T16:56:50+02:00*%
%TF.ProjectId,feather_daughterboard,66656174-6865-4725-9f64-617567687465,1*%
%TF.SameCoordinates,Original*%
%TF.FileFunction,Soldermask,Top*%
%TF.FilePolarity,Negative*%
%FSLAX46Y46*%
G04 Gerber Fmt 4.6, Leading zero omitted, Abs format (unit mm)*
G04 Created by KiCad (PCBNEW 8.0.1-rc2) date 2025-04-22 16:56:50*
%MOMM*%
%LPD*%
G01*
G04 APERTURE LIST*
G04 Aperture macros list*
%AMRoundRect*
0 Rectangle with rounded corners*
0 $1 Rounding radius*
0 $2 $3 $4 $5 $6 $7 $8 $9 X,Y pos of 4 corners*
0 Add a 4 corners polygon primitive as box body*
4,1,4,$2,$3,$4,$5,$6,$7,$8,$9,$2,$3,0*
0 Add four circle primitives for the rounded corners*
1,1,$1+$1,$2,$3*
1,1,$1+$1,$4,$5*
1,1,$1+$1,$6,$7*
1,1,$1+$1,$8,$9*
0 Add four rect primitives between the rounded corners*
20,1,$1+$1,$2,$3,$4,$5,0*
20,1,$1+$1,$4,$5,$6,$7,0*
20,1,$1+$1,$6,$7,$8,$9,0*
20,1,$1+$1,$8,$9,$2,$3,0*%
G04 Aperture macros list end*
%ADD10RoundRect,0.102000X-0.300000X-0.450000X0.300000X-0.450000X0.300000X0.450000X-0.300000X0.450000X0*%
%ADD11RoundRect,0.102000X0.300000X0.450000X-0.300000X0.450000X-0.300000X-0.450000X0.300000X-0.450000X0*%
%ADD12RoundRect,0.102000X0.775000X0.650000X-0.775000X0.650000X-0.775000X-0.650000X0.775000X-0.650000X0*%
%ADD13C,1.512000*%
%ADD14RoundRect,0.102000X0.400000X0.400000X-0.400000X0.400000X-0.400000X-0.400000X0.400000X-0.400000X0*%
%ADD15C,3.800000*%
G04 APERTURE END LIST*
D10*
%TO.C,R1_4*%
X119050000Y-88000000D03*
X120550000Y-88000000D03*
%TD*%
D11*
%TO.C,R2_1*%
X150524100Y-88000000D03*
X149024100Y-88000000D03*
%TD*%
D12*
%TO.C,S4*%
X119975000Y-85250000D03*
X119975000Y-80750000D03*
X112025000Y-85250000D03*
X112025000Y-80750000D03*
%TD*%
D11*
%TO.C,R2_2*%
X138000000Y-88000000D03*
X136500000Y-88000000D03*
%TD*%
D10*
%TO.C,R1_3*%
X131500000Y-88000000D03*
X133000000Y-88000000D03*
%TD*%
D12*
%TO.C,S3*%
X132475000Y-85250000D03*
X132475000Y-80750000D03*
X124525000Y-85250000D03*
X124525000Y-80750000D03*
%TD*%
%TO.C,S1*%
X157475000Y-85250000D03*
X157475000Y-80750000D03*
X149525000Y-85250000D03*
X149525000Y-80750000D03*
%TD*%
D10*
%TO.C,R1_2*%
X144050000Y-88000000D03*
X145550000Y-88000000D03*
%TD*%
D11*
%TO.C,R2_4*%
X113010000Y-88000000D03*
X111510000Y-88000000D03*
%TD*%
D13*
%TO.C,J1*%
X172800000Y-81600000D03*
X172800000Y-83600000D03*
X170800000Y-81600000D03*
X170800000Y-83600000D03*
X168800000Y-81600000D03*
X168800000Y-83600000D03*
X166800000Y-81600000D03*
X166800000Y-83600000D03*
X164800000Y-81600000D03*
X164800000Y-83600000D03*
%TD*%
D14*
%TO.C,C1_2*%
X141750000Y-88000000D03*
X140250000Y-88000000D03*
%TD*%
D12*
%TO.C,S2*%
X144975000Y-85250000D03*
X144975000Y-80750000D03*
X137025000Y-85250000D03*
X137025000Y-80750000D03*
%TD*%
D14*
%TO.C,C1_4*%
X116550000Y-88000000D03*
X115050000Y-88000000D03*
%TD*%
%TO.C,C1_1*%
X154274100Y-88000000D03*
X152774100Y-88000000D03*
%TD*%
D11*
%TO.C,R2_3*%
X125500000Y-88000000D03*
X124000000Y-88000000D03*
%TD*%
D10*
%TO.C,R1_1*%
X156524100Y-88000000D03*
X158024100Y-88000000D03*
%TD*%
D15*
%TO.C,H2*%
X181500000Y-84500000D03*
%TD*%
D14*
%TO.C,C1_3*%
X129250000Y-88000000D03*
X127750000Y-88000000D03*
%TD*%
M02*
