M48
; DRILL file {KiCad 8.0.1-rc2} date 2025-04-22T16:56:50+0200
; FORMAT={-:-/ absolute / inch / decimal}
; #@! TF.CreationDate,2025-04-22T16:56:50+02:00
; #@! TF.GenerationSoftware,Kicad,Pcbnew,8.0.1-rc2
; #@! TF.FileFunction,Plated,1,2,PTH
FMAT,2
INCH
; #@! TA.AperFunction,Plated,PTH,ViaDrill
T1C0.0118
; #@! TA.AperFunction,Plated,PTH,ComponentDrill
T2C0.0315
; #@! TA.AperFunction,Plated,PTH,ComponentDrill
T3C0.0866
%
G90
G05
T1
X4.3268Y-3.1772
X4.3268Y-3.3228
X4.3268Y-3.4803
X4.4882Y-3.4213
X4.689Y-3.4173
X4.7677Y-3.4173
X4.815Y-3.1772
X4.815Y-3.3189
X4.815Y-3.4724
X4.9843Y-3.4213
X5.1772Y-3.4173
X5.2529Y-3.4164
X5.2992Y-3.1772
X5.2992Y-3.2835
X5.2992Y-3.4724
X5.4764Y-3.4213
X5.6732Y-3.4173
X5.752Y-3.4134
X5.7717Y-3.2795
X5.7992Y-3.4724
X5.8071Y-3.1614
X5.9695Y-3.4213
X6.12Y-3.4636
X6.2717Y-3.1614
X6.2717Y-3.4213
X6.4843Y-3.3976
X6.9213Y-3.2598
X6.9213Y-3.4173
X7.2402Y-3.4961
X7.2441Y-3.1457
T2
X6.4882Y-3.2126
X6.4882Y-3.2913
X6.5669Y-3.2126
X6.5669Y-3.2913
X6.6457Y-3.2126
X6.6457Y-3.2913
X6.7244Y-3.2126
X6.7244Y-3.2913
X6.8031Y-3.2126
X6.8031Y-3.2913
T3
X7.1457Y-3.3268
M30
