%TF.GenerationSoftware,KiCad,Pcbnew,8.0.1-rc2*%
%TF.CreationDate,2025-04-21T16:40:17+02:00*%
%TF.ProjectId,feather_daughterboard,66656174-6865-4725-9f64-617567687465,1*%
%TF.SameCoordinates,Original*%
%TF.FileFunction,Copper,L2,Bot*%
%TF.FilePolarity,Positive*%
%FSLAX46Y46*%
G04 Gerber Fmt 4.6, Leading zero omitted, Abs format (unit mm)*
G04 Created by KiCad (PCBNEW 8.0.1-rc2) date 2025-04-21 16:40:17*
%MOMM*%
%LPD*%
G01*
G04 APERTURE LIST*
%TA.AperFunction,ComponentPad*%
%ADD10C,1.308000*%
%TD*%
%TA.AperFunction,ComponentPad*%
%ADD11C,3.800000*%
%TD*%
%TA.AperFunction,ViaPad*%
%ADD12C,0.600000*%
%TD*%
%TA.AperFunction,Conductor*%
%ADD13C,0.200000*%
%TD*%
G04 APERTURE END LIST*
D10*
%TO.P,J1,1*%
%TO.N,unconnected-(J1-Pad1)*%
X172800000Y-81600000D03*
%TO.P,J1,2*%
%TO.N,unconnected-(J1-Pad2)*%
X172800000Y-83600000D03*
%TO.P,J1,3*%
%TO.N,/Board/Button_4*%
X170800000Y-81600000D03*
%TO.P,J1,4*%
%TO.N,/Board/GND*%
X170800000Y-83600000D03*
%TO.P,J1,5*%
%TO.N,/Board/Button_3*%
X168800000Y-81600000D03*
%TO.P,J1,6*%
%TO.N,/Board/Button_1*%
X168800000Y-83600000D03*
%TO.P,J1,7*%
%TO.N,/Board/Button_2*%
X166800000Y-81600000D03*
%TO.P,J1,8*%
%TO.N,/Board/VCC*%
X166800000Y-83600000D03*
%TO.P,J1,9*%
%TO.N,unconnected-(J1-Pad9)*%
X164800000Y-81600000D03*
%TO.P,J1,10*%
%TO.N,unconnected-(J1-Pad10)*%
X164800000Y-83600000D03*
%TD*%
D11*
%TO.P,H2,1,1*%
%TO.N,/Board/GND*%
X181500000Y-84500000D03*
%TD*%
D12*
%TO.N,/Board/GND*%
X134600000Y-88200000D03*
X183900000Y-88800000D03*
X151624100Y-86900000D03*
X175800000Y-82800000D03*
X109700000Y-84600000D03*
X159300000Y-86900000D03*
X183800000Y-79900000D03*
X159300000Y-80300000D03*
X134600000Y-80700000D03*
X139100000Y-86900000D03*
X147500000Y-80300000D03*
X109900000Y-88400000D03*
X109900000Y-80700000D03*
X134600000Y-83400000D03*
X126600000Y-86900000D03*
X114000000Y-86900000D03*
X146600000Y-83300000D03*
X147300000Y-88200000D03*
X164700000Y-86300000D03*
X175800000Y-86800000D03*
X122300000Y-83400000D03*
X122300000Y-88200000D03*
X122300000Y-80700000D03*
%TO.N,/Board/Button_1*%
X155449100Y-87975100D03*
%TO.N,/Board/Button_2*%
X144100000Y-86800000D03*
X146100000Y-86700000D03*
%TO.N,/Board/Button_3*%
X131500000Y-86800000D03*
X133424265Y-86775735D03*
%TO.N,/Board/Button_4*%
X121100000Y-86800000D03*
X119100000Y-86800000D03*
%TD*%
D13*
%TO.N,/Board/Button_1*%
X168224900Y-87975100D02*
X168800000Y-87400000D01*
X168800000Y-87400000D02*
X168800000Y-83600000D01*
X155449100Y-87975100D02*
X168224900Y-87975100D01*
%TO.N,/Board/Button_2*%
X146000000Y-86800000D02*
X144100000Y-86800000D01*
X146100000Y-86700000D02*
X146000000Y-86800000D01*
%TO.N,/Board/Button_3*%
X133400000Y-86800000D02*
X133424265Y-86775735D01*
X131500000Y-86800000D02*
X133400000Y-86800000D01*
%TO.N,/Board/Button_4*%
X121100000Y-86800000D02*
X119000000Y-86800000D01*
%TD*%
%TA.AperFunction,Conductor*%
%TO.N,/Board/GND*%
G36*
X169888049Y-82309992D02*
G01*
X169898954Y-82322577D01*
X169943160Y-82381116D01*
X170101275Y-82525256D01*
X170118792Y-82536102D01*
X170165428Y-82588130D01*
X170170166Y-82616612D01*
X170753554Y-83200000D01*
X170747339Y-83200000D01*
X170645606Y-83227259D01*
X170554394Y-83279920D01*
X170479920Y-83354394D01*
X170427259Y-83445606D01*
X170400000Y-83547339D01*
X170400000Y-83553553D01*
X169815803Y-82969356D01*
X169777803Y-82961007D01*
X169738504Y-82927025D01*
X169656844Y-82818889D01*
X169656839Y-82818884D01*
X169517251Y-82691633D01*
X169480973Y-82631927D01*
X169482733Y-82562079D01*
X169517251Y-82508366D01*
X169656841Y-82381114D01*
X169701046Y-82322576D01*
X169757155Y-82280941D01*
X169826867Y-82276250D01*
X169888049Y-82309992D01*
G37*
%TD.AperFunction*%
%TA.AperFunction,Conductor*%
G36*
X171888049Y-82309992D02*
G01*
X171898954Y-82322577D01*
X171943160Y-82381116D01*
X172082744Y-82508363D01*
X172119026Y-82568074D01*
X172117265Y-82637922D01*
X172082744Y-82691637D01*
X171943160Y-82818884D01*
X171861494Y-82927027D01*
X171805385Y-82968663D01*
X171781477Y-82972075D01*
X171200000Y-83553552D01*
X171200000Y-83547339D01*
X171172741Y-83445606D01*
X171120080Y-83354394D01*
X171045606Y-83279920D01*
X170954394Y-83227259D01*
X170852661Y-83200000D01*
X170846447Y-83200000D01*
X171430087Y-82616357D01*
X171435137Y-82586959D01*
X171481203Y-82536105D01*
X171498722Y-82525258D01*
X171656841Y-82381114D01*
X171701046Y-82322576D01*
X171757155Y-82280941D01*
X171826867Y-82276250D01*
X171888049Y-82309992D01*
G37*
%TD.AperFunction*%
%TA.AperFunction,Conductor*%
G36*
X184642539Y-79320185D02*
G01*
X184688294Y-79372989D01*
X184699500Y-79424500D01*
X184699500Y-89575500D01*
X184679815Y-89642539D01*
X184627011Y-89688294D01*
X184575500Y-89699500D01*
X108924500Y-89699500D01*
X108857461Y-89679815D01*
X108811706Y-89627011D01*
X108800500Y-89575500D01*
X108800500Y-87975103D01*
X154643535Y-87975103D01*
X154663730Y-88154349D01*
X154663731Y-88154354D01*
X154723311Y-88324623D01*
X154819284Y-88477362D01*
X154946838Y-88604916D01*
X155099578Y-88700889D01*
X155269845Y-88760468D01*
X155269850Y-88760469D01*
X155449096Y-88780665D01*
X155449100Y-88780665D01*
X155449104Y-88780665D01*
X155628349Y-88760469D01*
X155628352Y-88760468D01*
X155628355Y-88760468D01*
X155798622Y-88700889D01*
X155951362Y-88604916D01*
X155951367Y-88604910D01*
X155954197Y-88602655D01*
X155956375Y-88601765D01*
X155957258Y-88601211D01*
X155957355Y-88601365D01*
X156018883Y-88576245D01*
X156031512Y-88575600D01*
X168138231Y-88575600D01*
X168138247Y-88575601D01*
X168145843Y-88575601D01*
X168303954Y-88575601D01*
X168303957Y-88575601D01*
X168456685Y-88534677D01*
X168506804Y-88505739D01*
X168593616Y-88455620D01*
X168705420Y-88343816D01*
X168705420Y-88343814D01*
X168715628Y-88333607D01*
X168715630Y-88333604D01*
X169158506Y-87890728D01*
X169158511Y-87890724D01*
X169168714Y-87880520D01*
X169168716Y-87880520D01*
X169280520Y-87768716D01*
X169337180Y-87670577D01*
X169359577Y-87631785D01*
X169400500Y-87479058D01*
X169400500Y-87320943D01*
X169400500Y-84655141D01*
X169420185Y-84588102D01*
X169459218Y-84549717D01*
X169498722Y-84525258D01*
X169656841Y-84381114D01*
X169738507Y-84272970D01*
X169794613Y-84231336D01*
X169818521Y-84227924D01*
X170400000Y-83646445D01*
X170400000Y-83652661D01*
X170427259Y-83754394D01*
X170479920Y-83845606D01*
X170554394Y-83920080D01*
X170645606Y-83972741D01*
X170747339Y-84000000D01*
X170753553Y-84000000D01*
X170180086Y-84573465D01*
X170283413Y-84637443D01*
X170283414Y-84637444D01*
X170482837Y-84714700D01*
X170693068Y-84754000D01*
X170906932Y-84754000D01*
X171117162Y-84714700D01*
X171316585Y-84637444D01*
X171316589Y-84637442D01*
X171419911Y-84573466D01*
X171419911Y-84573465D01*
X170846448Y-84000000D01*
X170852661Y-84000000D01*
X170954394Y-83972741D01*
X171045606Y-83920080D01*
X171120080Y-83845606D01*
X171172741Y-83754394D01*
X171200000Y-83652661D01*
X171200000Y-83646446D01*
X171784194Y-84230640D01*
X171822197Y-84238992D01*
X171861493Y-84272971D01*
X171943159Y-84381114D01*
X172101278Y-84525258D01*
X172101283Y-84525261D01*
X172101286Y-84525263D01*
X172283186Y-84637891D01*
X172283187Y-84637891D01*
X172283190Y-84637893D01*
X172482703Y-84715185D01*
X172693020Y-84754500D01*
X172693022Y-84754500D01*
X172906978Y-84754500D01*
X172906980Y-84754500D01*
X173117297Y-84715185D01*
X173316810Y-84637893D01*
X173498722Y-84525258D01*
X173526423Y-84500005D01*
X179095255Y-84500005D01*
X179114215Y-84801383D01*
X179114216Y-84801390D01*
X179170805Y-85098040D01*
X179264125Y-85385247D01*
X179264127Y-85385252D01*
X179392704Y-85658491D01*
X179392707Y-85658497D01*
X179554516Y-85913469D01*
X179635311Y-86011133D01*
X180563708Y-85082736D01*
X180660967Y-85216602D01*
X180783398Y-85339033D01*
X180917262Y-85436290D01*
X179986564Y-86366987D01*
X179986565Y-86366989D01*
X180211461Y-86530385D01*
X180211479Y-86530397D01*
X180476109Y-86675878D01*
X180476117Y-86675882D01*
X180756889Y-86787047D01*
X180756892Y-86787048D01*
X181049399Y-86862150D01*
X181348995Y-86899999D01*
X181349007Y-86900000D01*
X181650993Y-86900000D01*
X181651004Y-86899999D01*
X181950600Y-86862150D01*
X182243107Y-86787048D01*
X182243110Y-86787047D01*
X182523882Y-86675882D01*
X182523890Y-86675878D01*
X182788520Y-86530397D01*
X182788530Y-86530390D01*
X183013433Y-86366987D01*
X183013434Y-86366987D01*
X182082737Y-85436290D01*
X182216602Y-85339033D01*
X182339033Y-85216602D01*
X182436290Y-85082737D01*
X183364687Y-86011134D01*
X183445486Y-85913464D01*
X183607292Y-85658497D01*
X183607295Y-85658491D01*
X183735872Y-85385252D01*
X183735874Y-85385247D01*
X183829194Y-85098040D01*
X183885783Y-84801390D01*
X183885784Y-84801383D01*
X183904745Y-84500005D01*
X183904745Y-84499994D01*
X183885784Y-84198616D01*
X183885783Y-84198609D01*
X183829194Y-83901959D01*
X183735874Y-83614752D01*
X183735872Y-83614747D01*
X183607295Y-83341508D01*
X183607292Y-83341502D01*
X183445483Y-83086530D01*
X183364686Y-82988864D01*
X182436289Y-83917261D01*
X182339033Y-83783398D01*
X182216602Y-83660967D01*
X182082736Y-83563709D01*
X183013434Y-82633011D01*
X183013433Y-82633009D01*
X182788538Y-82469614D01*
X182788520Y-82469602D01*
X182523890Y-82324121D01*
X182523882Y-82324117D01*
X182243110Y-82212952D01*
X182243107Y-82212951D01*
X181950600Y-82137849D01*
X181651004Y-82100000D01*
X181348995Y-82100000D01*
X181049399Y-82137849D01*
X180756892Y-82212951D01*
X180756889Y-82212952D01*
X180476117Y-82324117D01*
X180476109Y-82324121D01*
X180211476Y-82469604D01*
X180211471Y-82469607D01*
X179986565Y-82633010D01*
X179986564Y-82633011D01*
X180917262Y-83563709D01*
X180783398Y-83660967D01*
X180660967Y-83783398D01*
X180563709Y-83917262D01*
X179635311Y-82988864D01*
X179554520Y-83086525D01*
X179554518Y-83086528D01*
X179392707Y-83341502D01*
X179392704Y-83341508D01*
X179264127Y-83614747D01*
X179264125Y-83614752D01*
X179170805Y-83901959D01*
X179114216Y-84198609D01*
X179114215Y-84198616D01*
X179095255Y-84499994D01*
X179095255Y-84500005D01*
X173526423Y-84500005D01*
X173656841Y-84381114D01*
X173785781Y-84210370D01*
X173881151Y-84018840D01*
X173881151Y-84018837D01*
X173881153Y-84018835D01*
X173939703Y-83813050D01*
X173939704Y-83813047D01*
X173942452Y-83783398D01*
X173959446Y-83600000D01*
X173939704Y-83386952D01*
X173899727Y-83246446D01*
X173881153Y-83181164D01*
X173881150Y-83181158D01*
X173834030Y-83086528D01*
X173785781Y-82989630D01*
X173656841Y-82818886D01*
X173517251Y-82691633D01*
X173480973Y-82631927D01*
X173482733Y-82562079D01*
X173517251Y-82508366D01*
X173656841Y-82381114D01*
X173785781Y-82210370D01*
X173881151Y-82018840D01*
X173881151Y-82018837D01*
X173881153Y-82018835D01*
X173939703Y-81813050D01*
X173939704Y-81813047D01*
X173959446Y-81600000D01*
X173959446Y-81599999D01*
X173939704Y-81386952D01*
X173939703Y-81386949D01*
X173881153Y-81181164D01*
X173881150Y-81181158D01*
X173785781Y-80989630D01*
X173656841Y-80818886D01*
X173498722Y-80674742D01*
X173498716Y-80674738D01*
X173498713Y-80674736D01*
X173316813Y-80562108D01*
X173316807Y-80562106D01*
X173117297Y-80484815D01*
X172906980Y-80445500D01*
X172693020Y-80445500D01*
X172482703Y-80484815D01*
X172356533Y-80533693D01*
X172283192Y-80562106D01*
X172283186Y-80562108D01*
X172101286Y-80674736D01*
X172101283Y-80674738D01*
X172101279Y-80674740D01*
X172101278Y-80674742D01*
X172037396Y-80732977D01*
X171943157Y-80818887D01*
X171898954Y-80877422D01*
X171842844Y-80919058D01*
X171773132Y-80923749D01*
X171711951Y-80890007D01*
X171701046Y-80877422D01*
X171656842Y-80818887D01*
X171656841Y-80818886D01*
X171498722Y-80674742D01*
X171498716Y-80674738D01*
X171498713Y-80674736D01*
X171316813Y-80562108D01*
X171316807Y-80562106D01*
X171117297Y-80484815D01*
X170906980Y-80445500D01*
X170693020Y-80445500D01*
X170482703Y-80484815D01*
X170356533Y-80533693D01*
X170283192Y-80562106D01*
X170283186Y-80562108D01*
X170101286Y-80674736D01*
X170101283Y-80674738D01*
X170101279Y-80674740D01*
X170101278Y-80674742D01*
X170037396Y-80732977D01*
X169943157Y-80818887D01*
X169898954Y-80877422D01*
X169842844Y-80919058D01*
X169773132Y-80923749D01*
X169711951Y-80890007D01*
X169701046Y-80877422D01*
X169656842Y-80818887D01*
X169656841Y-80818886D01*
X169498722Y-80674742D01*
X169498716Y-80674738D01*
X169498713Y-80674736D01*
X169316813Y-80562108D01*
X169316807Y-80562106D01*
X169117297Y-80484815D01*
X168906980Y-80445500D01*
X168693020Y-80445500D01*
X168482703Y-80484815D01*
X168356533Y-80533693D01*
X168283192Y-80562106D01*
X168283186Y-80562108D01*
X168101286Y-80674736D01*
X168101283Y-80674738D01*
X168101279Y-80674740D01*
X168101278Y-80674742D01*
X168037396Y-80732977D01*
X167943157Y-80818887D01*
X167898954Y-80877422D01*
X167842844Y-80919058D01*
X167773132Y-80923749D01*
X167711951Y-80890007D01*
X167701046Y-80877422D01*
X167656842Y-80818887D01*
X167656841Y-80818886D01*
X167498722Y-80674742D01*
X167498716Y-80674738D01*
X167498713Y-80674736D01*
X167316813Y-80562108D01*
X167316807Y-80562106D01*
X167117297Y-80484815D01*
X166906980Y-80445500D01*
X166693020Y-80445500D01*
X166482703Y-80484815D01*
X166356533Y-80533693D01*
X166283192Y-80562106D01*
X166283186Y-80562108D01*
X166101286Y-80674736D01*
X166101283Y-80674738D01*
X166101279Y-80674740D01*
X166101278Y-80674742D01*
X166037396Y-80732977D01*
X165943157Y-80818887D01*
X165898954Y-80877422D01*
X165842844Y-80919058D01*
X165773132Y-80923749D01*
X165711951Y-80890007D01*
X165701046Y-80877422D01*
X165656842Y-80818887D01*
X165656841Y-80818886D01*
X165498722Y-80674742D01*
X165498716Y-80674738D01*
X165498713Y-80674736D01*
X165316813Y-80562108D01*
X165316807Y-80562106D01*
X165117297Y-80484815D01*
X164906980Y-80445500D01*
X164693020Y-80445500D01*
X164482703Y-80484815D01*
X164356533Y-80533693D01*
X164283192Y-80562106D01*
X164283186Y-80562108D01*
X164101286Y-80674736D01*
X164101283Y-80674738D01*
X164101279Y-80674740D01*
X164101278Y-80674742D01*
X163943159Y-80818886D01*
X163943158Y-80818887D01*
X163814219Y-80989629D01*
X163718849Y-81181158D01*
X163718846Y-81181164D01*
X163660296Y-81386949D01*
X163660295Y-81386952D01*
X163640554Y-81599999D01*
X163640554Y-81600000D01*
X163660295Y-81813047D01*
X163660296Y-81813050D01*
X163718846Y-82018835D01*
X163718849Y-82018841D01*
X163814219Y-82210370D01*
X163943160Y-82381116D01*
X164082744Y-82508363D01*
X164119026Y-82568074D01*
X164117265Y-82637922D01*
X164082744Y-82691637D01*
X163943160Y-82818883D01*
X163814219Y-82989629D01*
X163718849Y-83181158D01*
X163718846Y-83181164D01*
X163660296Y-83386949D01*
X163660295Y-83386952D01*
X163640554Y-83599999D01*
X163640554Y-83600000D01*
X163660295Y-83813047D01*
X163660296Y-83813050D01*
X163718846Y-84018835D01*
X163718849Y-84018840D01*
X163814219Y-84210370D01*
X163943159Y-84381114D01*
X164101278Y-84525258D01*
X164101283Y-84525261D01*
X164101286Y-84525263D01*
X164283186Y-84637891D01*
X164283187Y-84637891D01*
X164283190Y-84637893D01*
X164482703Y-84715185D01*
X164693020Y-84754500D01*
X164693022Y-84754500D01*
X164906978Y-84754500D01*
X164906980Y-84754500D01*
X165117297Y-84715185D01*
X165316810Y-84637893D01*
X165498722Y-84525258D01*
X165656841Y-84381114D01*
X165701046Y-84322576D01*
X165757155Y-84280941D01*
X165826867Y-84276250D01*
X165888049Y-84309992D01*
X165898952Y-84322575D01*
X165943159Y-84381114D01*
X166101278Y-84525258D01*
X166101283Y-84525261D01*
X166101286Y-84525263D01*
X166283186Y-84637891D01*
X166283187Y-84637891D01*
X166283190Y-84637893D01*
X166482703Y-84715185D01*
X166693020Y-84754500D01*
X166693022Y-84754500D01*
X166906978Y-84754500D01*
X166906980Y-84754500D01*
X167117297Y-84715185D01*
X167316810Y-84637893D01*
X167498722Y-84525258D01*
X167656841Y-84381114D01*
X167701046Y-84322576D01*
X167757155Y-84280941D01*
X167826867Y-84276250D01*
X167888049Y-84309992D01*
X167898952Y-84322575D01*
X167943159Y-84381114D01*
X168101278Y-84525258D01*
X168140780Y-84549716D01*
X168187413Y-84601741D01*
X168199500Y-84655141D01*
X168199500Y-87099903D01*
X168179815Y-87166942D01*
X168163181Y-87187584D01*
X168012484Y-87338281D01*
X167951161Y-87371766D01*
X167924803Y-87374600D01*
X156031512Y-87374600D01*
X155964473Y-87354915D01*
X155954197Y-87347545D01*
X155951363Y-87345285D01*
X155951362Y-87345284D01*
X155882893Y-87302262D01*
X155798623Y-87249311D01*
X155628354Y-87189731D01*
X155628349Y-87189730D01*
X155449104Y-87169535D01*
X155449096Y-87169535D01*
X155269850Y-87189730D01*
X155269845Y-87189731D01*
X155099576Y-87249311D01*
X154946837Y-87345284D01*
X154819284Y-87472837D01*
X154723311Y-87625576D01*
X154663731Y-87795845D01*
X154663730Y-87795850D01*
X154643535Y-87975096D01*
X154643535Y-87975103D01*
X108800500Y-87975103D01*
X108800500Y-86800003D01*
X118294435Y-86800003D01*
X118314630Y-86979249D01*
X118314631Y-86979254D01*
X118374211Y-87149523D01*
X118454937Y-87277997D01*
X118470184Y-87302262D01*
X118597738Y-87429816D01*
X118666207Y-87472838D01*
X118711860Y-87501524D01*
X118750478Y-87525789D01*
X118909119Y-87581300D01*
X118920745Y-87585368D01*
X118920750Y-87585369D01*
X119099996Y-87605565D01*
X119100000Y-87605565D01*
X119100004Y-87605565D01*
X119279249Y-87585369D01*
X119279252Y-87585368D01*
X119279255Y-87585368D01*
X119449522Y-87525789D01*
X119602262Y-87429816D01*
X119602267Y-87429810D01*
X119605097Y-87427555D01*
X119607275Y-87426665D01*
X119608158Y-87426111D01*
X119608255Y-87426265D01*
X119669783Y-87401145D01*
X119682412Y-87400500D01*
X120517588Y-87400500D01*
X120584627Y-87420185D01*
X120594903Y-87427555D01*
X120597736Y-87429814D01*
X120597738Y-87429816D01*
X120750478Y-87525789D01*
X120909119Y-87581300D01*
X120920745Y-87585368D01*
X120920750Y-87585369D01*
X121099996Y-87605565D01*
X121100000Y-87605565D01*
X121100004Y-87605565D01*
X121279249Y-87585369D01*
X121279252Y-87585368D01*
X121279255Y-87585368D01*
X121449522Y-87525789D01*
X121602262Y-87429816D01*
X121729816Y-87302262D01*
X121825789Y-87149522D01*
X121885368Y-86979255D01*
X121894298Y-86899999D01*
X121905565Y-86800003D01*
X130694435Y-86800003D01*
X130714630Y-86979249D01*
X130714631Y-86979254D01*
X130774211Y-87149523D01*
X130854937Y-87277997D01*
X130870184Y-87302262D01*
X130997738Y-87429816D01*
X131066207Y-87472838D01*
X131111860Y-87501524D01*
X131150478Y-87525789D01*
X131309119Y-87581300D01*
X131320745Y-87585368D01*
X131320750Y-87585369D01*
X131499996Y-87605565D01*
X131500000Y-87605565D01*
X131500004Y-87605565D01*
X131679249Y-87585369D01*
X131679252Y-87585368D01*
X131679255Y-87585368D01*
X131849522Y-87525789D01*
X132002262Y-87429816D01*
X132002267Y-87429810D01*
X132005097Y-87427555D01*
X132007275Y-87426665D01*
X132008158Y-87426111D01*
X132008255Y-87426265D01*
X132069783Y-87401145D01*
X132082412Y-87400500D01*
X132878241Y-87400500D01*
X132944211Y-87419505D01*
X133074743Y-87501524D01*
X133245010Y-87561103D01*
X133245015Y-87561104D01*
X133424261Y-87581300D01*
X133424265Y-87581300D01*
X133424269Y-87581300D01*
X133603514Y-87561104D01*
X133603517Y-87561103D01*
X133603520Y-87561103D01*
X133773787Y-87501524D01*
X133926527Y-87405551D01*
X134054081Y-87277997D01*
X134150054Y-87125257D01*
X134209633Y-86954990D01*
X134215829Y-86899999D01*
X134227096Y-86800003D01*
X143294435Y-86800003D01*
X143314630Y-86979249D01*
X143314631Y-86979254D01*
X143374211Y-87149523D01*
X143454937Y-87277997D01*
X143470184Y-87302262D01*
X143597738Y-87429816D01*
X143666207Y-87472838D01*
X143711860Y-87501524D01*
X143750478Y-87525789D01*
X143909119Y-87581300D01*
X143920745Y-87585368D01*
X143920750Y-87585369D01*
X144099996Y-87605565D01*
X144100000Y-87605565D01*
X144100004Y-87605565D01*
X144279249Y-87585369D01*
X144279252Y-87585368D01*
X144279255Y-87585368D01*
X144449522Y-87525789D01*
X144602262Y-87429816D01*
X144602267Y-87429810D01*
X144605097Y-87427555D01*
X144607275Y-87426665D01*
X144608158Y-87426111D01*
X144608255Y-87426265D01*
X144669783Y-87401145D01*
X144682412Y-87400500D01*
X145674506Y-87400500D01*
X145740477Y-87419506D01*
X145750474Y-87425787D01*
X145750475Y-87425787D01*
X145750478Y-87425789D01*
X145902709Y-87479057D01*
X145920745Y-87485368D01*
X145920750Y-87485369D01*
X146099996Y-87505565D01*
X146100000Y-87505565D01*
X146100004Y-87505565D01*
X146279249Y-87485369D01*
X146279252Y-87485368D01*
X146279255Y-87485368D01*
X146449522Y-87425789D01*
X146602262Y-87329816D01*
X146729816Y-87202262D01*
X146825789Y-87049522D01*
X146885368Y-86879255D01*
X146885369Y-86879249D01*
X146905565Y-86700003D01*
X146905565Y-86699996D01*
X146885369Y-86520750D01*
X146885368Y-86520745D01*
X146825789Y-86350478D01*
X146729816Y-86197738D01*
X146602262Y-86070184D01*
X146602260Y-86070183D01*
X146449523Y-85974211D01*
X146279254Y-85914631D01*
X146279249Y-85914630D01*
X146100004Y-85894435D01*
X146099996Y-85894435D01*
X145920750Y-85914630D01*
X145920745Y-85914631D01*
X145750476Y-85974211D01*
X145597739Y-86070183D01*
X145504740Y-86163182D01*
X145443416Y-86196666D01*
X145417059Y-86199500D01*
X144682412Y-86199500D01*
X144615373Y-86179815D01*
X144605097Y-86172445D01*
X144602263Y-86170185D01*
X144602262Y-86170184D01*
X144545496Y-86134515D01*
X144449523Y-86074211D01*
X144279254Y-86014631D01*
X144279249Y-86014630D01*
X144100004Y-85994435D01*
X144099996Y-85994435D01*
X143920750Y-86014630D01*
X143920745Y-86014631D01*
X143750476Y-86074211D01*
X143597737Y-86170184D01*
X143470184Y-86297737D01*
X143374211Y-86450476D01*
X143314631Y-86620745D01*
X143314630Y-86620750D01*
X143294435Y-86799996D01*
X143294435Y-86800003D01*
X134227096Y-86800003D01*
X134229830Y-86775738D01*
X134229830Y-86775731D01*
X134209634Y-86596485D01*
X134209633Y-86596480D01*
X134150054Y-86426213D01*
X134054081Y-86273473D01*
X133926527Y-86145919D01*
X133773788Y-86049946D01*
X133603519Y-85990366D01*
X133603514Y-85990365D01*
X133424269Y-85970170D01*
X133424261Y-85970170D01*
X133245015Y-85990365D01*
X133245010Y-85990366D01*
X133074741Y-86049946D01*
X132922002Y-86145919D01*
X132904741Y-86163181D01*
X132843418Y-86196666D01*
X132817060Y-86199500D01*
X132082412Y-86199500D01*
X132015373Y-86179815D01*
X132005097Y-86172445D01*
X132002263Y-86170185D01*
X132002262Y-86170184D01*
X131945496Y-86134515D01*
X131849523Y-86074211D01*
X131679254Y-86014631D01*
X131679249Y-86014630D01*
X131500004Y-85994435D01*
X131499996Y-85994435D01*
X131320750Y-86014630D01*
X131320745Y-86014631D01*
X131150476Y-86074211D01*
X130997737Y-86170184D01*
X130870184Y-86297737D01*
X130774211Y-86450476D01*
X130714631Y-86620745D01*
X130714630Y-86620750D01*
X130694435Y-86799996D01*
X130694435Y-86800003D01*
X121905565Y-86800003D01*
X121905565Y-86799996D01*
X121885369Y-86620750D01*
X121885368Y-86620745D01*
X121825788Y-86450476D01*
X121762955Y-86350478D01*
X121729816Y-86297738D01*
X121602262Y-86170184D01*
X121563645Y-86145919D01*
X121449523Y-86074211D01*
X121279254Y-86014631D01*
X121279249Y-86014630D01*
X121100004Y-85994435D01*
X121099996Y-85994435D01*
X120920750Y-86014630D01*
X120920745Y-86014631D01*
X120750476Y-86074211D01*
X120597736Y-86170185D01*
X120594903Y-86172445D01*
X120592724Y-86173334D01*
X120591842Y-86173889D01*
X120591744Y-86173734D01*
X120530217Y-86198855D01*
X120517588Y-86199500D01*
X119682412Y-86199500D01*
X119615373Y-86179815D01*
X119605097Y-86172445D01*
X119602263Y-86170185D01*
X119602262Y-86170184D01*
X119545496Y-86134515D01*
X119449523Y-86074211D01*
X119279254Y-86014631D01*
X119279249Y-86014630D01*
X119100004Y-85994435D01*
X119099996Y-85994435D01*
X118920750Y-86014630D01*
X118920745Y-86014631D01*
X118750476Y-86074211D01*
X118597737Y-86170184D01*
X118470184Y-86297737D01*
X118374211Y-86450476D01*
X118314631Y-86620745D01*
X118314630Y-86620750D01*
X118294435Y-86799996D01*
X118294435Y-86800003D01*
X108800500Y-86800003D01*
X108800500Y-79424500D01*
X108820185Y-79357461D01*
X108872989Y-79311706D01*
X108924500Y-79300500D01*
X184575500Y-79300500D01*
X184642539Y-79320185D01*
G37*
%TD.AperFunction*%
%TD*%
M02*
