%TF.GenerationSoftware,KiCad,Pcbnew,8.0.1-rc2*%
%TF.CreationDate,2025-04-22T16:56:50+02:00*%
%TF.ProjectId,feather_daughterboard,66656174-6865-4725-9f64-617567687465,1*%
%TF.SameCoordinates,Original*%
%TF.FileFunction,Legend,Top*%
%TF.FilePolarity,Positive*%
%FSLAX46Y46*%
G04 Gerber Fmt 4.6, Leading zero omitted, Abs format (unit mm)*
G04 Created by KiCad (PCBNEW 8.0.1-rc2) date 2025-04-22 16:56:50*
%MOMM*%
%LPD*%
G01*
G04 APERTURE LIST*
G04 Aperture macros list*
%AMRoundRect*
0 Rectangle with rounded corners*
0 $1 Rounding radius*
0 $2 $3 $4 $5 $6 $7 $8 $9 X,Y pos of 4 corners*
0 Add a 4 corners polygon primitive as box body*
4,1,4,$2,$3,$4,$5,$6,$7,$8,$9,$2,$3,0*
0 Add four circle primitives for the rounded corners*
1,1,$1+$1,$2,$3*
1,1,$1+$1,$4,$5*
1,1,$1+$1,$6,$7*
1,1,$1+$1,$8,$9*
0 Add four rect primitives between the rounded corners*
20,1,$1+$1,$2,$3,$4,$5,0*
20,1,$1+$1,$4,$5,$6,$7,0*
20,1,$1+$1,$6,$7,$8,$9,0*
20,1,$1+$1,$8,$9,$2,$3,0*%
G04 Aperture macros list end*
%ADD10C,0.150000*%
%ADD11C,0.200000*%
%ADD12C,0.127000*%
%ADD13RoundRect,0.102000X-0.300000X-0.450000X0.300000X-0.450000X0.300000X0.450000X-0.300000X0.450000X0*%
%ADD14RoundRect,0.102000X0.300000X0.450000X-0.300000X0.450000X-0.300000X-0.450000X0.300000X-0.450000X0*%
%ADD15RoundRect,0.102000X0.775000X0.650000X-0.775000X0.650000X-0.775000X-0.650000X0.775000X-0.650000X0*%
%ADD16C,1.512000*%
%ADD17RoundRect,0.102000X0.400000X0.400000X-0.400000X0.400000X-0.400000X-0.400000X0.400000X-0.400000X0*%
%ADD18C,3.800000*%
G04 APERTURE END LIST*
D10*
G36*
X175743940Y-80151552D02*
G01*
X175783351Y-80152963D01*
X175824064Y-80156168D01*
X175846908Y-80159366D01*
X175886204Y-80169779D01*
X175921686Y-80186999D01*
X175931123Y-80193169D01*
X175961214Y-80218857D01*
X175986517Y-80251128D01*
X175992868Y-80261557D01*
X176008934Y-80297908D01*
X176016810Y-80337741D01*
X176017683Y-80357300D01*
X176013396Y-80399066D01*
X176000537Y-80438193D01*
X175987201Y-80462813D01*
X175961290Y-80495484D01*
X175929279Y-80521395D01*
X175904549Y-80534914D01*
X175943280Y-80549399D01*
X175979970Y-80571114D01*
X176009982Y-80598744D01*
X176017683Y-80608187D01*
X176038600Y-80642323D01*
X176051770Y-80680009D01*
X176057193Y-80721244D01*
X176057348Y-80729917D01*
X176053748Y-80770831D01*
X176042950Y-80810920D01*
X176031751Y-80837189D01*
X176009943Y-80873230D01*
X175982915Y-80903391D01*
X175961995Y-80920231D01*
X175925963Y-80940180D01*
X175887817Y-80952576D01*
X175852965Y-80958528D01*
X175811448Y-80961114D01*
X175770891Y-80962375D01*
X175727376Y-80963218D01*
X175684942Y-80963752D01*
X175656789Y-80964000D01*
X175382456Y-80964000D01*
X175382456Y-80613853D01*
X175545024Y-80613853D01*
X175545024Y-80826442D01*
X175695673Y-80826442D01*
X175735619Y-80826137D01*
X175777424Y-80824720D01*
X175807243Y-80821557D01*
X175845579Y-80807287D01*
X175866252Y-80789903D01*
X175885340Y-80753909D01*
X175889113Y-80722297D01*
X175882914Y-80683693D01*
X175871528Y-80661725D01*
X175841715Y-80634789D01*
X175820725Y-80625381D01*
X175780870Y-80617917D01*
X175738202Y-80614979D01*
X175696490Y-80613954D01*
X175676329Y-80613853D01*
X175545024Y-80613853D01*
X175382456Y-80613853D01*
X175382456Y-80288717D01*
X175545024Y-80288717D01*
X175545024Y-80476295D01*
X175651709Y-80476295D01*
X175694696Y-80476124D01*
X175735790Y-80475430D01*
X175769727Y-80473560D01*
X175809082Y-80462813D01*
X175835380Y-80444446D01*
X175855447Y-80410533D01*
X175859413Y-80381138D01*
X175852112Y-80341385D01*
X175838702Y-80319980D01*
X175805194Y-80297845D01*
X175777543Y-80291452D01*
X175734907Y-80289489D01*
X175690202Y-80288888D01*
X175645515Y-80288720D01*
X175638422Y-80288717D01*
X175545024Y-80288717D01*
X175382456Y-80288717D01*
X175382456Y-80151159D01*
X175704466Y-80151159D01*
X175743940Y-80151552D01*
G37*
G36*
X176450924Y-80365852D02*
G01*
X176494576Y-80373930D01*
X176534368Y-80388067D01*
X176570299Y-80408263D01*
X176602369Y-80434518D01*
X176616957Y-80449917D01*
X176642472Y-80485452D01*
X176662450Y-80527431D01*
X176674869Y-80567335D01*
X176683444Y-80611714D01*
X176688173Y-80660567D01*
X176689188Y-80702871D01*
X176689057Y-80713895D01*
X176302177Y-80713895D01*
X176306493Y-80755256D01*
X176318955Y-80793612D01*
X176339497Y-80824488D01*
X176371452Y-80850043D01*
X176409212Y-80862570D01*
X176428597Y-80863958D01*
X176467458Y-80857689D01*
X176489364Y-80846177D01*
X176515651Y-80815478D01*
X176526880Y-80788926D01*
X176680851Y-80813937D01*
X176663852Y-80851330D01*
X176639589Y-80887734D01*
X176609886Y-80918141D01*
X176587062Y-80935081D01*
X176548571Y-80955105D01*
X176510075Y-80967403D01*
X176467550Y-80974523D01*
X176427034Y-80976505D01*
X176381343Y-80974067D01*
X176339526Y-80966754D01*
X176301583Y-80954566D01*
X176261163Y-80933504D01*
X176226322Y-80905423D01*
X176201549Y-80876658D01*
X176179089Y-80839609D01*
X176162145Y-80798557D01*
X176152013Y-80760185D01*
X176145934Y-80718873D01*
X176143907Y-80674621D01*
X176145758Y-80630615D01*
X176148033Y-80613853D01*
X176304912Y-80613853D01*
X176535673Y-80613853D01*
X176531624Y-80574889D01*
X176518655Y-80536494D01*
X176501088Y-80511466D01*
X176469464Y-80487424D01*
X176429522Y-80476605D01*
X176420781Y-80476295D01*
X176379999Y-80483364D01*
X176345875Y-80504570D01*
X176337348Y-80513225D01*
X176316064Y-80547742D01*
X176306264Y-80587333D01*
X176304912Y-80613853D01*
X176148033Y-80613853D01*
X176151311Y-80589700D01*
X176162861Y-80544683D01*
X176179741Y-80504118D01*
X176201952Y-80468003D01*
X176219720Y-80446400D01*
X176249565Y-80418311D01*
X176282240Y-80396034D01*
X176317746Y-80379568D01*
X176356081Y-80368914D01*
X176397247Y-80364071D01*
X176411598Y-80363748D01*
X176450924Y-80365852D01*
G37*
G36*
X177342651Y-80964000D02*
G01*
X177188290Y-80964000D01*
X177188290Y-80660552D01*
X177187667Y-80616637D01*
X177185477Y-80577393D01*
X177178938Y-80537728D01*
X177178325Y-80535891D01*
X177157821Y-80501724D01*
X177146280Y-80491927D01*
X177109617Y-80477532D01*
X177092742Y-80476295D01*
X177052346Y-80482637D01*
X177020642Y-80498766D01*
X176992426Y-80526624D01*
X176976873Y-80558166D01*
X176969283Y-80598522D01*
X176966294Y-80638589D01*
X176965195Y-80682535D01*
X176965150Y-80694746D01*
X176965150Y-80964000D01*
X176810788Y-80964000D01*
X176810788Y-80376254D01*
X176954207Y-80376254D01*
X176954207Y-80462032D01*
X176984245Y-80428631D01*
X177017057Y-80402140D01*
X177052645Y-80382560D01*
X177091008Y-80369891D01*
X177132146Y-80364132D01*
X177146475Y-80363748D01*
X177186587Y-80366812D01*
X177226465Y-80376963D01*
X177239874Y-80382311D01*
X177275073Y-80401946D01*
X177303963Y-80429596D01*
X177324159Y-80464382D01*
X177334054Y-80494858D01*
X177340225Y-80535885D01*
X177342441Y-80578722D01*
X177342651Y-80599198D01*
X177342651Y-80964000D01*
G37*
G36*
X177492519Y-80288717D02*
G01*
X177492519Y-80151159D01*
X177646880Y-80151159D01*
X177646880Y-80288717D01*
X177492519Y-80288717D01*
G37*
G36*
X177646880Y-80376254D02*
G01*
X177646880Y-80945046D01*
X177646365Y-80984849D01*
X177644462Y-81025400D01*
X177639954Y-81068222D01*
X177632226Y-81103511D01*
X177614375Y-81140008D01*
X177586128Y-81168800D01*
X177576147Y-81175612D01*
X177538718Y-81192437D01*
X177497470Y-81200355D01*
X177470439Y-81201599D01*
X177430521Y-81199019D01*
X177420614Y-81197691D01*
X177382135Y-81190378D01*
X177363363Y-81185772D01*
X177390132Y-81059157D01*
X177410844Y-81062674D01*
X177428625Y-81064041D01*
X177467313Y-81053685D01*
X177487438Y-81028870D01*
X177491804Y-80988051D01*
X177492514Y-80946211D01*
X177492519Y-80941725D01*
X177492519Y-80376254D01*
X177646880Y-80376254D01*
G37*
G36*
X178077621Y-80364926D02*
G01*
X178120202Y-80369158D01*
X178160193Y-80377597D01*
X178188709Y-80388368D01*
X178222432Y-80408701D01*
X178251080Y-80437146D01*
X178259832Y-80450894D01*
X178272453Y-80488108D01*
X178278096Y-80527738D01*
X178280362Y-80571400D01*
X178280544Y-80589819D01*
X178278785Y-80771145D01*
X178279373Y-80811455D01*
X178281686Y-80851990D01*
X178286210Y-80885256D01*
X178296859Y-80923309D01*
X178312699Y-80961379D01*
X178313956Y-80964000D01*
X178161353Y-80964000D01*
X178149184Y-80925834D01*
X178146503Y-80916323D01*
X178141032Y-80897370D01*
X178110514Y-80924316D01*
X178075716Y-80947182D01*
X178056231Y-80956770D01*
X178018685Y-80969547D01*
X177979075Y-80975811D01*
X177960097Y-80976505D01*
X177917440Y-80973403D01*
X177875144Y-80962498D01*
X177838876Y-80943741D01*
X177818046Y-80926875D01*
X177792921Y-80896871D01*
X177774649Y-80858639D01*
X177766883Y-80819826D01*
X177766071Y-80801236D01*
X177767361Y-80788340D01*
X177920628Y-80788340D01*
X177932079Y-80826818D01*
X177944856Y-80841683D01*
X177980256Y-80860825D01*
X178006406Y-80863958D01*
X178047243Y-80857461D01*
X178083754Y-80839569D01*
X178086127Y-80837970D01*
X178113573Y-80809699D01*
X178122861Y-80789512D01*
X178128202Y-80750251D01*
X178128918Y-80717998D01*
X178128918Y-80688884D01*
X178090572Y-80699191D01*
X178050464Y-80708140D01*
X178034933Y-80711355D01*
X177996002Y-80720175D01*
X177958168Y-80732839D01*
X177950914Y-80736756D01*
X177924887Y-80766431D01*
X177920628Y-80788340D01*
X177767361Y-80788340D01*
X177769973Y-80762241D01*
X177782902Y-80724286D01*
X177789713Y-80711745D01*
X177814029Y-80680763D01*
X177845599Y-80656885D01*
X177855952Y-80651369D01*
X177893202Y-80636430D01*
X177932346Y-80625115D01*
X177973873Y-80615812D01*
X177978855Y-80614830D01*
X178023035Y-80605909D01*
X178065741Y-80596057D01*
X178103859Y-80585411D01*
X178128918Y-80576337D01*
X178128918Y-80560510D01*
X178123398Y-80521529D01*
X178106838Y-80495639D01*
X178069854Y-80479998D01*
X178027763Y-80476314D01*
X178023991Y-80476295D01*
X177983297Y-80481550D01*
X177959511Y-80492904D01*
X177934125Y-80523511D01*
X177922191Y-80551327D01*
X177782093Y-80526316D01*
X177796039Y-80487579D01*
X177816809Y-80450423D01*
X177842957Y-80420068D01*
X177863377Y-80403609D01*
X177900331Y-80384340D01*
X177940600Y-80372507D01*
X177981566Y-80366240D01*
X178020937Y-80363904D01*
X178034933Y-80363748D01*
X178077621Y-80364926D01*
G37*
G36*
X178418101Y-80376254D02*
G01*
X178560544Y-80376254D01*
X178560544Y-80455974D01*
X178590217Y-80424632D01*
X178621937Y-80399774D01*
X178661532Y-80378969D01*
X178703912Y-80366991D01*
X178742456Y-80363748D01*
X178782426Y-80366853D01*
X178821014Y-80377225D01*
X178839762Y-80385828D01*
X178872995Y-80409315D01*
X178898763Y-80438893D01*
X178907369Y-80452262D01*
X178937090Y-80422037D01*
X178968515Y-80398187D01*
X178990411Y-80385828D01*
X179027575Y-80371532D01*
X179066675Y-80364525D01*
X179085373Y-80363748D01*
X179127237Y-80366865D01*
X179167587Y-80377375D01*
X179194207Y-80390127D01*
X179226664Y-80415463D01*
X179251638Y-80448926D01*
X179260642Y-80467112D01*
X179271015Y-80505268D01*
X179275396Y-80545065D01*
X179276664Y-80588647D01*
X179276664Y-80964000D01*
X179122107Y-80964000D01*
X179122107Y-80624209D01*
X179121106Y-80583872D01*
X179117037Y-80544477D01*
X179106085Y-80509903D01*
X179076893Y-80483680D01*
X179040237Y-80476295D01*
X179001143Y-80484157D01*
X178979078Y-80496421D01*
X178951993Y-80525059D01*
X178937850Y-80555625D01*
X178929754Y-80594667D01*
X178926334Y-80634838D01*
X178925345Y-80678528D01*
X178925345Y-80964000D01*
X178770983Y-80964000D01*
X178770983Y-80638082D01*
X178770471Y-80598551D01*
X178768090Y-80556759D01*
X178762777Y-80526121D01*
X178742390Y-80492767D01*
X178737180Y-80488605D01*
X178699262Y-80476596D01*
X178690286Y-80476295D01*
X178650373Y-80483253D01*
X178626001Y-80496030D01*
X178597773Y-80525364D01*
X178584968Y-80552499D01*
X178576553Y-80594125D01*
X178573428Y-80635261D01*
X178572658Y-80675011D01*
X178572658Y-80964000D01*
X178418101Y-80964000D01*
X178418101Y-80376254D01*
G37*
G36*
X179425359Y-80288717D02*
G01*
X179425359Y-80151159D01*
X179579916Y-80151159D01*
X179579916Y-80288717D01*
X179425359Y-80288717D01*
G37*
G36*
X179425359Y-80964000D02*
G01*
X179425359Y-80376254D01*
X179579916Y-80376254D01*
X179579916Y-80964000D01*
X179425359Y-80964000D01*
G37*
G36*
X180267313Y-80964000D02*
G01*
X180112951Y-80964000D01*
X180112951Y-80660552D01*
X180112329Y-80616637D01*
X180110139Y-80577393D01*
X180103599Y-80537728D01*
X180102986Y-80535891D01*
X180082482Y-80501724D01*
X180070942Y-80491927D01*
X180034278Y-80477532D01*
X180017404Y-80476295D01*
X179977008Y-80482637D01*
X179945303Y-80498766D01*
X179917088Y-80526624D01*
X179901535Y-80558166D01*
X179893944Y-80598522D01*
X179890956Y-80638589D01*
X179889857Y-80682535D01*
X179889811Y-80694746D01*
X179889811Y-80964000D01*
X179735450Y-80964000D01*
X179735450Y-80376254D01*
X179878869Y-80376254D01*
X179878869Y-80462032D01*
X179908906Y-80428631D01*
X179941719Y-80402140D01*
X179977307Y-80382560D01*
X180015669Y-80369891D01*
X180056808Y-80364132D01*
X180071137Y-80363748D01*
X180111248Y-80366812D01*
X180151127Y-80376963D01*
X180164535Y-80382311D01*
X180199735Y-80401946D01*
X180228625Y-80429596D01*
X180248821Y-80464382D01*
X180258715Y-80494858D01*
X180264886Y-80535885D01*
X180267103Y-80578722D01*
X180267313Y-80599198D01*
X180267313Y-80964000D01*
G37*
G36*
X180734696Y-80964000D02*
G01*
X180734696Y-80151159D01*
X180897459Y-80151159D01*
X180897459Y-80510489D01*
X181226113Y-80151159D01*
X181444759Y-80151159D01*
X181141507Y-80467698D01*
X181461172Y-80964000D01*
X181250732Y-80964000D01*
X181029351Y-80585521D01*
X180897459Y-80719561D01*
X180897459Y-80964000D01*
X180734696Y-80964000D01*
G37*
G36*
X181539525Y-80964000D02*
G01*
X181539525Y-80151159D01*
X181694082Y-80151159D01*
X181694082Y-80964000D01*
X181539525Y-80964000D01*
G37*
G36*
X182121501Y-80364926D02*
G01*
X182164082Y-80369158D01*
X182204073Y-80377597D01*
X182232588Y-80388368D01*
X182266312Y-80408701D01*
X182294960Y-80437146D01*
X182303712Y-80450894D01*
X182316333Y-80488108D01*
X182321976Y-80527738D01*
X182324242Y-80571400D01*
X182324424Y-80589819D01*
X182322665Y-80771145D01*
X182323253Y-80811455D01*
X182325566Y-80851990D01*
X182330090Y-80885256D01*
X182340739Y-80923309D01*
X182356579Y-80961379D01*
X182357836Y-80964000D01*
X182205233Y-80964000D01*
X182193064Y-80925834D01*
X182190383Y-80916323D01*
X182184912Y-80897370D01*
X182154394Y-80924316D01*
X182119596Y-80947182D01*
X182100111Y-80956770D01*
X182062565Y-80969547D01*
X182022955Y-80975811D01*
X182003977Y-80976505D01*
X181961320Y-80973403D01*
X181919024Y-80962498D01*
X181882756Y-80943741D01*
X181861926Y-80926875D01*
X181836801Y-80896871D01*
X181818529Y-80858639D01*
X181810763Y-80819826D01*
X181809951Y-80801236D01*
X181811241Y-80788340D01*
X181964508Y-80788340D01*
X181975959Y-80826818D01*
X181988736Y-80841683D01*
X182024136Y-80860825D01*
X182050286Y-80863958D01*
X182091123Y-80857461D01*
X182127634Y-80839569D01*
X182130006Y-80837970D01*
X182157453Y-80809699D01*
X182166741Y-80789512D01*
X182172082Y-80750251D01*
X182172798Y-80717998D01*
X182172798Y-80688884D01*
X182134452Y-80699191D01*
X182094344Y-80708140D01*
X182078813Y-80711355D01*
X182039882Y-80720175D01*
X182002048Y-80732839D01*
X181994794Y-80736756D01*
X181968767Y-80766431D01*
X181964508Y-80788340D01*
X181811241Y-80788340D01*
X181813853Y-80762241D01*
X181826782Y-80724286D01*
X181833593Y-80711745D01*
X181857908Y-80680763D01*
X181889479Y-80656885D01*
X181899832Y-80651369D01*
X181937082Y-80636430D01*
X181976226Y-80625115D01*
X182017753Y-80615812D01*
X182022735Y-80614830D01*
X182066915Y-80605909D01*
X182109621Y-80596057D01*
X182147739Y-80585411D01*
X182172798Y-80576337D01*
X182172798Y-80560510D01*
X182167278Y-80521529D01*
X182150718Y-80495639D01*
X182113734Y-80479998D01*
X182071643Y-80476314D01*
X182067871Y-80476295D01*
X182027177Y-80481550D01*
X182003391Y-80492904D01*
X181978005Y-80523511D01*
X181966071Y-80551327D01*
X181825973Y-80526316D01*
X181839919Y-80487579D01*
X181860689Y-80450423D01*
X181886837Y-80420068D01*
X181907257Y-80403609D01*
X181944211Y-80384340D01*
X181984480Y-80372507D01*
X182025446Y-80366240D01*
X182064817Y-80363904D01*
X182078813Y-80363748D01*
X182121501Y-80364926D01*
G37*
G36*
X182621423Y-80964000D02*
G01*
X182467062Y-80964000D01*
X182467062Y-80376254D01*
X182610481Y-80376254D01*
X182610481Y-80459296D01*
X182632715Y-80426487D01*
X182659451Y-80395646D01*
X182676524Y-80382115D01*
X182714385Y-80366780D01*
X182743545Y-80363748D01*
X182782562Y-80368200D01*
X182820481Y-80381554D01*
X182845150Y-80395402D01*
X182797278Y-80539212D01*
X182761887Y-80520980D01*
X182724787Y-80513811D01*
X182686423Y-80521385D01*
X182669685Y-80531397D01*
X182645338Y-80564446D01*
X182634319Y-80594900D01*
X182626977Y-80638224D01*
X182623891Y-80678177D01*
X182622229Y-80720086D01*
X182621536Y-80760416D01*
X182621423Y-80786972D01*
X182621423Y-80964000D01*
G37*
G36*
X182908848Y-80288717D02*
G01*
X182908848Y-80151159D01*
X183063405Y-80151159D01*
X183063405Y-80288717D01*
X182908848Y-80288717D01*
G37*
G36*
X182908848Y-80964000D02*
G01*
X182908848Y-80376254D01*
X183063405Y-80376254D01*
X183063405Y-80964000D01*
X182908848Y-80964000D01*
G37*
G36*
X183728918Y-80538822D02*
G01*
X183576706Y-80563832D01*
X183564152Y-80525681D01*
X183541730Y-80498375D01*
X183506044Y-80480522D01*
X183471193Y-80476295D01*
X183431232Y-80482285D01*
X183395320Y-80502294D01*
X183379162Y-80518891D01*
X183359583Y-80554941D01*
X183349609Y-80594500D01*
X183345310Y-80637267D01*
X183344773Y-80661334D01*
X183345995Y-80700665D01*
X183350513Y-80740770D01*
X183359751Y-80778978D01*
X183377413Y-80815302D01*
X183379553Y-80818235D01*
X183409137Y-80846097D01*
X183445425Y-80861100D01*
X183473342Y-80863958D01*
X183513300Y-80857656D01*
X183545247Y-80838752D01*
X183567976Y-80806910D01*
X183580904Y-80769875D01*
X183584912Y-80751411D01*
X183736538Y-80776421D01*
X183724119Y-80817443D01*
X183707548Y-80853828D01*
X183683527Y-80889731D01*
X183654083Y-80919578D01*
X183645875Y-80926093D01*
X183609508Y-80948148D01*
X183572997Y-80962277D01*
X183532112Y-80971582D01*
X183486850Y-80976062D01*
X183466113Y-80976505D01*
X183419939Y-80973654D01*
X183377407Y-80965102D01*
X183338515Y-80950848D01*
X183303264Y-80930892D01*
X183271653Y-80905235D01*
X183261926Y-80895416D01*
X183236095Y-80862750D01*
X183215608Y-80825715D01*
X183200466Y-80784312D01*
X183190668Y-80738539D01*
X183186585Y-80697058D01*
X183185917Y-80670713D01*
X183187782Y-80626914D01*
X183193378Y-80586254D01*
X183205017Y-80541606D01*
X183222028Y-80501478D01*
X183244410Y-80465869D01*
X183262316Y-80444642D01*
X183292862Y-80417150D01*
X183327199Y-80395347D01*
X183365329Y-80379232D01*
X183407250Y-80368804D01*
X183452963Y-80364064D01*
X183469043Y-80363748D01*
X183513548Y-80365824D01*
X183553882Y-80372051D01*
X183594872Y-80384251D01*
X183630415Y-80401873D01*
X183638450Y-80407126D01*
X183671044Y-80435002D01*
X183695318Y-80465801D01*
X183715172Y-80502266D01*
X183728918Y-80538822D01*
G37*
G36*
X183376622Y-80301222D02*
G01*
X183452435Y-80138654D01*
X183625554Y-80138654D01*
X183474515Y-80301222D01*
X183376622Y-80301222D01*
G37*
D11*
%TO.C,R1_4*%
X119700000Y-87500000D02*
X119900000Y-87500000D01*
X119700000Y-88500000D02*
X119900000Y-88500000D01*
%TO.C,R2_1*%
X149874100Y-87500000D02*
X149674100Y-87500000D01*
X149874100Y-88500000D02*
X149674100Y-88500000D01*
%TO.C,S4*%
X112800000Y-81800000D02*
X112800000Y-84200000D01*
X112900000Y-79800000D02*
X119100000Y-79800000D01*
X119100000Y-86200000D02*
X112900000Y-86200000D01*
X119200000Y-84200000D02*
X119200000Y-81800000D01*
X118800000Y-85600000D02*
G75*
G02*
X118600000Y-85600000I-100000J0D01*
G01*
X118600000Y-85600000D02*
G75*
G02*
X118800000Y-85600000I100000J0D01*
G01*
%TO.C,R2_2*%
X137350000Y-87500000D02*
X137150000Y-87500000D01*
X137350000Y-88500000D02*
X137150000Y-88500000D01*
%TO.C,R1_3*%
X132150000Y-87500000D02*
X132350000Y-87500000D01*
X132150000Y-88500000D02*
X132350000Y-88500000D01*
%TO.C,S3*%
X125300000Y-81800000D02*
X125300000Y-84200000D01*
X125400000Y-79800000D02*
X131600000Y-79800000D01*
X131600000Y-86200000D02*
X125400000Y-86200000D01*
X131700000Y-84200000D02*
X131700000Y-81800000D01*
X131300000Y-85600000D02*
G75*
G02*
X131100000Y-85600000I-100000J0D01*
G01*
X131100000Y-85600000D02*
G75*
G02*
X131300000Y-85600000I100000J0D01*
G01*
%TO.C,S1*%
X150300000Y-81800000D02*
X150300000Y-84200000D01*
X150400000Y-79800000D02*
X156600000Y-79800000D01*
X156600000Y-86200000D02*
X150400000Y-86200000D01*
X156700000Y-84200000D02*
X156700000Y-81800000D01*
X156300000Y-85600000D02*
G75*
G02*
X156100000Y-85600000I-100000J0D01*
G01*
X156100000Y-85600000D02*
G75*
G02*
X156300000Y-85600000I100000J0D01*
G01*
%TO.C,R1_2*%
X144700000Y-87500000D02*
X144900000Y-87500000D01*
X144700000Y-88500000D02*
X144900000Y-88500000D01*
%TO.C,R2_4*%
X112360000Y-87500000D02*
X112160000Y-87500000D01*
X112360000Y-88500000D02*
X112160000Y-88500000D01*
%TO.C,J1*%
X164000000Y-84250000D02*
X160075000Y-84250000D01*
X177525000Y-84250000D02*
X173600000Y-84250000D01*
D12*
%TO.C,C1_2*%
X139625000Y-87375000D02*
X142375000Y-87375000D01*
X139625000Y-88625000D02*
X139625000Y-87375000D01*
X142375000Y-87375000D02*
X142375000Y-88625000D01*
X142375000Y-88625000D02*
X139625000Y-88625000D01*
D11*
%TO.C,S2*%
X137800000Y-81800000D02*
X137800000Y-84200000D01*
X137900000Y-79800000D02*
X144100000Y-79800000D01*
X144100000Y-86200000D02*
X137900000Y-86200000D01*
X144200000Y-84200000D02*
X144200000Y-81800000D01*
X143800000Y-85600000D02*
G75*
G02*
X143600000Y-85600000I-100000J0D01*
G01*
X143600000Y-85600000D02*
G75*
G02*
X143800000Y-85600000I100000J0D01*
G01*
D12*
%TO.C,C1_4*%
X114425000Y-87375000D02*
X117175000Y-87375000D01*
X114425000Y-88625000D02*
X114425000Y-87375000D01*
X117175000Y-87375000D02*
X117175000Y-88625000D01*
X117175000Y-88625000D02*
X114425000Y-88625000D01*
%TO.C,C1_1*%
X152149100Y-87375000D02*
X154899100Y-87375000D01*
X152149100Y-88625000D02*
X152149100Y-87375000D01*
X154899100Y-87375000D02*
X154899100Y-88625000D01*
X154899100Y-88625000D02*
X152149100Y-88625000D01*
D11*
%TO.C,R2_3*%
X124850000Y-87500000D02*
X124650000Y-87500000D01*
X124850000Y-88500000D02*
X124650000Y-88500000D01*
%TO.C,R1_1*%
X157174100Y-87500000D02*
X157374100Y-87500000D01*
X157174100Y-88500000D02*
X157374100Y-88500000D01*
D12*
%TO.C,C1_3*%
X127125000Y-87375000D02*
X129875000Y-87375000D01*
X127125000Y-88625000D02*
X127125000Y-87375000D01*
X129875000Y-87375000D02*
X129875000Y-88625000D01*
X129875000Y-88625000D02*
X127125000Y-88625000D01*
%TD*%
%LPC*%
D13*
%TO.C,R1_4*%
X119050000Y-88000000D03*
X120550000Y-88000000D03*
%TD*%
D14*
%TO.C,R2_1*%
X150524100Y-88000000D03*
X149024100Y-88000000D03*
%TD*%
D15*
%TO.C,S4*%
X119975000Y-85250000D03*
X119975000Y-80750000D03*
X112025000Y-85250000D03*
X112025000Y-80750000D03*
%TD*%
D14*
%TO.C,R2_2*%
X138000000Y-88000000D03*
X136500000Y-88000000D03*
%TD*%
D13*
%TO.C,R1_3*%
X131500000Y-88000000D03*
X133000000Y-88000000D03*
%TD*%
D15*
%TO.C,S3*%
X132475000Y-85250000D03*
X132475000Y-80750000D03*
X124525000Y-85250000D03*
X124525000Y-80750000D03*
%TD*%
%TO.C,S1*%
X157475000Y-85250000D03*
X157475000Y-80750000D03*
X149525000Y-85250000D03*
X149525000Y-80750000D03*
%TD*%
D13*
%TO.C,R1_2*%
X144050000Y-88000000D03*
X145550000Y-88000000D03*
%TD*%
D14*
%TO.C,R2_4*%
X113010000Y-88000000D03*
X111510000Y-88000000D03*
%TD*%
D16*
%TO.C,J1*%
X172800000Y-81600000D03*
X172800000Y-83600000D03*
X170800000Y-81600000D03*
X170800000Y-83600000D03*
X168800000Y-81600000D03*
X168800000Y-83600000D03*
X166800000Y-81600000D03*
X166800000Y-83600000D03*
X164800000Y-81600000D03*
X164800000Y-83600000D03*
%TD*%
D17*
%TO.C,C1_2*%
X141750000Y-88000000D03*
X140250000Y-88000000D03*
%TD*%
D15*
%TO.C,S2*%
X144975000Y-85250000D03*
X144975000Y-80750000D03*
X137025000Y-85250000D03*
X137025000Y-80750000D03*
%TD*%
D17*
%TO.C,C1_4*%
X116550000Y-88000000D03*
X115050000Y-88000000D03*
%TD*%
%TO.C,C1_1*%
X154274100Y-88000000D03*
X152774100Y-88000000D03*
%TD*%
D14*
%TO.C,R2_3*%
X125500000Y-88000000D03*
X124000000Y-88000000D03*
%TD*%
D13*
%TO.C,R1_1*%
X156524100Y-88000000D03*
X158024100Y-88000000D03*
%TD*%
D18*
%TO.C,H2*%
X181500000Y-84500000D03*
%TD*%
D17*
%TO.C,C1_3*%
X129250000Y-88000000D03*
X127750000Y-88000000D03*
%TD*%
%LPD*%
M02*
