<?xml version="1.0" encoding="UTF-8"?>
<svg version="1.1" xmlns="http://www.w3.org/2000/svg" width="1080" height="1080">
<path d="M0 0 C2.11823199 0.0054411 4.23645281 0.00780766 6.35469055 0.00987244 C26.91757725 0.04110518 47.17711231 0.585414 67.58503723 3.31785583 C69.91178018 3.59976663 72.23860366 3.88101357 74.56550598 4.16160583 C124.09404825 10.4272648 172.94274678 24.17039538 218.58503723 44.31785583 C219.61129211 44.76854431 220.637547 45.21923279 221.69490051 45.68357849 C265.59923536 65.09384493 306.89272122 90.20526754 343.84968567 120.88670349 C345.38664088 122.15423746 346.94161889 123.39984791 348.49909973 124.64207458 C355.32811492 130.09118552 361.6745587 135.98121937 368.02253723 141.97410583 C370.85198982 144.64272638 373.7297895 147.24563086 376.64753723 149.81785583 C385.16629943 157.43915646 393.43459912 165.54614809 400.82331848 174.27488708 C402.67582631 176.42313895 404.59355547 178.50408441 406.52375793 180.58250427 C412.13626171 186.6309955 417.44560244 192.8586002 422.58503723 199.31785583 C423.20282043 200.08621765 423.20282043 200.08621765 423.83308411 200.87010193 C445.03095306 227.23993215 463.53490603 255.54936027 479.58503723 285.31785583 C480.05554504 286.18507263 480.52605286 287.05228943 481.01081848 287.94578552 C510.84444358 343.14586363 529.68447835 403.82690832 538.39753723 465.88035583 C538.49681519 466.57675171 538.59609314 467.27314758 538.69837952 467.99064636 C541.96155842 491.17965013 542.96544761 514.33239228 542.90289307 537.7328186 C542.89745196 539.8510506 542.89508541 541.96927142 542.89302063 544.08750916 C542.86178789 564.65039586 542.31747906 584.90993092 539.58503723 605.31785583 C539.30312643 607.64459878 539.0218795 609.97142226 538.74128723 612.29832458 C532.47562827 661.82686685 518.73249769 710.67556538 498.58503723 756.31785583 C498.13434875 757.34411072 497.68366028 758.3703656 497.21931458 759.42771912 C477.80904813 803.33205396 452.69762552 844.62553982 422.01618958 881.58250427 C420.74865561 883.11945948 419.50304516 884.67443749 418.26081848 886.23191833 C412.81170754 893.06093352 406.9216737 899.4073773 400.92878723 905.75535583 C398.26016668 908.58480842 395.65726221 911.4626081 393.08503723 914.38035583 C385.4637366 922.89911803 377.35674498 931.16741772 368.62800598 938.55613708 C366.47975411 940.40864491 364.39880866 942.32637408 362.32038879 944.25657654 C356.27189756 949.86908031 350.04429286 955.17842104 343.58503723 960.31785583 C343.07279602 960.7297113 342.56055481 961.14156677 342.03279114 961.56590271 C315.66296092 982.76377167 287.35353279 1001.26772463 257.58503723 1017.31785583 C256.71782043 1017.78836365 255.85060364 1018.25887146 254.95710754 1018.74363708 C199.75702943 1048.57726219 139.07598475 1067.41729695 77.02253723 1076.13035583 C76.32614136 1076.22963379 75.62974548 1076.32891174 74.9122467 1076.43119812 C51.72324294 1079.69437702 28.57050079 1080.69826622 5.17007446 1080.63571167 C3.05184247 1080.63027057 0.93362165 1080.62790401 -1.18461609 1080.62583923 C-21.74750279 1080.59460649 -42.00703785 1080.05029767 -62.41496277 1077.31785583 C-64.74170572 1077.03594504 -67.06852919 1076.7546981 -69.39543152 1076.47410583 C-118.92397378 1070.20844687 -167.77267232 1056.46531629 -213.41496277 1036.31785583 C-214.44121765 1035.86716736 -215.46747253 1035.41647888 -216.52482605 1034.95213318 C-260.42916089 1015.54186674 -301.72264676 990.43044413 -338.67961121 959.74900818 C-340.21656642 958.48147421 -341.77154443 957.23586376 -343.32902527 955.99363708 C-350.15804046 950.54452615 -356.50448423 944.6544923 -362.85246277 938.66160583 C-365.68191536 935.99298529 -368.55971504 933.39008081 -371.47746277 930.81785583 C-379.99622497 923.19655521 -388.26452466 915.08956358 -395.65324402 906.36082458 C-397.50575184 904.21257272 -399.42348101 902.13162726 -401.35368347 900.0532074 C-406.96618724 894.00471617 -412.27552798 887.77711147 -417.41496277 881.31785583 C-417.82681824 880.80561462 -418.23867371 880.29337341 -418.66300964 879.76560974 C-439.8608786 853.39577952 -458.36483156 825.0863514 -474.41496277 795.31785583 C-475.12072449 794.01703064 -475.12072449 794.01703064 -475.84074402 792.68992615 C-505.67436912 737.48984804 -524.51440389 676.80880335 -533.22746277 614.75535583 C-533.32674072 614.05895996 -533.42601868 613.36256409 -533.52830505 612.64506531 C-536.79148395 589.45606154 -537.79537315 566.30331939 -537.7328186 542.90289307 C-537.7273775 540.78466107 -537.72501095 538.66644025 -537.72294617 536.54820251 C-537.69171342 515.98531581 -537.1474046 495.72578075 -534.41496277 475.31785583 C-534.13305197 472.99111289 -533.85180504 470.66428941 -533.57121277 468.33738708 C-527.30555381 418.80884482 -513.56242323 369.96014629 -493.41496277 324.31785583 C-492.96427429 323.29160095 -492.51358582 322.26534607 -492.04924011 321.20799255 C-472.63897367 277.30365771 -447.52755106 236.01017185 -416.84611511 199.0532074 C-415.57858114 197.51625219 -414.33297069 195.96127418 -413.09074402 194.40379333 C-407.64163308 187.57477815 -401.75159923 181.22833437 -395.75871277 174.88035583 C-393.09009222 172.05090325 -390.48718774 169.17310357 -387.91496277 166.25535583 C-380.29366214 157.73659364 -372.18667051 149.46829395 -363.45793152 142.07957458 C-361.30967965 140.22706676 -359.22873419 138.30933759 -357.15031433 136.37913513 C-351.1018231 130.76663136 -344.8742184 125.45729063 -338.41496277 120.31785583 C-337.90272156 119.90600037 -337.39048035 119.4941449 -336.86271667 119.06980896 C-310.49288646 97.87194 -282.18345833 79.36798704 -252.41496277 63.31785583 C-251.54774597 62.84734802 -250.68052917 62.37684021 -249.78703308 61.89207458 C-194.58695497 32.05844948 -133.90591028 13.21841472 -71.85246277 4.50535583 C-71.15606689 4.40607788 -70.45967102 4.30679993 -69.74217224 4.20451355 C-46.55316848 0.94133465 -23.40042633 -0.06255455 0 0 Z M-42.78996277 34.56785583 C-43.8119426 34.66772293 -43.8119426 34.66772293 -44.85456848 34.76960754 C-85.98340986 38.80725781 -126.24834946 47.50711351 -165.35246277 60.88035583 C-166.27760681 61.19528992 -167.20275085 61.510224 -168.15592957 61.83470154 C-178.48157102 65.49251004 -188.30026297 69.98298449 -198.41496277 74.31785583 C-198.41496277 135.36785583 -198.41496277 196.41785583 -198.41496277 259.31785583 C-187.85496277 259.31785583 -177.29496277 259.31785583 -166.41496277 259.31785583 C-166.25662209 247.46074905 -166.12828164 235.6043479 -166.05227757 223.74642181 C-166.01579356 218.23988469 -165.96633097 212.73411027 -165.8868866 207.22801208 C-165.81065523 201.9111383 -165.76893614 196.59499664 -165.75082207 191.27761841 C-165.73791872 189.25220213 -165.7127205 187.22682455 -165.67485237 185.20172119 C-164.88785704 172.87767008 -164.88785704 172.87767008 -169.89518738 162.19871521 C-171.06677355 161.2363892 -172.23970738 160.2756973 -173.41496277 159.31785583 C-175.37443223 153.43944745 -175.20826654 146.74183958 -173.28996277 140.88035583 C-170.35080624 136.86350858 -167.22894108 133.92251527 -162.41496277 132.31785583 C-149.8078168 131.37186508 -149.8078168 131.37186508 -144.41496277 135.31785583 C-139.80637145 139.92644715 -138.26280785 143.6481192 -138.16496277 150.13035583 C-138.21753257 154.97846016 -138.54609849 158.2618753 -141.41496277 162.31785583 C-142.69097603 163.35579536 -142.69097603 163.35579536 -143.99276733 164.41470337 C-147.33223443 168.41726319 -147.09050305 171.27446655 -146.98258972 176.33079529 C-146.98368492 177.67788322 -146.98368492 177.67788322 -146.98480225 179.05218506 C-146.98132641 182.01245602 -146.94246541 184.97114195 -146.90324402 187.93113708 C-146.89391588 189.9866449 -146.88679977 192.04216385 -146.88180542 194.09768677 C-146.8627358 199.50173254 -146.81363475 204.90510392 -146.75828552 210.30888367 C-146.7070926 215.82545346 -146.68429125 221.34213248 -146.65910339 226.85887146 C-146.60551621 237.67887654 -146.51758006 248.49820454 -146.41496277 259.31785583 C-135.85496277 259.31785583 -125.29496277 259.31785583 -114.41496277 259.31785583 C-114.25662209 247.46074905 -114.12828164 235.6043479 -114.05227757 223.74642181 C-114.01579356 218.23988469 -113.96633097 212.73411027 -113.8868866 207.22801208 C-113.81065523 201.9111383 -113.76893614 196.59499664 -113.75082207 191.27761841 C-113.73791872 189.25220213 -113.7127205 187.22682455 -113.67485237 185.20172119 C-112.88785704 172.87767008 -112.88785704 172.87767008 -117.89518738 162.19871521 C-119.06677355 161.2363892 -120.23970738 160.2756973 -121.41496277 159.31785583 C-123.37443223 153.43944745 -123.20826654 146.74183958 -121.28996277 140.88035583 C-118.35080624 136.86350858 -115.22894108 133.92251527 -110.41496277 132.31785583 C-97.8078168 131.37186508 -97.8078168 131.37186508 -92.41496277 135.31785583 C-87.80637145 139.92644715 -86.26280785 143.6481192 -86.16496277 150.13035583 C-86.21753257 154.97846016 -86.54609849 158.2618753 -89.41496277 162.31785583 C-90.69097603 163.35579536 -90.69097603 163.35579536 -91.99276733 164.41470337 C-95.33223443 168.41726319 -95.09050305 171.27446655 -94.98258972 176.33079529 C-94.98331985 177.22885391 -94.98404999 178.12691254 -94.98480225 179.05218506 C-94.98132641 182.01245602 -94.94246541 184.97114195 -94.90324402 187.93113708 C-94.89391588 189.9866449 -94.88679977 192.04216385 -94.88180542 194.09768677 C-94.8627358 199.50173254 -94.81363475 204.90510392 -94.75828552 210.30888367 C-94.7070926 215.82545346 -94.68429125 221.34213248 -94.65910339 226.85887146 C-94.60551621 237.67887654 -94.51758006 248.49820454 -94.41496277 259.31785583 C-83.85496277 259.31785583 -73.29496277 259.31785583 -62.41496277 259.31785583 C-62.25662209 247.46074905 -62.12828164 235.6043479 -62.05227757 223.74642181 C-62.01579356 218.23988469 -61.96633097 212.73411027 -61.8868866 207.22801208 C-61.81065523 201.9111383 -61.76893614 196.59499664 -61.75082207 191.27761841 C-61.73791872 189.25220213 -61.7127205 187.22682455 -61.67485237 185.20172119 C-60.88785704 172.87767008 -60.88785704 172.87767008 -65.89518738 162.19871521 C-67.06677355 161.2363892 -68.23970738 160.2756973 -69.41496277 159.31785583 C-71.37443223 153.43944745 -71.20826654 146.74183958 -69.28996277 140.88035583 C-66.35080624 136.86350858 -63.22894108 133.92251527 -58.41496277 132.31785583 C-45.8078168 131.37186508 -45.8078168 131.37186508 -40.41496277 135.31785583 C-35.80637145 139.92644715 -34.26280785 143.6481192 -34.16496277 150.13035583 C-34.21753257 154.97846016 -34.54609849 158.2618753 -37.41496277 162.31785583 C-38.26563828 163.00981552 -39.11631378 163.70177521 -39.99276733 164.41470337 C-43.33223443 168.41726319 -43.09050305 171.27446655 -42.98258972 176.33079529 C-42.98331985 177.22885391 -42.98404999 178.12691254 -42.98480225 179.05218506 C-42.98132641 182.01245602 -42.94246541 184.97114195 -42.90324402 187.93113708 C-42.89391588 189.9866449 -42.88679977 192.04216385 -42.88180542 194.09768677 C-42.8627358 199.50173254 -42.81363475 204.90510392 -42.75828552 210.30888367 C-42.7070926 215.82545346 -42.68429125 221.34213248 -42.65910339 226.85887146 C-42.60551621 237.67887654 -42.51758006 248.49820454 -42.41496277 259.31785583 C-31.85496277 259.31785583 -21.29496277 259.31785583 -10.41496277 259.31785583 C-10.41496277 184.73785583 -10.41496277 110.15785583 -10.41496277 33.31785583 C-21.41438874 33.31785583 -31.91542562 33.48088157 -42.78996277 34.56785583 Z M16.58503723 33.31785583 C16.58503723 107.89785583 16.58503723 182.47785583 16.58503723 259.31785583 C26.81503723 259.31785583 37.04503723 259.31785583 47.58503723 259.31785583 C47.74337791 247.46074905 47.87171836 235.6043479 47.94772243 223.74642181 C47.98420644 218.23988469 48.03366903 212.73411027 48.1131134 207.22801208 C48.18934477 201.9111383 48.23106386 196.59499664 48.24917793 191.27761841 C48.26208128 189.25220213 48.2872795 187.22682455 48.32514763 185.20172119 C49.11214296 172.87767008 49.11214296 172.87767008 44.10481262 162.19871521 C42.93322645 161.2363892 41.76029262 160.2756973 40.58503723 159.31785583 C38.62556777 153.43944745 38.79173346 146.74183958 40.71003723 140.88035583 C43.64919376 136.86350858 46.77105892 133.92251527 51.58503723 132.31785583 C64.1921832 131.37186508 64.1921832 131.37186508 69.58503723 135.31785583 C74.19362855 139.92644715 75.73719215 143.6481192 75.83503723 150.13035583 C75.78246743 154.97846016 75.45390151 158.2618753 72.58503723 162.31785583 C71.30902397 163.35579536 71.30902397 163.35579536 70.00723267 164.41470337 C66.66776557 168.41726319 66.90949695 171.27446655 67.01741028 176.33079529 C67.01631508 177.67788322 67.01631508 177.67788322 67.01519775 179.05218506 C67.01867359 182.01245602 67.05753459 184.97114195 67.09675598 187.93113708 C67.10608412 189.9866449 67.11320023 192.04216385 67.11819458 194.09768677 C67.1372642 199.50173254 67.18636525 204.90510392 67.24171448 210.30888367 C67.2929074 215.82545346 67.31570875 221.34213248 67.34089661 226.85887146 C67.39448379 237.67887654 67.48241994 248.49820454 67.58503723 259.31785583 C78.14503723 259.31785583 88.70503723 259.31785583 99.58503723 259.31785583 C99.74337791 247.46074905 99.87171836 235.6043479 99.94772243 223.74642181 C99.98420644 218.23988469 100.03366903 212.73411027 100.1131134 207.22801208 C100.18934477 201.9111383 100.23106386 196.59499664 100.24917793 191.27761841 C100.26208128 189.25220213 100.2872795 187.22682455 100.32514763 185.20172119 C101.11214296 172.87767008 101.11214296 172.87767008 96.10481262 162.19871521 C94.93322645 161.2363892 93.76029262 160.2756973 92.58503723 159.31785583 C90.62556777 153.43944745 90.79173346 146.74183958 92.71003723 140.88035583 C95.64919376 136.86350858 98.77105892 133.92251527 103.58503723 132.31785583 C116.1921832 131.37186508 116.1921832 131.37186508 121.58503723 135.31785583 C126.19362855 139.92644715 127.73719215 143.6481192 127.83503723 150.13035583 C127.78246743 154.97846016 127.45390151 158.2618753 124.58503723 162.31785583 C123.30902397 163.35579536 123.30902397 163.35579536 122.00723267 164.41470337 C118.66776557 168.41726319 118.90949695 171.27446655 119.01741028 176.33079529 C119.01668015 177.22885391 119.01595001 178.12691254 119.01519775 179.05218506 C119.01867359 182.01245602 119.05753459 184.97114195 119.09675598 187.93113708 C119.10608412 189.9866449 119.11320023 192.04216385 119.11819458 194.09768677 C119.1372642 199.50173254 119.18636525 204.90510392 119.24171448 210.30888367 C119.2929074 215.82545346 119.31570875 221.34213248 119.34089661 226.85887146 C119.39448379 237.67887654 119.48241994 248.49820454 119.58503723 259.31785583 C130.14503723 259.31785583 140.70503723 259.31785583 151.58503723 259.31785583 C151.74337791 247.46074905 151.87171836 235.6043479 151.94772243 223.74642181 C151.98420644 218.23988469 152.03366903 212.73411027 152.1131134 207.22801208 C152.18934477 201.9111383 152.23106386 196.59499664 152.24917793 191.27761841 C152.26208128 189.25220213 152.2872795 187.22682455 152.32514763 185.20172119 C153.11214296 172.87767008 153.11214296 172.87767008 148.10481262 162.19871521 C146.93322645 161.2363892 145.76029262 160.2756973 144.58503723 159.31785583 C142.62556777 153.43944745 142.79173346 146.74183958 144.71003723 140.88035583 C147.64919376 136.86350858 150.77105892 133.92251527 155.58503723 132.31785583 C168.1921832 131.37186508 168.1921832 131.37186508 173.58503723 135.31785583 C178.19362855 139.92644715 179.73719215 143.6481192 179.83503723 150.13035583 C179.78246743 154.97846016 179.45390151 158.2618753 176.58503723 162.31785583 C175.73436172 163.00981552 174.88368622 163.70177521 174.00723267 164.41470337 C170.66776557 168.41726319 170.90949695 171.27446655 171.01741028 176.33079529 C171.01668015 177.22885391 171.01595001 178.12691254 171.01519775 179.05218506 C171.01867359 182.01245602 171.05753459 184.97114195 171.09675598 187.93113708 C171.10608412 189.9866449 171.11320023 192.04216385 171.11819458 194.09768677 C171.1372642 199.50173254 171.18636525 204.90510392 171.24171448 210.30888367 C171.2929074 215.82545346 171.31570875 221.34213248 171.34089661 226.85887146 C171.39448379 237.67887654 171.48241994 248.49820454 171.58503723 259.31785583 C182.14503723 259.31785583 192.70503723 259.31785583 203.58503723 259.31785583 C203.58503723 198.26785583 203.58503723 137.21785583 203.58503723 74.31785583 C190.68398939 68.78883533 178.17484695 63.51067715 164.89753723 59.19285583 C164.12989044 58.94050171 163.36224365 58.68814758 162.57133484 58.42814636 C125.18420576 46.15005208 87.05433035 38.3802527 47.89753723 34.56785583 C45.96623962 34.3760675 45.96623962 34.3760675 43.9959259 34.18040466 C34.747689 33.33554805 25.95951023 33.31785583 16.58503723 33.31785583 Z M-235.78996277 92.06785583 C-236.7288031 92.56229187 -237.66764343 93.05672791 -238.63493347 93.56614685 C-266.74485775 108.52814639 -293.19044217 126.5559517 -317.67961121 146.88670349 C-319.21656642 148.15423746 -320.77154443 149.39984791 -322.32902527 150.64207458 C-329.7278737 156.54587548 -336.57876586 162.96954297 -343.44914246 169.4697113 C-345.41726852 171.32002356 -347.40125458 173.15155975 -349.39152527 174.97801208 C-355.5769005 180.66397098 -361.5876561 186.35096006 -367.11027527 192.69676208 C-369.42534068 195.32965852 -371.80594711 197.88579134 -374.20793152 200.43894958 C-380.23367532 206.85078223 -385.95528502 213.41184241 -391.41496277 220.31785583 C-392.26096434 221.37152445 -393.10733474 222.42489701 -393.95402527 223.47801208 C-454.30599151 298.94549267 -492.38837341 390.60733727 -503.16496277 495.38035583 C-503.26277542 496.39653488 -503.26277542 496.39653488 -503.36256409 497.4332428 C-504.09400204 505.14279402 -504.41496277 512.53789434 -504.41496277 520.31785583 C-461.51496277 520.31785583 -418.61496277 520.31785583 -374.41496277 520.31785583 C-374.41496277 511.73785583 -374.41496277 503.15785583 -374.41496277 494.31785583 C-381.9642396 494.170701 -389.50827239 494.03053854 -397.05773926 493.95560455 C-400.57376462 493.9187613 -404.08859311 493.86960592 -407.60392761 493.78977966 C-411.64521815 493.69859288 -415.68525779 493.66510102 -419.72746277 493.63426208 C-421.60135681 493.58006859 -421.60135681 493.58006859 -423.5131073 493.52478027 C-429.56898802 493.52206827 -433.44474501 493.67090405 -438.08293152 497.79808044 C-438.66711853 498.42999802 -439.25130554 499.06191559 -439.85319519 499.71298218 C-442.80708652 502.74840335 -446.22102295 502.50738127 -450.22746277 502.56785583 C-455.83088949 502.50034467 -459.7329968 501.9998218 -463.84465027 497.88816833 C-468.57735281 492.51374342 -468.70884418 488.14751262 -468.62590027 481.26316833 C-468.2457978 475.9558117 -466.30090026 472.92730079 -462.41496277 469.50535583 C-456.81551315 465.42242382 -451.11617262 465.82904079 -444.41496277 466.31785583 C-440.55550263 467.65112388 -438.94198863 468.57118292 -436.59196472 471.90061951 C-431.50207837 475.77328259 -426.23517957 474.93294545 -420.02043152 474.80613708 C-418.71793961 474.79906235 -417.41544769 474.79198761 -416.07348633 474.78469849 C-412.62232393 474.76567097 -409.17222538 474.71661022 -405.72148132 474.66117859 C-402.19562937 474.60989236 -398.6695992 474.58689009 -395.14347839 474.56199646 C-388.23303578 474.51113951 -381.32550865 474.41327608 -374.41496277 474.31785583 C-374.41496277 465.07785583 -374.41496277 455.83785583 -374.41496277 446.31785583 C-381.9642396 446.170701 -389.50827239 446.03053854 -397.05773926 445.95560455 C-400.57376462 445.9187613 -404.08859311 445.86960592 -407.60392761 445.78977966 C-411.64521815 445.69859288 -415.68525779 445.66510102 -419.72746277 445.63426208 C-421.60135681 445.58006859 -421.60135681 445.58006859 -423.5131073 445.52478027 C-429.56898802 445.52206827 -433.44474501 445.67090405 -438.08293152 449.79808044 C-438.66711853 450.42999802 -439.25130554 451.06191559 -439.85319519 451.71298218 C-442.80708652 454.74840335 -446.22102295 454.50738127 -450.22746277 454.56785583 C-455.83088949 454.50034467 -459.7329968 453.9998218 -463.84465027 449.88816833 C-468.57735281 444.51374342 -468.70884418 440.14751262 -468.62590027 433.26316833 C-468.2457978 427.9558117 -466.30090026 424.92730079 -462.41496277 421.50535583 C-456.81551315 417.42242382 -451.11617262 417.82904079 -444.41496277 418.31785583 C-440.55550263 419.65112388 -438.94198863 420.57118292 -436.59196472 423.90061951 C-431.50207837 427.77328259 -426.23517957 426.93294545 -420.02043152 426.80613708 C-418.71793961 426.79906235 -417.41544769 426.79198761 -416.07348633 426.78469849 C-412.62232393 426.76567097 -409.17222538 426.71661022 -405.72148132 426.66117859 C-402.19562937 426.60989236 -398.6695992 426.58689009 -395.14347839 426.56199646 C-388.23303578 426.51113951 -381.32550865 426.41327608 -374.41496277 426.31785583 C-374.41496277 417.40785583 -374.41496277 408.49785583 -374.41496277 399.31785583 C-381.9642396 399.170701 -389.50827239 399.03053854 -397.05773926 398.95560455 C-400.57376462 398.9187613 -404.08859311 398.86960592 -407.60392761 398.78977966 C-411.64521815 398.69859288 -415.68525779 398.66510102 -419.72746277 398.63426208 C-421.60135681 398.58006859 -421.60135681 398.58006859 -423.5131073 398.52478027 C-429.56898802 398.52206827 -433.44474501 398.67090405 -438.08293152 402.79808044 C-438.66711853 403.42999802 -439.25130554 404.06191559 -439.85319519 404.71298218 C-442.80708652 407.74840335 -446.22102295 407.50738127 -450.22746277 407.56785583 C-455.83088949 407.50034467 -459.7329968 406.9998218 -463.84465027 402.88816833 C-468.57735281 397.51374342 -468.70884418 393.14751262 -468.62590027 386.26316833 C-468.2457978 380.9558117 -466.30090026 377.92730079 -462.41496277 374.50535583 C-456.81551315 370.42242382 -451.11617262 370.82904079 -444.41496277 371.31785583 C-440.55550263 372.65112388 -438.94198863 373.57118292 -436.59196472 376.90061951 C-431.50207837 380.77328259 -426.23517957 379.93294545 -420.02043152 379.80613708 C-418.71793961 379.79906235 -417.41544769 379.79198761 -416.07348633 379.78469849 C-412.62232393 379.76567097 -409.17222538 379.71661022 -405.72148132 379.66117859 C-402.19562673 379.60989232 -398.66959904 379.58716466 -395.14347839 379.56199646 C-388.23353808 379.50848481 -381.3243016 379.42322556 -374.41496277 379.31785583 C-374.41353775 378.20444824 -374.41211273 377.09104065 -374.41064453 375.94389343 C-374.39391805 365.41067397 -374.35097238 354.87783806 -374.2828722 344.34482193 C-374.24869619 338.93066707 -374.22350684 333.5167916 -374.21940613 328.1025238 C-374.21510304 322.8697223 -374.18647412 317.63755002 -374.14153099 312.40494537 C-374.12862006 310.41648281 -374.12422539 308.42794469 -374.12880898 306.4394455 C-374.15311242 292.68454938 -373.47417271 280.58569595 -363.43840027 270.06785583 C-356.07250576 263.69735248 -348.16814771 260.10635237 -338.39982605 259.99900818 C-337.38901726 259.98393974 -337.38901726 259.98393974 -336.35778809 259.96856689 C-334.15029178 259.9378974 -331.94291583 259.92074561 -329.73527527 259.90379333 C-328.19684322 259.88506856 -326.6584213 259.86549418 -325.12001038 259.84510803 C-321.08580005 259.79391894 -317.05155648 259.75422279 -313.01719666 259.71696472 C-308.89449427 259.67684184 -304.77192861 259.62578741 -300.64933777 259.57566833 C-292.5713064 259.47906576 -284.49320699 259.39461125 -276.41496277 259.31785583 C-276.25255122 247.46091821 -276.12828099 235.60424652 -276.05227757 223.74642181 C-276.01579356 218.23988469 -275.96633097 212.73411027 -275.8868866 207.22801208 C-275.81065523 201.9111383 -275.76893614 196.59499664 -275.75082207 191.27761841 C-275.73791872 189.25220213 -275.7127205 187.22682455 -275.67485237 185.20172119 C-274.88785704 172.87767008 -274.88785704 172.87767008 -279.89518738 162.19871521 C-281.06677355 161.2363892 -282.23970738 160.2756973 -283.41496277 159.31785583 C-285.37443223 153.43944745 -285.20826654 146.74183958 -283.28996277 140.88035583 C-280.35080624 136.86350858 -277.22894108 133.92251527 -272.41496277 132.31785583 C-259.8078168 131.37186508 -259.8078168 131.37186508 -254.41496277 135.31785583 C-249.80637145 139.92644715 -248.26280785 143.6481192 -248.16496277 150.13035583 C-248.21753257 154.97846016 -248.54609849 158.2618753 -251.41496277 162.31785583 C-252.26563828 163.00981552 -253.11631378 163.70177521 -253.99276733 164.41470337 C-257.33223443 168.41726319 -257.09050305 171.27446655 -256.98258972 176.33079529 C-256.98331985 177.22885391 -256.98404999 178.12691254 -256.98480225 179.05218506 C-256.98132641 182.01245602 -256.94246541 184.97114195 -256.90324402 187.93113708 C-256.89391588 189.9866449 -256.88679977 192.04216385 -256.88180542 194.09768677 C-256.8627358 199.50173254 -256.81363475 204.90510392 -256.75828552 210.30888367 C-256.7070926 215.82545346 -256.68429125 221.34213248 -256.65910339 226.85887146 C-256.60551621 237.67887654 -256.51758006 248.49820454 -256.41496277 259.31785583 C-245.85496277 259.31785583 -235.29496277 259.31785583 -224.41496277 259.31785583 C-224.41496277 202.55785583 -224.41496277 145.79785583 -224.41496277 87.31785583 C-228.46591859 87.31785583 -232.27491225 90.21465852 -235.78996277 92.06785583 Z M229.58503723 87.31785583 C229.58503723 144.07785583 229.58503723 200.83785583 229.58503723 259.31785583 C240.14503723 259.31785583 250.70503723 259.31785583 261.58503723 259.31785583 C261.74337791 247.46074905 261.87171836 235.6043479 261.94772243 223.74642181 C261.98420644 218.23988469 262.03366903 212.73411027 262.1131134 207.22801208 C262.18934477 201.9111383 262.23106386 196.59499664 262.24917793 191.27761841 C262.26208128 189.25220213 262.2872795 187.22682455 262.32514763 185.20172119 C263.11214296 172.87767008 263.11214296 172.87767008 258.10481262 162.19871521 C256.93322645 161.2363892 255.76029262 160.2756973 254.58503723 159.31785583 C252.62556777 153.43944745 252.79173346 146.74183958 254.71003723 140.88035583 C257.64919376 136.86350858 260.77105892 133.92251527 265.58503723 132.31785583 C278.1921832 131.37186508 278.1921832 131.37186508 283.58503723 135.31785583 C288.19362855 139.92644715 289.73719215 143.6481192 289.83503723 150.13035583 C289.78246743 154.97846016 289.45390151 158.2618753 286.58503723 162.31785583 C285.73436172 163.00981552 284.88368622 163.70177521 284.00723267 164.41470337 C280.66776557 168.41726319 280.90949695 171.27446655 281.01741028 176.33079529 C281.01631508 177.67788322 281.01631508 177.67788322 281.01519775 179.05218506 C281.01867359 182.01245602 281.05753459 184.97114195 281.09675598 187.93113708 C281.10608412 189.9866449 281.11320023 192.04216385 281.11819458 194.09768677 C281.1372642 199.50173254 281.18636525 204.90510392 281.24171448 210.30888367 C281.2929074 215.82545346 281.31570875 221.34213248 281.34089661 226.85887146 C281.39448356 237.67882884 281.47979639 248.49828621 281.58503723 259.31785583 C282.43535522 259.31928085 283.28567322 259.32070587 284.16175842 259.32217407 C292.22273711 259.34009319 300.28317318 259.38196849 308.34389114 259.4499464 C312.48684506 259.48406166 316.62943628 259.50930205 320.77253723 259.51341248 C324.77997201 259.51772899 328.78659079 259.54646482 332.79376984 259.59128761 C334.31331863 259.60415661 335.83296562 259.6086084 337.35256195 259.60400963 C349.64053389 259.57551584 360.59071424 261.47379349 369.83503723 270.29441833 C376.8809537 278.44125925 379.87621933 286.73107821 379.90388489 297.3525238 C379.91895332 298.68520042 379.91895332 298.68520042 379.93432617 300.0447998 C379.96509131 302.96654138 379.98217478 305.88819159 379.99909973 308.81004333 C380.01781674 310.84171837 380.03739055 312.87338567 380.05778503 314.90504456 C380.10905589 320.24131203 380.14870868 325.57760469 380.18592834 330.91398621 C380.22599959 336.36377671 380.27707771 341.81346288 380.32722473 347.26316833 C380.4239243 357.94799083 380.50834823 368.63287229 380.58503723 379.31785583 C388.13912453 379.48062853 395.69302825 379.60471697 403.24847412 379.68054104 C406.75761714 379.71694965 410.26555349 379.76626212 413.77400208 379.84593201 C417.81529261 379.93711879 421.85533225 379.97061065 425.89753723 380.00144958 C427.77143127 380.05564308 427.77143127 380.05564308 429.68318176 380.1109314 C435.73906248 380.1136434 439.61481948 379.96480762 444.25300598 375.83763123 C444.83719299 375.20571365 445.42138 374.57379608 446.02326965 373.92272949 C448.97716098 370.88730832 452.39109741 371.1283304 456.39753723 371.06785583 C462.00096395 371.135367 465.90307127 371.63588987 470.01472473 375.74754333 C474.74742727 381.12196825 474.87891864 385.48819905 474.79597473 392.37254333 C474.41587227 397.67989997 472.47097472 400.70841088 468.58503723 404.13035583 C462.98558762 408.21328785 457.28624708 407.80667088 450.58503723 407.31785583 C446.72557709 405.98458779 445.1120631 405.06452875 442.76203918 401.73509216 C437.67215284 397.86242908 432.40525403 398.70276622 426.19050598 398.82957458 C424.88801407 398.83664932 423.58552216 398.84372406 422.24356079 398.85101318 C418.79239839 398.8700407 415.34229984 398.91910145 411.89155579 398.97453308 C408.36570383 399.02581931 404.83967366 399.04882158 401.31355286 399.07371521 C394.40311024 399.12457216 387.49558311 399.22243559 380.58503723 399.31785583 C380.58503723 408.22785583 380.58503723 417.13785583 380.58503723 426.31785583 C388.13431406 426.46501067 395.67834685 426.60517313 403.22781372 426.68010712 C406.74383909 426.71695037 410.25866758 426.76610575 413.77400208 426.84593201 C417.81529261 426.93711879 421.85533225 426.97061065 425.89753723 427.00144958 C427.77143127 427.05564308 427.77143127 427.05564308 429.68318176 427.1109314 C435.73906248 427.1136434 439.61481948 426.96480762 444.25300598 422.83763123 C444.83719299 422.20571365 445.42138 421.57379608 446.02326965 420.92272949 C448.97716098 417.88730832 452.39109741 418.1283304 456.39753723 418.06785583 C462.00096395 418.135367 465.90307127 418.63588987 470.01472473 422.74754333 C474.74742727 428.12196825 474.87891864 432.48819905 474.79597473 439.37254333 C474.41587227 444.67989997 472.47097472 447.70841088 468.58503723 451.13035583 C462.98558762 455.21328785 457.28624708 454.80667088 450.58503723 454.31785583 C446.72557709 452.98458779 445.1120631 452.06452875 442.76203918 448.73509216 C437.67215284 444.86242908 432.40525403 445.70276622 426.19050598 445.82957458 C424.88801407 445.83664932 423.58552216 445.84372406 422.24356079 445.85101318 C418.79239839 445.8700407 415.34229984 445.91910145 411.89155579 445.97453308 C408.36570383 446.02581931 404.83967366 446.04882158 401.31355286 446.07371521 C394.40311024 446.12457216 387.49558311 446.22243559 380.58503723 446.31785583 C380.58503723 455.55785583 380.58503723 464.79785583 380.58503723 474.31785583 C388.13431406 474.46501067 395.67834685 474.60517313 403.22781372 474.68010712 C406.74383909 474.71695037 410.25866758 474.76610575 413.77400208 474.84593201 C417.81529261 474.93711879 421.85533225 474.97061065 425.89753723 475.00144958 C427.77143127 475.05564308 427.77143127 475.05564308 429.68318176 475.1109314 C435.73906248 475.1136434 439.61481948 474.96480762 444.25300598 470.83763123 C444.83719299 470.20571365 445.42138 469.57379608 446.02326965 468.92272949 C448.97716098 465.88730832 452.39109741 466.1283304 456.39753723 466.06785583 C462.00096395 466.135367 465.90307127 466.63588987 470.01472473 470.74754333 C474.74742727 476.12196825 474.87891864 480.48819905 474.79597473 487.37254333 C474.41587227 492.67989997 472.47097472 495.70841088 468.58503723 499.13035583 C462.98558762 503.21328785 457.28624708 502.80667088 450.58503723 502.31785583 C446.72557709 500.98458779 445.1120631 500.06452875 442.76203918 496.73509216 C437.67215284 492.86242908 432.40525403 493.70276622 426.19050598 493.82957458 C424.88801407 493.83664932 423.58552216 493.84372406 422.24356079 493.85101318 C418.79239839 493.8700407 415.34229984 493.91910145 411.89155579 493.97453308 C408.36570383 494.02581931 404.83967366 494.04882158 401.31355286 494.07371521 C394.40311024 494.12457216 387.49558311 494.22243559 380.58503723 494.31785583 C380.58503723 502.89785583 380.58503723 511.47785583 380.58503723 520.31785583 C423.15503723 520.31785583 465.72503723 520.31785583 509.58503723 520.31785583 C509.58503723 511.87240119 509.14146228 503.75833368 508.33503723 495.38035583 C508.26845917 494.68155304 508.2018811 493.98275024 508.13328552 493.26277161 C498.91744943 397.48676402 463.17147269 303.13672899 396.01618958 220.0532074 C394.74865561 218.51625219 393.50304516 216.96127418 392.26081848 215.40379333 C386.35701759 208.0049449 379.9333501 201.15405274 373.43318176 194.28367615 C371.58286951 192.31555008 369.75133332 190.33156402 367.92488098 188.34129333 C362.23892209 182.1559181 356.551933 176.1451625 350.20613098 170.62254333 C347.57323455 168.30747792 345.01710173 165.92687149 342.46394348 163.52488708 C336.05211083 157.49914329 329.49105066 151.77753358 322.58503723 146.31785583 C321.53136861 145.47185427 320.47799606 144.62548386 319.42488098 143.77879333 C277.70757723 107.48847085 277.70757723 107.48847085 229.58503723 87.31785583 Z M-342.78996277 292.63035583 C-345.77754432 297.57135609 -345.55921311 302.64650281 -345.54359722 308.28494072 C-345.54535026 309.08552514 -345.5471033 309.88610957 -345.54890946 310.71095413 C-345.55357614 313.40430989 -345.55110223 316.09761182 -345.54867554 318.79096985 C-345.55054317 320.7372025 -345.55284368 322.68343477 -345.55554086 324.62966645 C-345.56167112 329.98640251 -345.56152383 335.34312299 -345.56034648 340.69986176 C-345.56014279 346.47365196 -345.56565824 352.24743712 -345.57040405 358.02122498 C-345.57871774 369.33606152 -345.58145921 380.65089286 -345.58201643 391.9657322 C-345.58249122 401.16034876 -345.58454413 410.3549636 -345.58771706 419.54957962 C-345.59509157 441.36282028 -345.60124167 463.1760596 -345.6007185 484.98930168 C-345.60070292 485.68700512 -345.60068734 486.38470855 -345.60067129 487.10355451 C-345.60058818 490.6398759 -345.60048914 494.17619729 -345.60038658 497.71251868 C-345.60036664 498.41485612 -345.60034669 499.11719356 -345.60032614 499.84081396 C-345.60028571 501.26111133 -345.60024391 502.6814087 -345.60020075 504.10170607 C-345.5995879 526.20257116 -345.60709606 548.30342091 -345.62077332 570.40428162 C-345.63613 595.22920051 -345.64472713 620.05410926 -345.64381009 644.87903321 C-345.64347773 658.02539461 -345.64624216 671.17173871 -345.65698814 684.31809616 C-345.66607754 695.50975634 -345.66828124 706.70139137 -345.66147872 717.89305364 C-345.65820569 723.6052248 -345.65818499 729.31734769 -345.66683197 735.02951431 C-345.67466332 740.25653867 -345.67330012 745.48347619 -345.66454784 750.71049835 C-345.66300541 752.60346264 -345.66485679 754.49643331 -345.67040791 756.3893901 C-345.67744653 758.95939527 -345.67219123 761.52909402 -345.66385174 764.09908867 C-345.66881992 764.83652138 -345.6737881 765.5739541 -345.67890683 766.33373326 C-345.64254392 771.6228511 -345.42756739 777.23585106 -341.60246277 781.19285583 C-337.71624332 783.19148298 -333.78889857 783.44285818 -329.47390521 783.44435567 C-328.00840595 783.44849528 -328.00840595 783.44849528 -326.51330066 783.45271853 C-325.44550349 783.45066321 -324.37770631 783.44860789 -323.27755165 783.44649029 C-322.13422737 783.44824333 -320.99090308 783.44999636 -319.81293261 783.45180252 C-316.62963502 783.45566204 -313.44637431 783.45502941 -310.26307652 783.45252475 C-306.80354287 783.45089359 -303.34401539 783.45503091 -299.8844837 783.45843393 C-293.81790048 783.46359239 -287.75132525 783.46500435 -281.68474007 783.46397781 C-272.66354084 783.46245503 -263.64235046 783.46660987 -254.62115295 783.47185244 C-237.57335013 783.48153255 -220.52555032 783.48433692 -203.47774507 783.4849095 C-190.31526006 783.48536869 -177.15277623 783.48742523 -163.9902916 783.49061012 C-160.2041837 783.49150764 -156.4180758 783.49239745 -152.6319679 783.493285 C-151.69078538 783.49350605 -150.74960285 783.4937271 -149.77989965 783.49395484 C-123.29985887 783.50011056 -96.81981851 783.50405525 -70.33977699 783.50361156 C-68.84169089 783.5035882 -68.84169089 783.5035882 -67.31334043 783.50356436 C-62.25115954 783.50348125 -57.18897864 783.5033822 -52.12679775 783.50327965 C-51.12139356 783.5032597 -50.11598936 783.50323976 -49.08011837 783.50321921 C-47.04694584 783.50317877 -45.0137733 783.50313697 -42.98060076 783.50309382 C-11.34022725 783.50248092 20.30013554 783.50998972 51.94050598 783.52366638 C87.47118006 783.53901824 123.0018471 783.54763316 158.5325247 783.54670316 C162.31926131 783.54662853 166.10599792 783.54657982 169.89273453 783.54654884 C170.82515664 783.54653719 171.75757875 783.54652553 172.71825608 783.54651353 C187.73991674 783.54648272 202.76156812 783.55287548 217.78322602 783.56148111 C232.87305575 783.56994716 247.96287186 783.57095576 263.05270265 783.56437179 C272.02283928 783.56066921 280.99293462 783.56252955 289.9630669 783.57231413 C295.95106571 783.5782952 301.93903448 783.5770396 307.9270319 783.56984363 C311.34129717 783.56594625 314.75548228 783.56523189 318.16974203 783.57330098 C321.84521713 783.58031291 325.52047631 783.57510524 329.19594383 783.5667448 C330.25905867 783.57171298 331.32217351 783.57668116 332.41750395 783.58179989 C341.64043966 783.7192771 341.64043966 783.7192771 349.46003723 779.50535583 C351.92613593 774.71016392 351.72829204 769.62975111 351.71367168 764.35077095 C351.71542472 763.55018652 351.71717776 762.7496021 351.71898392 761.92475754 C351.7236506 759.23140178 351.72117669 756.53809985 351.71875 753.84474182 C351.72061763 751.89850917 351.72291814 749.9522769 351.72561532 748.00604522 C351.73174558 742.64930916 351.73159829 737.29258868 351.73042095 731.93584991 C351.73021725 726.16205971 351.7357327 720.38827455 351.74047852 714.61448669 C351.7487922 703.29965015 351.75153368 691.98481881 351.75209089 680.66997947 C351.75256569 671.47536291 351.7546186 662.28074807 351.75779152 653.08613205 C351.76516603 631.27289139 351.77131614 609.45965207 351.77079296 587.64640999 C351.77077738 586.94870655 351.7707618 586.25100312 351.77074575 585.53215716 C351.77066264 581.99583577 351.7705636 578.45951438 351.77046105 574.92319299 C351.7704411 574.22085555 351.77042115 573.51851811 351.77040061 572.79489771 C351.77036017 571.37460034 351.77031837 569.95430297 351.77027521 568.5340056 C351.76966237 546.43314051 351.77717053 524.33229076 351.79084778 502.23143005 C351.80620446 477.40651116 351.81480159 452.58160241 351.81388456 427.75667846 C351.81355219 414.61031706 351.81631662 401.46397296 351.82706261 388.31761551 C351.83615201 377.12595533 351.83835571 365.9343203 351.83155318 354.74265803 C351.82828016 349.03048687 351.82825946 343.31836398 351.83690643 337.60619736 C351.84473778 332.379173 351.84337459 327.15223548 351.8346223 321.92521332 C351.83307987 320.03224903 351.83493125 318.13927836 351.84048238 316.24632157 C351.84752099 313.6763164 351.84226569 311.10661765 351.8339262 308.536623 C351.84137847 307.43047393 351.84137847 307.43047393 351.84898129 306.30197841 C351.80917812 300.51246219 351.4293583 295.21202342 347.27253723 290.94285583 C343.19696564 288.47855673 339.35149952 288.19299012 334.65680373 288.191356 C333.68267106 288.18859626 332.70853839 288.18583652 331.70488656 288.18299314 C330.64029807 288.18504846 329.57570959 288.18710378 328.47886086 288.18922138 C327.33891332 288.18746834 326.19896578 288.18571531 325.02447438 288.18390915 C321.85064713 288.1800497 318.67685686 288.18068223 315.50302939 288.18318692 C312.05376178 288.18481811 308.60450035 288.18068074 305.15523469 288.17727774 C299.10667624 288.17211932 293.05812579 288.17070731 287.00956535 288.17173386 C278.01516862 288.17325665 269.02078078 288.16910178 260.02638577 288.16385923 C243.02922587 288.15417916 226.03206898 288.15137475 209.03490664 288.15080217 C195.91151393 288.15034297 182.7881224 288.14828643 169.66473007 288.14510155 C165.88985614 288.14420403 162.11498221 288.14331422 158.34010828 288.14242667 C156.93252312 288.1420951 156.93252312 288.1420951 155.49650191 288.14175683 C129.09505282 288.13560112 102.69360415 288.13165642 76.29215431 288.13210011 C75.29639597 288.13211568 74.30063762 288.13213126 73.27470478 288.13214731 C68.22755699 288.13223042 63.18040919 288.13232946 58.1332614 288.13243202 C56.62963393 288.13246194 56.62963393 288.13246194 55.09563014 288.13249246 C53.06849578 288.1325329 51.04136142 288.1325747 49.01422706 288.13261785 C17.46783887 288.13323075 -14.07853859 288.12572196 -45.62492371 288.11204529 C-81.05012236 288.09669339 -116.47531396 288.08807852 -151.90051615 288.08900851 C-155.67601879 288.08908314 -159.45152144 288.08913185 -163.22702408 288.08916283 C-164.62150779 288.08918031 -164.62150779 288.08918031 -166.0441629 288.08919814 C-181.02119158 288.08922895 -195.99821095 288.08283622 -210.97523686 288.07423056 C-226.02025831 288.06576446 -241.0652661 288.06475594 -256.11028861 288.07133988 C-265.05376386 288.07504243 -273.9971977 288.07318221 -282.9406686 288.06339754 C-288.91089569 288.0574164 -294.88109265 288.05867215 -300.85131833 288.06586804 C-304.25543327 288.06976536 -307.65946782 288.07047995 -311.06357722 288.06241069 C-314.7281609 288.05539858 -318.39252803 288.06060658 -322.05710411 288.06896687 C-323.64696333 288.0615146 -323.64696333 288.0615146 -325.26894093 288.05391178 C-334.82345618 287.9834444 -334.82345618 287.9834444 -342.78996277 292.63035583 Z M-504.41496277 542.31785583 C-504.58507358 564.46386194 -504.58507358 564.46386194 -503.16496277 586.38035583 C-503.02836191 587.72187917 -502.8920588 589.06343286 -502.75602722 590.40501404 C-492.73368461 686.94689531 -455.94999218 781.53815801 -390.84611511 860.58250427 C-389.57858114 862.11945948 -388.33297069 863.67443749 -387.09074402 865.23191833 C-381.18694313 872.63076677 -374.76327563 879.48165893 -368.2631073 886.35203552 C-366.41279504 888.32016159 -364.58125886 890.30414765 -362.75480652 892.29441833 C-357.06884762 898.47979357 -351.38185854 904.49054917 -345.03605652 910.01316833 C-342.40316009 912.32823375 -339.84702727 914.70884018 -337.29386902 917.11082458 C-330.88203637 923.13656838 -324.3209762 928.85817809 -317.41496277 934.31785583 C-316.36129415 935.1638574 -315.30792159 936.01022781 -314.25480652 936.85691833 C-272.53750277 973.14724082 -272.53750277 973.14724082 -224.41496277 993.31785583 C-224.41496277 939.19785583 -224.41496277 885.07785583 -224.41496277 829.31785583 C-234.97496277 829.31785583 -245.53496277 829.31785583 -256.41496277 829.31785583 C-256.5733294 840.65342573 -256.70165838 851.98825679 -256.77764797 863.32468414 C-256.81412581 868.58910333 -256.86357638 873.8527242 -256.94303894 879.11668396 C-257.01929343 884.20014246 -257.06099403 889.28283485 -257.07910347 894.36682129 C-257.09200277 896.30292822 -257.11719319 898.23899485 -257.15507317 900.17477417 C-257.88385629 912.0896977 -257.88385629 912.0896977 -252.93473816 922.38230896 C-251.9868618 923.17272583 -251.9868618 923.17272583 -251.01983643 923.97911072 C-249.41496277 925.31785583 -249.41496277 925.31785583 -248.41496277 928.31785583 C-247.46897202 940.92500181 -247.46897202 940.92500181 -251.41496277 946.31785583 C-256.02355409 950.92644715 -259.74522613 952.47001075 -266.22746277 952.56785583 C-271.83088949 952.50034467 -275.7329968 951.9998218 -279.84465027 947.88816833 C-284.57831209 942.51265406 -284.70445819 938.14771167 -284.62980652 931.26316833 C-284.36172066 927.58795489 -283.54355213 925.32724079 -281.41496277 922.31785583 C-280.56428726 921.61832291 -279.71361176 920.91878998 -278.8371582 920.19805908 C-275.66145067 916.42186373 -275.74210164 913.38394196 -275.84733582 908.67210388 C-275.84660568 907.81305954 -275.84587555 906.9540152 -275.84512329 906.06893921 C-275.84859793 903.23850155 -275.88745243 900.4097236 -275.92668152 897.57957458 C-275.9360101 895.61374816 -275.943126 893.64791009 -275.94812012 891.68206787 C-275.96718629 886.51474259 -276.01628414 881.34812302 -276.07164001 876.18107605 C-276.12284051 870.90580288 -276.14563589 865.63041538 -276.17082214 860.35496521 C-276.22440298 850.00895248 -276.30971146 839.6634629 -276.41496277 829.31785583 C-277.24022461 829.31643082 -278.06548645 829.3150058 -278.91575623 829.3135376 C-286.74128445 829.29561444 -294.56625404 829.25372753 -302.39151382 829.18576527 C-306.4134015 829.15165778 -310.43491589 829.12641087 -314.45695496 829.12229919 C-318.34769075 829.11798095 -322.23758682 829.08923149 -326.12805939 829.04442406 C-327.60294937 829.03156043 -329.07794043 829.02710131 -330.55287933 829.03170204 C-343.86904856 829.06352686 -354.41807337 826.3185993 -364.21574402 816.93113708 C-369.42714456 810.73854923 -373.51073281 802.77198083 -373.57318115 794.59124756 C-373.58786438 793.13362 -373.58786438 793.13362 -373.60284424 791.64654541 C-373.6085997 790.58199631 -373.61435516 789.5174472 -373.62028503 788.42063904 C-373.63018463 787.29854034 -373.64008423 786.17644165 -373.65028381 785.02033997 C-373.6819277 781.3031273 -373.70666776 777.58590184 -373.73136902 773.86863708 C-373.75193604 771.29459293 -373.77293245 768.72055218 -373.79434204 766.14651489 C-373.84393871 760.05863225 -373.88919732 753.97073145 -373.9323644 747.88280028 C-373.981751 740.95175538 -374.03666385 734.02075772 -374.092044 727.08975852 C-374.20583851 712.832502 -374.31268306 698.57519937 -374.41496277 684.31785583 C-381.96905007 684.15508314 -389.52295378 684.0309947 -397.07839966 683.95517063 C-400.58754268 683.91876202 -404.09547902 683.86944955 -407.60392761 683.78977966 C-411.64521815 683.69859288 -415.68525779 683.66510102 -419.72746277 683.63426208 C-421.60135681 683.58006859 -421.60135681 683.58006859 -423.5131073 683.52478027 C-429.56898802 683.52206827 -433.44474501 683.67090405 -438.08293152 687.79808044 C-438.66711853 688.42999802 -439.25130554 689.06191559 -439.85319519 689.71298218 C-442.80708652 692.74840335 -446.22102295 692.50738127 -450.22746277 692.56785583 C-455.83088949 692.50034467 -459.7329968 691.9998218 -463.84465027 687.88816833 C-468.57735281 682.51374342 -468.70884418 678.14751262 -468.62590027 671.26316833 C-468.2457978 665.9558117 -466.30090026 662.92730079 -462.41496277 659.50535583 C-456.81551315 655.42242382 -451.11617262 655.82904079 -444.41496277 656.31785583 C-440.55550263 657.65112388 -438.94198863 658.57118292 -436.59196472 661.90061951 C-431.50207837 665.77328259 -426.23517957 664.93294545 -420.02043152 664.80613708 C-418.71793961 664.79906235 -417.41544769 664.79198761 -416.07348633 664.78469849 C-412.62232393 664.76567097 -409.17222538 664.71661022 -405.72148132 664.66117859 C-402.19562937 664.60989236 -398.6695992 664.58689009 -395.14347839 664.56199646 C-388.23303578 664.51113951 -381.32550865 664.41327608 -374.41496277 664.31785583 C-374.41496277 655.07785583 -374.41496277 645.83785583 -374.41496277 636.31785583 C-381.9642396 636.170701 -389.50827239 636.03053854 -397.05773926 635.95560455 C-400.57376462 635.9187613 -404.08859311 635.86960592 -407.60392761 635.78977966 C-411.64521815 635.69859288 -415.68525779 635.66510102 -419.72746277 635.63426208 C-421.60135681 635.58006859 -421.60135681 635.58006859 -423.5131073 635.52478027 C-429.56898802 635.52206827 -433.44474501 635.67090405 -438.08293152 639.79808044 C-438.66711853 640.42999802 -439.25130554 641.06191559 -439.85319519 641.71298218 C-442.80708652 644.74840335 -446.22102295 644.50738127 -450.22746277 644.56785583 C-455.83088949 644.50034467 -459.7329968 643.9998218 -463.84465027 639.88816833 C-468.57735281 634.51374342 -468.70884418 630.14751262 -468.62590027 623.26316833 C-468.2457978 617.9558117 -466.30090026 614.92730079 -462.41496277 611.50535583 C-456.81551315 607.42242382 -451.11617262 607.82904079 -444.41496277 608.31785583 C-440.55550263 609.65112388 -438.94198863 610.57118292 -436.59196472 613.90061951 C-431.50207837 617.77328259 -426.23517957 616.93294545 -420.02043152 616.80613708 C-418.71793961 616.79906235 -417.41544769 616.79198761 -416.07348633 616.78469849 C-412.62232393 616.76567097 -409.17222538 616.71661022 -405.72148132 616.66117859 C-402.19562937 616.60989236 -398.6695992 616.58689009 -395.14347839 616.56199646 C-388.23303578 616.51113951 -381.32550865 616.41327608 -374.41496277 616.31785583 C-374.41496277 607.40785583 -374.41496277 598.49785583 -374.41496277 589.31785583 C-381.9642396 589.170701 -389.50827239 589.03053854 -397.05773926 588.95560455 C-400.57376462 588.9187613 -404.08859311 588.86960592 -407.60392761 588.78977966 C-411.64521815 588.69859288 -415.68525779 588.66510102 -419.72746277 588.63426208 C-421.60135681 588.58006859 -421.60135681 588.58006859 -423.5131073 588.52478027 C-429.56898802 588.52206827 -433.44474501 588.67090405 -438.08293152 592.79808044 C-438.66711853 593.42999802 -439.25130554 594.06191559 -439.85319519 594.71298218 C-442.80708652 597.74840335 -446.22102295 597.50738127 -450.22746277 597.56785583 C-455.83088949 597.50034467 -459.7329968 596.9998218 -463.84465027 592.88816833 C-468.57735281 587.51374342 -468.70884418 583.14751262 -468.62590027 576.26316833 C-468.2457978 570.9558117 -466.30090026 567.92730079 -462.41496277 564.50535583 C-456.81551315 560.42242382 -451.11617262 560.82904079 -444.41496277 561.31785583 C-440.55550263 562.65112388 -438.94198863 563.57118292 -436.59196472 566.90061951 C-431.50207837 570.77328259 -426.23517957 569.93294545 -420.02043152 569.80613708 C-418.71793961 569.79906235 -417.41544769 569.79198761 -416.07348633 569.78469849 C-412.62232393 569.76567097 -409.17222538 569.71661022 -405.72148132 569.66117859 C-402.19562937 569.60989236 -398.6695992 569.58689009 -395.14347839 569.56199646 C-388.23303578 569.51113951 -381.32550865 569.41327608 -374.41496277 569.31785583 C-374.41496277 560.40785583 -374.41496277 551.49785583 -374.41496277 542.31785583 C-417.31496277 542.31785583 -460.21496277 542.31785583 -504.41496277 542.31785583 Z M380.58503723 542.31785583 C380.58503723 551.22785583 380.58503723 560.13785583 380.58503723 569.31785583 C388.13431406 569.46501067 395.67834685 569.60517313 403.22781372 569.68010712 C406.74383909 569.71695037 410.25866758 569.76610575 413.77400208 569.84593201 C417.81529261 569.93711879 421.85533225 569.97061065 425.89753723 570.00144958 C427.77143127 570.05564308 427.77143127 570.05564308 429.68318176 570.1109314 C435.73906248 570.1136434 439.61481948 569.96480762 444.25300598 565.83763123 C444.83719299 565.20571365 445.42138 564.57379608 446.02326965 563.92272949 C448.97716098 560.88730832 452.39109741 561.1283304 456.39753723 561.06785583 C462.00096395 561.135367 465.90307127 561.63588987 470.01472473 565.74754333 C474.74742727 571.12196825 474.87891864 575.48819905 474.79597473 582.37254333 C474.41587227 587.67989997 472.47097472 590.70841088 468.58503723 594.13035583 C462.98558762 598.21328785 457.28624708 597.80667088 450.58503723 597.31785583 C446.72557709 595.98458779 445.1120631 595.06452875 442.76203918 591.73509216 C437.67215284 587.86242908 432.40525403 588.70276622 426.19050598 588.82957458 C424.88801407 588.83664932 423.58552216 588.84372406 422.24356079 588.85101318 C418.79239839 588.8700407 415.34229984 588.91910145 411.89155579 588.97453308 C408.36570383 589.02581931 404.83967366 589.04882158 401.31355286 589.07371521 C394.40311024 589.12457216 387.49558311 589.22243559 380.58503723 589.31785583 C380.58503723 598.22785583 380.58503723 607.13785583 380.58503723 616.31785583 C388.13431406 616.46501067 395.67834685 616.60517313 403.22781372 616.68010712 C406.74383909 616.71695037 410.25866758 616.76610575 413.77400208 616.84593201 C417.81529261 616.93711879 421.85533225 616.97061065 425.89753723 617.00144958 C427.77143127 617.05564308 427.77143127 617.05564308 429.68318176 617.1109314 C435.73906248 617.1136434 439.61481948 616.96480762 444.25300598 612.83763123 C444.83719299 612.20571365 445.42138 611.57379608 446.02326965 610.92272949 C448.97716098 607.88730832 452.39109741 608.1283304 456.39753723 608.06785583 C462.00096395 608.135367 465.90307127 608.63588987 470.01472473 612.74754333 C474.74742727 618.12196825 474.87891864 622.48819905 474.79597473 629.37254333 C474.41587227 634.67989997 472.47097472 637.70841088 468.58503723 641.13035583 C462.98558762 645.21328785 457.28624708 644.80667088 450.58503723 644.31785583 C446.72557709 642.98458779 445.1120631 642.06452875 442.76203918 638.73509216 C437.67215284 634.86242908 432.40525403 635.70276622 426.19050598 635.82957458 C424.88801407 635.83664932 423.58552216 635.84372406 422.24356079 635.85101318 C418.79239839 635.8700407 415.34229984 635.91910145 411.89155579 635.97453308 C408.36570383 636.02581931 404.83967366 636.04882158 401.31355286 636.07371521 C394.40311024 636.12457216 387.49558311 636.22243559 380.58503723 636.31785583 C380.58503723 645.55785583 380.58503723 654.79785583 380.58503723 664.31785583 C388.13431406 664.46501067 395.67834685 664.60517313 403.22781372 664.68010712 C406.74383909 664.71695037 410.25866758 664.76610575 413.77400208 664.84593201 C417.81529261 664.93711879 421.85533225 664.97061065 425.89753723 665.00144958 C427.77143127 665.05564308 427.77143127 665.05564308 429.68318176 665.1109314 C435.73906248 665.1136434 439.61481948 664.96480762 444.25300598 660.83763123 C444.83719299 660.20571365 445.42138 659.57379608 446.02326965 658.92272949 C448.97716098 655.88730832 452.39109741 656.1283304 456.39753723 656.06785583 C462.00096395 656.135367 465.90307127 656.63588987 470.01472473 660.74754333 C474.74742727 666.12196825 474.87891864 670.48819905 474.79597473 677.37254333 C474.41587227 682.67989997 472.47097472 685.70841088 468.58503723 689.13035583 C462.98558762 693.21328785 457.28624708 692.80667088 450.58503723 692.31785583 C446.72557709 690.98458779 445.1120631 690.06452875 442.76203918 686.73509216 C437.67215284 682.86242908 432.40525403 683.70276622 426.19050598 683.82957458 C424.88801407 683.83664932 423.58552216 683.84372406 422.24356079 683.85101318 C418.79239839 683.8700407 415.34229984 683.91910145 411.89155579 683.97453308 C408.36570119 684.02581935 404.8396735 684.04854701 401.31355286 684.07371521 C394.40361254 684.12722686 387.49437606 684.21248611 380.58503723 684.31785583 C380.58449246 684.89947353 380.5839477 685.48109123 380.58338642 686.08033371 C380.56837175 700.27988979 380.5257367 714.47914303 380.45294666 728.67852402 C380.41839998 735.5454788 380.39295479 742.41223499 380.38948059 749.27928162 C380.38609845 755.91251009 380.35663208 762.54530014 380.31160545 769.17839813 C380.29866554 771.70275716 380.29431024 774.22717598 380.29888344 776.75156403 C380.30381404 780.30122016 380.27758483 783.84943241 380.24446106 787.39891052 C380.2530867 788.43110214 380.26171234 789.46329376 380.27059937 790.52676392 C380.09666968 801.72340139 375.91052571 811.06942584 368.19831848 819.11863708 C361.15612442 825.04502761 353.04842035 828.40666516 343.91047668 828.5231781 C343.23704224 828.5330777 342.56360779 828.54297729 341.86976624 828.55317688 C339.64598596 828.58473972 337.42218433 828.60952858 335.19831848 828.63426208 C333.65560351 828.65483612 332.11289413 828.67583272 330.57019043 828.69723511 C326.51126121 828.75240934 322.4522815 828.80183909 318.39326477 828.8500824 C314.25076305 828.90033138 310.10833458 828.95599971 305.96589661 829.01121521 C297.83900542 829.11873992 289.71205293 829.22019749 281.58503723 829.31785583 C281.42259638 840.65324862 281.29834091 851.98836295 281.22235203 863.32468414 C281.18587419 868.58910333 281.13642362 873.8527242 281.05696106 879.11668396 C280.98070657 884.20014246 280.93900597 889.28283485 280.92089653 894.36682129 C280.90799723 896.30292822 280.88280681 898.23899485 280.84492683 900.17477417 C280.11614371 912.0896977 280.11614371 912.0896977 285.06526184 922.38230896 C285.69717941 922.90925354 286.32909698 923.43619812 286.98016357 923.97911072 C288.58503723 925.31785583 288.58503723 925.31785583 289.58503723 928.31785583 C290.53102798 940.92500181 290.53102798 940.92500181 286.58503723 946.31785583 C281.97644591 950.92644715 278.25477387 952.47001075 271.77253723 952.56785583 C266.16911051 952.50034467 262.2670032 951.9998218 258.15534973 947.88816833 C253.42168791 942.51265406 253.29554181 938.14771167 253.37019348 931.26316833 C253.63827934 927.58795489 254.45644787 925.32724079 256.58503723 922.31785583 C257.43571274 921.61832291 258.28638824 920.91878998 259.1628418 920.19805908 C262.33854933 916.42186373 262.25789836 913.38394196 262.15266418 908.67210388 C262.15375938 907.38353737 262.15375938 907.38353737 262.15487671 906.06893921 C262.15140207 903.23850155 262.11254757 900.4097236 262.07331848 897.57957458 C262.0639899 895.61374816 262.056874 893.64791009 262.05187988 891.68206787 C262.03281371 886.51474259 261.98371586 881.34812302 261.92835999 876.18107605 C261.87715949 870.90580288 261.85436411 865.63041538 261.82917786 860.35496521 C261.77559677 850.00890256 261.68766367 839.66354836 261.58503723 829.31785583 C251.02503723 829.31785583 240.46503723 829.31785583 229.58503723 829.31785583 C229.58503723 883.43785583 229.58503723 937.55785583 229.58503723 993.31785583 C234.56908529 991.69056625 234.56908529 991.69056625 239.18659973 989.57566833 C239.83105042 989.23817566 240.4755011 988.90068298 241.13948059 988.55296326 C242.16440613 988.00346008 242.16440613 988.00346008 243.21003723 987.44285583 C244.30940613 986.85564758 244.30940613 986.85564758 245.4309845 986.25657654 C272.90901278 971.40382253 298.82844365 953.69128995 322.84968567 933.74900818 C324.38664088 932.48147421 325.94161889 931.23586376 327.49909973 929.99363708 C334.89794817 924.08983619 341.74884032 917.6661687 348.61921692 911.16600037 C350.58734298 909.31568811 352.57132904 907.48415192 354.56159973 905.65769958 C360.74697497 899.97174069 366.75773057 894.28475161 372.28034973 887.93894958 C374.59541515 885.30605315 376.97602158 882.74992033 379.37800598 880.19676208 C385.40374978 873.78492944 391.12535949 867.22386926 396.58503723 860.31785583 C397.4310388 859.26418722 398.2774092 858.21081466 399.12409973 857.15769958 C460.01751549 781.01316018 497.3721519 689.30610373 508.13328552 588.36170959 C508.32269574 586.50155862 508.52224015 584.64244748 508.7224884 582.78343201 C510.00347171 569.19383079 509.58503723 556.15934153 509.58503723 542.31785583 C467.01503723 542.31785583 424.44503723 542.31785583 380.58503723 542.31785583 Z M-198.41496277 829.31785583 C-198.41496277 887.72785583 -198.41496277 946.13785583 -198.41496277 1006.31785583 C-185.51391493 1011.84687634 -173.00477248 1017.12503452 -159.72746277 1021.44285583 C-158.95981598 1021.69520996 -158.19216919 1021.94756409 -157.40126038 1022.20756531 C-120.03390465 1034.47916593 -81.92444472 1042.24366385 -42.78996277 1046.06785583 C-41.51080994 1046.19571472 -40.2316571 1046.32357361 -38.91374207 1046.45530701 C-29.29805593 1047.33599602 -20.17184756 1047.31785583 -10.41496277 1047.31785583 C-10.41496277 975.37785583 -10.41496277 903.43785583 -10.41496277 829.31785583 C-20.97496277 829.31785583 -31.53496277 829.31785583 -42.41496277 829.31785583 C-42.5733294 840.65342573 -42.70165838 851.98825679 -42.77764797 863.32468414 C-42.81412581 868.58910333 -42.86357638 873.8527242 -42.94303894 879.11668396 C-43.01929343 884.20014246 -43.06099403 889.28283485 -43.07910347 894.36682129 C-43.09200277 896.30292822 -43.11719319 898.23899485 -43.15507317 900.17477417 C-43.88385629 912.0896977 -43.88385629 912.0896977 -38.93473816 922.38230896 C-37.9868618 923.17272583 -37.9868618 923.17272583 -37.01983643 923.97911072 C-35.41496277 925.31785583 -35.41496277 925.31785583 -34.41496277 928.31785583 C-33.46897202 940.92500181 -33.46897202 940.92500181 -37.41496277 946.31785583 C-42.02355409 950.92644715 -45.74522613 952.47001075 -52.22746277 952.56785583 C-57.83088949 952.50034467 -61.7329968 951.9998218 -65.84465027 947.88816833 C-70.57831209 942.51265406 -70.70445819 938.14771167 -70.62980652 931.26316833 C-70.36172066 927.58795489 -69.54355213 925.32724079 -67.41496277 922.31785583 C-66.56428726 921.61832291 -65.71361176 920.91878998 -64.8371582 920.19805908 C-61.66145067 916.42186373 -61.74210164 913.38394196 -61.84733582 908.67210388 C-61.84660568 907.81305954 -61.84587555 906.9540152 -61.84512329 906.06893921 C-61.84859793 903.23850155 -61.88745243 900.4097236 -61.92668152 897.57957458 C-61.9360101 895.61374816 -61.943126 893.64791009 -61.94812012 891.68206787 C-61.96718629 886.51474259 -62.01628414 881.34812302 -62.07164001 876.18107605 C-62.12284051 870.90580288 -62.14563589 865.63041538 -62.17082214 860.35496521 C-62.22440323 850.00890256 -62.31233633 839.66354836 -62.41496277 829.31785583 C-72.97496277 829.31785583 -83.53496277 829.31785583 -94.41496277 829.31785583 C-94.5733294 840.65342573 -94.70165838 851.98825679 -94.77764797 863.32468414 C-94.81412581 868.58910333 -94.86357638 873.8527242 -94.94303894 879.11668396 C-95.01929343 884.20014246 -95.06099403 889.28283485 -95.07910347 894.36682129 C-95.09200277 896.30292822 -95.11719319 898.23899485 -95.15507317 900.17477417 C-95.88385629 912.0896977 -95.88385629 912.0896977 -90.93473816 922.38230896 C-90.30282059 922.90925354 -89.67090302 923.43619812 -89.01983643 923.97911072 C-87.41496277 925.31785583 -87.41496277 925.31785583 -86.41496277 928.31785583 C-85.46897202 940.92500181 -85.46897202 940.92500181 -89.41496277 946.31785583 C-94.02355409 950.92644715 -97.74522613 952.47001075 -104.22746277 952.56785583 C-109.83088949 952.50034467 -113.7329968 951.9998218 -117.84465027 947.88816833 C-122.57831209 942.51265406 -122.70445819 938.14771167 -122.62980652 931.26316833 C-122.36172066 927.58795489 -121.54355213 925.32724079 -119.41496277 922.31785583 C-118.13894951 921.26855644 -118.13894951 921.26855644 -116.8371582 920.19805908 C-113.66145067 916.42186373 -113.74210164 913.38394196 -113.84733582 908.67210388 C-113.84660568 907.81305954 -113.84587555 906.9540152 -113.84512329 906.06893921 C-113.84859793 903.23850155 -113.88745243 900.4097236 -113.92668152 897.57957458 C-113.9360101 895.61374816 -113.943126 893.64791009 -113.94812012 891.68206787 C-113.96718629 886.51474259 -114.01628414 881.34812302 -114.07164001 876.18107605 C-114.12284051 870.90580288 -114.14563589 865.63041538 -114.17082214 860.35496521 C-114.22440323 850.00890256 -114.31233633 839.66354836 -114.41496277 829.31785583 C-124.97496277 829.31785583 -135.53496277 829.31785583 -146.41496277 829.31785583 C-146.5733294 840.65342573 -146.70165838 851.98825679 -146.77764797 863.32468414 C-146.81412581 868.58910333 -146.86357638 873.8527242 -146.94303894 879.11668396 C-147.01929343 884.20014246 -147.06099403 889.28283485 -147.07910347 894.36682129 C-147.09200277 896.30292822 -147.11719319 898.23899485 -147.15507317 900.17477417 C-147.88385629 912.0896977 -147.88385629 912.0896977 -142.93473816 922.38230896 C-142.30282059 922.90925354 -141.67090302 923.43619812 -141.01983643 923.97911072 C-139.41496277 925.31785583 -139.41496277 925.31785583 -138.41496277 928.31785583 C-137.46897202 940.92500181 -137.46897202 940.92500181 -141.41496277 946.31785583 C-146.02355409 950.92644715 -149.74522613 952.47001075 -156.22746277 952.56785583 C-161.83088949 952.50034467 -165.7329968 951.9998218 -169.84465027 947.88816833 C-174.57831209 942.51265406 -174.70445819 938.14771167 -174.62980652 931.26316833 C-174.36172066 927.58795489 -173.54355213 925.32724079 -171.41496277 922.31785583 C-170.56428726 921.61832291 -169.71361176 920.91878998 -168.8371582 920.19805908 C-165.66145067 916.42186373 -165.74210164 913.38394196 -165.84733582 908.67210388 C-165.84624062 907.38353737 -165.84624062 907.38353737 -165.84512329 906.06893921 C-165.84859793 903.23850155 -165.88745243 900.4097236 -165.92668152 897.57957458 C-165.9360101 895.61374816 -165.943126 893.64791009 -165.94812012 891.68206787 C-165.96718629 886.51474259 -166.01628414 881.34812302 -166.07164001 876.18107605 C-166.12284051 870.90580288 -166.14563589 865.63041538 -166.17082214 860.35496521 C-166.22440323 850.00890256 -166.31233633 839.66354836 -166.41496277 829.31785583 C-176.97496277 829.31785583 -187.53496277 829.31785583 -198.41496277 829.31785583 Z M16.58503723 829.31785583 C16.58503723 901.25785583 16.58503723 973.19785583 16.58503723 1047.31785583 C27.21515192 1047.31785583 37.38113601 1047.11219153 47.89753723 1046.06785583 C48.9232634 1045.96798874 48.9232634 1045.96798874 49.9697113 1045.86610413 C91.11819095 1041.83817495 131.40095792 1033.13457137 170.52253723 1019.75535583 C171.9102533 1019.28295471 171.9102533 1019.28295471 173.32600403 1018.80101013 C183.65164548 1015.14320163 193.47033743 1010.65272718 203.58503723 1006.31785583 C203.58503723 947.90785583 203.58503723 889.49785583 203.58503723 829.31785583 C193.02503723 829.31785583 182.46503723 829.31785583 171.58503723 829.31785583 C171.4266706 840.65342573 171.29834162 851.98825679 171.22235203 863.32468414 C171.18587419 868.58910333 171.13642362 873.8527242 171.05696106 879.11668396 C170.98070657 884.20014246 170.93900597 889.28283485 170.92089653 894.36682129 C170.90799723 896.30292822 170.88280681 898.23899485 170.84492683 900.17477417 C170.11614371 912.0896977 170.11614371 912.0896977 175.06526184 922.38230896 C176.0131382 923.17272583 176.0131382 923.17272583 176.98016357 923.97911072 C178.58503723 925.31785583 178.58503723 925.31785583 179.58503723 928.31785583 C180.53102798 940.92500181 180.53102798 940.92500181 176.58503723 946.31785583 C171.97644591 950.92644715 168.25477387 952.47001075 161.77253723 952.56785583 C156.16911051 952.50034467 152.2670032 951.9998218 148.15534973 947.88816833 C143.42168791 942.51265406 143.29554181 938.14771167 143.37019348 931.26316833 C143.63827934 927.58795489 144.45644787 925.32724079 146.58503723 922.31785583 C147.43571274 921.61832291 148.28638824 920.91878998 149.1628418 920.19805908 C152.33854933 916.42186373 152.25789836 913.38394196 152.15266418 908.67210388 C152.15339432 907.81305954 152.15412445 906.9540152 152.15487671 906.06893921 C152.15140207 903.23850155 152.11254757 900.4097236 152.07331848 897.57957458 C152.0639899 895.61374816 152.056874 893.64791009 152.05187988 891.68206787 C152.03281371 886.51474259 151.98371586 881.34812302 151.92835999 876.18107605 C151.87715949 870.90580288 151.85436411 865.63041538 151.82917786 860.35496521 C151.77559677 850.00890256 151.68766367 839.66354836 151.58503723 829.31785583 C141.02503723 829.31785583 130.46503723 829.31785583 119.58503723 829.31785583 C119.4266706 840.65342573 119.29834162 851.98825679 119.22235203 863.32468414 C119.18587419 868.58910333 119.13642362 873.8527242 119.05696106 879.11668396 C118.98070657 884.20014246 118.93900597 889.28283485 118.92089653 894.36682129 C118.90799723 896.30292822 118.88280681 898.23899485 118.84492683 900.17477417 C118.11614371 912.0896977 118.11614371 912.0896977 123.06526184 922.38230896 C123.69717941 922.90925354 124.32909698 923.43619812 124.98016357 923.97911072 C126.58503723 925.31785583 126.58503723 925.31785583 127.58503723 928.31785583 C128.53102798 940.92500181 128.53102798 940.92500181 124.58503723 946.31785583 C119.97644591 950.92644715 116.25477387 952.47001075 109.77253723 952.56785583 C104.16911051 952.50034467 100.2670032 951.9998218 96.15534973 947.88816833 C91.42168791 942.51265406 91.29554181 938.14771167 91.37019348 931.26316833 C91.63827934 927.58795489 92.45644787 925.32724079 94.58503723 922.31785583 C95.86105049 921.26855644 95.86105049 921.26855644 97.1628418 920.19805908 C100.33854933 916.42186373 100.25789836 913.38394196 100.15266418 908.67210388 C100.15339432 907.81305954 100.15412445 906.9540152 100.15487671 906.06893921 C100.15140207 903.23850155 100.11254757 900.4097236 100.07331848 897.57957458 C100.0639899 895.61374816 100.056874 893.64791009 100.05187988 891.68206787 C100.03281371 886.51474259 99.98371586 881.34812302 99.92835999 876.18107605 C99.87715949 870.90580288 99.85436411 865.63041538 99.82917786 860.35496521 C99.77559677 850.00890256 99.68766367 839.66354836 99.58503723 829.31785583 C89.02503723 829.31785583 78.46503723 829.31785583 67.58503723 829.31785583 C67.4266706 840.65342573 67.29834162 851.98825679 67.22235203 863.32468414 C67.18587419 868.58910333 67.13642362 873.8527242 67.05696106 879.11668396 C66.98070657 884.20014246 66.93900597 889.28283485 66.92089653 894.36682129 C66.90799723 896.30292822 66.88280681 898.23899485 66.84492683 900.17477417 C66.11614371 912.0896977 66.11614371 912.0896977 71.06526184 922.38230896 C71.69717941 922.90925354 72.32909698 923.43619812 72.98016357 923.97911072 C74.58503723 925.31785583 74.58503723 925.31785583 75.58503723 928.31785583 C76.53102798 940.92500181 76.53102798 940.92500181 72.58503723 946.31785583 C67.97644591 950.92644715 64.25477387 952.47001075 57.77253723 952.56785583 C52.16911051 952.50034467 48.2670032 951.9998218 44.15534973 947.88816833 C39.42168791 942.51265406 39.29554181 938.14771167 39.37019348 931.26316833 C39.63827934 927.58795489 40.45644787 925.32724079 42.58503723 922.31785583 C43.43571274 921.61832291 44.28638824 920.91878998 45.1628418 920.19805908 C48.33854933 916.42186373 48.25789836 913.38394196 48.15266418 908.67210388 C48.15339432 907.81305954 48.15412445 906.9540152 48.15487671 906.06893921 C48.15140207 903.23850155 48.11254757 900.4097236 48.07331848 897.57957458 C48.0639899 895.61374816 48.056874 893.64791009 48.05187988 891.68206787 C48.03281371 886.51474259 47.98371586 881.34812302 47.92835999 876.18107605 C47.87715949 870.90580288 47.85436411 865.63041538 47.82917786 860.35496521 C47.77559677 850.00890256 47.68766367 839.66354836 47.58503723 829.31785583 C37.35503723 829.31785583 27.12503723 829.31785583 16.58503723 829.31785583 Z " fill="#000000" transform="translate(537.4149627685547,-0.3178558349609375)"/>
<path d="M0 0 C4 4.31578947 4 4.31578947 4 7 C4.85722656 6.37351562 5.71445312 5.74703125 6.59765625 5.1015625 C7.75223358 4.27552344 8.9072026 3.45003166 10.0625 2.625 C10.62388672 2.2125 11.18527344 1.8 11.76367188 1.375 C18.37482652 -3.30947529 24.41717982 -4.50144801 32.41796875 -3.52734375 C36.94617866 -2.60252024 39.66296684 -0.77421021 42.43359375 2.90234375 C45.83193607 8.07205998 47.12860623 12.01423524 47.11352539 18.22753906 C47.11341209 19.78870453 47.11341209 19.78870453 47.11329651 21.38140869 C47.10813522 22.49820007 47.10297394 23.61499146 47.09765625 24.765625 C47.0962413 25.91415955 47.09482635 27.06269409 47.09336853 28.24603271 C47.08777143 31.91404831 47.07521944 35.58200285 47.0625 39.25 C47.05748463 41.73697829 47.05292178 44.22395753 47.04882812 46.7109375 C47.03780295 52.80731519 47.02054027 58.90364724 47 65 C39.74 65 32.48 65 25 65 C24.95101562 61.79796875 24.90203125 58.5959375 24.8515625 55.296875 C24.79755302 52.19575322 24.74024535 49.09470873 24.68261719 45.99365234 C24.64433398 43.83843747 24.60947996 41.68315884 24.578125 39.52783203 C24.5324605 36.42978124 24.47446788 33.33216909 24.4140625 30.234375 C24.40251129 29.27070007 24.39096008 28.30702515 24.37905884 27.31414795 C24.35918915 26.41351624 24.33931946 25.51288452 24.31884766 24.58496094 C24.30552399 23.79442322 24.29220032 23.0038855 24.2784729 22.18939209 C23.97017637 19.76552254 23.20628714 18.10892723 22 16 C20.39620659 15.94583812 18.79188594 15.90713362 17.1875 15.875 C16.29417969 15.85179687 15.40085937 15.82859375 14.48046875 15.8046875 C11.74597286 15.81714173 11.74597286 15.81714173 9 18 C8.52482134 20.09247425 8.52482134 20.09247425 8.56762695 22.54150391 C8.54783279 23.48232819 8.52803864 24.42315247 8.50764465 25.39248657 C8.49805977 26.91910416 8.49805977 26.91910416 8.48828125 28.4765625 C8.47033005 29.51694672 8.45237885 30.55733093 8.43388367 31.62924194 C8.37958318 34.96111971 8.34582147 38.29285266 8.3125 41.625 C8.27934439 43.88022858 8.24485639 46.13543799 8.20898438 48.390625 C8.12133021 53.92710647 8.06142901 59.46291619 8 65 C0.74 65 -6.52 65 -14 65 C-14.04898438 62.12152344 -14.09796875 59.24304688 -14.1484375 56.27734375 C-14.20252526 53.47398913 -14.25980208 50.67071643 -14.31738281 47.86743164 C-14.35554659 45.92673911 -14.39042095 43.98597889 -14.421875 42.04516602 C-14.46780026 39.24731332 -14.52574828 36.44992162 -14.5859375 33.65234375 C-14.59748871 32.7916478 -14.60903992 31.93095184 -14.62094116 31.04417419 C-14.61629744 22.96538299 -14.61629744 22.96538299 -18 16 C-19.99990516 15.80010237 -19.99990516 15.80010237 -22.3125 15.8125 C-23.09238281 15.79832031 -23.87226562 15.78414062 -24.67578125 15.76953125 C-27.3935451 15.8994619 -27.3935451 15.8994619 -31 18 C-31.33 33.51 -31.66 49.02 -32 65 C-39.26 65 -46.52 65 -54 65 C-54 42.89 -54 20.78 -54 -2 C-46.74 -2 -39.48 -2 -32 -2 C-31.67 -0.35 -31.34 1.3 -31 3 C-30.33613281 2.57847656 -29.67226563 2.15695312 -28.98828125 1.72265625 C-27.66376953 0.90087891 -27.66376953 0.90087891 -26.3125 0.0625 C-25.44238281 -0.48277344 -24.57226562 -1.02804687 -23.67578125 -1.58984375 C-16.30985141 -5.47174254 -6.87600355 -4.58400237 0 0 Z " fill="#000000" transform="translate(608,566)"/>
<path d="M0 0 C55.08455882 0 55.08455882 0 64 8.4375 C68.97534265 13.97344464 69.90432633 19.68627976 70 27 C69.21720238 35.3498413 66.78013009 41.75553035 60.375 47.375 C58.59639572 48.82739738 57.0555845 49.97220775 55 51 C56.42494761 55.25943799 58.50668937 58.05651685 61.4375 61.4375 C62.33644172 62.48804037 63.23350211 63.54019283 64.12890625 64.59375 C64.83104248 65.41939453 64.83104248 65.41939453 65.54736328 66.26171875 C68.05825961 69.26635436 70.46606518 72.35093717 72.875 75.4375 C73.55260376 76.30556274 73.55260376 76.30556274 74.24389648 77.19116211 C74.67645752 77.74553955 75.10901855 78.29991699 75.5546875 78.87109375 C77.11367574 80.86590139 78.69980111 82.83999695 80.3203125 84.78515625 C82 87 82 87 82 89 C58.47668529 91.3528141 58.47668529 91.3528141 51.68945312 87.78564453 C47.98045234 84.56292153 45.60945076 80.49760525 43.26416016 76.22558594 C41.04060966 72.31096903 38.35289211 68.74584788 35.6875 65.125 C35.21892578 64.42955078 34.75035156 63.73410156 34.26757812 63.01757812 C33.81189453 62.37498047 33.35621094 61.73238281 32.88671875 61.0703125 C32.49701904 60.50070801 32.10731934 59.93110352 31.70581055 59.34423828 C29.4326901 57.32175301 29.4326901 57.32175301 23 57 C23 67.56 23 78.12 23 89 C15.41 89 7.82 89 0 89 C0 59.63 0 30.26 0 0 Z M23 18 C23 25.26 23 32.52 23 40 C33.48982376 40.65843501 33.48982376 40.65843501 43 37 C45.6859484 32.9710774 46.61443138 29.81304584 46 25 C44.6908883 21.9683729 43.80687378 20.43013492 40.875 18.8671875 C37.27341858 17.78084093 33.90479413 17.78323501 30.1875 17.875 C27.815625 17.91625 25.44375 17.9575 23 18 Z " fill="#000000" transform="translate(318,542)"/>
<path d="M0 0 C54.15243902 0 54.15243902 0 68.75 13.125 C77.12133795 22.12963065 79.35748849 33.03285726 80.3125 44.875 C79.81493011 58.19881586 75.38318847 70.25360463 65.625 79.5 C47.33412577 94.4427142 22.01776354 89 0 89 C0 59.63 0 30.26 0 0 Z M23 18 C23 35.82 23 53.64 23 72 C36.30222502 72.11132016 36.30222502 72.11132016 47.75 67.4375 C54.21114306 60.43792835 56.33939017 51.98696632 56.21484375 42.6875 C55.62874789 35.35597364 53.25039322 28.29262159 48 23 C39.90044489 17.02999084 33.4471579 18 23 18 Z " fill="#000000" transform="translate(318,663)"/>
<path d="M0 0 C7.59 0 15.18 0 23 0 C25.97 12.87 28.94 25.74 32 39 C33.96233974 33.76709402 35.72708047 28.77537229 37.26171875 23.4375 C37.45723831 22.76074219 37.65275787 22.08398438 37.85420227 21.38671875 C38.46828274 19.25865767 39.07797011 17.12936839 39.6875 15 C40.10712979 13.5428846 40.52704922 12.08585258 40.94726562 10.62890625 C41.9687274 7.08703289 42.98421764 3.54352589 44 0 C50.6 0 57.2 0 64 0 C64.71027344 2.64773438 65.42054688 5.29546875 66.15234375 8.0234375 C66.84022396 10.58184467 67.52884046 13.14005259 68.2175293 15.69824219 C68.69649089 17.47895934 69.17468437 19.25988327 69.65209961 21.04101562 C70.33767038 23.5982017 71.02598211 26.15463625 71.71484375 28.7109375 C71.92842026 29.50994476 72.14199677 30.30895203 72.36204529 31.13217163 C73.41665096 35.16180895 73.41665096 35.16180895 75 39 C77.97 26.13 80.94 13.26 84 0 C91.59 0 99.18 0 107 0 C104.93367089 8.46663674 102.65834535 16.84056042 100.20703125 25.203125 C99.85613937 26.4069281 99.5052475 27.6107312 99.14372253 28.85101318 C98.2231274 32.00778656 97.3005741 35.1639783 96.37701416 38.31988525 C95.42999375 41.55781652 94.48562629 44.79652133 93.54101562 48.03515625 C91.69641706 54.35747612 89.84898328 60.67896113 88 67 C80.08 67 72.16 67 64 67 C63.28972656 64.42445313 62.57945312 61.84890625 61.84765625 59.1953125 C61.1597574 56.70640533 60.4711489 54.21769553 59.7824707 51.72900391 C59.30353705 49.99678744 58.8253436 48.26436614 58.34790039 46.53173828 C57.66225701 44.04405606 56.97397148 41.55711806 56.28515625 39.0703125 C56.07157974 38.29317902 55.85800323 37.51604553 55.63795471 36.71536255 C54.56916369 32.76585222 54.56916369 32.76585222 53 29 C52.70230713 30.11560303 52.40461426 31.23120605 52.09790039 32.38061523 C50.9961801 36.50572252 49.89001169 40.62962587 48.7824707 44.75317383 C48.30305825 46.54060684 47.82486502 48.32836732 47.34790039 50.11645508 C46.66349783 52.6813656 45.97476925 55.24507994 45.28515625 57.80859375 C45.07157974 58.6127623 44.85800323 59.41693085 44.63795471 60.24546814 C43.11387171 65.88612829 43.11387171 65.88612829 42 67 C40.29227642 67.08713831 38.58101351 67.10700007 36.87109375 67.09765625 C35.83662109 67.09443359 34.80214844 67.09121094 33.73632812 67.08789062 C32.64771484 67.07951172 31.55910156 67.07113281 30.4375 67.0625 C28.7987793 67.05573242 28.7987793 67.05573242 27.12695312 67.04882812 C24.41791505 67.03699826 21.70898401 67.02051543 19 67 C16.28705528 60.14290505 14.22639045 53.1630575 12.20703125 46.07421875 C11.85613937 44.84967484 11.5052475 43.62513092 11.14372253 42.36347961 C10.40674626 39.78793985 9.67113293 37.21205696 8.93774414 34.63549805 C7.99784435 31.33433919 7.0513383 28.03511599 6.10298634 24.73637676 C5.19641873 21.57922782 4.2957637 18.42039406 3.39453125 15.26171875 C2.88367729 13.48519173 2.88367729 13.48519173 2.36250305 11.67277527 C2.0518541 10.57766129 1.74120514 9.4825473 1.42114258 8.35424805 C1.14595291 7.39020554 0.87076324 6.42616302 0.5872345 5.4329071 C0 3 0 3 0 0 Z " fill="#000000" transform="translate(454,322)"/>
<path d="M0 0 C7.59 0 15.18 0 23 0 C23.55429687 2.31257813 24.10859375 4.62515625 24.6796875 7.0078125 C25.22186477 9.26187078 25.76494219 11.5157104 26.30810547 13.76953125 C26.68339539 15.3288754 27.05775781 16.88844309 27.43115234 18.44824219 C27.96985605 20.69786885 28.5119555 22.94665474 29.0546875 25.1953125 C29.21935516 25.8861795 29.38402283 26.57704651 29.55368042 27.28884888 C30.5244007 31.29410097 31.69080878 35.07242635 33 39 C38.445 19.695 38.445 19.695 44 0 C50.6 0 57.2 0 64 0 C65.40632398 5.05357801 66.81233164 10.10724181 68.2175293 15.16113281 C68.6955326 16.87993477 69.17372115 18.59868523 69.65209961 20.31738281 C70.34017007 22.78957781 71.02757134 25.26195804 71.71484375 27.734375 C71.92842026 28.50118591 72.14199677 29.26799683 72.36204529 30.05804443 C73.28023814 33.36340008 74.1781828 36.66942767 75 40 C75.2673999 38.82381104 75.5347998 37.64762207 75.81030273 36.43579102 C76.79995488 32.08712833 77.79438213 27.73956946 78.7902832 23.39233398 C79.22128305 21.50786803 79.65097367 19.62310215 80.0793457 17.73803711 C80.69401555 15.03420038 81.3133301 12.33146446 81.93359375 9.62890625 C82.12529648 8.78099014 82.31699921 7.93307404 82.51451111 7.0594635 C83.88612829 1.11387171 83.88612829 1.11387171 85 0 C86.63472882 -0.08700342 88.27314055 -0.10701063 89.91015625 -0.09765625 C90.89951172 -0.09443359 91.88886719 -0.09121094 92.90820312 -0.08789062 C93.94912109 -0.07951172 94.99003906 -0.07113281 96.0625 -0.0625 C97.62967773 -0.05573242 97.62967773 -0.05573242 99.22851562 -0.04882812 C101.81906936 -0.03699911 104.40949746 -0.01967834 107 0 C105.60102274 7.99938245 103.4352849 15.67857249 101.0859375 23.4453125 C100.5241832 25.32185013 100.5241832 25.32185013 99.95108032 27.23629761 C98.96543961 30.52864095 97.97438725 33.81932989 96.9821167 37.10968018 C95.96651189 40.48097356 94.95614712 43.85383642 93.9453125 47.2265625 C91.96860576 53.81923673 89.98568152 60.41002343 88 67 C80.08 67 72.16 67 64 67 C60.7 54.79 57.4 42.58 54 30 C52.08479904 33.83040192 50.92788667 37.50485343 49.8359375 41.609375 C49.63900299 42.33618469 49.44206848 43.06299438 49.23916626 43.81182861 C48.61378248 46.12349567 47.99431602 48.4367008 47.375 50.75 C46.95091081 52.32171986 46.52643595 53.89333571 46.1015625 55.46484375 C45.06250894 59.30853016 44.03147821 63.15424175 43 67 C35.08 67 27.16 67 19 67 C14.10482068 51.39084331 9.44603471 35.74190386 5 20 C4.75108002 19.1218161 4.50216003 18.2436322 4.24569702 17.33883667 C3.53565651 14.83092985 2.82955398 12.32195301 2.125 9.8125 C1.90975174 9.05215958 1.69450348 8.29181915 1.47273254 7.50843811 C0 2.23107983 0 2.23107983 0 0 Z " fill="#000000" transform="translate(464,443)"/>
<path d="M0 0 C6.8917818 6.60525257 9.69540489 15.37235791 10.12109375 24.69921875 C10.34933796 38.17942237 9.49242338 49.46825755 -0.21484375 59.7109375 C-5.70801124 64.77757669 -11.27540434 66.34617459 -18.58984375 67.0234375 C-23.99037832 66.55787418 -29.34795604 65.14438136 -34.21484375 62.7109375 C-34.21484375 71.6209375 -34.21484375 80.5309375 -34.21484375 89.7109375 C-41.47484375 89.7109375 -48.73484375 89.7109375 -56.21484375 89.7109375 C-56.21484375 59.3509375 -56.21484375 28.9909375 -56.21484375 -2.2890625 C-48.95484375 -2.2890625 -41.69484375 -2.2890625 -34.21484375 -2.2890625 C-33.88484375 -0.6390625 -33.55484375 1.0109375 -33.21484375 2.7109375 C-32.73015625 2.37320313 -32.24546875 2.03546875 -31.74609375 1.6875 C-22.0690452 -4.75145923 -10.16980766 -7.22536643 0 0 Z M-33.21484375 15.7109375 C-34.89158024 17.38767399 -34.34272192 19.43948826 -34.35379028 21.67749023 C-34.35176605 22.36915283 -34.34974182 23.06081543 -34.34765625 23.7734375 C-34.34861298 24.47992432 -34.3495697 25.18641113 -34.35055542 25.91430664 C-34.35123708 27.41064543 -34.3493838 28.90698717 -34.34521484 30.40332031 C-34.33986632 32.70123907 -34.34516026 34.99896236 -34.3515625 37.296875 C-34.35090172 38.74739627 -34.34962055 40.19791741 -34.34765625 41.6484375 C-34.34968048 42.3401001 -34.35170471 43.0317627 -34.35379028 43.74438477 C-34.61715108 47.00829388 -34.61715108 47.00829388 -33.21484375 49.7109375 C-27.71420985 50.23277058 -22.78328873 50.37133538 -17.65234375 48.2109375 C-11.4553192 41.85501489 -11.86863357 34.74029203 -11.81640625 26.296875 C-12.31995556 21.76493121 -13.87291578 18.56407613 -16.52734375 14.8984375 C-21.98351383 11.05891041 -27.63858103 13.33955841 -33.21484375 15.7109375 Z " fill="#000000" transform="translate(563.21484375,687.2890625)"/>
<path d="M0 0 C52.31121281 0 52.31121281 0 61.875 8.70703125 C67.67154072 15.10273363 69.3751531 22.14199273 69.2109375 30.73046875 C68.4447526 38.97405071 65.94065198 46.12364079 60 52 C48.40633588 61.32895195 37.79775978 61 23 61 C23 70.24 23 79.48 23 89 C15.41 89 7.82 89 0 89 C0 59.63 0 30.26 0 0 Z M23 18 C23 26.25 23 34.5 23 43 C34.38414671 43.52497985 34.38414671 43.52497985 42.8125 38.5 C45.67508866 34.88409854 45.46330671 30.38425426 45 26 C43.6855912 22.71397801 42.42770592 21.32640715 39.625 19.1875 C34.0501142 17.36124431 28.84877923 17.82095574 23 18 Z " fill="#000000" transform="translate(318,421)"/>
<path d="M0 0 C4.64040984 4.15194565 8.02151938 8.33989579 8.61550903 14.70039368 C8.6088472 16.06940071 8.6088472 16.06940071 8.60205078 17.46606445 C8.60189972 18.5067659 8.60174866 19.54746735 8.60159302 20.6197052 C8.59127045 21.7313353 8.58094788 22.84296539 8.5703125 23.98828125 C8.5674826 25.13540085 8.56465271 26.28252045 8.56173706 27.46440125 C8.55055697 31.12220768 8.52545595 34.77976778 8.5 38.4375 C8.48996741 40.91991833 8.48084205 43.40234051 8.47265625 45.88476562 C8.45062467 51.96493842 8.41610935 58.04492747 8.375 64.125 C1.445 64.125 -5.485 64.125 -12.625 64.125 C-12.955 62.475 -13.285 60.825 -13.625 59.125 C-14.676875 59.90875 -15.72875 60.6925 -16.8125 61.5 C-23.94099912 66.81143071 -30.96190613 66.89025631 -39.625 66.125 C-45.67215152 64.62035443 -48.9442183 61.08020499 -52.49609375 56.125 C-55.5750023 50.67032465 -55.31212528 43.96603033 -54.234375 37.94140625 C-52.44582143 32.05981663 -48.67085266 28.47110335 -43.625 25.125 C-34.6054629 20.46520001 -22.55638211 19.95905146 -12.625 20.125 C-13.96685933 16.69580394 -14.7955093 14.59291783 -18.0625 12.75 C-27.40407021 11.11112803 -35.06815294 12.16292332 -44.0078125 15.25 C-46.625 16.125 -46.625 16.125 -48.625 16.125 C-48.625 10.185 -48.625 4.245 -48.625 -1.875 C-33.39773717 -5.10910892 -14.1550792 -8.72719169 0 0 Z M-19.375 33.9375 C-20.42171875 34.08832031 -21.4684375 34.23914063 -22.546875 34.39453125 C-26.75121679 35.39226211 -29.58370609 37.08370609 -32.625 40.125 C-32.96863917 43.28648036 -32.88618122 45.48075299 -31.6875 48.4375 C-28.36104894 51.15914178 -24.84536744 51.44641871 -20.625 51.125 C-17.60590607 49.97327158 -14.93724448 48.43724448 -12.625 46.125 C-12.55241054 43.93860547 -12.54126217 41.74999611 -12.5625 39.5625 C-12.57152344 38.36496094 -12.58054687 37.16742187 -12.58984375 35.93359375 C-12.60144531 35.00675781 -12.61304688 34.07992187 -12.625 33.125 C-14.88271561 33.125 -17.15022363 33.60378355 -19.375 33.9375 Z " fill="#000000" transform="translate(669.625,687.875)"/>
<path d="M0 0 C6.81173582 5.3783538 10.10586245 12.19728102 11.78515625 20.59375 C11.78515625 25.54375 11.78515625 30.49375 11.78515625 35.59375 C-3.06484375 35.59375 -17.91484375 35.59375 -33.21484375 35.59375 C-30.89983076 42.88923647 -30.89983076 42.88923647 -26.21484375 47.59375 C-17.4973994 50.99417156 -9.08212528 50.71422066 -0.46484375 47.15625 C2.9011699 45.73800358 2.9011699 45.73800358 5.78515625 43.59375 C7.43515625 43.59375 9.08515625 43.59375 10.78515625 43.59375 C10.78515625 49.53375 10.78515625 55.47375 10.78515625 61.59375 C-5.46440924 67.12931627 -22.94218954 70.12956671 -39.21484375 62.59375 C-47.0931666 58.41288215 -51.50964784 51.58086407 -54.35546875 43.2578125 C-56.78862795 32.88370648 -56.25236801 21.10308725 -51.21484375 11.59375 C-45.34753563 3.41576455 -38.89124851 -2.19034825 -28.86328125 -4.08984375 C-18.96118499 -5.27283755 -8.66422335 -5.50109419 0 0 Z M-30.58984375 13.84375 C-32.6430689 16.94142325 -32.6430689 16.94142325 -33.21484375 22.59375 C-25.62484375 22.59375 -18.03484375 22.59375 -10.21484375 22.59375 C-9.67488906 16.77952485 -9.67488906 16.77952485 -12.33984375 13.28125 C-17.94277342 8.04372879 -24.99942582 8.54756459 -30.58984375 13.84375 Z " fill="#000000" transform="translate(629.21484375,445.40625)"/>
<path d="M0 0 C7.6909138 6.71849941 10.32119796 15.66242665 11.3203125 25.5703125 C11.70254535 36.6232123 9.02996287 47.19279179 1.51171875 55.4609375 C-6.65465896 63.18537006 -15.63281792 64.42460986 -26.48608398 64.31762695 C-36.13991388 63.95157498 -43.6023428 61.65259564 -50.4609375 54.59375 C-58.0268361 45.0302025 -59.63626002 34.50849489 -58.70703125 22.5 C-57.83901537 16.30658938 -56.29012036 11.08558239 -52.9609375 5.78125 C-52.4246875 4.915 -51.8884375 4.04875 -51.3359375 3.15625 C-37.70522308 -10.47446442 -15.3613745 -11.07321696 0 0 Z M-31.9609375 11.78125 C-35.63097965 17.29996112 -36.59469293 22.24952654 -36.4609375 28.78125 C-36.47640625 29.53664063 -36.491875 30.29203125 -36.5078125 31.0703125 C-36.46958663 36.63217628 -35.23132647 41.21276399 -31.9609375 45.78125 C-28.07026082 48.32515398 -25.28558279 49.13830553 -20.7734375 48.28125 C-16.82911943 46.99953736 -14.97980886 45.50839713 -12.9609375 41.78125 C-10.05281052 33.26345732 -10.24147396 23.6817211 -13.2109375 15.21875 C-15.26377438 12.35944148 -16.91706421 10.5799024 -19.9609375 8.78125 C-24.90024489 8.16383658 -28.15561284 8.4901584 -31.9609375 11.78125 Z " fill="#000000" transform="translate(439.9609375,327.21875)"/>
<path d="M0 0 C5.77304863 4.78740618 9.44382158 11.67948088 11 19 C12.06509666 31.72974141 12.02649668 43.93029267 3.875 54.375 C-1.87975913 60.42806198 -9.82652099 63.99925229 -18.16015625 64.23828125 C-29.13942907 64.48615328 -37.8326569 63.95640878 -47.3125 57.875 C-56.58611642 47.95438708 -58.62304794 37.28744995 -58.3125 24.203125 C-57.83392215 15.30955322 -54.2501845 7.3474096 -48 1 C-34.92073232 -10.08036073 -13.5832784 -10.74026664 0 0 Z M-31 11 C-36.41099153 19.19378717 -37.3206366 27.97046975 -35.50390625 37.640625 C-34.0904731 42.4638658 -32.54980296 45.46057509 -28 48 C-24.78076557 48.93894337 -22.70941934 49.1557262 -19.4375 48.4375 C-15.81076723 46.29865759 -12.84394369 43.31029586 -11.375 39.2890625 C-9.96050538 30.65475159 -9.86367912 20.81305055 -14 13 C-16.03744047 10.64824365 -16.94831372 10.01722876 -20 9 C-25.89565172 8.56179275 -25.89565172 8.56179275 -31 11 Z " fill="#000000" transform="translate(458,569)"/>
<path d="M0 0 C7.59989519 6.37460597 11.77806417 13.1454419 12.84082031 23.23681641 C13.63247097 35.82064474 12.2733252 47.37605948 3.625 57.1875 C-6.18114768 65.52897717 -16.82267987 65.97275496 -29.1328125 65.3828125 C-37.15261251 64.68422365 -44.07493262 61.22812474 -49.375 55.1875 C-54.90245172 47.7460116 -56.93106026 38.93603841 -56.8125 29.8125 C-56.80420166 28.98322998 -56.79590332 28.15395996 -56.78735352 27.29956055 C-56.52075305 17.58904176 -54.12590207 10.00492598 -47.2890625 2.90625 C-34.85939206 -8.25508672 -13.81261183 -9.83664506 0 0 Z M-30.375 13.1875 C-35.48295823 20.34865712 -35.14813508 28.74821832 -34.375 37.1875 C-33.35653726 42.06732869 -31.56522338 46.27762266 -27.375 49.1875 C-23.39499178 50.29305784 -21.1175282 50.4350094 -17.1875 49.125 C-13.30041905 46.44723312 -10.95272906 43.4754601 -9.78515625 38.8515625 C-8.5411452 30.77141452 -8.65186522 22.60235069 -12.375 15.1875 C-14.31915911 12.8309435 -15.67337846 11.53831077 -18.375 10.1875 C-23.32881405 9.81362724 -26.59143049 9.81296503 -30.375 13.1875 Z " fill="#000000" transform="translate(531.375,567.8125)"/>
<path d="M0 0 C7.59989519 6.37460597 11.77806417 13.1454419 12.84082031 23.23681641 C13.63247097 35.82064474 12.2733252 47.37605948 3.625 57.1875 C-6.18114768 65.52897717 -16.82267987 65.97275496 -29.1328125 65.3828125 C-37.15261251 64.68422365 -44.07493262 61.22812474 -49.375 55.1875 C-54.90245172 47.7460116 -56.93106026 38.93603841 -56.8125 29.8125 C-56.80420166 28.98322998 -56.79590332 28.15395996 -56.78735352 27.29956055 C-56.52075305 17.58904176 -54.12590207 10.00492598 -47.2890625 2.90625 C-34.85939206 -8.25508672 -13.81261183 -9.83664506 0 0 Z M-30.375 13.1875 C-35.55451959 20.40183086 -34.87681553 28.66559703 -34.375 37.1875 C-33.38624875 42.06582417 -31.55347436 46.28578169 -27.375 49.1875 C-23.39499178 50.29305784 -21.1175282 50.4350094 -17.1875 49.125 C-13.30041905 46.44723312 -10.95272906 43.4754601 -9.78515625 38.8515625 C-8.5411452 30.77141452 -8.65186522 22.60235069 -12.375 15.1875 C-14.31915911 12.8309435 -15.67337846 11.53831077 -18.375 10.1875 C-23.35609259 9.81156848 -26.43173864 10.0109839 -30.375 13.1875 Z " fill="#000000" transform="translate(448.375,446.8125)"/>
<path d="M0 0 C7.59 0 15.18 0 23 0 C27.5 11.25 27.5 11.25 29.359375 16.8828125 C29.75253906 18.06875 30.14570312 19.2546875 30.55078125 20.4765625 C30.94652344 21.68054688 31.34226562 22.88453125 31.75 24.125 C32.16121094 25.36765625 32.57242188 26.6103125 32.99609375 27.890625 C34.00016255 30.92618183 35.00139873 33.96264107 36 37 C38.18974819 33.71537772 39.21824984 30.50870394 40.34765625 26.77734375 C40.56441513 26.0760585 40.78117401 25.37477325 41.00450134 24.65223694 C41.69510359 22.41537785 42.37911945 20.17657487 43.0625 17.9375 C43.75053373 15.69520648 44.43994859 13.45335187 45.13121033 11.21205139 C45.56071614 9.81820445 45.98816047 8.42372028 46.41334534 7.02854919 C47.88911915 2.22176171 47.88911915 2.22176171 49 0 C56.26 0 63.52 0 71 0 C68.75003074 10.12486167 68.75003074 10.12486167 67.41870117 13.68896484 C67.12001633 14.4974588 66.82133148 15.30595276 66.51359558 16.13894653 C66.0331353 17.41208206 66.0331353 17.41208206 65.54296875 18.7109375 C65.20328568 19.62551727 64.8636026 20.54009705 64.5136261 21.48239136 C63.41045695 24.44869236 62.29908631 27.41184419 61.1875 30.375 C60.42263259 32.4265549 59.65831455 34.47831469 58.89453125 36.53027344 C57.34842391 40.68174705 55.79923035 44.8320484 54.24755859 48.98144531 C52.16083993 54.56441425 50.08743265 60.15222544 48.01953125 65.7421875 C47.41579506 67.37321836 46.812036 69.00424076 46.20825195 70.63525391 C45.35919667 72.92888762 44.51016409 75.22252954 43.66146851 77.51629639 C42.890063 79.59984115 42.11714405 81.6828177 41.34375 83.765625 C40.69696289 85.51020996 40.69696289 85.51020996 40.03710938 87.29003906 C39 90 39 90 38 92 C30.41 92 22.82 92 15 92 C16.50671958 85.21976189 18.17059932 79.73081228 21.05273438 73.59570312 C25.15929877 64.13361923 20.52856518 55.3458286 17.08984375 46.34765625 C16.59721563 45.03899655 16.10541279 43.73002592 15.61439514 42.42076111 C14.32819011 38.99720407 13.03184639 35.57758031 11.73297119 32.15881348 C10.14962817 27.9862132 8.57717801 23.80949884 7.00441074 19.6329031 C5.78264099 16.3884538 4.55882221 13.14483392 3.32859802 9.90357971 C2.89136917 8.74825241 2.45414032 7.59292511 2.00366211 6.40258789 C1.61585068 5.38080948 1.22803925 4.35903107 0.82847595 3.30628967 C0 1 0 1 0 0 Z " fill="#000000" transform="translate(684,685)"/>
<path d="M0 0 C8.79779784 -0.3433287 17.95704669 1.21485147 25.83984375 5.15625 C25.83984375 11.09625 25.83984375 17.03625 25.83984375 23.15625 C22.01202794 22.39068684 19.96569362 21.8900366 16.71484375 20.15625 C12.1080096 17.71839224 8.58091093 16.99826051 3.33984375 16.96875 C2.19515625 16.95457031 1.05046875 16.94039062 -0.12890625 16.92578125 C-3.3377801 16.92075943 -3.3377801 16.92075943 -6.16015625 19.15625 C-6.41046602 21.74005177 -6.41046602 21.74005177 -6.16015625 24.15625 C-4.97679687 24.38699219 -3.7934375 24.61773438 -2.57421875 24.85546875 C20.16681194 29.46959092 20.16681194 29.46959092 26.83984375 39.15625 C29.29452387 44.06561025 28.50503732 51.36513372 27.26171875 56.58203125 C24.45215867 63.15895598 18.90338513 66.1912163 12.69921875 69.19140625 C1.13698877 73.53734934 -14.78260225 72.46233815 -26.16015625 68.15625 C-27.15015625 67.49625 -28.14015625 66.83625 -29.16015625 66.15625 C-29.50073242 64.18505859 -29.50073242 64.18505859 -29.453125 61.8046875 C-29.44345703 60.95390625 -29.43378906 60.103125 -29.42382812 59.2265625 C-29.39869141 58.33710937 -29.37355469 57.44765625 -29.34765625 56.53125 C-29.33412109 55.6340625 -29.32058594 54.736875 -29.30664062 53.8125 C-29.2712255 51.59315211 -29.22184086 49.37499812 -29.16015625 47.15625 C-26.10107727 48.34177542 -23.1815251 49.61792961 -20.28515625 51.15625 C-12.86370711 54.8739105 -5.16330829 56.7899323 2.90234375 54.15625 C3.86140625 53.66125 3.86140625 53.66125 4.83984375 53.15625 C4.50984375 51.50625 4.17984375 49.85625 3.83984375 48.15625 C2.03 47.68445313 2.03 47.68445313 0.18359375 47.203125 C-1.43111057 46.77128547 -3.04568718 46.3389682 -4.66015625 45.90625 C-5.45164062 45.70128906 -6.243125 45.49632812 -7.05859375 45.28515625 C-13.84377591 43.44982009 -21.04236175 41.33423748 -25.59765625 35.65625 C-26.07074219 35.0890625 -26.54382813 34.521875 -27.03125 33.9375 C-29.9796335 29.28537933 -29.72696961 23.46513572 -29.16015625 18.15625 C-27.44744003 12.50917996 -24.26555111 8.20424693 -19.16015625 5.15625 C-12.84763424 2.06780948 -7.01198938 0.50719634 0 0 Z " fill="#000000" transform="translate(470.16015625,682.84375)"/>
<path d="M0 0 C7.59 0 15.18 0 23 0 C23 23.76 23 47.52 23 72 C35.21 72 47.42 72 60 72 C60 77.61 60 83.22 60 89 C40.2 89 20.4 89 0 89 C0 59.63 0 30.26 0 0 Z " fill="#000000" transform="translate(318,300)"/>
<path d="M0 0 C7.26 0 14.52 0 22 0 C22 30.36 22 60.72 22 92 C14.74 92 7.48 92 0 92 C0 61.64 0 31.28 0 0 Z " fill="#000000" transform="translate(583,660)"/>
<path d="M0 0 C6.93 0 13.86 0 21 0 C21.33 2.64 21.66 5.28 22 8 C22.50789062 7.59007812 23.01578125 7.18015625 23.5390625 6.7578125 C31.09109454 0.84629678 34.94563767 0 45 0 C45 6.93 45 13.86 45 21 C41.38671875 20.93489583 37.7734375 20.86979167 34.16015625 20.8046875 C29.14269388 20.9214846 29.14269388 20.9214846 21 23 C21 37.52 21 52.04 21 67 C14.07 67 7.14 67 0 67 C0 44.89 0 22.78 0 0 Z " fill="#000000" transform="translate(651,443)"/>
<path d="M0 0 C6.93 0 13.86 0 21 0 C21 22.11 21 44.22 21 67 C14.07 67 7.14 67 0 67 C0 44.89 0 22.78 0 0 Z " fill="#000000" transform="translate(409,685)"/>
<path d="M0 0 C7.59 0 15.18 0 23 0 C23 5.61 23 11.22 23 17 C15.41 17 7.82 17 0 17 C0 11.39 0 5.78 0 0 Z " fill="#000000" transform="translate(408,660)"/>
</svg>
